<svg viewBox="0 0 1366 768" xmlns="http://www.w3.org/2000/svg" xmlns:xlink="http://www.w3.org/1999/xlink"><linearGradient id="a" gradientUnits="userSpaceOnUse" x1="581.15" x2="88.02" y1="379.68" y2="379.68"><stop offset="0" stop-color="#4a1682"/><stop offset=".15" stop-color="#bb1351"/><stop offset=".25" stop-color="#e6374f"/><stop offset=".5" stop-color="#fc0"/><stop offset=".75" stop-color="#e6374f"/><stop offset=".85" stop-color="#bb1351"/><stop offset="1" stop-color="#4a1682"/></linearGradient><path d="m576.35 544.57-211.08-365.14c-6.82-11.8-18.75-17.45-30.69-17.73a35.12 35.12 0 0 0 -30.69 17.7l-211.08 365.14c-13.63 23.59 3.41 53.07 30.68 53.07l210.84-65.36.24.08.26-.08 210.83 65.37c27.28.03 44.34-29.46 30.69-53.05zm-157.3-100.11c-46.32 16-12.48 56.76-12.48 56.76h-72-72.2s33.83-40.77-12.49-56.76-23.24-48.46-23.24-48.46l107.94-121.89 107.72 122s23.07 32.36-23.25 48.35z" fill="url(#a)"/><g fill="#111"><path d="m760.64 397.05h-139.49l-30 66.88h-27.58l114.43-250.36h26.11l114.48 250.36h-27.9zm-9.64-21.46-60.1-134.48-60.09 134.48z"/><path d="m825.38 338.75c0-73.32 55.79-127.33 131.26-127.33 36.48 0 69.39 12.16 91.56 36.48l-16.81 16.81c-20.39-20.71-45.39-29.71-74.03-29.71-60.45 0-105.87 44.35-105.87 103.72s45.42 103.72 105.87 103.72c28.61 0 53.65-8.94 74-30l16.81 16.81c-22.17 24.32-55.08 36.84-91.92 36.84-75.08-.01-130.87-54.02-130.87-127.34z"/><path d="m1272.81 441v22.89h-177v-250.32h171.68v22.89h-145.26v89.06h129.48v22.53h-129.48v93z"/><path d="m652.24 527.9c0-14.52 11.08-25.32 25.82-25.32s25.94 10.8 25.94 25.32-11.09 25.32-25.9 25.32-25.86-10.8-25.86-25.32zm49.28 0c0-13.23-10.08-23.11-23.46-23.11s-23.39 9.88-23.39 23.11 10.09 23.1 23.39 23.1 23.46-9.87 23.46-23.1z"/><path d="m755.39 502.86v50.08h-2l-35.56-45.64v45.64h-2.43v-50.08h2l35.6 45.64v-45.64z"/><path d="m771.91 502.86h2.43v47.86h29.33v2.22h-31.76z"/><path d="m811.75 502.86h2.43v50.08h-2.43z"/><path d="m870.69 502.86v50.08h-2l-35.55-45.64v45.64h-2.43v-50.08h2l35.55 45.64v-45.64z"/><path d="m921.05 550.72v2.22h-33.83v-50.08h32.83v2.22h-30.4v21.32h27.18v2.21h-27.18v22.11z"/><path d="m944.44 527.9c0-14.52 11.09-25.32 25.82-25.32 6.8 0 13 2.21 17.39 6.65l-1.51 1.57c-4.43-4.29-9.87-6-15.8-6-13.38 0-23.47 10-23.47 23.11s10.13 23.09 23.47 23.09a21.84 21.84 0 0 0 15.8-6.08l1.51 1.58c-4.37 4.5-10.59 6.72-17.39 6.72-14.73 0-25.82-10.8-25.82-25.32z"/><path d="m1028.06 538.27h-30l-6.72 14.67h-2.65l23.18-50.08h2.36l23.17 50.08h-2.64zm-.93-2.07-14-30.55-14.13 30.55z"/><path d="m1040.15 546.28 1.29-1.71c3.22 3.64 9.58 6.51 16.52 6.51 10.52 0 15.17-4.8 15.17-10.59 0-16-31.55-6.51-31.55-25 0-6.72 5.15-12.87 17.1-12.87a25.59 25.59 0 0 1 14.8 4.57l-1.07 1.94a23.74 23.74 0 0 0 -13.66-4.37c-10.16 0-14.81 4.87-14.81 10.73 0 16.1 31.55 6.8 31.55 25 0 6.79-5.37 12.8-17.46 12.8-7.36-.07-14.37-2.93-17.88-7.01z"/><path d="m1086.79 502.86h2.43v50.08h-2.43z"/><path d="m1145.73 502.86v50.08h-2l-35.55-45.64v45.64h-2.44v-50.08h2l35.55 45.64v-45.64z"/><path d="m1157.17 527.9c0-14.52 11.09-25.32 25.83-25.32s25.89 10.8 25.89 25.32-11.09 25.32-25.89 25.32-25.83-10.8-25.83-25.32zm49.29 0c0-13.23-10.09-23.11-23.46-23.11s-23.39 9.88-23.39 23.11 10.08 23.1 23.39 23.1 23.46-9.87 23.46-23.1z"/></g></svg>