<svg xmlns="http://www.w3.org/2000/svg" viewBox="0 0 669.35 821.69">
  <title>Angular Camp</title>
  <defs>
    <style>
      .cls-1 {
        fill: #18D4D5;
      }
      <!-- @keyframes animaCursor{
        0%{
          opacity: 0;
        }
        50%{
          opacity: 0;
        }
        51%{
          opacity: 1;
        }
      }
      .cursor{
        animation: animaCursor .8s linear infinite alternate;
      } -->
      .path-1 {
        stroke-dasharray: 1500;
        stroke-dashoffset: 1500;
        animation: dash 1.5s ease-out forwards;
      }
      .path-2 {
        stroke-dasharray: 800;
        stroke-dashoffset: 800;
        animation: dash .8s ease-out 1.5s forwards;
      }
      .path-3 {
        stroke-dasharray: 400;
        stroke-dashoffset: 400;
        animation: dash .5s ease-out 2s forwards;
      }

      @keyframes dash {
        to {
          stroke-dashoffset: 0;
        }
      }

      @supports (-ms-ime-align:auto) {
        .path-1,
        .path-2,
        .path-3{
        stroke-dashoffset: 0;
        }
      }

    </style>
    <mask id="clip-logo">
      <g fill="white">
        <rect y="663.94" width="90.68" height="17.75" class="cursor" />
        <path d="M163.51,635a1.77,1.77,0,0,1-.82-1.73v-40.8c0-10.2-2.65-17.8-7.87-22.58s-13.08-7.12-23.53-7.12H104.14v17.75H133c3.54,0,6.18.76,7.85,2.25s2.4,3.51,2.4,6.3v6H124.66c-17.87,0-27.32,10-27.32,28.85v3.4c0,9.1,2.26,15.7,6.71,19.64s11.11,5.81,20.44,5.81h15.13a14.79,14.79,0,0,0,10.4-3.92,15.94,15.94,0,0,0,3.33,2.28,13.14,13.14,0,0,0,6,1.64h11.85v-16.9h-2.5C165.34,635.89,164,635.35,163.51,635Zm-46.72-14.48a7.39,7.39,0,0,1,7.7-7.7h18.75V629a9.89,9.89,0,0,1-1,4.88c-.15.26-.9,1.12-4.29,1.12H122.79c-2.25,0-3.82-.44-4.69-1.31s-1.31-2.45-1.31-4.69Z"/>
        <path d="M224.94,562.79h-7.82A26.67,26.67,0,0,0,206,565v-2.18h-18.6v90h19.45v-65.4a6.86,6.86,0,0,1,2.06-4.69c1.31-1.43,3.49-2.16,6.48-2.16h11.22a7.8,7.8,0,0,1,8.55,8.55v63.7h19.45v-60.3c0-10.18-2.52-17.76-7.48-22.54S234.75,562.79,224.94,562.79Z"/>
        <path d="M343.25,654.2c0-8.45-2.62-14.9-7.79-19.18s-12.8-6.27-23.1-6.27H301.6v-2.31h11.1c8.38,0,15.21-2.69,20.33-8s7.67-12.58,7.67-21.71v-34H302.5c-10.46,0-18.38,2.39-23.53,7.12s-7.87,12.38-7.87,22.58v4.25c0,6.47,1,11.86,3,16a21.54,21.54,0,0,0,8.09,9.21V646.5h31.91c3.51,0,6.09.6,7.68,1.79a4.88,4.88,0,0,1,2.06,4.21v5.44a4.94,4.94,0,0,1-2.09,4.15c-1.58,1.23-4.16,1.85-7.65,1.85H274.5v17.75h37.86c10.3,0,18.07-2.11,23.1-6.27s7.79-10.73,7.79-19.18Zm-52.7-65.11c0-2.79.78-4.85,2.4-6.3s4.31-2.25,7.85-2.25h20.45v20a10.8,10.8,0,0,1-2.51,5.7c-1.33,1.66-3.3,2.46-6,2.46H300.8c-3.54,0-6.18-.76-7.85-2.25s-2.4-3.5-2.4-6.3Z"/>
        <path d="M424.1,652.79v-90H404.65v65.78a7.63,7.63,0,0,1-2.27,4.51c-1.26,1.3-3.37,2-6.28,2h-9.18a7.8,7.8,0,0,1-8.55-8.55v-63.7H358.92v60.3c0,10.19,2.52,17.77,7.48,22.54s12.41,7.16,22.22,7.16h5.78a27.51,27.51,0,0,0,11.1-2.16v2.16Z"/>
        <path d="M453.55,633.29c0,6.58,1.72,11.54,5.12,14.74a16.78,16.78,0,0,0,11.83,4.76h31.06V635H476.45c-2.18,0-2.83-.47-2.95-.58a2.93,2.93,0,0,1-.5-2V528.79H428.56v17.75h25Z"/>
        <path d="M582.32,635a1.77,1.77,0,0,1-.82-1.73v-40.8c0-10.2-2.65-17.8-7.87-22.58s-13.08-7.12-23.53-7.12H522.95v17.75H551.8c3.54,0,6.18.76,7.85,2.25s2.4,3.51,2.4,6.3v6H543.47c-17.87,0-27.32,10-27.32,28.85v3.4c0,9.1,2.26,15.7,6.71,19.64s11.11,5.81,20.44,5.81h15.13a14.79,14.79,0,0,0,10.4-3.92,15.94,15.94,0,0,0,3.33,2.28,13.14,13.14,0,0,0,6,1.64H590v-16.9h-2.5C584.15,635.89,582.82,635.35,582.32,635ZM535.6,620.54a7.39,7.39,0,0,1,7.7-7.7H562V629a9.89,9.89,0,0,1-1,4.88c-.15.26-.9,1.12-4.29,1.12H541.6c-2.25,0-3.82-.44-4.69-1.31s-1.31-2.45-1.31-4.69Z"/>
        <path d="M641.45,583.91c1.33-1.7,3.35-2.52,6.19-2.52h21.71v-18.6h-20a24.36,24.36,0,0,0-11.1,2.5v-2.5h-31v17.75h12.41V635H607.23v17.75h50.39V635H639.09V589.49A9.93,9.93,0,0,1,641.45,583.91Z"/>
        <path d="M189.78,709.91c-5.22,4.78-7.87,12.38-7.87,22.58v30.6c0,10.32,2.62,17.95,7.78,22.67s13,7,23.62,7h24.43V775H211.61c-3.54,0-6.18-.76-7.85-2.25s-2.4-3.5-2.4-6.3v-37.4c0-2.79.78-4.85,2.4-6.3s4.31-2.25,7.85-2.25h26.13V702.79H213.31C202.86,702.79,194.94,705.19,189.78,709.91Z"/>
        <path d="M322.41,775a1.77,1.77,0,0,1-.82-1.73v-40.8c0-10.2-2.65-17.8-7.87-22.58s-13.08-7.12-23.53-7.12H263v17.75h28.85c3.54,0,6.18.76,7.85,2.25s2.4,3.51,2.4,6.3v6H283.56c-17.87,0-27.32,10-27.32,28.85v3.4c0,9.1,2.26,15.7,6.71,19.64s11.11,5.81,20.44,5.81h15.13a14.79,14.79,0,0,0,10.4-3.92,15.94,15.94,0,0,0,3.33,2.28,13.14,13.14,0,0,0,6,1.64h11.85v-16.9h-2.5C324.24,775.89,322.91,775.35,322.41,775Zm-46.72-14.48a7.39,7.39,0,0,1,7.7-7.7h18.75V769a9.89,9.89,0,0,1-1,4.88c-.15.26-.9,1.12-4.29,1.12H281.69c-2.25,0-3.82-.44-4.69-1.31s-1.31-2.45-1.31-4.69Z"/>
        <path d="M402.4,702.79h-1a20.75,20.75,0,0,0-14.73,5.58c-3.86-3.7-9.52-5.58-16.89-5.58h-1a18.35,18.35,0,0,0-8,1.76v-1.76H343v90h18.6V726.43a10.08,10.08,0,0,1,1.77-5.36c.32-.47,1.3-1.89,5.08-1.89h1c3.06,0,3.78,1.12,4,1.49.49.76,1.3,2.85,1.3,8.42v63.7h18.6V728a14.54,14.54,0,0,1,1.81-6.61c.53-.95,1.61-2.21,4.87-2.21h1c1.64,0,3.72.24,4.34,1.39.43.81,1.15,3,1.15,8.52v63.7h18.6V729.26c0-9.7-1.83-16.37-5.61-20.41S410,702.79,402.4,702.79Z"/>
        <path d="M499.88,709.82c-5.1-4.66-13-7-23.62-7h-6.12A26.67,26.67,0,0,0,459,705v-2.18h-18.6v118.9H459.9v-28.9h16.37c10.46,0,18.38-2.39,23.53-7.12s7.87-12.38,7.87-22.58v-30.6C507.67,722.17,505,714.55,499.88,709.82Zm-40,17.57A6.86,6.86,0,0,1,462,722.7c1.31-1.43,3.49-2.16,6.48-2.16H478c3.54,0,6.18.76,7.85,2.25s2.4,3.51,2.4,6.3v37.4c0,2.79-.78,4.85-2.4,6.3S481.51,775,478,775H459.9Z"/>
        <!-- <path d="M560.6,478.32,353.53,119.67,416.85,10,399.53,0,342,99.67,284.44,0,267.12,10l63.32,109.67L123.37,478.32Zm-160.41-20H283.79L342,357.52Zm-139.49,0H158L279.1,248.6l51.34,88.92Zm265.26,0H423.28L290.65,228.6,342,139.67Z"/> -->
        <polyline class="path-1" fill="transparent" points="410,0 140,470 540,470 275,0" stroke-width="18" stroke="white" stroke-linecap="square"></polyline>
        <polyline class="path-2" fill="transparent" points="280,235 420,470" stroke-width="18" stroke="white" ></polyline>
        <polyline class="path-3" fill="transparent" points="345,335 265,470" stroke-width="18" stroke="white" ></polyline>
      </g>
    </mask>
    <linearGradient id='logo-gradient' x1='0' x2='100%' y1='100%' y2='0'> <stop offset='0' stop-color='#EE0CF6'></stop> <stop offset='100%' stop-color='#18D4D5'></stop> </linearGradient>
  </defs>

  <rect mask="url(#clip-logo)" fill="url(#logo-gradient)" x="0" y="0" width="100%" height="100%" />

</svg>
