<svg width="1040" height="460" viewBox="0 0 1040 460" fill="none" xmlns="http://www.w3.org/2000/svg">
<path d="M730.356 287.811C706.615 287.811 689.566 270.125 689.566 245.747C689.566 221.528 706.615 204.002 729.718 204.002C752.822 204.002 770.03 221.528 770.03 245.747C770.03 247.021 769.87 248.933 769.711 250.527H707.89C709.642 263.592 718.884 272.674 730.993 272.674C739.597 272.674 747.564 268.053 751.547 261.202L765.887 270.443C758.717 280.8 744.855 287.811 730.356 287.811ZM708.686 236.984H750.91C748.042 226.308 739.916 219.138 729.718 219.138C719.521 219.138 711.554 226.308 708.686 236.984Z" fill="black"/>
<path d="M654.299 287.542V206.091H672.776V291.909C672.776 303.163 670.593 311.394 666.057 316.265C660.85 322.144 653.627 325 644.389 325L639.349 308.371C644.893 308.371 648.756 306.859 650.94 303.835C653.123 300.644 654.299 295.269 654.299 287.542Z" fill="black"/>
<path d="M675.11 175.675C675.11 182.086 669.913 187.283 663.501 187.283C657.09 187.283 651.893 182.086 651.893 175.675C651.893 169.263 657.09 164.066 663.501 164.066C669.913 164.066 675.11 169.263 675.11 175.675Z" fill="black"/>
<path d="M792.212 175.67H810.694V206.073H826.787V221.21H810.694V285.739H792.212V221.21H779.199V206.073H792.212V175.67Z" fill="black"/>
<path fill-rule="evenodd" clip-rule="evenodd" d="M398.096 285.739L413.04 255.488H469.848L484.609 285.739H503.885L441.442 158L379 285.739H398.096ZM420.782 239.667L441.442 197.567L462.103 239.667H420.782Z" fill="black"/>
<path d="M636.593 233.276C630.81 225.902 623.827 219.923 610.786 219.923C597.242 219.923 587.364 230.769 587.364 245.906C587.364 260.883 597.242 271.877 610.786 271.877C623.827 271.877 630.81 265.76 636.593 258.402V279.361C629.646 284.683 620.798 287.811 610.786 287.811C586.726 287.811 569.359 270.125 569.359 245.906C569.359 221.528 586.726 204.002 610.786 204.002C620.764 204.002 629.658 207.036 636.593 212.326V233.276Z" fill="black"/>
<path d="M533.051 285.739H514.615V206.112H533.051V213.741C536.603 209.762 539.559 207.436 541.96 206.304C544.803 204.965 547.943 204.101 551.63 204.101C555.318 204.101 561.544 205.609 566.74 208.794L558.36 225.554C554.84 223.04 551.488 221.867 548.136 221.867C538.08 221.867 533.051 229.409 533.051 244.493V285.739Z" fill="black"/>
<path d="M285.264 229.052C297.877 232.275 308.302 234.858 330 239.67C308.302 244.482 297.877 247.065 285.264 250.288C281.02 251.373 277.702 254.69 276.618 258.934C273.395 271.543 270.811 281.973 266 303.67C261.189 281.973 258.605 271.543 255.382 258.934C254.298 254.69 250.98 251.373 246.736 250.288C234.123 247.065 223.698 244.482 202 239.67C223.698 234.858 234.123 232.275 246.736 229.052C250.98 227.967 254.298 224.65 255.382 220.406C258.605 207.797 261.189 197.367 266 175.67C270.811 197.367 273.395 207.797 276.618 220.406C277.702 224.65 281.02 227.967 285.264 229.052Z" fill="black"/>
<path fill-rule="evenodd" clip-rule="evenodd" d="M174.499 236.17L178 239.671L174.499 243.172C142.262 240.804 111.891 240.469 62.9569 239.93C55.7313 239.85 48.1009 239.766 40 239.671C47.979 239.577 55.5015 239.494 62.6304 239.415C111.756 238.874 142.19 238.538 174.499 236.17Z" fill="black"/>
<path fill-rule="evenodd" clip-rule="evenodd" d="M956 230C956 309.642 883.002 375.735 804.49 375.75H804.436C804.041 375.75 803.646 375.748 803.251 375.745C883.17 375.073 947.75 310.078 947.75 230C947.75 149.922 883.17 84.9266 803.25 84.2553C803.641 84.2519 804.031 84.2501 804.422 84.25H804.504C883.011 84.2731 956 150.363 956 230Z" fill="black"/>
</svg>
