<?xml version="1.0" encoding="utf-8"?>
<!-- Generator: Adobe Illustrator 19.2.0, SVG Export Plug-In . SVG Version: 6.00 Build 0)  -->
<svg version="1.1" id="Layer_1" xmlns="http://www.w3.org/2000/svg" xmlns:xlink="http://www.w3.org/1999/xlink" x="0px" y="0px"
	 viewBox="0 0 146.1 151.1" style="enable-background:new 0 0 146.1 151.1;" xml:space="preserve">
<style type="text/css">
	.st0{fill:#191818;}
	.st1{enable-background:new    ;}
	.st2{fill:#0A0099;}
	.st3{fill:#FFFFFF;}
	.st4{fill:#FFCD69;}
</style>
<g>
	<path class="st0" d="M132.8,111.9l0.5-3.9h-2.1l0.1-1h5.4l-0.1,1h-2.1l-0.6,3.9H132.8z M144.3,111.9l0.3-2.2
		c0.1-0.7,0.2-1.2,0.2-1.6c-0.2,0.3-0.5,0.7-1,1.3l-1.8,2.5h-1.2l-1.1-2.4c-0.2-0.6-0.4-0.9-0.6-1.3c-0.1,0.5-0.1,0.9-0.2,1.6
		l-0.3,2.2h-1.1l0.7-4.9h1.7l1.6,3.9l2.8-3.9h1.6l-0.7,4.9H144.3z"/>
</g>
<g>
	<polygon class="st0" points="37.7,133.9 39.2,122.7 18.6,122.7 17,133.9 10.3,133.9 14.1,107.3 20.7,107.3 19.3,117.5 40,117.5 
		41.4,107.3 48.1,107.3 44.3,133.9 	"/>
</g>
<g>
	<polygon class="st0" points="51.2,133.9 55,107.3 83.4,107.3 82.6,112.8 60.4,112.8 59.8,117.4 81.6,117.4 80.9,122.4 59,122.4 
		58.2,128.6 80.6,128.6 79.8,133.9 	"/>
</g>
<g>
	<polygon class="st0" points="115.5,133.9 106.3,123.6 94.4,133.9 85.8,133.9 102.8,119.9 90.2,107.1 98.7,107.1 107.2,116.4 
		118.8,107.1 127.1,107.1 111.1,120 123.9,133.9 	"/>
</g>
<g class="st1">
	<path d="M7.5,147.7H3l-1,1.4H0.2l4.7-6.8h2.2l2.7,6.8H8.1L7.5,147.7z M7,146.5c-0.2-0.5-0.4-0.9-0.5-1.3c-0.1-0.3-0.2-0.6-0.3-0.9
		c-0.1-0.2-0.2-0.4-0.2-0.6s-0.1-0.3-0.1-0.4c-0.1,0.1-0.2,0.3-0.3,0.4c-0.1,0.1-0.2,0.3-0.4,0.6s-0.3,0.5-0.6,0.9
		c-0.2,0.3-0.5,0.8-0.9,1.3H7z"/>
	<path d="M12.8,144.3l-0.5,3.2c0,0,0,0.1,0,0.1c0,0.1,0,0.1,0.1,0.2c0,0.1,0.1,0.1,0.2,0.1c0.1,0,0.3,0.1,0.5,0.1c0.2,0,0.5,0,0.9,0
		c0.3,0,0.5,0,0.7,0s0.4-0.1,0.5-0.1c0.1-0.1,0.3-0.1,0.4-0.2c0.1-0.1,0.2-0.2,0.3-0.3l0.4-3.1h1.5l-0.7,4.8h-1.4l0.1-0.6
		c-0.1,0.1-0.2,0.2-0.3,0.3c-0.1,0.1-0.3,0.2-0.5,0.2c-0.2,0.1-0.4,0.1-0.7,0.2s-0.6,0.1-1,0.1c-0.5,0-1,0-1.3-0.1
		c-0.3,0-0.6-0.1-0.8-0.2c-0.2-0.1-0.3-0.2-0.4-0.3c-0.1-0.1-0.1-0.3-0.1-0.4c0-0.1,0-0.2,0-0.3l0.5-3.6H12.8z"/>
	<path d="M21.6,147.2c-0.4,0-0.8,0-1-0.1c-0.3,0-0.5,0-0.7-0.1c-0.2,0-0.3,0-0.4-0.1c-0.1,0-0.2-0.1-0.3-0.1
		c-0.2-0.1-0.3-0.2-0.4-0.3s-0.1-0.3-0.1-0.5c0-0.1,0-0.2,0-0.4c0-0.3,0.1-0.5,0.2-0.7s0.3-0.3,0.5-0.5s0.6-0.2,1-0.3
		c0.4-0.1,1-0.1,1.7-0.1c0.5,0,1,0,1.3,0c0.4,0,0.6,0.1,0.8,0.1c0.2,0.1,0.4,0.2,0.4,0.3c0.1,0.1,0.1,0.3,0.1,0.5
		c0,0.2,0,0.4-0.1,0.5h-1.4c0-0.1,0-0.2,0-0.2c0-0.1,0-0.1-0.1-0.1c0,0-0.1-0.1-0.2-0.1c-0.1,0-0.3,0-0.5,0c-0.2,0-0.5,0-0.8,0
		c-0.3,0-0.5,0-0.7,0c-0.2,0-0.3,0-0.4,0c-0.1,0-0.2,0-0.3,0.1c-0.1,0-0.1,0.1-0.2,0.1c0,0-0.1,0.1-0.1,0.2c0,0.1,0,0.1,0,0.2
		c0,0.1,0,0.1,0.1,0.2s0.1,0.1,0.2,0.1c0.1,0,0.3,0,0.5,0.1c0.2,0,0.5,0,0.8,0c0.4,0,0.8,0,1,0c0.3,0,0.5,0,0.7,0
		c0.2,0,0.3,0,0.4,0.1c0.1,0,0.2,0.1,0.3,0.1c0.2,0.1,0.3,0.2,0.4,0.3c0.1,0.1,0.1,0.3,0.1,0.5c0,0.1,0,0.2,0,0.4
		c0,0.3-0.1,0.6-0.2,0.8c-0.1,0.2-0.3,0.4-0.5,0.5c-0.2,0.1-0.6,0.2-0.9,0.2s-0.9,0.1-1.5,0.1c-0.6,0-1.1,0-1.5-0.1
		s-0.7-0.1-0.9-0.2s-0.4-0.2-0.5-0.3c-0.1-0.1-0.1-0.3-0.1-0.5c0-0.1,0-0.2,0-0.2c0-0.1,0-0.2,0.1-0.3H20c0,0,0,0.1,0,0.1
		s0,0.1,0,0.1c0,0.1,0,0.1,0,0.1c0,0,0.1,0.1,0.1,0.1c0.1,0,0.2,0,0.3,0.1c0.1,0,0.3,0,0.5,0c0.2,0,0.4,0,0.7,0c0.3,0,0.5,0,0.7,0
		c0.2,0,0.3,0,0.4,0c0.1,0,0.2,0,0.3-0.1c0.1,0,0.1-0.1,0.2-0.1c0,0,0.1-0.1,0.1-0.2c0-0.1,0-0.1,0-0.2c0-0.1,0-0.1-0.1-0.2
		s-0.1-0.1-0.2-0.1c-0.1,0-0.3-0.1-0.5-0.1C22.2,147.2,22,147.2,21.6,147.2z"/>
	<path d="M28.7,147.2c-0.4,0-0.8,0-1-0.1c-0.3,0-0.5,0-0.7-0.1c-0.2,0-0.3,0-0.4-0.1c-0.1,0-0.2-0.1-0.3-0.1
		c-0.2-0.1-0.3-0.2-0.4-0.3s-0.1-0.3-0.1-0.5c0-0.1,0-0.2,0-0.4c0-0.3,0.1-0.5,0.2-0.7s0.3-0.3,0.5-0.5s0.6-0.2,1-0.3
		c0.4-0.1,1-0.1,1.7-0.1c0.5,0,1,0,1.3,0c0.4,0,0.6,0.1,0.8,0.1c0.2,0.1,0.4,0.2,0.4,0.3c0.1,0.1,0.1,0.3,0.1,0.5
		c0,0.2,0,0.4-0.1,0.5h-1.4c0-0.1,0-0.2,0-0.2c0-0.1,0-0.1-0.1-0.1c0,0-0.1-0.1-0.2-0.1c-0.1,0-0.3,0-0.5,0c-0.2,0-0.5,0-0.8,0
		c-0.3,0-0.5,0-0.7,0c-0.2,0-0.3,0-0.4,0c-0.1,0-0.2,0-0.3,0.1c-0.1,0-0.1,0.1-0.2,0.1c0,0-0.1,0.1-0.1,0.2c0,0.1,0,0.1,0,0.2
		c0,0.1,0,0.1,0.1,0.2s0.1,0.1,0.2,0.1c0.1,0,0.3,0,0.5,0.1c0.2,0,0.5,0,0.8,0c0.4,0,0.8,0,1,0c0.3,0,0.5,0,0.7,0
		c0.2,0,0.3,0,0.4,0.1c0.1,0,0.2,0.1,0.3,0.1c0.2,0.1,0.3,0.2,0.4,0.3c0.1,0.1,0.1,0.3,0.1,0.5c0,0.1,0,0.2,0,0.4
		c0,0.3-0.1,0.6-0.2,0.8c-0.1,0.2-0.3,0.4-0.5,0.5c-0.2,0.1-0.6,0.2-0.9,0.2s-0.9,0.1-1.5,0.1c-0.6,0-1.1,0-1.5-0.1
		s-0.7-0.1-0.9-0.2s-0.4-0.2-0.5-0.3c-0.1-0.1-0.1-0.3-0.1-0.5c0-0.1,0-0.2,0-0.2c0-0.1,0-0.2,0.1-0.3h1.5c0,0,0,0.1,0,0.1
		s0,0.1,0,0.1c0,0.1,0,0.1,0,0.1c0,0,0.1,0.1,0.1,0.1c0.1,0,0.2,0,0.3,0.1c0.1,0,0.3,0,0.5,0c0.2,0,0.4,0,0.7,0c0.3,0,0.5,0,0.7,0
		c0.2,0,0.3,0,0.4,0c0.1,0,0.2,0,0.3-0.1c0.1,0,0.1-0.1,0.2-0.1c0,0,0.1-0.1,0.1-0.2c0-0.1,0-0.1,0-0.2c0-0.1,0-0.1-0.1-0.2
		s-0.1-0.1-0.2-0.1c-0.1,0-0.3-0.1-0.5-0.1C29.3,147.2,29,147.2,28.7,147.2z"/>
	<path d="M32.6,149.1l0.7-4.8h1.5l-0.7,4.8H32.6z M33.4,143.5l0.2-1.3h1.5l-0.2,1.3H33.4z"/>
	<path d="M37.2,147c0,0.1,0,0.3,0,0.4c0,0.1,0,0.3,0.1,0.3c0,0.1,0.1,0.2,0.3,0.2c0.1,0,0.3,0.1,0.5,0.1c0.2,0,0.5,0,0.9,0
		c0.4,0,0.7,0,1,0c0.2,0,0.4-0.1,0.6-0.1s0.2-0.1,0.3-0.2c0-0.1,0.1-0.1,0.1-0.2h1.5c0,0.2-0.1,0.3-0.2,0.5
		c-0.1,0.1-0.1,0.3-0.2,0.4s-0.2,0.2-0.4,0.3c-0.2,0.1-0.4,0.2-0.6,0.2c-0.2,0.1-0.5,0.1-0.9,0.1c-0.3,0-0.8,0-1.2,0
		c-0.6,0-1.1,0-1.5-0.1c-0.4-0.1-0.7-0.2-1-0.3c-0.2-0.1-0.4-0.3-0.5-0.5s-0.2-0.5-0.2-0.8c0-0.1,0-0.2,0-0.4c0-0.1,0-0.3,0.1-0.4
		c0.1-0.5,0.2-1,0.3-1.3c0.2-0.3,0.4-0.6,0.7-0.7c0.3-0.2,0.7-0.3,1.1-0.3s1-0.1,1.6-0.1c0.6,0,1.1,0,1.5,0.1
		c0.4,0.1,0.7,0.1,0.9,0.3s0.4,0.3,0.5,0.5c0.1,0.2,0.1,0.4,0.1,0.7c0,0.1,0,0.3,0,0.4c0,0.2-0.1,0.4-0.1,0.8H37.2z M39.3,145.3
		c-0.4,0-0.8,0-1,0c-0.2,0-0.4,0.1-0.6,0.1c-0.1,0.1-0.2,0.2-0.3,0.3c0,0.1-0.1,0.3-0.1,0.4H41c0-0.1,0-0.1,0-0.1s0-0.1,0-0.1
		c0-0.1,0-0.2-0.1-0.3s-0.1-0.1-0.3-0.2s-0.3-0.1-0.5-0.1C39.9,145.3,39.6,145.3,39.3,145.3z"/>
	<path d="M47.6,147.9c0.6,0,1,0,1.4-0.1c0.3,0,0.6-0.1,0.8-0.2c0.2-0.1,0.3-0.2,0.4-0.4c0.1-0.2,0.1-0.3,0.2-0.6h1.6
		c0,0.3-0.1,0.6-0.2,0.8c-0.1,0.2-0.2,0.5-0.3,0.6c-0.1,0.2-0.3,0.3-0.5,0.5c-0.2,0.1-0.5,0.2-0.8,0.3c-0.3,0.1-0.7,0.1-1.2,0.2
		c-0.5,0-1,0.1-1.6,0.1c-0.8,0-1.4,0-2-0.1c-0.5-0.1-0.9-0.2-1.2-0.3c-0.3-0.2-0.5-0.4-0.6-0.6c-0.1-0.3-0.2-0.6-0.2-1
		c0-0.2,0-0.4,0-0.6c0-0.2,0.1-0.5,0.1-0.8c0.1-0.5,0.1-0.9,0.2-1.2c0.1-0.4,0.2-0.7,0.3-0.9c0.1-0.3,0.3-0.5,0.5-0.6
		c0.2-0.2,0.5-0.3,0.8-0.4c0.3-0.1,0.7-0.2,1.2-0.2c0.5,0,1-0.1,1.7-0.1c0.8,0,1.5,0,2,0.1c0.5,0.1,0.9,0.2,1.2,0.3
		c0.3,0.1,0.5,0.3,0.6,0.5c0.1,0.2,0.1,0.5,0.1,0.8c0,0.1,0,0.2,0,0.3c0,0.1,0,0.2,0,0.4h-1.6c0-0.2,0-0.4,0-0.5
		c0-0.1-0.1-0.2-0.3-0.3s-0.4-0.1-0.7-0.2c-0.3,0-0.8-0.1-1.4-0.1c-0.6,0-1.2,0-1.5,0.1c-0.4,0.1-0.6,0.2-0.8,0.3
		c-0.2,0.2-0.3,0.4-0.4,0.7s-0.1,0.7-0.2,1.1c0,0.2-0.1,0.4-0.1,0.6c0,0.2,0,0.3,0,0.5c0,0.2,0,0.4,0.1,0.6c0.1,0.1,0.2,0.3,0.4,0.3
		s0.4,0.1,0.7,0.2S47.1,147.9,47.6,147.9z"/>
	<path d="M53.3,145.7c0.1-0.3,0.2-0.6,0.3-0.8c0.1-0.2,0.3-0.3,0.6-0.4c0.3-0.1,0.6-0.2,1-0.2c0.4,0,1,0,1.7,0c0.6,0,1.1,0,1.4,0
		c0.4,0,0.7,0.1,0.9,0.1s0.4,0.2,0.5,0.3c0.1,0.1,0.1,0.3,0.1,0.5c0,0.1,0,0.2,0,0.3c0,0.1,0,0.2,0,0.3l-0.3,2.3
		c0,0.2,0,0.3-0.1,0.4c0,0.1,0,0.2,0,0.3c0,0.1,0,0.2,0,0.2h-1.5c0-0.1-0.1-0.2-0.1-0.3c0,0,0,0,0-0.1c0,0,0,0,0-0.1
		c-0.1,0-0.1,0.1-0.2,0.2c-0.1,0.1-0.2,0.1-0.4,0.2s-0.4,0.1-0.7,0.1s-0.7,0.1-1.1,0.1c-0.5,0-0.9,0-1.3,0c-0.3,0-0.6-0.1-0.8-0.2
		s-0.3-0.2-0.4-0.3c-0.1-0.1-0.1-0.3-0.1-0.5c0-0.1,0-0.2,0-0.3c0-0.1,0-0.2,0-0.3c0-0.3,0.1-0.5,0.2-0.7c0.1-0.2,0.3-0.3,0.5-0.5
		c0.2-0.1,0.5-0.2,0.9-0.2c0.4,0,0.9-0.1,1.5-0.1c0.6,0,1.1,0,1.4,0.1s0.6,0.1,0.7,0.1c0-0.1,0-0.3,0.1-0.3c0-0.1,0-0.1,0-0.2
		c0,0,0-0.1,0-0.1c0,0,0,0,0,0c0-0.1,0-0.1-0.1-0.2c0-0.1-0.1-0.1-0.2-0.1c-0.1,0-0.3-0.1-0.5-0.1c-0.2,0-0.5,0-0.8,0
		c-0.4,0-0.7,0-1,0s-0.4,0-0.5,0.1c-0.1,0-0.2,0.1-0.2,0.1c0,0.1-0.1,0.1-0.1,0.2H53.3z M57.9,147.1c0,0-0.1,0-0.2-0.1
		c-0.1,0-0.2,0-0.3,0c-0.1,0-0.3,0-0.5,0c-0.2,0-0.4,0-0.7,0c-0.5,0-0.8,0-1.1,0c-0.3,0-0.4,0.1-0.6,0.1c-0.1,0.1-0.2,0.1-0.2,0.2
		c0,0.1,0,0.2,0,0.4c0,0.1,0,0.1,0.1,0.2c0,0,0.1,0.1,0.2,0.1c0.1,0,0.3,0,0.5,0.1s0.5,0,0.8,0c0.6,0,1,0,1.3-0.1s0.5-0.1,0.6-0.2
		L57.9,147.1z"/>
	<path d="M63.6,147.2c-0.4,0-0.8,0-1-0.1c-0.3,0-0.5,0-0.7-0.1c-0.2,0-0.3,0-0.4-0.1c-0.1,0-0.2-0.1-0.3-0.1
		c-0.2-0.1-0.3-0.2-0.4-0.3s-0.1-0.3-0.1-0.5c0-0.1,0-0.2,0-0.4c0-0.3,0.1-0.5,0.2-0.7s0.3-0.3,0.5-0.5s0.6-0.2,1-0.3
		c0.4-0.1,1-0.1,1.7-0.1c0.5,0,1,0,1.3,0c0.4,0,0.6,0.1,0.8,0.1c0.2,0.1,0.4,0.2,0.4,0.3c0.1,0.1,0.1,0.3,0.1,0.5
		c0,0.2,0,0.4-0.1,0.5h-1.4c0-0.1,0-0.2,0-0.2c0-0.1,0-0.1-0.1-0.1c0,0-0.1-0.1-0.2-0.1c-0.1,0-0.3,0-0.5,0c-0.2,0-0.5,0-0.8,0
		c-0.3,0-0.5,0-0.7,0c-0.2,0-0.3,0-0.4,0c-0.1,0-0.2,0-0.3,0.1c-0.1,0-0.1,0.1-0.2,0.1c0,0-0.1,0.1-0.1,0.2c0,0.1,0,0.1,0,0.2
		c0,0.1,0,0.1,0.1,0.2s0.1,0.1,0.2,0.1c0.1,0,0.3,0,0.5,0.1c0.2,0,0.5,0,0.8,0c0.4,0,0.8,0,1,0c0.3,0,0.5,0,0.7,0
		c0.2,0,0.3,0,0.4,0.1c0.1,0,0.2,0.1,0.3,0.1c0.2,0.1,0.3,0.2,0.4,0.3c0.1,0.1,0.1,0.3,0.1,0.5c0,0.1,0,0.2,0,0.4
		c0,0.3-0.1,0.6-0.2,0.8c-0.1,0.2-0.3,0.4-0.5,0.5c-0.2,0.1-0.6,0.2-0.9,0.2s-0.9,0.1-1.5,0.1c-0.6,0-1.1,0-1.5-0.1
		s-0.7-0.1-0.9-0.2s-0.4-0.2-0.5-0.3c-0.1-0.1-0.1-0.3-0.1-0.5c0-0.1,0-0.2,0-0.2c0-0.1,0-0.2,0.1-0.3H62c0,0,0,0.1,0,0.1
		s0,0.1,0,0.1c0,0.1,0,0.1,0,0.1c0,0,0.1,0.1,0.1,0.1c0.1,0,0.2,0,0.3,0.1c0.1,0,0.3,0,0.5,0c0.2,0,0.4,0,0.7,0c0.3,0,0.5,0,0.7,0
		c0.2,0,0.3,0,0.4,0c0.1,0,0.2,0,0.3-0.1c0.1,0,0.1-0.1,0.2-0.1c0,0,0.1-0.1,0.1-0.2c0-0.1,0-0.1,0-0.2c0-0.1,0-0.1-0.1-0.2
		s-0.1-0.1-0.2-0.1c-0.1,0-0.3-0.1-0.5-0.1C64.2,147.2,63.9,147.2,63.6,147.2z"/>
	<path d="M67.5,149.1l0.7-4.8h1.5l-0.7,4.8H67.5z M68.3,143.5l0.2-1.3H70l-0.2,1.3H68.3z"/>
	<path d="M75.4,149.1l0.5-3.2c0,0,0-0.1,0-0.1c0-0.1,0-0.1-0.1-0.2c0,0-0.1-0.1-0.2-0.1s-0.3-0.1-0.5-0.1s-0.5,0-0.9,0
		c-0.3,0-0.5,0-0.7,0c-0.2,0-0.4,0.1-0.5,0.1c-0.1,0.1-0.3,0.1-0.4,0.2c-0.1,0.1-0.2,0.2-0.3,0.3l-0.4,3.1h-1.5l0.7-4.8h1.4
		l-0.1,0.6c0.1-0.1,0.2-0.2,0.3-0.3c0.1-0.1,0.3-0.2,0.5-0.2c0.2-0.1,0.4-0.1,0.7-0.2s0.6-0.1,1-0.1c0.5,0,1,0,1.3,0.1
		c0.3,0,0.6,0.1,0.8,0.2c0.2,0.1,0.3,0.2,0.4,0.3c0.1,0.1,0.1,0.3,0.1,0.4c0,0.1,0,0.2,0,0.4l-0.5,3.6H75.4z"/>
	<path d="M81.4,149.2c-0.6,0-1.2,0-1.6-0.1c-0.4-0.1-0.7-0.2-1-0.3s-0.4-0.3-0.5-0.5c-0.1-0.2-0.1-0.5-0.1-0.7c0-0.1,0-0.3,0-0.4
		c0-0.1,0-0.3,0.1-0.4c0-0.3,0.1-0.6,0.2-0.9s0.1-0.5,0.3-0.6c0.1-0.2,0.2-0.3,0.4-0.4c0.2-0.1,0.4-0.2,0.7-0.3
		c0.3-0.1,0.6-0.1,1-0.2s0.8,0,1.3,0c0.6,0,1.1,0,1.6,0.1c0.4,0,0.7,0.1,1,0.2c0.2,0.1,0.4,0.3,0.5,0.5c0.1,0.2,0.1,0.4,0.1,0.7
		c0,0.1,0,0.3,0,0.4s0,0.3-0.1,0.5c0,0.3-0.1,0.6-0.2,0.9c-0.1,0.3-0.1,0.5-0.3,0.7c-0.1,0.2-0.2,0.3-0.4,0.5s-0.4,0.2-0.6,0.3
		c-0.3,0.1-0.6,0.1-1,0.2C82.4,149.2,82,149.2,81.4,149.2z M81.6,148c0.4,0,0.8,0,1,0c0.2,0,0.4-0.1,0.6-0.2s0.2-0.2,0.3-0.3
		c0.1-0.1,0.1-0.3,0.1-0.6c0-0.3,0.1-0.5,0.1-0.6c0-0.1,0-0.2,0-0.3c0-0.1,0-0.3-0.1-0.3c0-0.1-0.1-0.2-0.3-0.2
		c-0.1,0-0.3-0.1-0.5-0.1c-0.2,0-0.5,0-0.9,0c-0.4,0-0.8,0-1,0c-0.3,0-0.5,0.1-0.6,0.2s-0.2,0.2-0.3,0.3c-0.1,0.1-0.1,0.4-0.1,0.6
		c0,0.1,0,0.3,0,0.3c0,0.1,0,0.2,0,0.2c0,0.1,0,0.1,0,0.2s0,0.1,0,0.1c0,0.1,0,0.3,0.1,0.4s0.1,0.2,0.3,0.2c0.1,0.1,0.3,0.1,0.5,0.1
		C81,148,81.2,148,81.6,148z"/>
	<path d="M93,149.1l0.4-2.9h-5.3l-0.4,2.9H86l1-6.8h1.7l-0.4,2.6h5.3l0.4-2.6h1.7l-1,6.8H93z"/>
	<path d="M95.9,149.1l1-6.8h7.3l-0.2,1.4h-5.7l-0.2,1.2h5.6l-0.2,1.3h-5.6l-0.2,1.6h5.7l-0.2,1.4H95.9z"/>
	<path d="M111.5,149.1l-2.3-2.6l-3,2.6h-2.2l4.3-3.6l-3.2-3.3h2.2l2.2,2.4l2.9-2.4h2.1l-4.1,3.3l3.3,3.5H111.5z"/>
	<path d="M114.4,149.1l0.2-1.4h1.5l-0.2,1.4H114.4z"/>
	<path d="M120.5,148c0.4,0,0.7,0,0.9,0c0.2,0,0.4-0.1,0.5-0.1c0.1-0.1,0.2-0.1,0.2-0.2c0-0.1,0.1-0.2,0.1-0.3h1.4
		c-0.1,0.3-0.1,0.6-0.2,0.8c-0.1,0.2-0.3,0.4-0.5,0.5s-0.6,0.2-1,0.3c-0.4,0.1-1,0.1-1.7,0.1c-0.6,0-1.1,0-1.5-0.1
		c-0.4,0-0.7-0.1-1-0.2c-0.2-0.1-0.4-0.3-0.5-0.5c-0.1-0.2-0.1-0.5-0.1-0.8c0-0.1,0-0.3,0-0.5c0-0.2,0-0.3,0.1-0.5
		c0-0.3,0.1-0.6,0.2-0.9c0.1-0.3,0.1-0.5,0.3-0.6c0.1-0.2,0.3-0.3,0.4-0.4c0.2-0.1,0.4-0.2,0.6-0.3c0.3-0.1,0.6-0.1,0.9-0.1
		c0.4,0,0.8,0,1.3,0c0.6,0,1.1,0,1.5,0.1c0.4,0,0.7,0.1,0.9,0.2c0.2,0.1,0.4,0.2,0.4,0.4c0.1,0.2,0.1,0.3,0.1,0.6c0,0.1,0,0.2,0,0.2
		c0,0.1,0,0.2,0,0.3h-1.4c0,0,0-0.1,0-0.1c0,0,0,0,0-0.1c0-0.1,0-0.2-0.1-0.2c0-0.1-0.1-0.1-0.2-0.1c-0.1,0-0.3-0.1-0.5-0.1
		c-0.2,0-0.5,0-0.8,0c-0.5,0-0.8,0-1.1,0c-0.3,0-0.4,0.1-0.6,0.2c-0.1,0.1-0.2,0.2-0.3,0.4c-0.1,0.2-0.1,0.4-0.1,0.7
		c0,0.2-0.1,0.5-0.1,0.6c0,0.2,0,0.3,0.1,0.4c0,0.1,0.1,0.2,0.3,0.2c0.1,0.1,0.3,0.1,0.5,0.1C119.9,148,120.2,148,120.5,148z"/>
	<path d="M127.9,149.2c-0.6,0-1.2,0-1.6-0.1c-0.4-0.1-0.7-0.2-1-0.3s-0.4-0.3-0.5-0.5s-0.1-0.5-0.1-0.7c0-0.1,0-0.3,0-0.4
		c0-0.1,0-0.3,0.1-0.4c0-0.3,0.1-0.6,0.2-0.9c0.1-0.2,0.1-0.5,0.3-0.6c0.1-0.2,0.2-0.3,0.4-0.4c0.2-0.1,0.4-0.2,0.7-0.3
		c0.3-0.1,0.6-0.1,1-0.2s0.8,0,1.3,0c0.6,0,1.1,0,1.6,0.1c0.4,0,0.7,0.1,1,0.2c0.2,0.1,0.4,0.3,0.5,0.5c0.1,0.2,0.1,0.4,0.1,0.7
		c0,0.1,0,0.3,0,0.4s0,0.3-0.1,0.5c0,0.3-0.1,0.6-0.2,0.9c-0.1,0.3-0.1,0.5-0.3,0.7c-0.1,0.2-0.2,0.3-0.4,0.5s-0.4,0.2-0.6,0.3
		s-0.6,0.1-1,0.2C128.9,149.2,128.4,149.2,127.9,149.2z M128.1,148c0.4,0,0.8,0,1,0c0.2,0,0.4-0.1,0.6-0.2c0.1-0.1,0.2-0.2,0.3-0.3
		c0.1-0.1,0.1-0.3,0.1-0.6c0-0.3,0.1-0.5,0.1-0.6c0-0.1,0-0.2,0-0.3c0-0.1,0-0.3-0.1-0.3c0-0.1-0.1-0.2-0.3-0.2
		c-0.1,0-0.3-0.1-0.5-0.1c-0.2,0-0.5,0-0.9,0c-0.4,0-0.8,0-1,0c-0.3,0-0.5,0.1-0.6,0.2c-0.1,0.1-0.2,0.2-0.3,0.3
		c-0.1,0.1-0.1,0.4-0.1,0.6c0,0.1,0,0.3,0,0.3s0,0.2,0,0.2c0,0.1,0,0.1,0,0.2s0,0.1,0,0.1c0,0.1,0,0.3,0.1,0.4
		c0,0.1,0.1,0.2,0.3,0.2c0.1,0.1,0.3,0.1,0.5,0.1C127.4,148,127.7,148,128.1,148z"/>
	<path d="M137,149.1l0.4-3.2c0,0,0-0.1,0-0.1c0-0.1,0-0.1,0-0.2c0,0-0.1-0.1-0.2-0.1s-0.2-0.1-0.4-0.1s-0.4,0-0.6,0
		c-0.2,0-0.5,0-0.6,0c-0.2,0-0.3,0.1-0.5,0.1c-0.1,0.1-0.3,0.1-0.4,0.2c-0.1,0.1-0.2,0.2-0.3,0.3l-0.4,3.1h-1.5l0.7-4.8h1.4
		l-0.1,0.6c0.1-0.1,0.2-0.2,0.3-0.3c0.1-0.1,0.3-0.2,0.5-0.2c0.2-0.1,0.4-0.1,0.7-0.2s0.6-0.1,0.9-0.1c0.4,0,0.7,0,0.9,0
		c0.3,0,0.5,0.1,0.6,0.1s0.3,0.1,0.4,0.2s0.1,0.2,0.2,0.3c0.1-0.1,0.2-0.2,0.3-0.2c0.1-0.1,0.3-0.1,0.4-0.2c0.2-0.1,0.4-0.1,0.6-0.1
		c0.2,0,0.5,0,0.9,0c0.4,0,0.8,0,1.1,0.1s0.5,0.1,0.7,0.2c0.2,0.1,0.3,0.2,0.3,0.3s0.1,0.3,0.1,0.4c0,0.1,0,0.2,0,0.4l-0.5,3.6h-1.5
		l0.5-3.2c0,0,0-0.1,0-0.1c0-0.1,0-0.1,0-0.2s-0.1-0.1-0.2-0.1c-0.1,0-0.2-0.1-0.4-0.1s-0.4,0-0.6,0c-0.2,0-0.4,0-0.6,0
		c-0.2,0-0.3,0.1-0.4,0.1s-0.2,0.1-0.3,0.2c-0.1,0.1-0.2,0.1-0.3,0.2l-0.4,3.2H137z"/>
</g>
<g>
	<path class="st2" d="M68.7,99.8c-2.7,0-5.5-0.7-7.8-2.1L31.8,80.9C27,78,24,72.9,24,67.3V33.7c0-5.6,3-10.8,7.8-13.5L60.9,3.3
		c4.8-2.8,10.8-2.8,15.7,0l29.1,16.8c4.8,2.8,7.8,8,7.8,13.6v33.6c0,5.6-3,10.8-7.8,13.6L76.5,97.7C74.2,99,71.5,99.8,68.7,99.8z"/>
</g>
<path class="st2" d="M68.4,98.6c-2.7,0-5.3-0.8-7.6-2.2L32.4,80.1c-4.8-2.7-7.7-7.8-7.7-13.3V34c0-5.5,3-10.5,7.7-13.3L60.7,4.3
	c4.7-2.8,10.6-2.8,15.3,0l28.5,16.4c4.7,2.7,7.6,7.8,7.6,13.3v32.9c0,5.5-2.9,10.5-7.6,13.3L76,96.5C73.7,97.9,71.1,98.6,68.4,98.6z
	"/>
<g id="Layer_2">
	<defs>
		<path id="SVGID_1_" d="M68.4,84.3c-1.9,0-3.8-0.5-5.5-1.5L43.4,71.5c-3.4-2-5.5-5.6-5.5-9.5V39.5c0-3.9,2.1-7.5,5.5-9.5l19.6-11.3
			c3.4-2,7.6-2,11,0L93.4,30c3.4,2,5.5,5.6,5.5,9.5V62c0,3.9-2.1,7.5-5.5,9.5L73.9,82.8C72.2,83.8,70.3,84.3,68.4,84.3z"/>
	</defs>
	<clipPath id="SVGID_2_">
		<use xlink:href="#SVGID_1_"  style="overflow:visible;"/>
	</clipPath>
</g>
<g id="Layer_1-2">
	<path class="st3" d="M23.7,59.7V41.4h2.2c1.4,0,2.5,1.1,2.5,2.5v13.2c0,1.3-1.1,2.5-2.4,2.5H23.7z"/>
	<path class="st3" d="M40,20.5c-0.9,0-1.7-0.5-2.2-1.2l-1.2-2.1l15.8-9.1l1.2,2.1c0.3,0.6,0.4,1.3,0.3,1.9c-0.2,0.7-0.6,1.2-1.2,1.5
		l-11.4,6.6C40.9,20.4,40.4,20.5,40,20.5L40,20.5z"/>
	<path class="st3" d="M94.6,19.3c-0.4,0-0.9-0.1-1.3-0.3L82,12.4c-0.6-0.3-1-0.9-1.2-1.5c-0.2-0.7-0.1-1.3,0.3-1.9l1.1-2L98,16
		l-1.2,2.1c-0.5,0.8-1.3,1.2-2.2,1.2H94.6z"/>
	<path class="st3" d="M110.8,59.7c-1.4,0-2.5-1.1-2.5-2.5V43.9c0-1.4,1.1-2.5,2.5-2.5l0,0h2.2v18.2H110.8z"/>
	<path class="st3" d="M36.8,83.8l1.1-1.9c0.7-1.2,2.2-1.6,3.4-0.9l11.5,6.6c0.6,0.3,1,0.9,1.2,1.5c0.2,0.6,0.1,1.3-0.3,1.9l-1.1,1.9
		L36.8,83.8z"/>
	<path class="st3" d="M81,92.3c-0.7-1.2-0.3-2.8,0.9-3.5l11.5-6.6c1.2-0.7,2.7-0.3,3.4,0.9c0,0,0,0,0,0.1l1.1,1.9l-15.7,9.1L81,92.3
		z"/>
	<path class="st0" d="M68.4,1.4c2.7,0,5.4,0.7,7.7,2.1l29.1,16.8c4.8,2.7,7.8,7.8,7.8,13.4v33.7c0,5.5-2.9,10.6-7.7,13.4L76.1,97.4
		c-4.8,2.8-10.6,2.8-15.4,0L31.5,80.6c-4.8-2.8-7.7-7.8-7.7-13.4V33.6c0-5.5,2.9-10.6,7.7-13.4L60.7,3.4C63,2.1,65.7,1.4,68.4,1.4
		 M68.4,0.9c-2.8,0-5.5,0.8-8,2.2L31.3,19.8c-4.9,2.9-7.9,8.1-8,13.8v33.7c0,5.7,3,10.9,8,13.8l29.1,16.7c4.9,2.8,11,2.8,15.9,0
		L105.5,81c4.9-2.8,8-8.1,8-13.8V33.6c0-5.7-3-10.9-8-13.8L76.4,3.1C73.9,1.6,71.2,0.9,68.4,0.9z"/>
	<path class="st0" d="M26,41.5c1.3,0,2.4,1.1,2.4,2.4v13.2c0,1.3-1.1,2.4-2.4,2.4c0,0,0,0,0,0h-2.2v-18H26 M26,41.3h-2.4v18.5H26
		c1.5,0,2.6-1.2,2.6-2.6c0,0,0,0,0,0V43.9C28.7,42.5,27.5,41.3,26,41.3C26,41.3,26,41.3,26,41.3z"/>
	<path class="st0" d="M52.3,8.2l1.1,2c0.7,1.1,0.3,2.6-0.8,3.2c0,0,0,0-0.1,0l-11.4,6.6c-0.4,0.2-0.8,0.3-1.2,0.3
		c-0.8,0-1.6-0.4-2.1-1.2l-1.2-2L52.3,8.2 M52.3,7.9h-0.2L36.6,17l-0.2,0.1l0.1,0.2l1.2,2c0.5,0.8,1.3,1.3,2.2,1.3
		c0.5,0,0.9-0.1,1.3-0.4l11.4-6.6c1.3-0.7,1.7-2.4,1-3.6c0,0,0,0,0,0l-1.1-2L52.3,7.9L52.3,7.9z"/>
	<path class="st0" d="M82.3,7l15.6,9l-1.2,2c-0.4,0.7-1.2,1.2-2.1,1.2c-0.4,0-0.8-0.1-1.2-0.3L82,12.2c-1.1-0.6-1.6-2.1-0.9-3.2
		c0,0,0,0,0,0L82.3,7 M82.3,6.7l-0.1,0.2l-1.1,2c-0.7,1.3-0.3,2.9,0.9,3.6c0,0,0,0,0,0l11.4,6.6c0.4,0.2,0.9,0.3,1.3,0.4
		c0.9,0,1.7-0.5,2.2-1.3l1.2-2l0.1-0.2L98,15.8l-15.6-9h-0.2L82.3,6.7z"/>
	<path class="st0" d="M113,41.5v18h-2.2c-1.3,0-2.4-1-2.4-2.4c0,0,0,0,0,0V43.9c0-1.3,1.1-2.4,2.4-2.4l0,0H113 M113.3,41.3h-2.4
		c-1.5,0-2.6,1.2-2.6,2.6v0v13.2c0,1.5,1.2,2.6,2.6,2.6l0,0h2.4L113.3,41.3L113.3,41.3z"/>
	<path class="st0" d="M40.1,80.7c0.4,0,0.8,0.1,1.2,0.3l11.4,6.6c1.1,0.7,1.5,2.1,0.8,3.3c0,0,0,0,0,0l-1,1.8l-15.6-9l1.2-1.8
		C38.5,81.2,39.3,80.7,40.1,80.7 M40.2,80.5c-0.9,0-1.7,0.5-2.2,1.3l-1.1,1.8l-0.1,0.2l0.2,0.1l15.6,9l0.2,0.1l0.1-0.2l1-1.8
		c0.4-0.6,0.5-1.3,0.3-2c-0.2-0.7-0.6-1.3-1.2-1.6l-11.5-6.6C41.2,80.6,40.7,80.5,40.2,80.5L40.2,80.5z"/>
	<path class="st0" d="M94.6,82c0.8,0,1.6,0.5,2,1.2l1.1,1.8l-15.5,9l-1-1.8c-0.6-1.1-0.3-2.5,0.8-3.2l11.4-6.6
		C93.7,82.1,94.2,82,94.6,82 M94.6,81.8c-0.5,0-0.9,0.1-1.3,0.4l-11.5,6.6c-0.6,0.3-1.1,0.9-1.2,1.6c-0.2,0.7-0.1,1.4,0.3,2l1,1.8
		l0.1,0.2h0.2l15.6-9l0.2-0.1L97.9,85l-1.1-1.8c-0.5-0.8-1.3-1.3-2.2-1.3L94.6,81.8z"/>
	<g id="_Group_">
		<path class="st0" d="M68.4,88.2c-0.5,0-0.9,0-1.4,0c-0.1,0-0.2-0.1-0.2-0.3c0,0,0,0,0,0c0-0.1,0.1-0.2,0.3-0.2c0,0,0,0,0,0
			c0.8,0.1,1.6,0.1,2.5,0c0.1,0,0.3,0.1,0.3,0.2c0,0,0,0,0,0c0,0.1-0.1,0.3-0.2,0.3L68.4,88.2z M72,87.7c-0.1,0-0.2-0.1-0.2-0.2
			c0-0.1,0-0.3,0.2-0.3c0.8-0.2,1.5-0.6,2.2-1c0.1-0.1,0.3,0,0.4,0.1c0.1,0.1,0,0.3-0.1,0.3c0,0,0,0,0,0C73.6,87,72.8,87.4,72,87.7
			L72,87.7z M64.6,87.7L64.6,87.7c-0.8-0.3-1.5-0.6-2.2-1h-0.1c-0.1,0-0.2-0.2-0.2-0.3c0-0.1,0.2-0.2,0.3-0.2c0,0,0.1,0,0.1,0.1h0.1
			c0.7,0.4,1.4,0.7,2.2,0.9c0.1,0.1,0.2,0.2,0.2,0.3C64.9,87.6,64.8,87.7,64.6,87.7C64.6,87.6,64.6,87.6,64.6,87.7L64.6,87.7z
			 M76.4,85.4c-0.1-0.1-0.2-0.2-0.1-0.3c0-0.1,0.1-0.1,0.1-0.1l2.2-1.3c0.1-0.1,0.3-0.1,0.4,0c0.1,0.1,0.1,0.2,0,0.3l-2.2,1.3
			L76.4,85.4z M60.1,85.3H60L57.8,84c-0.1-0.1-0.2-0.2-0.1-0.3c0.1-0.1,0.2-0.2,0.3-0.1l2.2,1.3c0.1,0.1,0.2,0.2,0.1,0.3
			C60.3,85.3,60.2,85.3,60.1,85.3L60.1,85.3z M80.8,82.9c-0.1,0-0.2,0-0.2-0.1c-0.1-0.1-0.1-0.2,0-0.3c0,0,0,0,0,0l2.2-1.3
			c0.1-0.1,0.2-0.1,0.3,0c0,0,0,0,0,0c0.1,0.1,0.1,0.2,0,0.3l-2.2,1.3L80.8,82.9z M55.7,82.8L55.7,82.8l-2.2-1.3
			c-0.1-0.1-0.1-0.3,0-0.4c0.1-0.1,0.2-0.1,0.3-0.1l2.2,1.3c0.1,0.1,0.2,0.2,0.1,0.3c0,0.1-0.2,0.2-0.3,0.1L55.7,82.8z M85.2,80.4
			c-0.1,0-0.2,0-0.2-0.1c-0.1-0.1-0.1-0.2,0-0.3l2.2-1.3c0.1-0.1,0.2-0.1,0.3,0c0,0,0,0,0,0c0.1,0.1,0.1,0.2,0,0.3c0,0,0,0,0,0
			l-2.2,1.3L85.2,80.4z M51.4,80.2h-0.1l-2.2-1.3c-0.1-0.1-0.1-0.3,0-0.4c0.1-0.1,0.2-0.1,0.3-0.1l2.2,1.3c0.1,0.1,0.1,0.2,0,0.3
			c0,0,0,0,0,0C51.6,80.1,51.5,80.2,51.4,80.2z M89.5,78c-0.1,0-0.2,0-0.2-0.1c-0.1-0.1,0-0.3,0.1-0.3c0,0,0,0,0,0l2.2-1.3
			c0.1-0.1,0.3,0,0.3,0.1s0,0.3-0.1,0.3l0,0l-2.2,1.3L89.5,78z M47.1,77.8H47l-2.2-1.3c-0.1-0.1-0.1-0.2,0-0.3c0,0,0,0,0,0
			c0.1-0.1,0.2-0.2,0.3-0.1c0,0,0,0,0,0l2.2,1.3c0.1,0.1,0.1,0.3,0,0.4C47.2,77.8,47.2,77.8,47.1,77.8L47.1,77.8z M93.9,75.4
			c-0.1,0-0.2,0-0.2-0.1c-0.1-0.1-0.1-0.2,0-0.3c0,0,0,0,0,0l2.2-1.3c0.1-0.1,0.2-0.1,0.3,0c0.1,0.1,0.1,0.2,0,0.4L94,75.2
			L93.9,75.4z M42.7,75.4h-0.1l-2.2-1.3c-0.2-0.1-0.4-0.2-0.5-0.3c-0.1-0.1-0.1-0.2,0-0.3c0,0,0,0,0,0c0.1-0.1,0.3-0.1,0.4,0
			l0.5,0.3l2.2,1.3c0.1,0.1,0.1,0.2,0,0.4c-0.1,0-0.2,0-0.2-0.1L42.7,75.4z M98.1,72.7c-0.1,0-0.1,0-0.2,0c-0.1-0.1-0.1-0.2,0-0.3
			c0,0,0,0,0,0c0.6-0.5,1.2-1.1,1.7-1.8c0.1-0.1,0.3-0.1,0.4,0c0.1,0.1,0.1,0.2,0,0.3c0,0,0,0,0,0c-0.5,0.7-1.1,1.3-1.7,1.9
			C98.1,72.7,98.1,72.7,98.1,72.7z M38.1,72.1c-0.1,0-0.1,0-0.2,0c-0.6-0.6-1.1-1.3-1.6-2c-0.1-0.1-0.1-0.2,0-0.3
			c0.1-0.1,0.2-0.1,0.3,0c0,0,0,0,0,0c0.4,0.7,1,1.3,1.5,1.9c0.1,0.1,0.1,0.3,0,0.4c0,0,0,0,0,0C38.2,72.1,38.2,72.1,38.1,72.1z
			 M101.1,68.7L101.1,68.7c-0.1,0-0.2-0.2-0.1-0.3c0,0,0,0,0,0c0.3-0.7,0.6-1.5,0.8-2.3c0-0.1,0.1-0.2,0.2-0.2
			c0.1,0,0.2,0.1,0.2,0.3c0,0,0,0,0,0c-0.2,0.8-0.5,1.6-0.8,2.4C101.3,68.7,101.2,68.7,101.1,68.7L101.1,68.7z M35.4,67.9
			c-0.1,0-0.2-0.1-0.2-0.2c-0.3-0.8-0.5-1.6-0.7-2.5c0-0.1,0.1-0.3,0.2-0.3c0.1,0,0.3,0.1,0.3,0.2c0,0,0,0,0,0
			c0.1,0.8,0.3,1.6,0.6,2.4C35.7,67.7,35.6,67.9,35.4,67.9L35.4,67.9z M102.2,63.8L102.2,63.8c-0.1,0-0.2-0.1-0.2-0.2c0,0,0,0,0,0
			v-2.5c0-0.1,0.1-0.3,0.3-0.3c0.1,0,0.2,0.1,0.2,0.3v2.5C102.5,63.7,102.4,63.8,102.2,63.8C102.2,63.8,102.2,63.8,102.2,63.8z
			 M34.6,63c-0.1,0-0.2-0.1-0.2-0.2c0,0,0,0,0,0v-2.4c0-0.1,0.1-0.2,0.2-0.2c0.1,0,0.2,0.1,0.2,0.2l0,0v2.5
			C34.8,62.9,34.7,63,34.6,63z M102.2,58.8c-0.1,0-0.2-0.1-0.2-0.2v-2.5c0-0.1,0.1-0.2,0.2-0.2c0,0,0,0,0,0c0.1,0,0.2,0.1,0.2,0.2
			c0,0,0,0,0,0v2.5C102.5,58.7,102.4,58.8,102.2,58.8C102.3,58.8,102.2,58.8,102.2,58.8z M34.6,58c-0.1,0-0.2-0.1-0.2-0.2l0,0v-2.5
			c0-0.1,0.1-0.2,0.2-0.2c0.1,0,0.2,0.1,0.2,0.2l0,0v2.5C34.8,57.9,34.7,58,34.6,58L34.6,58z M102.2,53.7c-0.1,0-0.3-0.1-0.3-0.2
			c0,0,0,0,0,0V51c0-0.1,0.1-0.2,0.2-0.2c0,0,0,0,0,0c0.1,0,0.2,0.1,0.2,0.2c0,0,0,0,0,0v2.5C102.4,53.7,102.3,53.7,102.2,53.7z
			 M34.6,53c-0.1,0-0.2-0.1-0.2-0.2l0,0v-2.5c0-0.1,0.1-0.2,0.2-0.2c0.1,0,0.2,0.1,0.2,0.2v2.5C34.8,52.8,34.7,53,34.6,53L34.6,53z
			 M102.2,48.8c-0.1,0-0.3-0.1-0.3-0.3V46c0-0.1,0.1-0.2,0.2-0.2c0,0,0,0,0,0c0.1,0,0.2,0.1,0.2,0.2c0,0,0,0,0,0v2.5
			C102.5,48.7,102.4,48.8,102.2,48.8C102.2,48.8,102.2,48.8,102.2,48.8z M34.6,47.9c-0.1,0-0.2-0.1-0.2-0.2l0,0v-2.5
			c0-0.1,0.1-0.2,0.2-0.2c0.1,0,0.2,0.1,0.2,0.2v2.5C34.8,47.8,34.7,47.9,34.6,47.9L34.6,47.9z M102.2,43.8c-0.1,0-0.3-0.1-0.3-0.3
			V41c0-0.1,0.1-0.2,0.2-0.2c0,0,0,0,0,0c0.1,0,0.2,0.1,0.2,0.2c0,0,0,0,0,0v2.5C102.5,43.6,102.4,43.8,102.2,43.8
			C102.2,43.8,102.2,43.8,102.2,43.8z M34.6,42.9c-0.1,0-0.2-0.1-0.2-0.2v-2.6c0-0.1,0.1-0.2,0.2-0.2c0.1,0,0.2,0.1,0.2,0.2v2.6
			C34.8,42.8,34.7,42.9,34.6,42.9z M102.2,38.7c-0.1,0-0.3-0.1-0.3-0.2c0,0,0,0,0,0v-0.4c0-0.7-0.1-1.5-0.2-2.2
			c0-0.1,0.1-0.3,0.2-0.3c0,0,0,0,0,0c0.1,0,0.3,0.1,0.3,0.2c0,0,0,0,0,0c0.1,0.7,0.2,1.5,0.2,2.2v0.4c0,0.1,0,0.3-0.1,0.3
			C102.3,38.7,102.2,38.7,102.2,38.7z M34.6,37.9L34.6,37.9c-0.1,0-0.2-0.1-0.2-0.3c0-0.9,0.2-1.7,0.4-2.5c0-0.1,0.2-0.2,0.3-0.2
			c0,0,0,0,0,0c0.1,0,0.2,0.2,0.2,0.3c0,0,0,0,0,0c-0.2,0.8-0.3,1.6-0.4,2.4C34.9,37.8,34.8,37.9,34.6,37.9
			C34.6,37.9,34.6,37.9,34.6,37.9z M101.3,33.9c-0.1,0-0.2-0.1-0.2-0.2c-0.3-0.8-0.7-1.5-1.2-2.2c-0.1-0.1-0.1-0.3,0-0.4
			c0.1-0.1,0.2-0.1,0.3,0c0,0,0,0,0,0c0.5,0.7,0.9,1.4,1.2,2.2c0.1,0.1,0,0.3-0.1,0.3c0,0,0,0,0,0L101.3,33.9z M35.9,33.1h-0.1
			c-0.1,0-0.2-0.2-0.1-0.3c0,0,0,0,0,0c0.4-0.8,0.8-1.5,1.4-2.2c0.1-0.1,0.3-0.1,0.4,0c0.1,0.1,0.1,0.2,0,0.3c0,0,0,0,0,0
			c-0.5,0.6-0.9,1.3-1.3,2.1C36,33,36,33.1,35.9,33.1z M98.5,29.7c-0.1,0-0.1,0-0.2,0c-0.6-0.6-1.3-1.1-2-1.5
			c-0.1-0.1-0.1-0.2,0-0.3c0,0,0,0,0,0c0.1-0.1,0.2-0.1,0.3,0c0,0,0,0,0,0c0.7,0.4,1.4,1,2,1.5c0.1,0.1,0.1,0.2,0,0.3c0,0,0,0,0,0
			C98.6,29.8,98.5,29.8,98.5,29.7z M39,29.2c-0.1,0-0.1,0-0.2,0c-0.1-0.1-0.1-0.2,0-0.3c0,0,0,0,0,0c0.5-0.4,1.1-0.8,1.7-1.1
			l0.5-0.3c0.1-0.1,0.2-0.1,0.3,0c0.1,0.1,0.1,0.2,0,0.3c0,0,0,0,0,0L40.8,28c-0.6,0.3-1.1,0.7-1.6,1.1C39.1,29.2,39,29.2,39,29.2
			L39,29.2z M94.4,27h-0.1L92,25.7c-0.1-0.1-0.1-0.2,0-0.3c0.1-0.1,0.2-0.1,0.3,0c0,0,0,0,0,0l2.2,1.3c0.1,0.1,0.1,0.2,0,0.3
			C94.5,27,94.4,27,94.4,27L94.4,27z M43.2,26.6c-0.1,0-0.2,0-0.2-0.1c-0.1-0.1-0.1-0.2,0-0.4l2.2-1.3c0.1-0.1,0.3,0,0.4,0.1
			c0.1,0.1,0.1,0.2,0,0.3l-2.2,1.3L43.2,26.6z M90,24.5h-0.1l-2.2-1.3c-0.1-0.1-0.1-0.2,0-0.3c0.1-0.1,0.2-0.1,0.3,0c0,0,0,0,0,0
			l2.2,1.3c0.1,0.1,0.1,0.2,0,0.3c0,0,0,0,0,0C90.2,24.5,90,24.5,90,24.5L90,24.5z M47.6,24c-0.1,0-0.2-0.1-0.2-0.1
			c-0.1-0.1-0.1-0.2,0-0.3c0,0,0,0,0,0l2.2-1.3c0.1-0.1,0.3-0.1,0.4,0c0.1,0.1,0.1,0.2,0,0.3l-2.2,1.3L47.6,24z M85.7,22h-0.1
			l-2.2-1.3c-0.1-0.1-0.1-0.2-0.1-0.3c0.1-0.1,0.2-0.1,0.3-0.1l2.2,1.3c0.1,0.1,0.1,0.2,0,0.3C85.7,21.9,85.7,21.9,85.7,22L85.7,22z
			 M52,21.5c-0.1,0-0.2,0-0.2-0.1c-0.1-0.1-0.1-0.2,0-0.3l2.2-1.3c0.1-0.1,0.2-0.1,0.3,0c0,0,0,0,0,0c0.1,0.1,0.1,0.2,0,0.3
			c0,0,0,0,0,0l-2.2,1.3L52,21.5z M81.3,19.3c0,0-0.1,0-0.1,0L79,18.1c-0.1-0.1-0.2-0.2-0.1-0.3s0.2-0.2,0.3-0.1l0,0l2.2,1.3
			c0.1,0.1,0.1,0.2,0,0.3C81.4,19.3,81.4,19.4,81.3,19.3L81.3,19.3z M56.2,19c-0.1,0-0.2,0-0.2-0.1c-0.1-0.1-0.1-0.2,0-0.3l2.2-1.3
			c0.1-0.1,0.2-0.1,0.3,0c0,0,0,0,0,0c0.1,0.1,0,0.3-0.1,0.3c0,0,0,0,0,0l-2.2,1.3L56.2,19z M76.9,16.8h-0.1l-2.2-1.3
			c-0.1-0.1-0.1-0.2,0-0.4c0.1-0.1,0.3-0.1,0.4,0l2.2,1.3c0.1,0.1,0.1,0.2,0,0.3c0,0,0,0,0,0c0,0.1-0.1,0.1-0.2,0.1V16.8z
			 M60.6,16.5c-0.1,0-0.2-0.1-0.2-0.2c-0.1-0.1-0.1-0.2,0-0.3c0,0,0,0,0,0l2-1l0.4-0.2c0.1-0.1,0.2-0.1,0.3,0c0.1,0.1,0.1,0.3,0,0.4
			l-0.4,0.2l-1.8,1L60.6,16.5z M72.5,14.6L72.5,14.6c-0.8-0.3-1.6-0.4-2.5-0.5c-0.1,0-0.2-0.1-0.2-0.3c0,0,0,0,0,0
			c0-0.1,0.1-0.2,0.3-0.2c0.8,0.1,1.7,0.3,2.5,0.5c0.1,0.1,0.2,0.2,0.2,0.3C72.7,14.5,72.6,14.6,72.5,14.6z M65.1,14.3
			c-0.1,0-0.2-0.1-0.2-0.2c0-0.1,0-0.3,0.2-0.3c0,0,0,0,0,0c0.8-0.2,1.7-0.4,2.5-0.4c0.1,0,0.3,0.1,0.3,0.2c0,0,0,0,0,0
			c0,0.1-0.1,0.3-0.2,0.3C66.8,13.9,66,14,65.1,14.3L65.1,14.3z"/>
	</g>
	<g id="_Group_2">
		<path class="st0" d="M68.4,85.1c-2,0-3.9-0.5-5.6-1.5L42.8,72c-3.5-2-5.6-5.7-5.6-9.7V39.2c0-4,2.1-7.7,5.6-9.7l20-11.5
			c3.5-2,7.7-2,11.2,0l20,11.5c3.5,2,5.6,5.7,5.6,9.7v23.1c0,4-2.1,7.7-5.6,9.7L74,83.6C72.3,84.6,70.4,85.1,68.4,85.1z M68.4,17
			c-1.9,0-3.7,0.5-5.3,1.5L43,30c-3.3,1.9-5.4,5.4-5.4,9.3v23.1c0,3.8,2,7.3,5.4,9.3l20,11.6c3.3,1.9,7.4,1.9,10.7,0l20-11.6
			c3.3-1.9,5.4-5.4,5.4-9.3V39.2c0-3.8-2-7.3-5.4-9.3l-20-11.5C72.1,17.5,70.3,17,68.4,17z"/>
	</g>
</g>
<g id="_Group_2_1_">
	<path class="st3" d="M68.4,84.3c-1.9,0-3.8-0.5-5.5-1.5L43.4,71.5c-3.4-2-5.5-5.6-5.5-9.5V39.5c0-3.9,2.1-7.5,5.5-9.5l19.6-11.3
		c3.4-2,7.6-2,11,0L93.4,30c3.4,2,5.5,5.6,5.5,9.5V62c0,3.9-2.1,7.5-5.5,9.5L73.9,82.8C72.2,83.8,70.3,84.3,68.4,84.3z"/>
</g>
<g>
	<path class="st4" d="M71.5,46.2c0,0,0,7.2-3.9,10.3c-3.9,3.1-8.7,6.8-9.2,9.3c-0.5,2.5-0.1,5.4-1.3,6.3c-1.3,0.9-3.4,2.7-3.8-1.2
		c-0.4-4,0.3-8.1,3.5-10.9c2.7-2.4,3.9-6.1,3.7-9.7c0-0.7-6.4,9-15.1,11c0,0-3.6,0.6-4.3,0s3.1-1,7-5.1s8.1-16.8,16.9-17.8
		c3.3-0.4,5.5,0.2,6.9,0.6c2.4,0.6,7,4.4,9.9,4.4c1.9,0,3.7,0.5,4.5-1.3c0.8-1.8,2.8-3,4.6-1.3c1.8,1.8,1.6,1.9,2,2.5
		c0.5,0.5,1.4,1.1,2,1.3c0.5,0.3,2,1.9-0.1,2.5c-2.1,0.5-3.3-0.7-4.2-0.5c-0.9,0.2-4,3-6,3.6s-7.4,2.5-13.6,1.2L71.5,46.2z"/>
	<g>
		<path class="st2" d="M95.4,43.5c-0.6-0.3-1.3-0.7-1.6-1.1c-0.1-0.1-0.1-0.2-0.2-0.3c-0.2-0.4-0.6-0.9-1.9-2.2
			c-0.9-0.9-1.9-1.3-2.9-1.2c-0.3-0.5-0.9-1.2-1.8-1.5c-0.6-0.2-1.2,0.1-1.4,0.6c-0.2,0.6,0.1,1.2,0.6,1.4c0.2,0.1,0.3,0.2,0.5,0.4
			c-0.6,0.5-1,1.1-1.4,1.8c-0.3,0.7-0.8,0.8-2.5,0.7c-0.3,0-0.7,0-1,0c-1.4,0-3.7-1.3-5.6-2.4c-1.2-0.7-2.4-1.4-3.4-1.7
			c-0.6-0.2-1-0.3-1.2-0.4c-1.5-0.4-3.7-0.8-6.7-0.5c-6.8,0.7-10.8,7.5-14.1,13c-1.2,2.1-2.4,4-3.5,5.1c-2.2,2.4-4.4,3.4-5.7,4.1
			c-0.9,0.5-1.6,0.8-1.7,1.6c-0.1,0.4,0.1,0.8,0.5,1.1c0.4,0.3,1.1,0.6,3.2,0.5c1-0.1,2-0.2,2.1-0.2c6-1.4,10.9-6.2,13.6-9.1
			c-0.4,2.4-1.5,4.5-3.2,6c-3.1,2.7-4.4,6.7-3.9,11.9c0.1,0.7,0.3,2.6,1.7,3.3c0.3,0.1,0.6,0.2,0.9,0.2c0.8,0,1.5-0.4,2.2-0.8
			c0.2-0.1,0.8-0.5,0.9-0.6c1.3-0.9,1.4-2.7,1.5-4.6c0.1-0.8,0.1-1.7,0.3-2.4c0.3-1.6,3.5-4.4,6.4-6.7c0.8-0.6,2.4-1.9,2.4-1.9
			c1.6-1.3,2.6-3.1,3.2-4.9c1.2,0.2,2.3,0.3,3.5,0.3h0c0.4,0,0.9,0,1.3,0c0.1,0.5,0.2,1.2-0.1,2c-0.2,0.6,0.1,1.2,0.7,1.4
			c0.1,0,0.2,0.1,0.3,0.1c0.5,0,0.9-0.3,1.1-0.8c0.4-1.2,0.3-2.2,0.2-3c0.6-0.1,1.1-0.2,1.7-0.3c0.6-0.1,1-0.7,0.9-1.3
			c-0.1-0.5-0.6-0.9-1.1-0.9c-0.1,0-2.1,0.3-2.9,0.4c-0.8,0.1-1.4,0.1-2.1,0.1c-1,0-1.9-0.1-2.9-0.2c0.5-2.2,0.5-4,0.5-4.1
			c0-0.6-0.5-1.1-1.1-1.1s-1.1,0.5-1.1,1.1c0,0.1,0,6.7-3.5,9.4c0,0-1.8,1.4-2.6,2.1c-3.9,3.1-6.5,5.7-7,7.9
			c-0.2,0.9-0.2,1.8-0.3,2.7c-0.1,1.1-0.2,2.6-0.6,2.9c-0.1,0.1-1.4,1-1.7,1c-0.1-0.1-0.3-0.4-0.4-1.4c-0.4-4.4,0.6-7.7,3.1-10
			c2.8-2.5,4.3-6.4,4.1-10.6c0-0.5-0.3-0.9-0.8-1c-0.7-0.3-1.2,0.3-1.5,0.5c-0.2,0.2-0.4,0.5-0.7,0.8c-2.2,2.4-7.2,8.2-13.5,9.6
			c-0.1,0-0.3,0-0.4,0.1c1.2-0.7,2.6-1.8,4.1-3.3c1.2-1.3,2.4-3.2,3.7-5.5c3-5,6.8-11.3,12.4-11.9c2.6-0.3,4.4,0,5.8,0.4
			c0.2,0.1,0.7,0.1,1.3,0.4c0.8,0.3,1.9,0.9,3,1.6c2.3,1.3,4.7,2.7,6.7,2.7c0.3,0,0.6,0,0.9,0c1.6,0.1,3.6,0.2,4.6-2
			c0.4-0.8,1-1.4,1.5-1.5c0.2,0,0.6-0.1,1.2,0.5c1.1,1.1,1.4,1.5,1.6,1.8c0.1,0.2,0.2,0.4,0.4,0.6c0.7,0.8,1.9,1.4,2.3,1.6
			c0.1,0.1,0.2,0.2,0.3,0.3c-0.1,0-0.1,0-0.2,0.1c-1,0.2-1.7,0-2.3-0.2c-0.6-0.2-1.1-0.4-1.8-0.3c0,0-0.2,0.1-0.3,0.1
			c-0.2,0.1-0.4,0.2-0.6,0.3c0,0-0.7,0.4-1,0.6c-0.2,0.2-0.4,0.4-0.5,0.7c-0.1,0.3,0,0.6,0.2,0.8c0.2,0.3,0.6,0.5,0.9,0.5
			c0.2,0,0.5-0.1,0.6-0.2c0.3-0.2,1-0.6,1-0.6c0.1,0,0.4,0.1,0.7,0.2c0.8,0.3,2,0.7,3.6,0.3c1.6-0.4,1.9-1.4,1.9-1.9
			C97.1,44.9,96,43.8,95.4,43.5L95.4,43.5z"/>
		<circle class="st2" cx="84.8" cy="49.9" r="1.1"/>
	</g>
</g>
</svg>
