<svg xmlns="http://www.w3.org/2000/svg" xmlns:xlink="http://www.w3.org/1999/xlink" width="111" height="28" viewBox="0 0 111 28">
    <defs>
        <path id="prefix__a" d="M0 27.33L110.174 27.33 110.174 0 0 0z"/>
    </defs>
    <g fill="none" fill-rule="evenodd" transform="translate(.5 .5)">
        <path fill="#3B3B3B" d="M10.924 6.361c1.166-3.464 3.192-3.813 5.372-3.813-.72 2.058-1.717 3.856-5.372 3.813zm5.64 9.6c0 3.888-3.153 7.041-7.041 7.041l-.052-.001c.458-.765.722-1.659.722-2.615 0-2.814-2.282-5.096-5.096-5.096-.956 0-1.851.264-2.615.722v.016l-.001-.067c0-3.89 3.153-7.042 7.042-7.042 3.888 0 7.041 3.152 7.041 7.042zm-9.902 6.435c-1.589-.707-2.868-1.986-3.575-3.575.466-.598 1.193-.983 2.01-.983 1.407 0 2.548 1.141 2.548 2.548 0 .817-.385 1.544-.983 2.01zM19.045 0h-2.749c-2.271 0-6.872.666-7.901 6.505C3.667 7.063 0 11.083 0 15.961c0 5.259 4.263 9.522 9.523 9.522 5.259 0 9.522-4.263 9.522-9.522 0-3.226-1.604-6.078-4.059-7.8C17.818 6.654 19.045 3.618 19.045 0zM33.29 21.137h-3.41v-4.445h3.28c1.92 0 2.826.777 2.826 2.244 0 1.446-.885 2.2-2.697 2.2zm-3.41-10.811h3.193c1.445 0 2.33.734 2.33 1.963 0 1.382-.863 2.072-2.33 2.072H29.88v-4.035zm6.926 4.963c.798-.518 1.77-1.834 1.77-3.301 0-3.216-2.957-4.08-5.697-4.08h-6.086v15.646h6.345c3.215 0 6-1.252 6-4.618 0-2.158-1.123-3.064-2.332-3.647z"/>
        <mask id="prefix__b" fill="#fff">
            <use xlink:href="#prefix__a"/>
        </mask>
        <path fill="#3B3B3B" d="M40.848 23.554L43.826 23.554 43.826 11.945 40.848 11.945zM40.848 10.671L43.826 10.671 43.826 7.909 40.848 7.909zM45.97 23.554L48.948 23.554 48.948 7.909 45.97 7.909zM56.68 21.547c-1.64 0-2.72-1.402-2.72-3.799 0-2.33 1.08-3.776 2.72-3.776 1.554 0 2.654 1.533 2.654 3.798 0 2.267-1.1 3.777-2.654 3.777m.734-9.862c-1.467 0-2.72.647-3.345 1.748V7.91H51.09v15.645h2.978v-1.467c.756 1.294 2.136 1.747 3.345 1.747 2.762 0 5.049-2.373 5.049-6.085 0-3.646-2.244-6.063-5.05-6.063M66.341 16.519c.237-1.963 1.683-2.654 2.806-2.654 1.251 0 2.631.69 2.697 2.654h-5.503zm2.827-4.833c-3.431 0-5.827 2.567-5.827 6.02 0 3.345 2.18 6.128 5.913 6.128 3.172 0 4.856-1.92 5.481-3.647h-3.064c-.604 1.015-1.511 1.338-2.438 1.338-1.424 0-2.763-.971-2.935-2.956h8.566c.109-4.1-2.114-6.883-5.696-6.883zM79.276 13.973v-2.028H76.34v11.609h2.978v-6.085c0-2.18.97-2.72 2.438-2.72.432 0 .798 0 1.23.065v-2.805c-.193-.021-.453-.043-.648-.043-1.36 0-2.394.56-3.063 2.007M86.884 13.973v-2.028h-2.935v11.609h2.978v-6.085c0-2.18.972-2.72 2.438-2.72.432 0 .799 0 1.231.065v-2.805c-.194-.021-.453-.043-.648-.043-1.359 0-2.395.56-3.064 2.007M94.492 13.973v-2.028h-2.935v11.609h2.978v-6.085c0-2.18.972-2.72 2.438-2.72.432 0 .8 0 1.231.065v-2.805c-.194-.021-.453-.043-.648-.043-1.359 0-2.395.56-3.064 2.007M107.153 11.944l-2.698 8.373-2.632-8.373h-3.258l4.445 11.566-.13.324c-.517 1.23-.95 1.209-1.941 1.209h-1.122v2.287h1.25c2.893 0 3.476-.518 4.857-4.121l4.25-11.264h-3.022z" mask="url(#prefix__b)"/>
    </g>
</svg>
