<?xml version="1.0" standalone="no"?>
<!DOCTYPE svg PUBLIC "-//W3C//DTD SVG 20010904//EN"
 "http://www.w3.org/TR/2001/REC-SVG-20010904/DTD/svg10.dtd">
<svg version="1.0" xmlns="http://www.w3.org/2000/svg"
 width="633.000000pt" height="356.000000pt" viewBox="0 0 633.000000 356.000000"
 preserveAspectRatio="xMidYMid meet">
<metadata>
Created by potrace 1.16, written by Peter Selinger 2001-2019
</metadata>
<g transform="translate(0.000000,356.000000) scale(0.100000,-0.100000)"
fill="#000000" stroke="none">
<path d="M2680 3351 c-30 -10 -69 -25 -87 -34 -53 -28 -150 -124 -193 -193
-22 -35 -44 -64 -49 -64 -18 0 -65 -76 -78 -124 -18 -68 -3 -142 41 -199 24
-32 40 -73 65 -172 92 -361 245 -659 435 -851 88 -89 214 -181 279 -205 30
-11 36 -21 88 -163 l55 -151 -430 -5 -431 -5 0 -30 0 -30 866 -3 c933 -2 901
-4 884 47 -6 20 -15 21 -302 23 l-297 3 -36 91 -37 90 116 -31 c201 -55 338
-80 356 -65 21 17 19 27 -16 111 -55 133 -53 122 -18 104 42 -22 73 -16 77 15
5 46 -260 801 -348 988 -23 48 -51 97 -63 111 -28 30 -93 60 -133 61 -16 0
-37 6 -46 13 -22 17 -38 93 -38 182 0 86 -13 119 -70 180 -20 22 -48 60 -62
85 -31 53 -120 143 -174 177 -100 60 -247 79 -354 44z m-127 -332 c66 -34 105
-108 92 -171 -10 -43 -70 -106 -113 -118 -124 -34 -232 99 -176 217 33 69 132
105 197 72z m663 -30 c67 -65 68 -153 3 -218 -74 -75 -197 -53 -243 43 -23 48
-20 92 9 141 32 55 75 77 143 72 44 -3 59 -9 88 -38z m-456 -143 c24 -63 47
-113 51 -110 4 2 22 48 41 102 l33 97 5 -71 c7 -86 34 -135 99 -175 31 -20 39
-29 25 -29 -56 0 -143 -92 -165 -175 -16 -56 -5 -189 20 -256 23 -60 103 -147
216 -235 89 -69 321 -220 485 -317 80 -47 155 -93 167 -104 21 -17 109 -213
96 -213 -30 0 -269 62 -390 101 -303 98 -416 156 -546 278 -191 180 -359 502
-450 861 l-14 55 39 -3 c96 -10 182 38 224 124 22 46 26 64 22 119 -2 36 -3
65 -3 65 1 0 21 -51 45 -114z m633 -1529 c20 -51 39 -100 43 -109 5 -16 -1
-18 -55 -18 -70 0 -56 -18 -121 161 l-38 106 68 -25 67 -24 36 -91z"/>
<path d="M1120 615 l0 -275 45 0 c33 0 45 4 45 15 0 19 5 19 34 0 12 -8 42
-18 67 -21 152 -21 262 113 219 268 -31 110 -171 171 -273 119 l-37 -19 0 94
0 94 -50 0 -50 0 0 -275z m273 15 c66 -52 52 -169 -23 -200 -97 -40 -189 74
-136 169 29 51 112 68 159 31z"/>
<path d="M4560 615 l0 -275 50 0 50 0 0 275 0 275 -50 0 -50 0 0 -275z"/>
<path d="M1674 716 c-58 -27 -87 -62 -104 -126 -43 -159 104 -295 270 -250 60
16 124 80 140 140 48 176 -134 316 -306 236z m155 -80 c34 -18 51 -54 51 -107
0 -55 -51 -109 -102 -109 -79 0 -129 73 -107 153 18 68 92 97 158 63z"/>
<path d="M2040 540 l0 -200 49 0 49 0 4 118 c4 123 12 150 55 173 13 7 36 12
53 12 29 0 30 1 30 50 l0 50 -45 -6 c-25 -4 -56 -14 -70 -23 -24 -16 -25 -15
-25 5 0 19 -6 21 -50 21 l-50 0 0 -200z"/>
<path d="M2320 540 l0 -200 50 0 50 0 0 200 0 200 -50 0 -50 0 0 -200z"/>
<path d="M2510 540 l0 -200 49 0 49 0 3 126 4 126 33 29 c42 38 92 39 127 4
24 -23 25 -29 25 -155 l0 -130 50 0 50 0 0 149 c0 137 -2 151 -23 182 -34 52
-80 71 -154 66 -35 -3 -74 -12 -88 -21 -24 -16 -25 -16 -25 4 0 17 -6 20 -50
20 l-50 0 0 -200z"/>
<path d="M3064 715 c-62 -31 -94 -77 -101 -147 -14 -139 109 -241 249 -207 26
6 51 15 54 20 3 5 9 9 15 9 26 0 -13 -83 -47 -99 -38 -17 -114 -13 -163 9 -24
11 -45 20 -47 20 -6 0 -44 -63 -44 -73 0 -17 93 -48 160 -54 129 -11 215 36
239 130 6 26 11 124 11 226 l0 181 -50 0 c-37 0 -50 -4 -50 -15 0 -11 -8 -11
-42 5 -60 27 -123 25 -184 -5z m186 -92 c88 -80 5 -209 -112 -174 -118 36 -88
201 37 201 35 0 52 -6 75 -27z"/>
<path d="M3552 715 c-72 -37 -106 -94 -105 -180 1 -71 17 -109 67 -153 68 -60
177 -67 263 -16 93 54 121 196 56 288 -37 51 -92 79 -168 84 -50 3 -69 -1
-113 -23z m171 -85 c62 -49 54 -160 -15 -196 -47 -24 -86 -18 -124 20 -28 28
-34 41 -34 78 1 51 18 86 51 104 36 20 92 17 122 -6z"/>
<path d="M3860 728 c0 -7 31 -96 68 -198 l69 -185 50 -3 50 -3 49 127 c26 70
49 123 51 118 2 -5 23 -61 47 -124 l43 -115 50 -3 50 -3 72 193 c39 106 71
196 71 201 0 4 -20 7 -44 7 -32 0 -46 -5 -51 -17 -4 -10 -25 -67 -46 -128 -22
-60 -43 -113 -48 -118 -4 -4 -29 54 -55 128 l-49 135 -41 0 -42 0 -49 -134
c-28 -74 -53 -132 -57 -128 -4 4 -27 63 -51 132 l-44 125 -47 3 c-33 2 -46 -1
-46 -10z"/>
<path d="M4910 540 l0 -200 50 0 50 0 0 200 0 200 -50 0 -50 0 0 -200z"/>
<path d="M5174 716 c-58 -27 -87 -62 -104 -126 -33 -124 48 -241 177 -257 71
-8 131 12 179 61 99 98 77 255 -45 318 -69 36 -136 37 -207 4z m155 -80 c34
-18 51 -54 51 -107 0 -55 -51 -109 -102 -109 -77 0 -129 76 -107 155 18 66 93
94 158 61z"/>
</g>
</svg>
