<svg style="display:block;fill:#111;height:20px;width:120px" id="casinotopp-logo" data-name="Casinotopp Logo" xmlns="http://www.w3.org/2000/svg" viewBox="0 0 143.18 20"><defs></defs><title>casinotopp-logo</title><path class="casinotopp-logo-cls" d="M8.17,3.83a1.87,1.87,0,0,0-1.83-1,1.8,1.8,0,0,0-1.2.39,2.54,2.54,0,0,0-.75,1.27A10.31,10.31,0,0,0,4,6.83c-.07,1-.11,2.11-.11,3.48A35,35,0,0,0,4,13.86,7.53,7.53,0,0,0,4.51,16a2,2,0,0,0,.79,1,2.33,2.33,0,0,0,1.1.25,2.63,2.63,0,0,0,1-.17,1.66,1.66,0,0,0,.77-.71,4.58,4.58,0,0,0,.52-1.48,14.41,14.41,0,0,0,.19-2.54h3.9a16.72,16.72,0,0,1-.25,3,6.58,6.58,0,0,1-.9,2.46A4.48,4.48,0,0,1,9.72,19.4a7,7,0,0,1-3.13.6,7.28,7.28,0,0,1-3.5-.7,4.82,4.82,0,0,1-2-2A9.15,9.15,0,0,1,.2,14.1,37.4,37.4,0,0,1,0,10,38.13,38.13,0,0,1,.2,6a9.06,9.06,0,0,1,.9-3.18A4.87,4.87,0,0,1,3.1.75,6.93,6.93,0,0,1,6.59,0,6.79,6.79,0,0,1,9.88.68a4.58,4.58,0,0,1,1.8,1.72,5.94,5.94,0,0,1,.75,2.24,17,17,0,0,1,.15,2.26H8.67A6.85,6.85,0,0,0,8.17,3.83Z"></path><path class="casinotopp-logo-cls" d="M23.55.38,28.67,19.7H24.61l-.9-4.08H18.56l-.89,4.08H13.61L18.73.38Zm-.51,12L21.17,3.74h-.06l-1.87,8.68Z"></path><path class="casinotopp-logo-cls" d="M33.17,14.24a7.3,7.3,0,0,0,.11,1.23,2.11,2.11,0,0,0,.41.93,2.06,2.06,0,0,0,.8.6,3.37,3.37,0,0,0,1.26.21,2.49,2.49,0,0,0,1.61-.58,2.18,2.18,0,0,0,.72-1.8,3.06,3.06,0,0,0-.18-1.12,2.08,2.08,0,0,0-.58-.85,3.92,3.92,0,0,0-1.07-.69,15.48,15.48,0,0,0-1.64-.64,13.92,13.92,0,0,1-2.25-.95,6.22,6.22,0,0,1-1.59-1.2,4.37,4.37,0,0,1-.93-1.6,6.8,6.8,0,0,1-.3-2.1,5.37,5.37,0,0,1,1.6-4.27A6.4,6.4,0,0,1,35.53,0a9.23,9.23,0,0,1,2.4.29,5,5,0,0,1,1.9.91,4.32,4.32,0,0,1,1.24,1.63,5.68,5.68,0,0,1,.45,2.37v.54H37.78a3.79,3.79,0,0,0-.49-2.13,1.78,1.78,0,0,0-1.62-.74,2.73,2.73,0,0,0-1.09.19,1.7,1.7,0,0,0-1,1.22,3.39,3.39,0,0,0-.1.84,2.8,2.8,0,0,0,.38,1.5,3.5,3.5,0,0,0,1.63,1.12l3,1.3a8.87,8.87,0,0,1,1.81,1,5.09,5.09,0,0,1,1.13,1.14A3.75,3.75,0,0,1,42,12.53a7.36,7.36,0,0,1,.16,1.62,5.34,5.34,0,0,1-1.77,4.46,7.84,7.84,0,0,1-5,1.39q-3.3,0-4.73-1.43a5.62,5.62,0,0,1-1.42-4.12v-.78h3.9Z"></path><path class="casinotopp-logo-cls" d="M44.29.38h3.9V19.7h-3.9Z"></path><path class="casinotopp-logo-cls" d="M60.3,13.61h.06V.38h3.58V19.7H59.49L54.72,6.17h0V19.7H51.09V.38h4.5Z"></path><path class="casinotopp-logo-cls" d="M66.44,6a9.06,9.06,0,0,1,.9-3.18,4.87,4.87,0,0,1,2-2.07,8.54,8.54,0,0,1,7,0,4.87,4.87,0,0,1,2,2.07A9.08,9.08,0,0,1,79.21,6a38.13,38.13,0,0,1,.2,4,39.28,39.28,0,0,1-.2,4.06,9,9,0,0,1-.9,3.17,4.82,4.82,0,0,1-2,2,9,9,0,0,1-7,0,4.82,4.82,0,0,1-2-2,9,9,0,0,1-.9-3.17,39.28,39.28,0,0,1-.2-4.06A38.15,38.15,0,0,1,66.44,6Zm3.8,7.36a8.75,8.75,0,0,0,.38,2.21,2.5,2.5,0,0,0,.81,1.25,2.69,2.69,0,0,0,2.79,0A2.49,2.49,0,0,0,75,15.57a8.75,8.75,0,0,0,.38-2.21c.07-.91.1-2,.1-3.32a32,32,0,0,0-.1-3.3A9.3,9.3,0,0,0,75,4.52a2.51,2.51,0,0,0-.81-1.26,2.69,2.69,0,0,0-2.79,0,2.51,2.51,0,0,0-.81,1.26,9.3,9.3,0,0,0-.38,2.22c-.07.9-.1,2-.1,3.3S70.17,12.45,70.24,13.36Z"></path><path class="casinotopp-logo-cls" d="M93,3.57H88.82V19.7H84.91V3.57H80.68V.38H93Z"></path><path class="casinotopp-logo-cls" d="M94.52,6a9,9,0,0,1,.89-3.18,5,5,0,0,1,2-2.07,8.54,8.54,0,0,1,7,0,4.87,4.87,0,0,1,2,2.07,9.06,9.06,0,0,1,.9,3.18,38.13,38.13,0,0,1,.2,4,39.28,39.28,0,0,1-.2,4.06,9,9,0,0,1-.9,3.17,4.82,4.82,0,0,1-2,2,9,9,0,0,1-7,0,4.82,4.82,0,0,1-2-2,9,9,0,0,1-.89-3.17,36.67,36.67,0,0,1-.2-4.06A35.6,35.6,0,0,1,94.52,6Zm3.79,7.36a9.74,9.74,0,0,0,.38,2.21,2.46,2.46,0,0,0,.82,1.25,2.69,2.69,0,0,0,2.79,0,2.5,2.5,0,0,0,.81-1.25,8.75,8.75,0,0,0,.38-2.21c.06-.91.1-2,.1-3.32a32,32,0,0,0-.1-3.3,9.3,9.3,0,0,0-.38-2.22,2.51,2.51,0,0,0-.81-1.26,2.69,2.69,0,0,0-2.79,0,2.38,2.38,0,0,0-.82,1.26,9.83,9.83,0,0,0-.38,2.22q-.09,1.35-.09,3.3C98.22,11.34,98.25,12.45,98.31,13.36Z"></path><path class="casinotopp-logo-cls" d="M116.62.38a5.72,5.72,0,0,1,2.51.5,4.54,4.54,0,0,1,1.64,1.31,5.16,5.16,0,0,1,.89,1.86,8.38,8.38,0,0,1,.27,2.12,7,7,0,0,1-.44,2.6,4.83,4.83,0,0,1-1.25,1.81,5.19,5.19,0,0,1-1.94,1.06,8.62,8.62,0,0,1-2.52.35H113.7V19.7h-3.91V.38Zm-1.19,8.74a2.57,2.57,0,0,0,1.88-.7A3,3,0,0,0,118,6.23,3.39,3.39,0,0,0,117.41,4a2.54,2.54,0,0,0-2.09-.76H113.7V9.12Z"></path><path class="casinotopp-logo-cls" d="M130.69.38a5.87,5.87,0,0,1,2.51.5,4.42,4.42,0,0,1,1.63,1.31,5,5,0,0,1,.9,1.86A8.38,8.38,0,0,1,136,6.17a6.79,6.79,0,0,1-.45,2.6,4.81,4.81,0,0,1-1.24,1.81,5.41,5.41,0,0,1-1.94,1.06,8.62,8.62,0,0,1-2.52.35h-2.09V19.7h-3.9V.38ZM129.5,9.12a2.57,2.57,0,0,0,1.88-.7,3,3,0,0,0,.72-2.19A3.37,3.37,0,0,0,131.47,4a2.53,2.53,0,0,0-2.08-.76h-1.63V9.12Z"></path><path class="casinotopp-logo-cls" d="M141.53,5.8a2.91,2.91,0,0,1-1,.16,2.87,2.87,0,0,1-1-.16,2.29,2.29,0,0,1-.75-.44,2.21,2.21,0,0,1-.51-.63A3,3,0,0,1,138,4a3.65,3.65,0,0,1,0-1.61,3,3,0,0,1,.31-.75,2.12,2.12,0,0,1,.51-.64,2.27,2.27,0,0,1,.75-.43,2.87,2.87,0,0,1,1-.16,2.91,2.91,0,0,1,1,.16,2.27,2.27,0,0,1,.75.43,2.48,2.48,0,0,1,.51.64,2.68,2.68,0,0,1,.3.75,3.69,3.69,0,0,1,0,1.62,2.68,2.68,0,0,1-.3.75,2.66,2.66,0,0,1-.51.64A2.27,2.27,0,0,1,141.53,5.8Zm-1-.2a2.45,2.45,0,0,0,.83-.13A1.94,1.94,0,0,0,142,5.1a2.37,2.37,0,0,0,.44-.55,2.39,2.39,0,0,0,.26-.66,3.28,3.28,0,0,0,0-1.44,2.67,2.67,0,0,0-.26-.66,2.12,2.12,0,0,0-.44-.54,1.78,1.78,0,0,0-.63-.37,2.75,2.75,0,0,0-1.67,0,1.83,1.83,0,0,0-.64.37,2.09,2.09,0,0,0-.43.54,2.7,2.7,0,0,0-.27.66,3.28,3.28,0,0,0,0,1.44,2.7,2.7,0,0,0,.27.66,2.33,2.33,0,0,0,.43.55,2,2,0,0,0,.64.37A2.47,2.47,0,0,0,140.53,5.6Zm-1.16-.77V1.49h1.14a2.68,2.68,0,0,1,.52,0,1.14,1.14,0,0,1,.38.13.62.62,0,0,1,.26.27,1.17,1.17,0,0,1,.08.45,1.25,1.25,0,0,1-.09.52.72.72,0,0,1-.36.32l.57,1.61h-1l-.43-1.43h-.12V4.83Zm.95-1.9h.13c.29,0,.43-.16.43-.47S140.75,2,140.5,2h-.18Z"></path></svg>