<svg style="display:block;fill:rgba(0,0,0,.8);height:24px;width:140px" id="casinotop-logo" enable-background="new 0 0 129.2 20" version="1.1" viewBox="0 0 129.2 20" xml:space="preserve" xmlns="http://www.w3.org/2000/svg">
    <path class="casinotop-logo-0" d="m8.2 3.8c-0.4-0.7-1.1-1.1-1.8-1-0.4 0-0.9 0.1-1.2 0.4-0.4 0.4-0.7 0.8-0.8 1.3-0.2 0.8-0.4 1.5-0.4 2.3-0.1 1-0.1 2.1-0.1 3.5 0 1.2 0 2.4 0.1 3.6 0.1 0.7 0.2 1.5 0.5 2.1 0.1 0.4 0.4 0.8 0.8 1 0.3 0.2 0.7 0.3 1.1 0.2 0.3 0 0.7 0 1-0.2 0.3-0.1 0.6-0.4 0.8-0.7 0.3-0.5 0.4-1 0.5-1.5 0.1-0.8 0.2-1.7 0.2-2.5h3.9c0 1-0.1 2-0.2 3-0.1 0.9-0.4 1.7-0.9 2.5-0.5 0.7-1.1 1.3-1.9 1.6-1 0.4-2.1 0.6-3.1 0.6-1.2 0.1-2.4-0.2-3.5-0.7-0.9-0.5-1.5-1.1-2-2-0.5-1-0.8-2.1-0.9-3.2-0.2-1.4-0.3-2.7-0.3-4.1 0-1.3 0.1-2.7 0.2-4 0.1-1.1 0.4-2.2 0.9-3.2 0.4-0.9 1.1-1.6 2-2.1 1.1-0.5 2.3-0.8 3.5-0.7 1.1-0.1 2.3 0.2 3.3 0.7 0.7 0.4 1.4 1 1.8 1.7s0.7 1.5 0.8 2.2 0.2 1.5 0.1 2.3h-3.9c0-1-0.1-2.1-0.5-3.1z"></path>
    <path class="casinotop-logo-0" d="m23.5 0.4 5.1 19.3h-4.1l-0.9-4.1h-5.2l-0.9 4.1h-4.1l5.1-19.3h5zm-0.5 12-1.9-8.6h-0.1l-1.9 8.7 3.9-0.1z"></path>
    <path class="casinotop-logo-0" d="m33.2 14.2c0 0.4 0 0.8 0.1 1.2 0.1 0.3 0.2 0.7 0.4 0.9 0.2 0.3 0.5 0.5 0.8 0.6 0.4 0.1 0.8 0.2 1.3 0.2 0.6 0 1.2-0.2 1.6-0.6 0.5-0.5 0.8-1.1 0.7-1.8 0-0.4-0.1-0.8-0.2-1.1s-0.3-0.6-0.6-0.9-0.7-0.5-1.1-0.7c-0.5-0.2-1.1-0.5-1.6-0.6-0.8-0.3-1.5-0.6-2.2-0.9-0.6-0.3-1.1-0.7-1.6-1.2-0.4-0.5-0.7-1-0.9-1.6-0.2-0.7-0.3-1.4-0.3-2.1-0.1-1.6 0.5-3.2 1.6-4.3 1.2-1 2.8-1.5 4.4-1.4 0.8 0 1.6 0.1 2.4 0.3 0.7 0.2 1.3 0.5 1.9 0.9 0.5 0.4 1 1 1.2 1.6 0.3 0.7 0.5 1.6 0.5 2.4v0.5h-3.7c0-0.7-0.1-1.5-0.5-2.1-0.4-0.5-1-0.8-1.6-0.7-0.4 0-0.7 0.1-1.1 0.2-0.5 0.2-0.9 0.7-1 1.2-0.1 0.3-0.1 0.6-0.1 0.8 0 0.5 0.1 1 0.4 1.5 0.4 0.5 1 0.9 1.6 1.1l3 1.3c0.6 0.3 1.2 0.6 1.8 1 0.4 0.3 0.8 0.7 1.1 1.1s0.5 0.9 0.6 1.3c0.1 0.5 0.2 1.1 0.2 1.6 0.1 1.7-0.5 3.3-1.8 4.5-1.5 1-3.2 1.5-5 1.4-2.2 0-3.8-0.5-4.7-1.4-1-1.1-1.5-2.6-1.4-4.1v-0.8h3.9l-0.1 0.7z"></path>
    <path class="casinotop-logo-0" d="M44.3,0.4h3.9v19.3h-3.9V0.4z"></path>
    <path class="casinotop-logo-0" d="m60.3 13.6 0.1-13.2h3.6v19.3h-4.5l-4.8-13.5v13.5h-3.6v-19.3h4.5l4.7 13.2z"></path>
    <path class="casinotop-logo-0" d="m66.4 6c0.1-1.1 0.4-2.2 0.9-3.2 0.4-0.9 1.1-1.6 2-2.1 2.2-1 4.8-1 7 0 0.9 0.5 1.6 1.2 2 2.1 0.5 1 0.8 2.1 0.9 3.2 0.1 1.3 0.2 2.7 0.2 4 0 1.4-0.1 2.7-0.2 4.1-0.1 1.1-0.4 2.2-0.9 3.2-0.5 0.9-1.1 1.5-2 2-2.2 0.9-4.8 0.9-7 0-0.9-0.5-1.5-1.1-2-2-0.5-1-0.8-2.1-0.9-3.2-0.1-1.3-0.2-2.7-0.2-4.1 0-1.3 0.1-2.7 0.2-4zm3.8 7.4c0 0.7 0.2 1.5 0.4 2.2 0.1 0.5 0.4 0.9 0.8 1.2 0.9 0.5 1.9 0.5 2.8 0 0.4-0.3 0.7-0.8 0.8-1.2 0.2-0.7 0.3-1.5 0.4-2.2 0.1-0.9 0.1-2 0.1-3.3 0-1.1 0-2.2-0.1-3.3 0-0.8-0.2-1.5-0.4-2.2-0.1-0.5-0.4-0.9-0.8-1.3-0.9-0.5-1.9-0.5-2.8 0-0.4 0.3-0.7 0.7-0.8 1.2-0.2 0.7-0.3 1.5-0.4 2.2-0.1 0.9-0.1 2-0.1 3.3s0.1 2.5 0.1 3.4z"></path>
    <path class="casinotop-logo-0" d="M93,3.6h-4.2v16.1h-3.9V3.6h-4.2V0.4H93V3.6z"></path>
    <path class="casinotop-logo-0" d="m94.5 6c0.1-1.1 0.4-2.2 0.9-3.2 0.4-0.9 1.1-1.6 2-2.1 2.2-1 4.8-1 7 0 0.9 0.5 1.6 1.2 2 2.1 0.5 1 0.8 2.1 0.9 3.2 0.1 1.3 0.2 2.7 0.2 4 0 1.4-0.1 2.7-0.2 4.1-0.1 1.1-0.4 2.2-0.9 3.2-0.5 0.9-1.1 1.5-2 2-2.2 0.9-4.8 0.9-7 0-0.9-0.5-1.5-1.1-2-2-0.5-1-0.8-2.1-0.9-3.2-0.1-1.3-0.2-2.7-0.2-4.1 0-1.3 0.1-2.7 0.2-4zm3.8 7.4c0 0.7 0.2 1.5 0.4 2.2 0.1 0.5 0.4 0.9 0.8 1.2 0.9 0.5 1.9 0.5 2.8 0 0.4-0.3 0.7-0.8 0.8-1.2 0.2-0.7 0.3-1.5 0.4-2.2 0.1-0.9 0.1-2 0.1-3.3 0-1.1 0-2.2-0.1-3.3 0-0.8-0.2-1.5-0.4-2.2-0.1-0.5-0.4-0.9-0.8-1.3-0.9-0.5-1.9-0.5-2.8 0-0.4 0.3-0.7 0.8-0.8 1.3-0.2 0.7-0.3 1.5-0.4 2.2-0.1 0.9-0.1 2-0.1 3.3s0 2.4 0.1 3.3z"></path>
    <path class="casinotop-logo-0" d="m116.6 0.4c0.9 0 1.7 0.1 2.5 0.5 0.6 0.3 1.2 0.8 1.6 1.3 0.4 0.6 0.7 1.2 0.9 1.9s0.3 1.4 0.3 2.1c0 0.9-0.1 1.8-0.4 2.6-0.3 0.7-0.7 1.3-1.2 1.8-0.6 0.5-1.2 0.9-1.9 1.1-0.8 0.2-1.7 0.4-2.5 0.4h-2.1v7.7h-3.9v-19.4h6.7zm-1.2 8.7c0.7 0 1.4-0.2 1.9-0.7 0.5-0.6 0.8-1.4 0.7-2.2 0.1-0.8-0.1-1.6-0.6-2.2s-1.3-0.8-2.1-0.8h-1.6v5.9h1.7z"></path>
    <path class="casinotop-logo-0" d="m127.5 5.8c-0.3 0.1-0.7 0.2-1 0.2s-0.7 0-1-0.2c-0.3-0.1-0.5-0.2-0.8-0.4-0.2-0.2-0.4-0.4-0.5-0.6s-0.2-0.5-0.3-0.7c-0.1-0.5-0.1-1.1 0-1.6 0.1-0.3 0.2-0.5 0.3-0.8 0.1-0.2 0.3-0.5 0.5-0.6 0.2-0.2 0.5-0.3 0.8-0.4s0.7-0.2 1-0.2 0.7 0 1 0.2c0.3 0.1 0.5 0.2 0.8 0.4 0.2 0.2 0.4 0.4 0.5 0.6s0.2 0.5 0.3 0.8c0.1 0.5 0.1 1.1 0 1.6-0.1 0.3-0.2 0.5-0.3 0.8-0.1 0.2-0.3 0.5-0.5 0.6-0.3 0.1-0.5 0.2-0.8 0.3zm-1-0.2c0.3 0 0.6 0 0.8-0.1s0.5-0.2 0.6-0.4c0.2-0.2 0.3-0.3 0.4-0.6 0.1-0.2 0.2-0.4 0.3-0.7 0.1-0.5 0.1-1 0-1.4-0.1-0.2-0.1-0.5-0.3-0.7-0.1-0.2-0.3-0.4-0.4-0.5-0.2-0.2-0.4-0.3-0.6-0.4-0.5-0.2-1.1-0.2-1.7 0-0.2 0.1-0.5 0.2-0.6 0.4-0.2 0.2-0.3 0.3-0.4 0.5s-0.2 0.4-0.3 0.7c-0.1 0.5-0.1 1 0 1.4 0.1 0.2 0.2 0.5 0.3 0.7s0.3 0.4 0.4 0.6c0.2 0.2 0.4 0.3 0.6 0.4 0.3 0.1 0.6 0.1 0.9 0.1zm-1.2-0.8v-3.3h1.1 0.5c0.1 0 0.3 0.1 0.4 0.1l0.3 0.3c0.1 0.1 0.1 0.3 0.1 0.4 0 0.2 0 0.4-0.1 0.5s-0.2 0.3-0.4 0.3l0.6 1.6h-1l-0.4-1.4h-0.1v1.5h-1zm1-1.9h0.1c0.3 0 0.4-0.2 0.4-0.5s-0.1-0.4-0.4-0.4h-0.2l0.1 0.9z"></path>
  </svg>