<svg id="casinoutanlicens-logo" data-name="Casinoutanlicens Logo" xmlns="http://www.w3.org/2000/svg" viewBox="0 0 212 50"><defs><style>.casinoutanlicens-logo-1{fill:#0078ba;}.casinoutanlicens-logo-2{fill:#004b87;}.casinoutanlicens-logo-3{fill:#28282f;}.casinoutanlicens-logo-4{fill:#ffcd00;}.casinoutanlicens-logo-5{fill:#000;}</style></defs><path class="casinoutanlicens-logo-1" d="M28.49.25l1,.15Z"></path><path class="casinoutanlicens-logo-1" d="M27.09.09l.92.1Z"></path><path class="casinoutanlicens-logo-1" d="M25.63,0c.32,0,.64,0,.95,0C26.27,0,26,0,25.63,0Z"></path><path class="casinoutanlicens-logo-1" d="M29.86.48c.41.08.82.17,1.22.27C30.68.65,30.27.56,29.86.48Z"></path><path class="casinoutanlicens-logo-1" d="M43.05,7.71c.26.27.51.54.76.82C43.56,8.25,43.31,8,43.05,7.71Z"></path><path class="casinoutanlicens-logo-1" d="M42.62,7.26l.13.13Z"></path><path class="casinoutanlicens-logo-1" d="M22.18.16c.41,0,.82-.08,1.23-.1C23,.08,22.59.12,22.18.16Z"></path><path class="casinoutanlicens-logo-1" d="M7.26,7.39l.13-.13Z"></path><path class="casinoutanlicens-logo-1" d="M18.94.74c.42-.1.85-.2,1.29-.28C19.79.54,19.36.64,18.94.74Z"></path><path class="casinoutanlicens-logo-1" d="M25,0c-.45,0-.89,0-1.34,0,.5,0,1,0,1.5,0Z"></path><path class="casinoutanlicens-logo-1" d="M6.18,8.56c.26-.31.54-.61.82-.9C6.72,8,6.44,8.25,6.18,8.56Z"></path><path class="casinoutanlicens-logo-1" d="M20.66.38,21.71.22Z"></path><path class="casinoutanlicens-logo-1" d="M44.05,8.82c.26.3.52.62.77.94C44.57,9.44,44.31,9.12,44.05,8.82Z"></path><path class="casinoutanlicens-logo-1" d="M43.83,41.44c-.27.31-.54.61-.82.9C43.29,42.05,43.56,41.75,43.83,41.44Z"></path><path class="casinoutanlicens-logo-1" d="M47.29,36.33q-.27.54-.57,1.05Q47,36.87,47.29,36.33Z"></path><path class="casinoutanlicens-logo-1" d="M49,32c-.11.39-.23.77-.36,1.15C48.79,32.72,48.91,32.34,49,32Z"></path><path class="casinoutanlicens-logo-1" d="M48.57,33.36a25.2,25.2,0,0,1-1.15,2.72A25.2,25.2,0,0,0,48.57,33.36Z"></path><path class="casinoutanlicens-logo-1" d="M45,9.93c.29.39.58.79.85,1.19C45.53,10.72,45.24,10.32,45,9.93Z"></path><path class="casinoutanlicens-logo-1" d="M44.84,40.21c-.26.34-.53.67-.81,1C44.31,40.88,44.58,40.55,44.84,40.21Z"></path><path class="casinoutanlicens-logo-1" d="M45.8,38.87c-.27.42-.56.82-.86,1.22C45.24,39.69,45.53,39.29,45.8,38.87Z"></path><path class="casinoutanlicens-logo-1" d="M49.18,18.6a2.25,2.25,0,0,1,0,.22A2.25,2.25,0,0,0,49.18,18.6Z"></path><path class="casinoutanlicens-logo-1" d="M45.87,11.24c.24.36.47.73.69,1.1C46.34,12,46.11,11.6,45.87,11.24Z"></path><path class="casinoutanlicens-logo-1" d="M46.73,12.64c.19.33.38.67.55,1C47.11,13.31,46.92,13,46.73,12.64Z"></path><path class="casinoutanlicens-logo-1" d="M48.66,16.92c.13.37.25.74.35,1.11C48.91,17.66,48.79,17.29,48.66,16.92Z"></path><path class="casinoutanlicens-logo-1" d="M47.42,13.93a23,23,0,0,1,1.14,2.7A23,23,0,0,0,47.42,13.93Z"></path><path class="casinoutanlicens-logo-1" d="M46.56,37.65c-.23.39-.46.78-.71,1.15C46.1,38.43,46.33,38,46.56,37.65Z"></path><path class="casinoutanlicens-logo-1" d="M22.91,49.91l-.91-.1Z"></path><path class="casinoutanlicens-logo-1" d="M21.51,49.75l-1-.15Z"></path><path class="casinoutanlicens-logo-1" d="M24.37,50c-.32,0-.63,0-.95,0C23.74,50,24.05,50,24.37,50Z"></path><path class="casinoutanlicens-logo-1" d="M25,50c.45,0,.9,0,1.34,0-.5,0-1,0-1.5,0Z"></path><path class="casinoutanlicens-logo-1" d="M7.38,42.73l-.11-.11Z"></path><path class="casinoutanlicens-logo-1" d="M20.15,49.52c-.41-.08-.82-.17-1.22-.27C19.33,49.35,19.74,49.44,20.15,49.52Z"></path><path class="casinoutanlicens-logo-1" d="M31,49.26c-.41.11-.82.2-1.24.28C30.21,49.46,30.62,49.37,31,49.26Z"></path><path class="casinoutanlicens-logo-1" d="M31.39,49.17l-.2.06Z"></path><path class="casinoutanlicens-logo-1" d="M42.74,42.62l-.12.12Z"></path><path class="casinoutanlicens-logo-1" d="M27.82,49.84c-.4,0-.8.08-1.21.1C27,49.92,27.42,49.88,27.82,49.84Z"></path><path class="casinoutanlicens-logo-1" d="M29.33,49.62l-1,.16Z"></path><path class="casinoutanlicens-logo-1" d="M7,42.29l-.75-.82Z"></path><path class="casinoutanlicens-logo-1" d="M5.16,9.79c.26-.34.54-.67.81-1C5.7,9.12,5.42,9.45,5.16,9.79Z"></path><path class="casinoutanlicens-logo-1" d="M.83,31.39l-.06-.21Z"></path><path class="casinoutanlicens-logo-1" d="M1,18.05q.17-.57.36-1.14Q1.15,17.48,1,18.05Z"></path><path class="casinoutanlicens-logo-1" d="M2.72,13.65c.18-.34.37-.68.56-1C3.09,13,2.9,13.31,2.72,13.65Z"></path><path class="casinoutanlicens-logo-1" d="M1.44,16.63a24.82,24.82,0,0,1,1.14-2.7A24.82,24.82,0,0,0,1.44,16.63Z"></path><path class="casinoutanlicens-logo-1" d="M4.2,11.13c.28-.42.57-.82.87-1.22C4.77,10.31,4.48,10.71,4.2,11.13Z"></path><path class="casinoutanlicens-logo-1" d="M3.45,12.34c.22-.38.46-.76.7-1.13C3.91,11.58,3.67,12,3.45,12.34Z"></path><path class="casinoutanlicens-logo-1" d="M2.58,36.06a25.36,25.36,0,0,1-1.14-2.68A25.36,25.36,0,0,0,2.58,36.06Z"></path><path class="casinoutanlicens-logo-1" d="M5.06,40.07c-.3-.39-.58-.78-.85-1.19C4.48,39.29,4.76,39.68,5.06,40.07Z"></path><path class="casinoutanlicens-logo-1" d="M4.12,38.74c-.23-.35-.45-.71-.67-1.07C3.67,38,3.89,38.39,4.12,38.74Z"></path><path class="casinoutanlicens-logo-1" d="M3.27,37.35c-.19-.33-.37-.66-.54-1C2.9,36.69,3.08,37,3.27,37.35Z"></path><path class="casinoutanlicens-logo-1" d="M1.34,33.06C1.21,32.7,1.1,32.34,1,32,1.1,32.34,1.21,32.7,1.34,33.06Z"></path><path class="casinoutanlicens-logo-1" d="M6,41.18q-.39-.45-.75-.93Q5.56,40.73,6,41.18Z"></path><path class="casinoutanlicens-logo-1" d="M18.6.83l.23-.06Z"></path><path class="casinoutanlicens-logo-1" d="M43.76,25.21a18.76,18.76,0,0,1-.57,4.34l6,1.62-.06.26a25.07,25.07,0,0,0,.07-12.6l-6.06,1.62A18.21,18.21,0,0,1,43.76,25.21Z"></path><path class="casinoutanlicens-logo-1" d="M19.51,42.93,19,42.76c-.46-.16-.91-.32-1.35-.51l-.43-.2c-.35-.16-.68-.33-1-.5l-.47-.26q-.62-.34-1.2-.75l-.44-.31c-.3-.22-.6-.44-.88-.67l-.37-.31c-.3-.25-.58-.51-.86-.77L7.55,42.89a25,25,0,0,0,10.69,6.18l1.61-6Z"></path><path class="casinoutanlicens-logo-1" d="M30.49,7.07l.53.17c.46.16.92.32,1.36.51l.42.2q.53.24,1,.51c.16.08.32.16.47.25q.62.34,1.2.75l.45.31c.3.22.59.44.87.67.13.1.26.2.38.31l.86.77h0l4.42-4.42A25,25,0,0,0,31.77.93L30.15,7Z"></path><path class="casinoutanlicens-logo-1" d="M18.57,49.16l.26.07h0Z"></path><path class="casinoutanlicens-logo-1" d="M31.44.84,31.18.77h0Z"></path><path class="casinoutanlicens-logo-1" d="M13.06,10.54l.36-.28c.39-.31.79-.61,1.21-.89l.26-.16q.54-.35,1.11-.66l.43-.23c.43-.22.87-.43,1.32-.62l.45-.17c.36-.14.73-.28,1.11-.4L19.77,7l.08,0-1.61-6A25,25,0,0,0,7.55,7.11L12,11.52C12.31,11.18,12.68,10.86,13.06,10.54Z"></path><path class="casinoutanlicens-logo-1" d="M38.05,38.48h0c-.36.34-.73.66-1.11,1l-.35.28c-.4.31-.8.61-1.22.89l-.25.16c-.36.23-.73.45-1.11.65l-.43.24c-.43.22-.88.43-1.33.62l-.44.17c-.37.14-.74.28-1.11.4l-.46.14-.09,0,1.62,6a25,25,0,0,0,10.69-6.18l-4.41-4.41Z"></path><path class="casinoutanlicens-logo-1" d="M6.64,28.8c0-.1,0-.21-.07-.31-.1-.52-.17-1.06-.23-1.6l0-.4c0-.56-.07-1.12-.07-1.7h0c0-.57,0-1.14.11-1.7l0-.35c.06-.51.15-1,.25-1.49,0-.17.07-.33.11-.5l.06-.31h0l-6-1.61c0-.09,0-.18.07-.26A24.75,24.75,0,0,0,0,25a25.07,25.07,0,0,0,.77,6.17l6-1.61C6.74,29.31,6.69,29.05,6.64,28.8Z"></path><path class="casinoutanlicens-logo-2" d="M18.23.93h0l.36-.1Z"></path><path class="casinoutanlicens-logo-2" d="M31.18.77l-.1,0,.1,0Z"></path><path class="casinoutanlicens-logo-2" d="M31.77.93,31.44.84l.33.09Z"></path><path class="casinoutanlicens-logo-2" d="M29.46.4l.4.08Z"></path><path class="casinoutanlicens-logo-2" d="M28,.19l.48.06Z"></path><path class="casinoutanlicens-logo-2" d="M20.23.46l.43-.08Z"></path><path class="casinoutanlicens-logo-2" d="M23.41.06l.25,0Z"></path><path class="casinoutanlicens-logo-2" d="M21.71.22l.47-.06Z"></path><path class="casinoutanlicens-logo-2" d="M28.3,49.78l-.48.06Z"></path><path class="casinoutanlicens-logo-2" d="M18.83.77h0l.11,0Z"></path><path class="casinoutanlicens-logo-2" d="M26.58.05l.51,0Z"></path><path class="casinoutanlicens-logo-2" d="M23.42,50l-.51,0Z"></path><path class="casinoutanlicens-logo-2" d="M25.28,0h-.12l.47,0Z"></path><path class="casinoutanlicens-logo-2" d="M42.46,7.11h0l.16.15Z"></path><path class="casinoutanlicens-logo-2" d="M49.08,31.77l.09-.34L49,32Z"></path><path class="casinoutanlicens-logo-2" d="M42.9,7.54h0l-.15-.15.3.32Z"></path><path class="casinoutanlicens-logo-2" d="M26.61,49.94l-.27,0Z"></path><polygon class="casinoutanlicens-logo-2" points="49.23 18.83 49.23 18.82 49.23 18.83 49.23 18.83"></polygon><path class="casinoutanlicens-logo-2" d="M47.42,36.08l-.13.25Z"></path><path class="casinoutanlicens-logo-2" d="M48.66,33.1l-.09.26Z"></path><path class="casinoutanlicens-logo-2" d="M46.72,37.38c0,.09-.1.18-.16.27C46.62,37.56,46.67,37.47,46.72,37.38Z"></path><path class="casinoutanlicens-logo-2" d="M49.08,18.23c0-.07,0-.13-.07-.2.06.19.12.38.17.57C49.14,18.48,49.11,18.36,49.08,18.23Z"></path><path class="casinoutanlicens-logo-2" d="M43.81,8.53l.24.29Z"></path><path class="casinoutanlicens-logo-2" d="M24.72,50h.12l-.47,0Z"></path><path class="casinoutanlicens-logo-2" d="M44.82,9.76l.13.17Z"></path><path class="casinoutanlicens-logo-2" d="M48.56,16.63c0,.1.07.2.1.29C48.63,16.83,48.6,16.73,48.56,16.63Z"></path><path class="casinoutanlicens-logo-2" d="M45.8,11.12a.75.75,0,0,1,.07.12A.75.75,0,0,0,45.8,11.12Z"></path><path class="casinoutanlicens-logo-2" d="M47.28,13.66c0,.09.1.18.14.27C47.38,13.84,47.33,13.75,47.28,13.66Z"></path><path class="casinoutanlicens-logo-2" d="M46.56,12.34l.17.3Z"></path><path class="casinoutanlicens-logo-2" d="M1.44,33.38c0-.11-.07-.21-.1-.32C1.37,33.17,1.41,33.27,1.44,33.38Z"></path><path class="casinoutanlicens-logo-2" d="M44,41.21l-.2.23Z"></path><path class="casinoutanlicens-logo-2" d="M6.2,41.47,6,41.18Z"></path><path class="casinoutanlicens-logo-2" d="M7.11,42.46h0l.16.16L7,42.29Z"></path><path class="casinoutanlicens-logo-2" d="M5.2,40.25l-.14-.18Z"></path><path class="casinoutanlicens-logo-2" d="M3.45,37.67l-.18-.32Z"></path><path class="casinoutanlicens-logo-2" d="M44.94,40.09l-.1.12Z"></path><path class="casinoutanlicens-logo-2" d="M29.79,49.54l-.46.08Z"></path><path class="casinoutanlicens-logo-2" d="M4.21,38.88l-.09-.14Z"></path><path class="casinoutanlicens-logo-2" d="M42.46,42.89l.16-.15-.16.15Z"></path><path class="casinoutanlicens-logo-2" d="M31.77,49.07h0l-.38.1Z"></path><path class="casinoutanlicens-logo-2" d="M42.74,42.62l.16-.16h0l.11-.12Z"></path><path class="casinoutanlicens-logo-2" d="M18.23,49.07l.34.09-.33-.09Z"></path><path class="casinoutanlicens-logo-2" d="M7.54,7.11l-.15.15.16-.15Z"></path><path class="casinoutanlicens-logo-2" d="M31.18,49.23h0l-.16,0Z"></path><path class="casinoutanlicens-logo-2" d="M18.83,49.23l.1,0-.1,0Z"></path><path class="casinoutanlicens-logo-2" d="M7.54,42.89h0l-.17-.16Z"></path><path class="casinoutanlicens-logo-2" d="M5.07,9.91l.09-.12Z"></path><path class="casinoutanlicens-logo-2" d="M4.15,11.21a.56.56,0,0,1,0-.08A.56.56,0,0,0,4.15,11.21Z"></path><path class="casinoutanlicens-logo-2" d="M3.28,12.63c.05-.1.11-.19.17-.29C3.39,12.44,3.33,12.53,3.28,12.63Z"></path><path class="casinoutanlicens-logo-2" d="M7.11,7.54h0L7,7.66l.26-.27Z"></path><path class="casinoutanlicens-logo-2" d="M6,8.79l.21-.23Z"></path><path class="casinoutanlicens-logo-2" d="M45.85,38.8l-.05.07Z"></path><path class="casinoutanlicens-logo-2" d="M22,49.81l-.49-.06Z"></path><polygon class="casinoutanlicens-logo-2" points="0.77 31.17 0.77 31.18 0.77 31.17 0.77 31.17"></polygon><path class="casinoutanlicens-logo-2" d="M20.55,49.6l-.4-.08Z"></path><path class="casinoutanlicens-logo-2" d="M.93,31.77,1,32c-.05-.19-.11-.38-.16-.58C.86,31.52.89,31.64.93,31.77Z"></path><path class="casinoutanlicens-logo-2" d="M2.73,36.35l-.15-.29Z"></path><path class="casinoutanlicens-logo-2" d="M.93,18.23l-.09.34L1,18.05Z"></path><path class="casinoutanlicens-logo-2" d="M2.58,13.93a2.44,2.44,0,0,0,.14-.28A2.44,2.44,0,0,1,2.58,13.93Z"></path><path class="casinoutanlicens-logo-2" d="M1.35,16.91l.09-.28Z"></path><path class="casinoutanlicens-logo-2" d="M30.15,43c-.46.13-.93.24-1.41.34l-.53.09c-.39.07-.79.12-1.19.17l-.53,0c-.56.05-1.12.07-1.7.07s-1.12,0-1.68-.11l-.47,0q-.74-.09-1.44-.24l-.45-.1-.9-.22h0l-1.61,6,.33.09.26.07h0l.1,0c.4.1.81.19,1.22.27l.4.08,1,.15.49.06.91.1.51,0c.32,0,.63,0,.95,0l.47,0c.5,0,1,0,1.5,0l.27,0c.41,0,.81-.06,1.21-.1l.48-.06,1-.16.46-.08c.42-.08.83-.17,1.24-.28l.16,0,.2-.06.38-.1-1.62-6Z"></path><path class="casinoutanlicens-logo-2" d="M43.18,20.45l6.06-1.62h0a2.25,2.25,0,0,0,0-.22c0-.19-.11-.38-.17-.57-.1-.37-.22-.74-.35-1.11,0-.09-.06-.19-.1-.29a23,23,0,0,0-1.14-2.7c0-.09-.09-.18-.14-.27-.17-.35-.36-.69-.55-1l-.17-.3c-.22-.37-.45-.74-.69-1.1a.75.75,0,0,0-.07-.12c-.27-.4-.56-.8-.85-1.19l-.13-.17c-.25-.32-.51-.64-.77-.94l-.24-.29c-.25-.28-.5-.55-.76-.82l-.3-.32-.13-.13-.16-.15L38,11.53A18.77,18.77,0,0,1,43.18,20.45Z"></path><path class="casinoutanlicens-logo-2" d="M43.83,41.44l.2-.23c.28-.33.55-.66.81-1l.1-.12c.3-.4.59-.8.86-1.22l.05-.07c.25-.37.48-.76.71-1.15.06-.09.11-.18.16-.27q.3-.51.57-1.05l.13-.25a25.2,25.2,0,0,0,1.15-2.72l.09-.26c.13-.38.25-.76.36-1.15l.15-.52.06-.26-6-1.62a18.83,18.83,0,0,1-5.14,8.93l4.41,4.41.16-.15.12-.12.27-.28C43.29,42.05,43.56,41.75,43.83,41.44Z"></path><path class="casinoutanlicens-logo-2" d="M19.85,7c.47-.13.94-.24,1.42-.34l.52-.09c.4-.07.79-.12,1.19-.17l.53-.05c.56,0,1.13-.07,1.7-.07s1.13,0,1.69.11l.46.05c.49.06,1,.14,1.45.24l.44.1.9.22h0l1.62-6L31.44.84,31.18.77h0l-.1,0c-.4-.1-.81-.19-1.22-.27L29.46.4l-1-.15L28,.19l-.92-.1-.51,0c-.31,0-.63,0-.95,0l-.47,0c-.5,0-1,0-1.5,0l-.25,0c-.41,0-.82.06-1.23.1l-.47.06L20.66.38l-.43.08c-.44.08-.87.18-1.29.28l-.11,0L18.6.83l-.36.1,1.61,6Z"></path><path class="casinoutanlicens-logo-2" d="M6.8,20.44c.07-.27.16-.54.24-.81s.13-.44.2-.66c.15-.42.3-.83.47-1.23.08-.2.17-.39.26-.58s.3-.62.46-.93.18-.35.28-.52c.25-.43.51-.86.79-1.28.09-.12.19-.24.28-.37.22-.31.46-.62.7-.92l.36-.43c.28-.31.56-.62.86-.92.08-.08.15-.17.24-.25l0,0h0L7.55,7.11l-.16.15-.13.13L7,7.66c-.28.29-.56.59-.82.9L6,8.79c-.27.33-.55.66-.81,1l-.09.12c-.3.4-.59.8-.87,1.22a.56.56,0,0,0,0,.08c-.24.37-.48.75-.7,1.13-.06.1-.12.19-.17.29-.19.34-.38.68-.56,1a2.44,2.44,0,0,1-.14.28,24.82,24.82,0,0,0-1.14,2.7l-.09.28q-.2.57-.36,1.14l-.15.52c0,.08,0,.17-.07.26Z"></path><path class="casinoutanlicens-logo-2" d="M12,38.48l-.16-.17-.47-.48c-.22-.24-.43-.48-.64-.73l-.4-.47c-.31-.39-.6-.78-.87-1.19L9.13,35c-.19-.31-.38-.62-.55-.94s-.19-.34-.28-.52q-.3-.59-.57-1.2c0-.09-.08-.17-.11-.26a15.26,15.26,0,0,1-.52-1.48C7,30.41,7,30.24,7,30.07s-.11-.34-.15-.51h0l-6,1.61h0l.06.21c.05.2.11.39.16.58.11.37.22.73.35,1.09,0,.11.07.21.1.32a25.36,25.36,0,0,0,1.14,2.68l.15.29c.17.34.35.67.54,1l.18.32c.22.36.44.72.67,1.07l.09.14c.27.41.55.8.85,1.19l.14.18q.36.48.75.93l.25.29.75.82.32.33.11.11.17.16L12,38.48Z"></path><path class="casinoutanlicens-logo-3" d="M36.94,39.46l-.35.28Z"></path><path class="casinoutanlicens-logo-3" d="M35.37,40.63l-.25.16Z"></path><path class="casinoutanlicens-logo-3" d="M34,41.44l-.43.24Z"></path><path class="casinoutanlicens-logo-3" d="M6.34,26.89l0-.4Z"></path><path class="casinoutanlicens-logo-3" d="M33.82,8.46c.16.08.32.16.47.25C34.14,8.62,34,8.54,33.82,8.46Z"></path><path class="casinoutanlicens-logo-3" d="M32.38,7.75l.42.2Z"></path><path class="casinoutanlicens-logo-3" d="M6.64,28.8c0-.1,0-.21-.07-.31C6.59,28.59,6.62,28.7,6.64,28.8Z"></path><path class="casinoutanlicens-logo-3" d="M35.49,9.46l.45.31Z"></path><path class="casinoutanlicens-logo-3" d="M14.51,40.54l-.44-.31Z"></path><path class="casinoutanlicens-logo-3" d="M16,8.55l.43-.23Z"></path><path class="casinoutanlicens-logo-3" d="M13.19,39.56l-.37-.31Z"></path><path class="casinoutanlicens-logo-3" d="M13.06,10.54l.36-.28Z"></path><path class="casinoutanlicens-logo-3" d="M17.75,7.7l.45-.17Z"></path><path class="casinoutanlicens-logo-3" d="M16.18,41.55l-.47-.26Z"></path><path class="casinoutanlicens-logo-3" d="M14.63,9.37l.26-.16Z"></path><path class="casinoutanlicens-logo-3" d="M6.35,23.09l0-.35Z"></path><path class="casinoutanlicens-logo-3" d="M6.63,21.25c0-.17.07-.33.11-.5C6.7,20.92,6.66,21.08,6.63,21.25Z"></path><path class="casinoutanlicens-logo-3" d="M19.31,7.13,19.77,7Z"></path><path class="casinoutanlicens-logo-3" d="M30.49,7.07l.53.17Z"></path><path class="casinoutanlicens-logo-3" d="M19.51,42.93,19,42.76Z"></path><path class="casinoutanlicens-logo-3" d="M36.81,10.44c.13.1.26.2.38.31C37.07,10.64,36.94,10.54,36.81,10.44Z"></path><path class="casinoutanlicens-logo-3" d="M30.7,42.87l-.46.14Z"></path><path class="casinoutanlicens-logo-3" d="M17.63,42.25l-.43-.2Z"></path><path class="casinoutanlicens-logo-3" d="M32.25,42.3l-.44.17Z"></path><path class="casinoutanlicens-logo-3" d="M7,19.63c.06-.22.13-.44.2-.66C7.17,19.19,7.1,19.41,7,19.63Z"></path><path class="casinoutanlicens-logo-3" d="M28.81,6.64l.44.1Z"></path><path class="casinoutanlicens-logo-3" d="M7.73,32.32c0-.09-.08-.17-.11-.26C7.65,32.15,7.7,32.23,7.73,32.32Z"></path><path class="casinoutanlicens-logo-3" d="M7.1,30.58C7,30.41,7,30.24,7,30.07,7,30.24,7,30.41,7.1,30.58Z"></path><path class="casinoutanlicens-logo-3" d="M27,43.64l-.53,0Z"></path><path class="casinoutanlicens-logo-3" d="M28.74,43.38l-.53.09Z"></path><path class="casinoutanlicens-logo-3" d="M9.5,14.43c.09-.12.19-.24.28-.37C9.69,14.19,9.59,14.31,9.5,14.43Z"></path><path class="casinoutanlicens-logo-3" d="M21.27,6.62l.52-.09Z"></path><path class="casinoutanlicens-logo-3" d="M10.48,13.14l.36-.43Z"></path><path class="casinoutanlicens-logo-3" d="M11.7,11.79c.08-.08.15-.17.24-.25C11.85,11.62,11.78,11.71,11.7,11.79Z"></path><path class="casinoutanlicens-logo-3" d="M7.71,17.74c.08-.2.17-.39.26-.58C7.88,17.35,7.79,17.54,7.71,17.74Z"></path><path class="casinoutanlicens-logo-3" d="M23,6.36l.53-.05Z"></path><path class="casinoutanlicens-logo-3" d="M8.43,16.23c.09-.17.18-.35.28-.52C8.61,15.88,8.52,16.06,8.43,16.23Z"></path><path class="casinoutanlicens-logo-3" d="M26.9,6.35l.46.05Z"></path><path class="casinoutanlicens-logo-3" d="M9.42,35.44,9.13,35Z"></path><path class="casinoutanlicens-logo-3" d="M10.69,37.1l-.4-.47Z"></path><path class="casinoutanlicens-logo-3" d="M21.2,43.36l-.45-.1Z"></path><path class="casinoutanlicens-logo-3" d="M11.8,38.31l-.47-.48Z"></path><path class="casinoutanlicens-logo-3" d="M8.58,34c-.1-.17-.19-.34-.28-.52C8.39,33.7,8.48,33.87,8.58,34Z"></path><path class="casinoutanlicens-logo-3" d="M23.11,43.65l-.47,0Z"></path><path class="casinoutanlicens-logo-4" d="M14.07,40.23c-.3-.22-.6-.44-.88-.67C13.47,39.79,13.77,40,14.07,40.23Z"></path><path class="casinoutanlicens-logo-4" d="M19,42.76c-.46-.16-.91-.32-1.35-.51C18.07,42.44,18.52,42.6,19,42.76Z"></path><path class="casinoutanlicens-logo-4" d="M30.15,43l.09,0-.09,0Z"></path><path class="casinoutanlicens-logo-4" d="M13.06,10.54c-.38.32-.75.64-1.1,1h0C12.31,11.18,12.68,10.86,13.06,10.54Z"></path><path class="casinoutanlicens-logo-4" d="M30.49,7.07,30.15,7V7Z"></path><path class="casinoutanlicens-logo-4" d="M19.51,42.93l.34.11v0Z"></path><path class="casinoutanlicens-logo-4" d="M15.71,41.29q-.62-.34-1.2-.75Q15.1,40.95,15.71,41.29Z"></path><path class="casinoutanlicens-logo-4" d="M35.12,40.79c-.36.23-.73.45-1.11.65C34.39,41.24,34.76,41,35.12,40.79Z"></path><path class="casinoutanlicens-logo-4" d="M31.81,42.47c-.37.14-.74.28-1.11.4C31.07,42.75,31.44,42.61,31.81,42.47Z"></path><path class="casinoutanlicens-logo-4" d="M17.2,42.05c-.35-.16-.68-.33-1-.5C16.52,41.72,16.85,41.89,17.2,42.05Z"></path><path class="casinoutanlicens-logo-4" d="M16.43,8.32c.43-.22.87-.43,1.32-.62C17.3,7.89,16.86,8.1,16.43,8.32Z"></path><path class="casinoutanlicens-logo-4" d="M13.42,10.26c.39-.31.79-.61,1.21-.89C14.21,9.65,13.81,10,13.42,10.26Z"></path><path class="casinoutanlicens-logo-4" d="M18.2,7.53c.36-.14.73-.28,1.11-.4C18.93,7.25,18.56,7.39,18.2,7.53Z"></path><path class="casinoutanlicens-logo-4" d="M14.89,9.21q.54-.35,1.11-.66Q15.43,8.86,14.89,9.21Z"></path><path class="casinoutanlicens-logo-4" d="M36.59,39.74c-.4.31-.8.61-1.22.89C35.79,40.35,36.19,40.05,36.59,39.74Z"></path><path class="casinoutanlicens-logo-4" d="M12,38.48c.28.26.56.52.86.77-.3-.25-.57-.51-.85-.78Z"></path><path class="casinoutanlicens-logo-4" d="M33.58,41.68c-.43.22-.88.43-1.33.62C32.7,42.11,33.15,41.9,33.58,41.68Z"></path><path class="casinoutanlicens-logo-4" d="M6.24,24.79c0,.58,0,1.14.07,1.7,0-.56-.07-1.12-.07-1.7Z"></path><path class="casinoutanlicens-logo-4" d="M19.85,7l-.08,0,.08,0Z"></path><path class="casinoutanlicens-logo-4" d="M6.8,20.44h0l-.06.31c0-.1,0-.2.08-.3Z"></path><path class="casinoutanlicens-logo-4" d="M6.24,24.79c0-.57,0-1.14.11-1.7C6.29,23.65,6.25,24.22,6.24,24.79Z"></path><path class="casinoutanlicens-logo-4" d="M6.57,28.49c-.1-.52-.17-1.06-.23-1.6C6.4,27.43,6.47,28,6.57,28.49Z"></path><path class="casinoutanlicens-logo-4" d="M31,7.24c.46.16.92.32,1.36.51C31.94,7.56,31.48,7.4,31,7.24Z"></path><path class="casinoutanlicens-logo-4" d="M38.05,11.52l-.86-.77c.29.25.57.51.85.78Z"></path><path class="casinoutanlicens-logo-4" d="M38.05,38.48h0c-.36.34-.73.66-1.11,1C37.32,39.14,37.69,38.82,38.05,38.48Z"></path><path class="casinoutanlicens-logo-4" d="M34.29,8.71q.62.34,1.2.75Q34.91,9.06,34.29,8.71Z"></path><path class="casinoutanlicens-logo-4" d="M6.64,28.8c.05.25.1.51.16.76h0C6.76,29.3,6.69,29.05,6.64,28.8Z"></path><path class="casinoutanlicens-logo-4" d="M32.8,8q.53.24,1,.51Q33.33,8.19,32.8,8Z"></path><path class="casinoutanlicens-logo-4" d="M35.94,9.77c.3.22.59.44.87.67C36.53,10.21,36.24,10,35.94,9.77Z"></path><path class="casinoutanlicens-logo-4" d="M6.38,22.74c.06-.51.15-1,.25-1.49C6.53,21.74,6.44,22.23,6.38,22.74Z"></path><path class="casinoutanlicens-logo-4" d="M27.36,6.4c.49.06,1,.14,1.45.24C28.34,6.54,27.85,6.46,27.36,6.4Z"></path><path class="casinoutanlicens-logo-4" d="M21.79,6.53c.4-.07.79-.13,1.19-.17C22.58,6.41,22.19,6.46,21.79,6.53Z"></path><path class="casinoutanlicens-logo-4" d="M9.13,35c-.19-.31-.38-.62-.55-.94C8.75,34.36,8.94,34.67,9.13,35Z"></path><path class="casinoutanlicens-logo-4" d="M26.9,6.35c-.56-.06-1.12-.1-1.69-.11s-1.14,0-1.7.07c.56,0,1.13-.07,1.7-.07S26.34,6.29,26.9,6.35Z"></path><path class="casinoutanlicens-logo-4" d="M10.29,36.63c-.31-.39-.6-.78-.87-1.19C9.69,35.85,10,36.24,10.29,36.63Z"></path><path class="casinoutanlicens-logo-4" d="M21.27,6.62c-.48.1-.95.21-1.42.34h0C20.32,6.84,20.79,6.72,21.27,6.62Z"></path><path class="casinoutanlicens-logo-4" d="M12,11.52h0l0,0,0,0Z"></path><path class="casinoutanlicens-logo-4" d="M7.62,32.06a15.26,15.26,0,0,1-.52-1.48A15.26,15.26,0,0,0,7.62,32.06Z"></path><path class="casinoutanlicens-logo-4" d="M8.3,33.52q-.3-.59-.57-1.2Q8,32.93,8.3,33.52Z"></path><path class="casinoutanlicens-logo-4" d="M11.33,37.83c-.22-.24-.43-.48-.64-.73C10.9,37.35,11.11,37.59,11.33,37.83Z"></path><path class="casinoutanlicens-logo-4" d="M22.64,43.6q-.74-.09-1.44-.24Q21.91,43.51,22.64,43.6Z"></path><path class="casinoutanlicens-logo-4" d="M28.21,43.47c-.39.07-.79.13-1.19.17C27.42,43.59,27.82,43.54,28.21,43.47Z"></path><path class="casinoutanlicens-logo-4" d="M30.15,7h0l-.9-.22c.31.07.6.15.9.24Z"></path><path class="casinoutanlicens-logo-4" d="M11.8,38.31l.16.17h0Z"></path><path class="casinoutanlicens-logo-4" d="M9.78,14.06c.22-.31.46-.62.7-.92C10.24,13.44,10,13.75,9.78,14.06Z"></path><path class="casinoutanlicens-logo-4" d="M10.84,12.71c.28-.31.56-.62.86-.92C11.4,12.09,11.12,12.4,10.84,12.71Z"></path><path class="casinoutanlicens-logo-4" d="M23.11,43.65c.56.06,1.12.1,1.68.11s1.14,0,1.7-.07c-.56,0-1.12.07-1.7.07S23.67,43.71,23.11,43.65Z"></path><path class="casinoutanlicens-logo-4" d="M19.85,43h0l.9.22c-.3-.07-.6-.15-.89-.24Z"></path><path class="casinoutanlicens-logo-4" d="M8.71,15.71c.25-.43.51-.86.79-1.28C9.22,14.85,9,15.28,8.71,15.71Z"></path><path class="casinoutanlicens-logo-4" d="M6.8,29.56h0c0,.17.1.34.15.51,0-.17-.09-.34-.13-.52Z"></path><path class="casinoutanlicens-logo-4" d="M7.24,19c.15-.42.3-.83.47-1.23C7.54,18.14,7.39,18.55,7.24,19Z"></path><path class="casinoutanlicens-logo-4" d="M7,19.63c-.08.27-.17.54-.24.81h0C6.89,20.17,7,19.9,7,19.63Z"></path><path class="casinoutanlicens-logo-4" d="M8,17.16c.15-.32.3-.62.46-.93C8.27,16.54,8.12,16.84,8,17.16Z"></path><path class="casinoutanlicens-logo-4" d="M28.74,43.38c.48-.1,1-.21,1.41-.34h0C29.69,43.16,29.22,43.28,28.74,43.38Z"></path><path class="casinoutanlicens-logo-4" d="M34.91,35.34A14.34,14.34,0,0,1,29,38.76a14.21,14.21,0,0,1-8,0,14.32,14.32,0,0,1-9.9-10.34,13.71,13.71,0,0,1,0-6.82,14.23,14.23,0,0,1,4-6.93A14.44,14.44,0,0,1,21,11.24a14.17,14.17,0,0,1,8,0,14.36,14.36,0,0,1,5.9,3.41L38,11.53c-.28-.27-.56-.53-.85-.78-.12-.11-.25-.21-.38-.31-.28-.23-.57-.45-.87-.67l-.45-.31q-.59-.41-1.2-.75c-.15-.09-.31-.17-.47-.25q-.49-.27-1-.51l-.42-.2c-.44-.19-.9-.35-1.36-.51l-.53-.17L30.15,7c-.3-.09-.59-.17-.9-.24l-.44-.1c-.47-.1-1-.18-1.45-.24l-.46-.05c-.56-.06-1.12-.1-1.69-.11s-1.14,0-1.7.07L23,6.36c-.4,0-.79.1-1.19.17l-.52.09c-.48.1-.95.22-1.42.35l-.08,0-.46.14c-.38.12-.75.26-1.11.4l-.45.17c-.45.19-.89.4-1.32.62L16,8.55q-.57.31-1.11.66l-.26.16c-.42.28-.82.58-1.21.89l-.36.28c-.38.32-.75.64-1.1,1l0,0c-.09.08-.16.17-.24.25-.3.3-.58.61-.86.92l-.36.43c-.24.3-.48.61-.7.92-.09.13-.19.25-.28.37-.28.42-.54.85-.79,1.28-.1.17-.19.35-.28.52s-.31.61-.46.93-.18.38-.26.58c-.17.4-.32.81-.47,1.23-.07.22-.14.44-.2.66s-.15.54-.22.82c0,.1-.06.2-.08.3s-.08.33-.11.5c-.1.49-.19,1-.25,1.49l0,.35c-.06.56-.1,1.13-.11,1.7h0c0,.58,0,1.14.07,1.7l0,.4c.06.54.13,1.08.23,1.6,0,.1,0,.21.07.31s.12.5.18.75.08.35.13.52.09.34.15.51a15.26,15.26,0,0,0,.52,1.48c0,.09.08.17.11.26q.27.61.57,1.2c.09.18.18.35.28.52s.36.63.55.94l.29.46c.27.41.56.8.87,1.19l.4.47c.21.25.42.49.64.73l.47.48.17.16c.28.27.55.53.85.78l.37.31c.28.23.58.45.88.67l.44.31q.59.41,1.2.75l.47.26c.34.17.67.34,1,.5l.43.2c.44.19.89.35,1.35.51l.53.17.35.09c.29.09.59.17.89.24l.45.1q.71.15,1.44.24l.47,0c.56.06,1.12.1,1.68.11s1.14,0,1.7-.07l.53,0c.4,0,.8-.1,1.19-.17l.53-.09c.48-.1,1-.22,1.41-.35l.09,0,.46-.14c.37-.12.74-.26,1.11-.4l.44-.17c.45-.19.9-.4,1.33-.62l.43-.24c.38-.2.75-.42,1.11-.65l.25-.16c.42-.28.82-.58,1.22-.89l.35-.28c.38-.32.75-.64,1.11-1Z"></path><path class="casinoutanlicens-logo-5" d="M28.59,27.76H21.46l-1.54,3.42H18.51l5.86-12.8H25.7l5.86,12.8H30.13Zm-.49-1.1L25,19.79,22,26.66Z"></path><path class="casinoutanlicens-logo-5" d="M35.39,30.84a5.05,5.05,0,0,1-2-1.21l.53-1a5.13,5.13,0,0,0,1.85,1.12,6.63,6.63,0,0,0,2.37.43,4.34,4.34,0,0,0,2.58-.63,1.93,1.93,0,0,0,.86-1.64,1.62,1.62,0,0,0-.46-1.22A3.19,3.19,0,0,0,40,25.94c-.45-.16-1.08-.34-1.88-.54a21.06,21.06,0,0,1-2.31-.7,3.8,3.8,0,0,1-1.47-1,2.73,2.73,0,0,1-.61-1.88A3.18,3.18,0,0,1,34.19,20a3.57,3.57,0,0,1,1.57-1.28,6.6,6.6,0,0,1,2.64-.47,7.81,7.81,0,0,1,2.15.3,6.22,6.22,0,0,1,1.82.83l-.46,1.08a6.23,6.23,0,0,0-1.72-.79,6.32,6.32,0,0,0-1.79-.27,4.14,4.14,0,0,0-2.53.65A2,2,0,0,0,35,21.74,1.67,1.67,0,0,0,35.48,23a3,3,0,0,0,1.17.71,18.06,18.06,0,0,0,1.9.54,18.25,18.25,0,0,1,2.27.69,3.72,3.72,0,0,1,1.48,1,2.74,2.74,0,0,1,.6,1.86,3.11,3.11,0,0,1-.52,1.76,3.59,3.59,0,0,1-1.6,1.27,6.75,6.75,0,0,1-2.66.46A8.32,8.32,0,0,1,35.39,30.84Z"></path><path class="casinoutanlicens-logo-5" d="M46.76,18.38h1.35v12.8H46.76Z"></path><path class="casinoutanlicens-logo-5" d="M63.9,18.38v12.8H62.78L54.55,20.79V31.18H53.2V18.38h1.11l8.25,10.39V18.38Z"></path><path class="casinoutanlicens-logo-5" d="M71.13,30.44a6.21,6.21,0,0,1-2.41-2.33,6.81,6.81,0,0,1,0-6.66,6.21,6.21,0,0,1,2.41-2.33,7.42,7.42,0,0,1,6.88,0,6.27,6.27,0,0,1,2.41,2.33,6.78,6.78,0,0,1,0,6.68A6.27,6.27,0,0,1,78,30.45a7.42,7.42,0,0,1-6.88,0Zm6.2-1a5.08,5.08,0,0,0,1.92-1.9,5.71,5.71,0,0,0,0-5.44,5.08,5.08,0,0,0-1.92-1.9,5.9,5.9,0,0,0-5.5,0,5.06,5.06,0,0,0-1.94,1.9,5.63,5.63,0,0,0,0,5.44,5.06,5.06,0,0,0,1.94,1.9,5.83,5.83,0,0,0,5.5,0Z"></path><path class="casinoutanlicens-logo-5" d="M86.1,29.88a5.82,5.82,0,0,1-1.53-4.33V18.38h3v7.06q0,3.43,2.86,3.44a2.7,2.7,0,0,0,2.12-.83,3.89,3.89,0,0,0,.73-2.61V18.38h2.93v7.17a5.82,5.82,0,0,1-1.53,4.33,6.76,6.76,0,0,1-8.54,0Z"></path><path class="casinoutanlicens-logo-5" d="M102.44,20.79h-4.1V18.38H109.5v2.41h-4.09V31.18h-3Z"></path><path class="casinoutanlicens-logo-5" d="M119.8,28.44h-5.94l-1.14,2.74h-3l5.7-12.8h2.93l5.73,12.8h-3.11Zm-.93-2.25-2-4.9-2,4.9Z"></path><path class="casinoutanlicens-logo-5" d="M138,18.38v12.8h-2.43l-6.39-7.77v7.77H126.3V18.38h2.45l6.36,7.77V18.38Z"></path><path class="casinoutanlicens-logo-5" d="M142.56,18.38h1.35V30h7.17v1.17h-8.52Z"></path><path class="casinoutanlicens-logo-5" d="M154.25,18.38h1.35v12.8h-1.35Z"></path><path class="casinoutanlicens-logo-5" d="M162.82,30.45a6.18,6.18,0,0,1-2.4-2.33,6.85,6.85,0,0,1,0-6.68,6.14,6.14,0,0,1,2.41-2.33,7,7,0,0,1,3.44-.84,7.23,7.23,0,0,1,2.63.47,5.45,5.45,0,0,1,2,1.39l-.86.86a5.1,5.1,0,0,0-3.79-1.51,5.6,5.6,0,0,0-2.76.69,5.09,5.09,0,0,0-1.95,1.9,5.6,5.6,0,0,0,0,5.42,5.09,5.09,0,0,0,1.95,1.9,5.6,5.6,0,0,0,2.76.7,5.06,5.06,0,0,0,3.79-1.54l.86.86a5.63,5.63,0,0,1-2.06,1.4,7.12,7.12,0,0,1-2.64.48A7,7,0,0,1,162.82,30.45Z"></path><path class="casinoutanlicens-logo-5" d="M183.81,30v1.17h-9.05V18.38h8.78v1.17h-7.43V24.1h6.62v1.16h-6.62V30Z"></path><path class="casinoutanlicens-logo-5" d="M198.61,18.38v12.8h-1.12l-8.23-10.39V31.18h-1.35V18.38H189l8.25,10.39V18.38Z"></path><path class="casinoutanlicens-logo-5" d="M204.49,30.84a5.05,5.05,0,0,1-2-1.21l.53-1a5.13,5.13,0,0,0,1.85,1.12,6.68,6.68,0,0,0,2.38.43,4.33,4.33,0,0,0,2.57-.63,1.93,1.93,0,0,0,.86-1.64,1.62,1.62,0,0,0-.46-1.22,3.11,3.11,0,0,0-1.15-.71c-.45-.16-1.07-.34-1.88-.54a20.14,20.14,0,0,1-2.3-.7,3.76,3.76,0,0,1-1.48-1,2.73,2.73,0,0,1-.61-1.88,3.18,3.18,0,0,1,.51-1.76,3.54,3.54,0,0,1,1.58-1.28,6.51,6.51,0,0,1,2.63-.47,7.81,7.81,0,0,1,2.15.3,6.22,6.22,0,0,1,1.82.83L211,20.48a6.1,6.1,0,0,0-1.72-.79,6.27,6.27,0,0,0-1.79-.27,4.14,4.14,0,0,0-2.53.65,2,2,0,0,0-.85,1.67,1.67,1.67,0,0,0,.46,1.24,3,3,0,0,0,1.17.71,18.06,18.06,0,0,0,1.9.54,17.73,17.73,0,0,1,2.27.69,3.72,3.72,0,0,1,1.48,1,2.74,2.74,0,0,1,.6,1.86,3.11,3.11,0,0,1-.52,1.76,3.59,3.59,0,0,1-1.6,1.27,6.73,6.73,0,0,1-2.65.46A8.33,8.33,0,0,1,204.49,30.84Z"></path></svg>