<svg id="Layer_1" enable-background="new 0 0 512 512" height="512" viewBox="0 0 512 512" width="512" xmlns="http://www.w3.org/2000/svg"><g><g id="XMLID_34_"><g><g id="XMLID_1530_"><g id="XMLID_1531_"><g id="XMLID_1545_"><g id="XMLID_1548_"><g id="XMLID_1551_"><g id="XMLID_1607_"><g id="XMLID_1659_"><g id="XMLID_1673_"><g id="XMLID_1674_"><g id="XMLID_1675_"><g id="XMLID_1676_"><g id="XMLID_1686_"><g id="XMLID_1743_"><g id="XMLID_1971_"><circle cx="256" cy="256" fill="#00337a" r="256"/></g></g></g></g></g></g></g></g></g></g></g></g></g></g></g></g><path d="m512 256c0-15.751-1.431-31.167-4.155-46.132h-.176l.128-.25c-.348-1.904-.712-3.802-1.103-5.691h-4.966l3.043-5.941-118.815-118.815-284.951 203.157 129.091 128.077-35.569 45.842 55.681 55.681c1.926.042 3.855.072 5.792.072 141.385 0 256-114.615 256-256z" fill="#002659"/><g><path d="m385.956 79.171h-180.04l-104.911 203.157h130.98l-37.459 173.918 191.43-231.891h-74.365z" fill="#ffe05f"/><path d="m311.587 224.363h74.369l-124.4 150.692v-295.879h124.4z" fill="#f9cb0d"/></g></g></svg>