<svg width="165" height="25" viewBox="0 0 165 25" fill="none" xmlns="http://www.w3.org/2000/svg">
<path d="M0 0.677712C0 0.117353 0.641513 -0.200038 1.08611 0.140352L10.7846 7.56558C11.1383 7.83633 11.1383 8.36954 10.7846 8.6403L1.08612 16.0655C0.641513 16.4059 0 16.0885 0 15.5282V0.677712Z" fill="#3F53D9"/>
<path d="M25 24.3223C25 24.8826 24.3585 25.2 23.9139 24.8596L14.2154 17.4344C13.8617 17.1637 13.8617 16.6305 14.2154 16.3597L23.9139 8.93447C24.3585 8.59408 25 8.91147 25 9.47183V24.3223Z" fill="#3F53D9"/>
<path d="M0.849771 24.3301C-0.428792 22.7493 -0.185304 20.4302 1.39362 19.1501L24.0031 0.820067C24.0555 0.777595 24.1323 0.785683 24.1748 0.838133C25.4474 2.41163 25.2051 4.72012 23.6334 5.99428L0.997597 24.3457C0.952485 24.3822 0.886301 24.3753 0.849771 24.3301Z" fill="#3F53D9"/>
<path d="M37.0222 9.30041C38.3351 9.30041 39.3527 9.59534 40.0748 10.1852C40.8101 10.775 41.2959 11.4883 41.5323 12.3251L39.0113 13.2716C38.7487 12.0233 38.0988 11.3992 37.0616 11.3992C36.3131 11.3992 35.7289 11.6735 35.3087 12.2222C34.9017 12.7709 34.6982 13.5871 34.6982 14.6708C34.6982 15.7682 34.9083 16.5844 35.3284 17.1193C35.7617 17.6406 36.346 17.9012 37.0812 17.9012C38.2235 17.9012 38.9063 17.2908 39.1295 16.07L41.5716 16.893C41.3484 17.8121 40.8495 18.5597 40.0748 19.1358C39.3133 19.7119 38.322 20 37.1009 20C36.0768 20 35.1774 19.7874 34.4028 19.3621C33.6412 18.9369 33.0504 18.3265 32.6302 17.5309C32.2101 16.7353 32 15.775 32 14.6502C32 13.5254 32.2101 12.5652 32.6302 11.7695C33.0635 10.9739 33.6544 10.3635 34.4028 9.93827C35.1643 9.51303 36.0374 9.30041 37.0222 9.30041Z" fill="#312E4C"/>
<path d="M49.2812 13.2305C49.2812 12.6406 49.1171 12.1811 48.7888 11.8519C48.4737 11.5226 48.0536 11.358 47.5284 11.358C47.0426 11.358 46.6159 11.4883 46.2482 11.749C45.8806 12.0096 45.6114 12.4417 45.4407 13.0453L43.1365 12.3045C43.3597 11.3992 43.8455 10.6722 44.5939 10.1235C45.3554 9.57476 46.373 9.30041 47.6466 9.30041C48.9333 9.30041 49.9705 9.62277 50.7583 10.2675C51.5592 10.8985 51.9597 11.845 51.9597 13.107V17.284C51.9597 17.8052 52.196 18.0658 52.6687 18.0658C52.8919 18.0658 53.102 18.0316 53.2989 17.963L53.1414 19.7119C52.8 19.8903 52.3733 19.9794 51.8612 19.9794C51.2966 19.9794 50.8043 19.856 50.3841 19.6091C49.9771 19.3621 49.7014 18.9918 49.5569 18.4979C49.2418 18.9918 48.7888 19.369 48.198 19.6296C47.6203 19.8765 47.0229 20 46.4058 20C45.4079 20 44.6136 19.7668 44.0227 19.3004C43.445 18.8203 43.1561 18.1276 43.1561 17.2222C43.1561 16.454 43.3925 15.8299 43.8652 15.3498C44.3378 14.856 45.014 14.5199 45.8937 14.3416L49.2812 13.6214V13.2305ZM45.8543 16.9547C45.8543 17.2977 45.9725 17.5583 46.2088 17.7366C46.4583 17.915 46.7537 18.0041 47.0951 18.0041C47.4759 18.0041 47.8304 17.9424 48.1586 17.8189C48.4869 17.6955 48.756 17.4897 48.9661 17.2016C49.1762 16.8999 49.2812 16.5021 49.2812 16.0082V15.3704L47.2133 15.8025C46.7669 15.8985 46.4255 16.0288 46.1891 16.1934C45.9659 16.3443 45.8543 16.5981 45.8543 16.9547Z" fill="#312E4C"/>
<path d="M58.9163 20C57.9184 20 57.0059 19.8148 56.1787 19.4444C55.3646 19.0741 54.7016 18.5528 54.1895 17.8807L55.7454 16.2346C56.0605 16.7284 56.4807 17.1331 57.0059 17.4486C57.5311 17.7641 58.1547 17.9218 58.8769 17.9218C59.3889 17.9218 59.796 17.8464 60.0979 17.6955C60.4131 17.5309 60.5706 17.2771 60.5706 16.9342C60.5706 16.7147 60.4984 16.5295 60.354 16.3786C60.2095 16.214 59.9207 16.0837 59.4874 15.9877L57.7543 15.6173C56.612 15.3704 55.7979 15 55.3121 14.5062C54.8394 13.9986 54.6031 13.3471 54.6031 12.5514C54.6031 11.989 54.7607 11.4609 55.0758 10.9671C55.404 10.4733 55.8898 10.0754 56.5332 9.77366C57.1766 9.45816 57.9775 9.30041 58.9359 9.30041C60.9317 9.30041 62.3628 9.93827 63.2294 11.214L61.6144 12.8601C61.3256 12.38 60.9448 12.0165 60.4721 11.7695C60.0126 11.5089 59.5268 11.3786 59.0147 11.3786C57.8593 11.3786 57.2816 11.7147 57.2816 12.3868C57.2816 12.6063 57.3735 12.7984 57.5573 12.963C57.7411 13.1139 58.0759 13.2442 58.5618 13.3539L60.5706 13.786C61.5422 13.9918 62.2381 14.3416 62.6583 14.8354C63.0784 15.3155 63.2885 15.8985 63.2885 16.5844C63.2885 17.572 62.9077 18.3882 62.1462 19.0329C61.3978 19.6776 60.3211 20 58.9163 20Z" fill="#312E4C"/>
<path d="M66.7991 8.02469C65.683 8.02469 65.125 7.52401 65.125 6.52263C65.125 5.50754 65.683 5 66.7991 5C67.9151 5 68.4731 5.50754 68.4731 6.52263C68.4731 7.52401 67.9151 8.02469 66.7991 8.02469ZM68.1383 9.50617V19.7942H65.4401V9.50617H68.1383Z" fill="#312E4C"/>
<path d="M70.9985 19.7942V9.50617H73.421L73.5194 11.4403C73.8214 10.727 74.2613 10.192 74.839 9.83539C75.4298 9.47874 76.106 9.30041 76.8676 9.30041C77.8917 9.30041 78.7386 9.61591 79.4082 10.2469C80.0778 10.8642 80.4126 11.797 80.4126 13.0453V19.7942H77.7144V13.8477C77.7144 12.9698 77.5437 12.3663 77.2024 12.037C76.8741 11.6941 76.454 11.5226 75.9419 11.5226C75.5743 11.5226 75.2132 11.6187 74.8587 11.8107C74.5173 11.989 74.235 12.284 74.0118 12.6955C73.8017 13.107 73.6967 13.6557 73.6967 14.3416V19.7942H70.9985Z" fill="#312E4C"/>
<path d="M87.6827 9.30041C88.6675 9.30041 89.5406 9.51303 90.3021 9.93827C91.0637 10.3635 91.6545 10.9739 92.0747 11.7695C92.508 12.5652 92.7246 13.5254 92.7246 14.6502C92.7246 15.775 92.508 16.7353 92.0747 17.5309C91.6545 18.3265 91.0637 18.9369 90.3021 19.3621C89.5406 19.7874 88.6675 20 87.6827 20C86.6849 20 85.8052 19.7874 85.0436 19.3621C84.2952 18.9369 83.7044 18.3265 83.2711 17.5309C82.851 16.7353 82.6409 15.775 82.6409 14.6502C82.6409 13.5254 82.851 12.5652 83.2711 11.7695C83.7044 10.9739 84.2952 10.3635 85.0436 9.93827C85.8052 9.51303 86.6849 9.30041 87.6827 9.30041ZM87.6827 11.3992C86.9475 11.3992 86.3698 11.6735 85.9496 12.2222C85.5426 12.7572 85.3391 13.5665 85.3391 14.6502C85.3391 15.7339 85.5426 16.5501 85.9496 17.0988C86.3698 17.6337 86.9475 17.9012 87.6827 17.9012C88.4049 17.9012 88.9695 17.6337 89.3765 17.0988C89.7966 16.5501 90.0067 15.7339 90.0067 14.6502C90.0067 13.5665 89.7966 12.7572 89.3765 12.2222C88.9695 11.6735 88.4049 11.3992 87.6827 11.3992Z" fill="#312E4C"/>
<path d="M98.9212 20C97.9233 20 97.0108 19.8148 96.1836 19.4444C95.3696 19.0741 94.7065 18.5528 94.1945 17.8807L95.7504 16.2346C96.0655 16.7284 96.4856 17.1331 97.0108 17.4486C97.536 17.7641 98.1597 17.9218 98.8818 17.9218C99.3939 17.9218 99.8009 17.8464 100.103 17.6955C100.418 17.5309 100.576 17.2771 100.576 16.9342C100.576 16.7147 100.503 16.5295 100.359 16.3786C100.215 16.214 99.9256 16.0837 99.4924 15.9877L97.7592 15.6173C96.6169 15.3704 95.8029 15 95.3171 14.5062C94.8444 13.9986 94.6081 13.3471 94.6081 12.5514C94.6081 11.989 94.7656 11.4609 95.0807 10.9671C95.409 10.4733 95.8948 10.0754 96.5381 9.77366C97.1815 9.45816 97.9824 9.30041 98.9409 9.30041C100.937 9.30041 102.368 9.93827 103.234 11.214L101.619 12.8601C101.331 12.38 100.95 12.0165 100.477 11.7695C100.018 11.5089 99.5317 11.3786 99.0197 11.3786C97.8643 11.3786 97.2865 11.7147 97.2865 12.3868C97.2865 12.6063 97.3784 12.7984 97.5623 12.963C97.7461 13.1139 98.0809 13.2442 98.5667 13.3539L100.576 13.786C101.547 13.9918 102.243 14.3416 102.663 14.8354C103.083 15.3155 103.293 15.8985 103.293 16.5844C103.293 17.572 102.913 18.3882 102.151 19.0329C101.403 19.6776 100.326 20 98.9212 20Z" fill="#312E4C"/>
<path d="M112.082 9.50617V11.6049H108.931V16.4403C108.931 16.9342 109.049 17.2977 109.286 17.5309C109.535 17.7503 109.87 17.8601 110.29 17.8601C110.631 17.8601 110.92 17.8121 111.157 17.7161C111.406 17.6063 111.629 17.4623 111.826 17.284L112.259 19.1564C111.931 19.417 111.531 19.6228 111.058 19.7737C110.599 19.9246 110.106 20 109.581 20C108.596 20 107.789 19.7668 107.159 19.3004C106.541 18.8203 106.233 18.0178 106.233 16.893V11.6049H104.421V9.50617H106.233V7.13992L108.931 6.35802V9.50617H112.082Z" fill="#312E4C"/>
<path d="M118.477 20C116.928 20 115.687 19.5336 114.755 18.6008C113.822 17.6543 113.356 16.3374 113.356 14.6502C113.356 13.5254 113.566 12.5652 113.986 11.7695C114.407 10.9739 114.991 10.3635 115.739 9.93827C116.501 9.51303 117.367 9.30041 118.339 9.30041C119.337 9.30041 120.184 9.51303 120.88 9.93827C121.576 10.3498 122.107 10.9191 122.475 11.6461C122.843 12.3594 123.026 13.1756 123.026 14.0947C123.026 14.369 123.02 14.6296 123.007 14.8765C122.994 15.1235 122.974 15.3429 122.948 15.535H115.995C116.1 16.3306 116.363 16.9273 116.783 17.3251C117.216 17.7092 117.774 17.9012 118.457 17.9012C119.035 17.9012 119.501 17.7846 119.855 17.5514C120.21 17.3182 120.486 16.9959 120.683 16.5844L122.829 17.4486C122.514 18.2579 121.963 18.8889 121.175 19.3416C120.387 19.7805 119.488 20 118.477 20ZM118.319 11.3786C117.046 11.3786 116.278 12.1125 116.015 13.5802H120.446C120.368 12.8669 120.144 12.3251 119.777 11.9547C119.422 11.5706 118.936 11.3786 118.319 11.3786Z" fill="#312E4C"/>
<path d="M125.313 19.7942V9.50617H127.657L127.834 11.5226C128.083 10.823 128.458 10.2812 128.956 9.89712C129.469 9.49931 130.112 9.30041 130.887 9.30041C131.346 9.30041 131.701 9.37586 131.95 9.52675L131.635 11.893C131.504 11.8519 131.34 11.8176 131.143 11.7901C130.959 11.749 130.716 11.7284 130.414 11.7284C130.007 11.7284 129.62 11.8313 129.252 12.037C128.897 12.2291 128.602 12.5309 128.366 12.9424C128.129 13.3402 128.011 13.8477 128.011 14.465V19.7942H125.313Z" fill="#312E4C"/>
<path d="M137.311 20C136.313 20 135.4 19.8148 134.573 19.4444C133.759 19.0741 133.096 18.5528 132.584 17.8807L134.14 16.2346C134.455 16.7284 134.875 17.1331 135.4 17.4486C135.925 17.7641 136.549 17.9218 137.271 17.9218C137.783 17.9218 138.19 17.8464 138.492 17.6955C138.807 17.5309 138.965 17.2771 138.965 16.9342C138.965 16.7147 138.893 16.5295 138.748 16.3786C138.604 16.214 138.315 16.0837 137.882 15.9877L136.149 15.6173C135.006 15.3704 134.192 15 133.706 14.5062C133.234 13.9986 132.997 13.3471 132.997 12.5514C132.997 11.989 133.155 11.4609 133.47 10.9671C133.798 10.4733 134.284 10.0754 134.928 9.77366C135.571 9.45816 136.372 9.30041 137.33 9.30041C139.326 9.30041 140.757 9.93827 141.624 11.214L140.009 12.8601C139.72 12.38 139.339 12.0165 138.866 11.7695C138.407 11.5089 137.921 11.3786 137.409 11.3786C136.254 11.3786 135.676 11.7147 135.676 12.3868C135.676 12.6063 135.768 12.7984 135.952 12.963C136.135 13.1139 136.47 13.2442 136.956 13.3539L138.965 13.786C139.937 13.9918 140.632 14.3416 141.053 14.8354C141.473 15.3155 141.683 15.8985 141.683 16.5844C141.683 17.572 141.302 18.3882 140.541 19.0329C139.792 19.6776 138.715 20 137.311 20Z" fill="#312E4C"/>
<path d="M148.286 9.30041C149.271 9.30041 150.144 9.51303 150.906 9.93827C151.667 10.3635 152.258 10.9739 152.678 11.7695C153.112 12.5652 153.328 13.5254 153.328 14.6502C153.328 15.775 153.112 16.7353 152.678 17.5309C152.258 18.3265 151.667 18.9369 150.906 19.3621C150.144 19.7874 149.271 20 148.286 20C147.289 20 146.409 19.7874 145.647 19.3621C144.899 18.9369 144.308 18.3265 143.875 17.5309C143.455 16.7353 143.245 15.775 143.245 14.6502C143.245 13.5254 143.455 12.5652 143.875 11.7695C144.308 10.9739 144.899 10.3635 145.647 9.93827C146.409 9.51303 147.289 9.30041 148.286 9.30041ZM148.286 11.3992C147.551 11.3992 146.973 11.6735 146.553 12.2222C146.146 12.7572 145.943 13.5665 145.943 14.6502C145.943 15.7339 146.146 16.5501 146.553 17.0988C146.973 17.6337 147.551 17.9012 148.286 17.9012C149.009 17.9012 149.573 17.6337 149.98 17.0988C150.4 16.5501 150.61 15.7339 150.61 14.6502C150.61 13.5665 150.4 12.7572 149.98 12.2222C149.573 11.6735 149.009 11.3992 148.286 11.3992Z" fill="#312E4C"/>
<path d="M155.586 19.7942V9.50617H158.008L158.107 11.4403C158.409 10.727 158.849 10.192 159.426 9.83539C160.017 9.47874 160.693 9.30041 161.455 9.30041C162.479 9.30041 163.326 9.61591 163.996 10.2469C164.665 10.8642 165 11.797 165 13.0453V19.7942H162.302V13.8477C162.302 12.9698 162.131 12.3663 161.79 12.037C161.462 11.6941 161.041 11.5226 160.529 11.5226C160.162 11.5226 159.801 11.6187 159.446 11.8107C159.105 11.989 158.822 12.284 158.599 12.6955C158.389 13.107 158.284 13.6557 158.284 14.3416V19.7942H155.586Z" fill="#312E4C"/>
</svg>
