<?xml version="1.0" encoding="UTF-8"?> <svg xmlns="http://www.w3.org/2000/svg" xmlns:xlink="http://www.w3.org/1999/xlink" width="826px" height="139px" viewBox="0 0 826 139" version="1.1"><!-- Generator: Sketch 64 (93537) - https://sketch.com --><title>Crpyto Casino Final</title><desc>Created with Sketch.</desc><g id="Symbols" stroke="none" stroke-width="1" fill="none" fill-rule="evenodd"><g id="Logo-2" fill-rule="nonzero"><g id="Crpyto-Casino-Final"><path d="M168.6,103.2 C173.9,103.3 179.2,102.3 184.2,100.3 C188.6,98.5 192.3,95.5 194.9,91.5 C197.5,87.6 198.8,82.8 198.8,77 L184.6,77 C184.6,81.4 183.2,84.8 180.3,87.3 C177.4,89.8 173.6,91 168.8,91 C156.6,91 150.5,83.9 150.5,69.7 L150.5,66.8 C150.5,59.9 152,54.6 155,51 C158,47.3 162.6,45.5 168.8,45.5 C173.3,45.5 177,46.8 179.8,49.3 C182.6,51.8 184,55.3 184,59.7 L198.7,59.7 C198.9,54.6 197.5,49.5 194.7,45.2 C192,41.2 188.3,38.2 183.9,36.3 C179,34.3 173.8,33.3 168.5,33.4 C158.1,33.4 150.1,36.3 144.4,42.1 C138.7,47.9 135.8,56.6 135.8,68.3 C135.9,91.6 146.8,103.2 168.6,103.2 L168.6,103.2 L168.6,103.2 Z M207.8,102.1 L221.3,102.1 L221.3,77.1 C221.3,72.3 222.3,68.6 224.3,66.2 C226.3,63.8 229.5,62.6 233.9,62.6 L237.6,62.6 L237.6,50.1 C236,49.5 234.2,49.2 232.5,49.2 C229.9,49.1 227.4,50 225.5,51.8 C223.6,53.8 222.1,56.2 221.2,58.8 L220.5,58.8 L219.4,50.4 L207.9,50.4 L207.8,102.1 L207.8,102.1 Z M255.1,119.9 C258.6,120 262.1,119.1 265.1,117.3 C267.8,115.5 270.1,113.1 271.7,110.3 C273.7,106.8 275.3,103.2 276.6,99.4 L294,50.3 L280.3,50.3 L272.6,74.7 C271.7,77.6 270.5,82 269,88.1 L268.5,88.1 C267.6,83.5 266.4,79 264.9,74.6 L255.1,50.3 L241,50.3 L261.3,102 C260.7,104.1 259.4,106 257.8,107.5 C256.2,108.7 254.2,109.3 252.2,109.2 L245.8,109.2 L245.8,118.6 C248.8,119.6 252,120 255.1,119.9 L255.1,119.9 L255.1,119.9 Z M300.1,119.1 L313.6,119.1 L313.6,96.1 L314.2,96.1 C315.7,98.4 317.9,100.3 320.5,101.4 C323.4,102.7 326.5,103.3 329.7,103.3 C335.3,103.5 340.7,101 344.2,96.5 C347.8,92 349.7,85.3 349.7,76.3 C349.7,67.2 347.9,60.4 344.3,55.9 C340.7,51.4 335.6,49.2 329,49.2 C325.8,49.2 322.7,49.8 319.8,51.2 C317.1,52.5 314.8,54.6 313.2,57.1 L312.5,57.1 L311.6,50.3 L300.1,50.3 L300.1,119.1 L300.1,119.1 Z M324.6,91.5 C317.2,91.5 313.6,86.6 313.6,76.9 L313.6,75.3 C313.6,65.7 317.3,60.9 324.6,60.9 C328.6,60.9 331.5,62.1 333.2,64.5 C334.9,66.9 335.8,70.5 335.8,75.4 L335.8,77.2 C335.8,82 334.9,85.7 333.2,88.1 C331.5,90.4 328.6,91.5 324.6,91.5 L324.6,91.5 L324.6,91.5 Z M373,103.2 C374.6,103.2 376.1,103 377.7,102.7 C379.1,102.4 380.5,102.1 381.9,101.6 L381.9,92.2 L377.2,92.2 C374.4,92.2 373,90.8 373,88 L373,61.4 L382,61.4 L382,50.4 L373,50.4 L373,35.8 L362,35.8 L359.7,50.4 L353.2,50.4 L353.2,61.4 L359.4,61.4 L359.4,89.4 C359.3,93 360.4,96.5 362.6,99.3 C364.7,101.9 368.2,103.2 373,103.2 L373,103.2 L373,103.2 Z M412.6,103.2 C421.5,103.2 428.1,101 432.4,96.6 C436.7,92.2 438.9,85.4 439,76.2 C439,67 436.8,60.1 432.4,55.8 C428,51.4 421.4,49.2 412.6,49.2 C403.7,49.2 397.1,51.4 392.8,55.8 C388.5,60.2 386.3,67 386.3,76.2 C386.3,85.4 388.5,92.3 392.8,96.6 C397.1,101.1 403.7,103.2 412.6,103.2 L412.6,103.2 Z M412.6,92.2 C408.2,92.2 405,90.9 403.1,88.4 C401.2,85.9 400.2,82.1 400.2,76.9 L400.2,75.3 C400.2,70.2 401.2,66.4 403.1,63.9 C405,61.4 408.2,60.1 412.6,60.1 C417,60.1 420.2,61.4 422.2,63.9 C424.2,66.4 425.2,70.2 425.2,75.3 L425.2,77 C425.2,82.1 424.2,85.9 422.2,88.5 C420.1,91 417,92.2 412.6,92.2 L412.6,92.2 Z" id="Crypto_Casinos" fill="#003760"></path><path d="M493.1,103.2 C498.4,103.3 503.7,102.3 508.7,100.3 C513.1,98.5 516.8,95.5 519.4,91.5 C522,87.6 523.3,82.8 523.3,77 L509.1,77 C509.1,81.4 507.7,84.8 504.8,87.3 C501.9,89.8 498.1,91 493.3,91 C481.1,91 475,83.9 475,69.7 L475,66.8 C475,59.9 476.5,54.6 479.5,51 C482.5,47.3 487.1,45.5 493.3,45.5 C497.8,45.5 501.5,46.8 504.3,49.3 C507.1,51.8 508.5,55.3 508.5,59.7 L523.2,59.7 C523.4,54.6 522,49.5 519.2,45.2 C516.5,41.2 512.8,38.2 508.4,36.3 C503.5,34.3 498.3,33.3 493,33.4 C482.6,33.4 474.6,36.3 468.9,42.1 C463.2,47.9 460.3,56.6 460.3,68.3 C460.4,91.6 471.3,103.2 493.1,103.2 L493.1,103.2 L493.1,103.2 Z M544.9,103.3 C548.2,103.4 551.5,102.8 554.6,101.6 C557.1,100.4 559.4,98.7 561.2,96.5 L561.8,96.5 C562.4,98.6 563.7,100.4 565.5,101.6 C567.5,102.8 569.9,103.5 572.3,103.4 C575,103.5 577.7,102.9 580.1,101.8 L580.1,92.3 L577.3,92.3 C576.4,92.3 575.5,92 574.8,91.5 C574.1,90.8 573.7,89.9 573.8,88.9 L573.8,65.9 C573.8,60.4 572,56.2 568.5,53.3 C565,50.4 559.6,48.9 552.5,48.9 C546.1,48.9 540.9,50.2 537.1,52.9 C533.2,55.5 531.3,59 531.3,63.4 C531.3,64.1 531.3,64.9 531.4,65.6 L544.5,65.6 L544.5,64.1 C544.6,62.8 545.3,61.5 546.4,60.8 C547.7,59.9 549.9,59.4 552.9,59.4 C555.7,59.4 557.7,60 558.7,61.3 C559.8,62.9 560.4,64.7 560.2,66.7 L560.2,70.4 C550.1,70.4 542.4,71.8 536.9,74.6 C531.4,77.4 528.7,82.1 528.7,88.8 C528.7,94.4 530.4,98.2 533.8,100.3 C537.1,102.2 541,103.3 544.9,103.3 L544.9,103.3 L544.9,103.3 Z M549.2,92.6 C547.4,92.7 545.6,92.2 544.2,91.1 C543.1,90.1 542.5,88.6 542.6,87.1 C542.6,81.8 548.5,79.2 560.4,79.2 L560.4,80.8 C560.6,83.9 559.6,86.9 557.7,89.4 C555.8,91.5 553,92.6 549.2,92.6 L549.2,92.6 L549.2,92.6 Z M608.2,103.3 C624.1,103.3 632.1,97.7 632.1,86.5 C632.1,82.7 631.1,79.6 629,77.4 C627,75.2 624.5,73.5 621.8,72.5 C618.3,71.3 614.6,70.3 611,69.5 C608,69 605.1,68.2 602.2,67.1 C600.4,66.3 599.5,65.1 599.5,63.4 C599.5,62.1 600.3,61.1 601.9,60.3 C604,59.5 606.1,59.1 608.4,59.2 C610.6,59.1 612.9,59.6 614.9,60.6 C616.4,61.3 617.4,62.9 617.3,64.6 L617.3,65.2 L630.5,65.2 L630.6,62.9 C630.6,58.5 628.5,55.1 624.4,52.5 C620.3,50 615.1,48.7 608.8,48.7 C602.1,48.7 596.5,50.1 592.3,52.8 C588.2,55.3 585.7,59.7 585.9,64.5 C585.7,67.7 586.8,70.8 588.9,73.2 C590.8,75.3 593.2,77 595.9,78 C599.3,79.2 602.9,80.2 606.4,81 C609.5,81.6 612.6,82.5 615.6,83.8 C617.4,84.4 618.5,86.1 618.5,88 C618.5,89.7 617.5,90.8 615.6,91.6 C613.4,92.4 611,92.7 608.7,92.7 C606.1,92.8 603.6,92.3 601.3,91.2 C599.4,90.3 598.1,88.3 598.2,86.2 L598.2,85.5 L585,85.5 L584.9,86.7 C584.8,91.5 587.1,96 591.1,98.7 C595.2,101.7 600.9,103.3 608.2,103.3 L608.2,103.3 L608.2,103.3 Z M640.3,43.3 L653.9,43.3 L653.9,30.5 L640.3,30.5 L640.3,43.3 Z M640.3,102.1 L653.9,102.1 L653.9,50 L640.3,50 L640.3,102.1 Z M664.8,102.1 L678.4,102.1 L678.4,71.9 C678.3,68.9 679.4,66.1 681.4,63.9 C683.3,61.8 686.1,60.6 689,60.7 C692,60.7 694.2,61.4 695.7,62.9 C697.2,64.3 698,66.7 698,69.9 L698,102 L711.6,102 L711.6,67 C711.6,60.6 710.1,55.9 707,53 C703.9,50.1 699.7,48.6 694.3,48.6 C687.9,48.5 681.8,51.5 678,56.6 L677.3,56.6 L676.3,49.8 L664.7,49.8 L664.8,102.1 L664.8,102.1 Z M746.3,103.3 C755.2,103.3 761.9,101.1 766.3,96.7 C770.7,92.3 772.9,85.4 772.9,76.1 C772.9,66.8 770.7,59.9 766.3,55.5 C761.9,51.1 755.2,48.9 746.3,48.9 C737.4,48.9 730.7,51.1 726.4,55.5 C722,59.9 719.8,66.8 719.8,76.1 C719.8,85.4 722,92.3 726.4,96.7 C730.8,101 737.4,103.3 746.3,103.3 L746.3,103.3 Z M746.3,92.2 C741.9,92.2 738.7,90.9 736.7,88.4 C734.7,85.9 733.8,82 733.8,76.9 L733.8,75.3 C733.8,70.1 734.8,66.3 736.7,63.8 C738.6,61.3 741.8,60 746.3,60 C750.7,60 753.9,61.3 755.9,63.8 C757.9,66.3 758.9,70.2 758.9,75.3 L758.9,76.9 C758.9,82.1 757.9,85.9 755.9,88.4 C754,90.9 750.8,92.2 746.3,92.2 L746.3,92.2 Z M802.1,103.3 C818.1,103.3 826,97.7 826,86.5 C826,82.7 825,79.6 822.9,77.4 C820.9,75.2 818.4,73.5 815.7,72.5 C812.2,71.3 808.5,70.3 804.9,69.5 C801.9,69 799,68.2 796.1,67.1 C794.3,66.3 793.4,65.1 793.4,63.4 C793.4,62.1 794.2,61.1 795.8,60.3 C797.9,59.5 800,59.1 802.2,59.2 C804.4,59.1 806.7,59.6 808.7,60.6 C810.2,61.3 811.2,62.9 811.1,64.6 L811.1,65.2 L824.3,65.2 L824.4,62.9 C824.4,58.5 822.3,55.1 818.2,52.5 C814.1,49.9 808.9,48.7 802.6,48.7 C795.8,48.7 790.3,50.1 786.1,52.8 C782,55.3 779.5,59.7 779.7,64.5 C779.5,67.7 780.6,70.8 782.7,73.2 C784.6,75.3 787,77 789.8,78 C793.2,79.2 796.8,80.2 800.3,81 C803.4,81.6 806.5,82.5 809.5,83.8 C811.3,84.4 812.4,86.1 812.4,88 C812.4,89.6 811.5,90.8 809.5,91.6 C807.3,92.4 804.9,92.7 802.6,92.7 C800.1,92.8 797.5,92.3 795.2,91.2 C793.3,90.3 792,88.3 792.1,86.2 L792.1,85.5 L778.9,85.5 L778.8,86.7 C778.7,91.5 781,96 785,98.7 C789.1,101.7 794.8,103.3 802.1,103.3 L802.1,103.3 L802.1,103.3 Z" id="Crypto_Casinos_copy" fill="#1E1C21"></path><g id="Group"><path d="M60.1,138.5 L0,103.9 L0,34.6 L60.1,0 L120.2,34.6 L120.2,103.9 L60.1,138.5 Z M46.3,50.4 C49.6,46.5 54.8,44.5 61.7,44.5 C66.9,44.5 71,45.9 74.1,48.6 C77.2,51.4 78.8,55.2 78.8,60.3 L91.9,60.3 C91.9,54.5 90.6,49.6 87.9,45.6 C85.3,41.7 81.6,38.6 77.2,36.7 L77.2,23.3 L64.1,23.3 L64.1,33.7 C63.2,33.6 62.4,33.6 61.5,33.6 C59.8,33.6 58,33.7 56.3,33.9 L56.3,23.3 L43.1,23.3 L43.1,37.7 C40.8,39 38.6,40.6 36.8,42.5 C31,48.4 28.2,57.4 28.2,69.3 C28.2,81.4 31,90.4 36.7,96.2 C38.6,98.1 40.8,99.7 43.2,101 L43.2,115.1 L56.4,115.1 L56.4,104.7 C58.1,104.9 59.8,105 61.6,105 C62.5,105 63.4,105 64.2,104.9 L64.2,115.1 L77.4,115.1 L77.4,102 C79.6,101 81.8,99.8 83.7,98.2 C89.3,93.7 92.1,87.2 92.1,78.5 L79.3,78.5 C79.3,83.5 77.7,87.3 74.6,90 C71.5,92.7 67.2,94.1 61.8,94.1 C54.8,94.1 49.7,92.1 46.4,88.2 C43.1,84.3 41.4,78.3 41.4,70.3 L41.4,68.3 C41.3,60.3 43,54.4 46.3,50.4 L46.3,50.4 Z" id="Rectangle_568_copy_15" fill="#003760"></path><path d="M61.7,94.1 C54.7,94.1 49.6,92.1 46.3,88.2 C44.3,85.7 42.9,82.7 42.3,79.6 L60.1,69.2 L79.2,80.3 C79,84 77.4,87.6 74.6,90.1 C71.4,92.8 67.1,94.1 61.7,94.1 Z M36.7,96.3 C38.6,98.2 40.8,99.8 43.2,101.1 L43.2,115.2 L56.4,115.2 L56.4,104.8 C58.1,105 59.8,105.1 61.6,105.1 C62.5,105.1 63.4,105.1 64.2,105 L64.2,115.2 L77.4,115.2 L77.4,102 C79.6,101 81.8,99.8 83.7,98.2 C87.3,95.3 89.8,91.4 91,87 L120.4,104.1 L60.1,139 L-1.42108547e-14,104.1 L30.7,86.3 C32,90 34,93.4 36.7,96.3 L36.7,96.3 Z" id="Rectangle_568_copy_16" fill="#000000" opacity="0.2"></path><path d="M90.8,51.9 C90.2,49.6 89.2,47.5 87.9,45.5 C85.3,41.6 81.6,38.5 77.2,36.6 L77.2,23.3 L64.1,23.3 L64.1,33.7 C63.2,33.6 62.4,33.6 61.5,33.6 C59.8,33.6 58,33.7 56.3,33.9 L56.3,23.3 L43.1,23.3 L43.1,37.7 C40.8,39 38.6,40.6 36.8,42.5 C34.1,45.4 32,48.9 30.7,52.6 L0,34.9 L60.1,0 L120.2,34.9 L90.8,51.9 Z M61.7,44.5 C66.9,44.5 71,45.9 74.1,48.6 C76.9,51.1 78.5,54.6 78.7,59 L60.1,69.7 L42.2,59.4 C42.8,56.1 44.2,53.1 46.3,50.5 C49.7,46.5 54.8,44.5 61.7,44.5 Z" id="Rectangle_568_copy_17" fill="#FFFFFF" opacity="0.1"></path></g></g></g></g></svg> 