<svg width="128" height="44" viewBox="0 0 128 44" fill="none" xmlns="http://www.w3.org/2000/svg">
<path fill-rule="evenodd" clip-rule="evenodd" d="M10.8571 0H0V24H10.8571C17.4857 24 22.8571 18.6286 22.8571 12C22.8571 5.37143 17.4857 0 10.8571 0ZM10.8571 17.1429H6.85714V6.85714H10.8571C13.7143 6.85714 16 9.14286 16 12C16 14.8571 13.6 17.1429 10.8571 17.1429ZM90.2857 0H79.4286V24H90.2857C96.9143 24 102.286 18.6286 102.286 12C102.286 5.37143 96.9143 0 90.2857 0ZM90.2857 17.1429H86.2857V6.85714H90.2857C93.1429 6.85714 95.4286 9.14286 95.4286 12C95.4286 14.8571 93.0286 17.1429 90.2857 17.1429ZM114.286 9.37143L120 0H128L117.714 16.9143V24H110.857V16.9143L100.457 0H108.457L114.286 9.37143ZM31.6572 0L20.6858 24H28.2287L29.7144 20.8L30.1715 19.8857C31.7715 20.8 33.4858 21.3714 35.4286 21.3714C37.3715 21.3714 39.2001 20.8 40.6858 19.8857L41.1429 20.8L42.6287 24H50.1715L39.2001 0H31.6572ZM35.4286 14.4C34.5144 14.4 33.7144 14.0571 33.0287 13.3714L35.4286 8.11429L37.8286 13.3714C37.1429 14.0571 36.3429 14.4 35.4286 14.4ZM57.7143 0L68 12.9143V0H74.8572V24H68H67.8857L57.7143 10.9714V24H50.8572V0H57.7143Z" fill="#18181A"/>
<path d="M6.25199 31.44H4.85999L3.38399 36.984H3.33599L1.85999 31.44H0.359985L2.38799 39H4.04399L5.49599 33.552H5.54399L6.99599 39H8.66399L10.704 31.44H9.25199L7.78799 36.996H7.73999L6.25199 31.44Z" fill="#18181A"/>
<path d="M15.5341 37.2C15.2821 37.788 14.8381 38.076 14.1301 38.076C13.2781 38.076 12.6541 37.476 12.6421 36.564H16.6621V36.18C16.6621 34.788 15.7861 33.564 14.0461 33.564C12.4381 33.564 11.2261 34.764 11.2261 36.432C11.2261 38.052 12.4141 39.144 14.0821 39.144C15.3541 39.144 16.2541 38.628 16.6381 37.62L15.5341 37.2ZM12.6781 35.82C12.7861 35.148 13.2541 34.596 14.0461 34.596C14.8621 34.596 15.2941 35.16 15.3301 35.82H12.6781Z" fill="#18181A"/>
<path d="M17.7362 33.012H18.4802V33.18C18.4802 33.792 18.1802 34.008 17.6522 34.008V34.788C18.8282 34.788 19.3802 34.2 19.3802 33.18V31.44H17.7362V33.012Z" fill="#18181A"/>
<path d="M23.5456 34.764C24.1456 34.764 24.3976 35.148 24.3976 35.688C24.3976 35.808 24.3976 35.928 24.3736 36.012L25.5616 35.568C25.5856 35.52 25.5856 35.424 25.5856 35.376C25.5856 34.32 25.0216 33.564 23.9656 33.564C23.0416 33.564 22.4656 34.248 22.2136 34.884V33.708H20.7736V39H22.2136V36.552C22.2136 35.556 22.7296 34.764 23.5456 34.764Z" fill="#18181A"/>
<path d="M30.581 37.2C30.329 37.788 29.885 38.076 29.177 38.076C28.325 38.076 27.701 37.476 27.689 36.564H31.709V36.18C31.709 34.788 30.833 33.564 29.093 33.564C27.485 33.564 26.273 34.764 26.273 36.432C26.273 38.052 27.461 39.144 29.129 39.144C30.401 39.144 31.301 38.628 31.685 37.62L30.581 37.2ZM27.725 35.82C27.833 35.148 28.301 34.596 29.093 34.596C29.909 34.596 30.341 35.16 30.377 35.82H27.725Z" fill="#18181A"/>
<path d="M37.5417 31.44H36.1137V39H37.5417V36.264C37.5417 35.34 38.0817 34.704 38.8617 34.704C39.5937 34.704 39.9897 35.172 39.9897 35.988V39H41.4177V35.7C41.4177 34.524 40.8297 33.564 39.4137 33.564C38.5497 33.564 37.8057 34.068 37.5417 34.704V31.44Z" fill="#18181A"/>
<path d="M42.9909 32.76H44.5629V31.44H42.9909V32.76ZM43.0629 33.708V39H44.4909V33.708H43.0629Z" fill="#18181A"/>
<path d="M48.9518 34.764C49.5518 34.764 49.8038 35.148 49.8038 35.688C49.8038 35.808 49.8038 35.928 49.7798 36.012L50.9678 35.568C50.9918 35.52 50.9918 35.424 50.9918 35.376C50.9918 34.32 50.4278 33.564 49.3718 33.564C48.4478 33.564 47.8718 34.248 47.6198 34.884V33.708H46.1798V39H47.6198V36.552C47.6198 35.556 48.1358 34.764 48.9518 34.764Z" fill="#18181A"/>
<path d="M52.1081 32.76H53.6801V31.44H52.1081V32.76ZM52.1801 33.708V39H53.6081V33.708H52.1801Z" fill="#18181A"/>
<path d="M56.737 36.264C56.737 35.34 57.277 34.704 58.057 34.704C58.789 34.704 59.185 35.172 59.185 35.988V39H60.613V35.7C60.613 34.524 60.025 33.564 58.609 33.564C57.745 33.564 57.001 34.068 56.737 34.704V33.708H55.309V39H56.737V36.264Z" fill="#18181A"/>
<path d="M65.5342 35.34C65.5342 35.928 65.1262 36.288 64.5742 36.288C64.0222 36.288 63.6142 35.928 63.6142 35.34C63.6142 34.764 64.0222 34.392 64.5742 34.392C65.1262 34.392 65.5342 34.764 65.5342 35.34ZM67.8142 39.24C67.8142 38.376 67.1422 37.788 65.9902 37.788H63.7462C63.3142 37.788 63.1462 37.62 63.1462 37.392C63.1462 37.164 63.3022 37.032 63.4822 36.948C63.8062 37.044 64.1662 37.104 64.5622 37.104C65.9542 37.104 66.9502 36.432 66.9502 35.34C66.9502 35.016 66.8542 34.728 66.6982 34.488C66.9862 34.248 67.5622 34.092 68.0182 34.2L67.9102 33.072C67.0582 32.964 66.4582 33.48 66.1822 33.996C65.7622 33.72 65.1862 33.564 64.5622 33.564C63.1702 33.564 62.1982 34.248 62.1982 35.34C62.1982 35.916 62.4742 36.384 62.9302 36.684C62.3902 36.876 62.0302 37.248 62.0302 37.752C62.0302 38.196 62.3182 38.58 62.8222 38.724C62.1742 38.796 61.7182 39.204 61.7182 39.72C61.7182 40.728 63.0382 41.112 64.5622 41.112C66.1942 41.112 67.8142 40.548 67.8142 39.24ZM62.9782 39.576C62.9782 39.192 63.3142 38.988 63.7342 38.988H65.6062C66.0982 38.988 66.4462 39.132 66.4462 39.516C66.4462 40.068 65.6302 40.332 64.5742 40.332C63.6862 40.332 62.9782 40.128 62.9782 39.576Z" fill="#18181A"/>
<path d="M102.428 34.764C103.028 34.764 103.28 35.148 103.28 35.688C103.28 35.808 103.28 35.928 103.256 36.012L104.444 35.568C104.468 35.52 104.468 35.424 104.468 35.376C104.468 34.32 103.904 33.564 102.848 33.564C101.924 33.564 101.348 34.248 101.096 34.884V33.708H99.6564V39H101.096V36.552C101.096 35.556 101.612 34.764 102.428 34.764Z" fill="#18181A"/>
<path d="M110.952 36.36C110.952 34.716 109.692 33.564 108.048 33.564C106.416 33.564 105.156 34.716 105.156 36.36C105.156 37.992 106.416 39.144 108.048 39.144C109.692 39.144 110.952 37.992 110.952 36.36ZM106.632 36.36C106.632 35.328 107.16 34.632 108.048 34.632C108.936 34.632 109.476 35.328 109.476 36.36C109.476 37.38 108.936 38.076 108.048 38.076C107.16 38.076 106.632 37.38 106.632 36.36Z" fill="#18181A"/>
<path d="M112.289 31.44V39H113.717V31.44H112.289Z" fill="#18181A"/>
<path d="M119.354 37.2C119.102 37.788 118.658 38.076 117.95 38.076C117.098 38.076 116.474 37.476 116.462 36.564H120.482V36.18C120.482 34.788 119.606 33.564 117.866 33.564C116.258 33.564 115.046 34.764 115.046 36.432C115.046 38.052 116.234 39.144 117.902 39.144C119.174 39.144 120.074 38.628 120.458 37.62L119.354 37.2ZM116.498 35.82C116.606 35.148 117.074 34.596 117.866 34.596C118.682 34.596 119.114 35.16 119.15 35.82H116.498Z" fill="#18181A"/>
<path d="M121.348 37.956C121.852 38.724 122.992 39.144 124.096 39.144C125.512 39.144 126.46 38.484 126.46 37.428C126.46 36.564 125.788 36.12 124.948 35.928L123.556 35.616C123.148 35.52 122.956 35.364 122.956 35.088C122.956 34.752 123.352 34.56 123.82 34.56C124.516 34.56 125.068 34.812 125.428 35.292L126.256 34.632C125.764 33.96 124.972 33.564 123.82 33.564C122.536 33.564 121.624 34.248 121.624 35.208C121.624 36.12 122.308 36.588 123.292 36.792L124.432 37.032C124.852 37.128 125.128 37.26 125.128 37.584C125.128 37.98 124.708 38.148 124.084 38.148C123.364 38.148 122.584 37.824 122.236 37.236L121.348 37.956Z" fill="#18181A"/>
<rect x="73" y="26" width="22.9196" height="18" rx="9" fill="#4CCFAD"/>
<path d="M82.332 33.58C82.332 34.432 81.792 34.972 80.892 34.972C79.968 34.972 79.428 34.432 79.428 33.58C79.428 32.764 79.968 32.188 80.868 32.188C81.768 32.188 82.332 32.764 82.332 33.58ZM78.084 36.88C78.348 38.128 79.332 38.848 80.76 38.848C82.92 38.848 84.012 37.168 84.012 34.828C84.012 32.476 82.908 31 80.844 31C79.152 31 78 32.02 78 33.592C78 35.032 79.008 36.064 80.496 36.064C81.636 36.064 82.332 35.488 82.608 34.732C82.632 36.34 82.14 37.648 80.784 37.648C80.028 37.648 79.596 37.264 79.464 36.616L78.084 36.88Z" fill="white"/>
<path d="M86.5876 33.688C86.6356 32.8 87.1756 32.212 88.0156 32.212C88.8316 32.212 89.2876 32.668 89.2876 33.34C89.2876 34.108 88.6636 34.384 87.9916 34.384C87.6796 34.384 87.4876 34.348 87.3316 34.324V35.548C87.5236 35.512 87.7156 35.476 87.9796 35.476C88.7596 35.476 89.3836 35.836 89.3836 36.556C89.3836 37.264 88.8076 37.636 88.0636 37.636C87.1516 37.636 86.4796 37.108 86.4196 36.208L84.9796 36.544C85.1476 37.972 86.3116 38.848 88.0516 38.848C89.7796 38.848 90.9196 38.008 90.9196 36.676C90.9196 35.716 90.1756 34.984 89.1676 34.876C89.9596 34.78 90.7756 34.132 90.7756 33.16C90.7756 31.888 89.7916 31 88.0516 31C86.3716 31 85.3156 32.02 85.1596 33.388L86.5876 33.688Z" fill="white"/>
</svg>
