<svg height="125.63933" viewBox="0 0 405.33334 125.63933" width="405.33334" xmlns="http://www.w3.org/2000/svg" xmlns:xlink="http://www.w3.org/1999/xlink"><clipPath id="a"><path d="m0 94.229h304v-94.229h-304z"/></clipPath><g clip-path="url(#a)" transform="matrix(1.3333333 0 0 -1.3333333 0 125.63933)"><path d="m0 0h-23.493c-.471 0-.908-.245-1.153-.648l-1.027-1.683-11.197-18.354c-.55-.901.098-2.055 1.153-2.055h23.493c.471 0 .909.245 1.154.647l12.224 20.038c.549.9-.099 2.055-1.154 2.055" fill="#e51717" transform="translate(95.2298 22.7404)"/><path d="m0 0c-1.055 0-1.703-1.155-1.154-2.055l1.195-1.958 11.029-18.078c.246-.403.683-.648 1.154-.648h23.493c1.055 0 1.703 1.155 1.153 2.055l-12.223 20.036c-.246.403-.683.648-1.154.648z" fill="#ef4848" transform="translate(59.5129 46.5688)"/><path d="m0 0 12.317-20.19c.527-.864 1.781-.864 2.307 0l1.47 2.409 10.846 17.781c.264.432.264.975 0 1.408l-12.316 20.19c-.526.864-1.78.864-2.307 0l-12.317-20.19c-.264-.433-.264-.976 0-1.408" fill="#c00" transform="translate(42.6667 22.5806)"/><path d="m0 0h-23.493c-.471 0-.908-.245-1.153-.648l-1.027-1.683-11.197-18.354c-.55-.901.098-2.055 1.153-2.055h23.493c.471 0 .909.245 1.154.647l12.224 20.038c.549.9-.099 2.055-1.154 2.055" fill="#e51717" transform="translate(52.7608 46.5713)"/><path d="m0 0c-1.055 0-1.703-1.155-1.154-2.055l1.195-1.958 11.029-18.078c.246-.403.683-.648 1.154-.648h23.493c1.055 0 1.703 1.155 1.153 2.055l-12.223 20.036c-.246.403-.683.648-1.154.648z" fill="#ef4848" transform="translate(17.0439 70.3997)"/><path d="m0 0 12.317-20.19c.527-.864 1.781-.864 2.307 0l1.47 2.409 10.846 17.781c.264.432.264.975 0 1.408l-12.316 20.19c-.526.864-1.78.864-2.307 0l-12.317-20.19c-.264-.433-.264-.976 0-1.408" fill="#c00" transform="translate(.1977 46.4115)"/><path d="m0 0h-23.493c-.471 0-.908-.245-1.153-.648l-1.027-1.683-11.197-18.354c-.55-.901.098-2.055 1.153-2.055h23.493c.471 0 .909.245 1.154.647l12.224 20.038c.549.9-.099 2.055-1.154 2.055" fill="#e51717" transform="translate(95.2507 70.4011)"/><path d="m0 0c-1.055 0-1.703-1.155-1.154-2.055l1.195-1.958 11.029-18.078c.246-.403.683-.648 1.154-.648h23.493c1.055 0 1.703 1.155 1.153 2.055l-12.223 20.036c-.246.403-.683.648-1.154.648z" fill="#ef4848" transform="translate(59.5339 94.2295)"/><path d="m0 0 12.317-20.19c.527-.864 1.781-.864 2.307 0l1.47 2.409 10.846 17.781c.264.432.264.975 0 1.408l-12.316 20.19c-.526.864-1.78.864-2.307 0l-12.317-20.19c-.264-.433-.264-.976 0-1.408" fill="#c00" transform="translate(42.6877 70.2413)"/><path d="m0 0h-12.818v21.301h12.818v-1.319h-11.348v-8.426h10.801v-1.282h-10.801v-8.954h11.348z" transform="translate(141.4701 36.463)"/><path d="m0 0v21.301h1.452l13.553-18.681h.076v17.251l1.451 1.43v-21.301h-1.357l-13.629 18.795h-.094v-17.365z" transform="translate(148.3995 36.463)"/><path d="m0 0c0-3.939 2.583-6.466 6.73-6.466 4.166 0 6.748 2.527 6.748 6.466v12.369l1.452 1.43v-13.893c0-4.656-3.148-7.73-8.2-7.73-5.033 0-8.2 3.074-8.2 7.73v12.463l1.47 1.43z" transform="translate(173.7467 43.9656)"/><path d="m0 0v19.871l1.47 1.43v-21.301z" transform="translate(196.0394 36.463)"/><path d="m0 0v21.301h1.452l13.553-18.681h.076v17.251l1.451 1.43v-21.301h-1.357l-13.629 18.795h-.094v-17.365z" transform="translate(204.8538 36.463)"/><path d="m0 0h-12.818v21.301h12.818v-1.319h-11.348v-8.426h10.801v-1.282h-10.801v-8.954h11.348z" transform="translate(241.5485 36.463)"/><path d="m0 0c-5.731 0-9.595 4.449-9.595 11.084 0 6.56 3.808 10.858 9.595 10.858 3.969 0 7.176-2.1 8.359-5.381-.326-.325-1.162-1.143-1.162-1.143-.848 3.186-3.653 5.187-7.197 5.187-4.92 0-8.106-3.733-8.106-9.501 0-5.862 3.261-9.765 8.106-9.765 4.543 0 7.371 2.772 7.389 7.182v1.17h-5.723l1.199 1.242h5.976v-2.147c0-5.449-3.355-8.786-8.841-8.786" transform="translate(113.2206 36.1419)"/><g fill="#c00"><path d="m0 0v7.785h5.447c2.976 0 4.826-1.423 4.826-3.715 0-2.51-1.965-4.07-5.127-4.07zm0-1.886h5.371c3.822 0 6.014-1.539 6.014-4.224 0-2.608-2.142-4.165-5.73-4.165h-5.655zm9.112 1.162c2.011.835 3.292 2.69 3.292 4.927 0 3.315-2.69 5.543-6.693 5.543h-7.862v-21.982h8.013c4.733 0 7.674 2.318 7.674 6.051 0 2.697-1.697 4.74-4.424 5.461" transform="translate(250.4279 48.3597)"/><path d="m0 0v1.999h-13.499v-21.982h13.499v1.998h-11.349v8.277h10.802v1.961h-10.802v7.747z" transform="translate(283.6936 56.1068)"/><path d="m0 0v1.999h-13.499v-21.982h13.499v1.998h-11.349v8.277h10.802v1.961h-10.802v7.747z" transform="translate(304 56.1068)"/></g></g></svg>