<?xml version="1.0" encoding="UTF-8"?>
<svg width="113px" height="36px" viewBox="0 0 113 36" version="1.1" xmlns="http://www.w3.org/2000/svg" xmlns:xlink="http://www.w3.org/1999/xlink">
    <title>logo</title>
    <g id="Symbols" stroke="none" stroke-width="1" fill="none" fill-rule="evenodd">
        <g id="Header/static" transform="translate(-40.000000, -22.000000)">
            <g id="logo" transform="translate(40.000000, 22.000000)">
                <g id="text" transform="translate(43.200000, 2.117647)">
                    <path d="M5.86630588,7.34145882 L5.86630588,5.36887059 L11.0808,5.36887059 L11.0808,10.2231529 C9.89724706,11.4581647 8.07903529,12.1957412 6.31228235,12.1957412 C2.89884706,12.1957412 0,9.39981176 0,6.08929412 C0,2.77877647 2.89884706,0 6.31228235,0 C8.07903529,0 9.89724706,0.737576471 11.0808,1.97258824 L9.24543529,3.61927059 C8.54216471,2.81308235 7.39291765,2.29849412 6.31228235,2.29849412 C4.30538824,2.29849412 2.60724706,4.04809412 2.60724706,6.08929412 C2.60724706,8.14764706 4.30538824,9.89724706 6.31228235,9.89724706 C7.11847059,9.89724706 7.94181176,9.6228 8.61077647,9.14251765 L8.61077647,7.34145882 L5.86630588,7.34145882 Z M23.1736235,11.9899059 L20.2919294,11.9899059 L17.5989176,8.1648 L15.7292471,8.1648 L15.7292471,11.9899059 L13.2077647,11.9899059 L13.2077647,0.205835294 L18.5080235,0.205835294 C21.0638118,0.205835294 22.9506353,1.85251765 22.9506353,4.18531765 C22.9506353,5.93491765 21.8871529,7.30715294 20.2747765,7.8732 L23.1736235,11.9899059 Z M15.7292471,2.52148235 L15.7292471,5.84915294 L18.2335765,5.84915294 C19.4857412,5.84915294 20.3433882,5.19734118 20.3433882,4.18531765 C20.3433882,3.17329412 19.4857412,2.52148235 18.2335765,2.52148235 L15.7292471,2.52148235 Z M33.4825412,11.9899059 L32.7278118,10.1373882 L27.4790118,10.1373882 L26.7242824,11.9899059 L23.8940471,11.9899059 L28.6968706,0.205835294 L31.5271059,0.205835294 L36.3299294,11.9899059 L33.4825412,11.9899059 Z M28.3538118,7.99327059 L31.8530118,7.99327059 L30.1034118,3.68788235 L28.3538118,7.99327059 Z M37.8222353,11.9899059 L37.8222353,0.205835294 L43.7914588,0.205835294 C45.9012706,0.205835294 47.3592706,1.44084706 47.3592706,3.15614118 C47.3592706,4.35684706 46.7589176,5.23164706 45.7125882,5.78054118 C47.0848235,6.39804706 47.8738588,7.49583529 47.8738588,8.79945882 C47.8738588,10.6862824 46.2614824,11.9899059 44.0144471,11.9899059 L37.8222353,11.9899059 Z M40.3437176,4.9572 L43.1568,4.9572 C44.1002118,4.9572 44.7691765,4.40830588 44.7691765,3.65357647 C44.7691765,2.916 44.1002118,2.36710588 43.1568,2.36710588 L40.3437176,2.36710588 L40.3437176,4.9572 Z M40.3437176,9.82863529 L43.5513176,9.82863529 C44.5633412,9.82863529 45.2837647,9.22828235 45.2837647,8.38778824 C45.2837647,7.54729412 44.5633412,6.94694118 43.5513176,6.94694118 L40.3437176,6.94694118 L40.3437176,9.82863529 Z" id="GRAB" fill="#000615"></path>
                    <path d="M11.2023529,19.5882353 L3.13411765,19.5882353 L3.13411765,22.4894118 L10.44,22.4894118 L10.44,25.3058824 L3.13411765,25.3058824 L3.13411765,28.5035294 L11.2023529,28.5035294 L11.2023529,31.32 L0,31.32 L0,16.7717647 L11.2023529,16.7717647 L11.2023529,19.5882353 Z M19.08,31.5741176 C16.56,31.5741176 14.3152941,30.7270588 12.6211765,29.16 L14.4211765,27.0211765 C15.7976471,28.2070588 17.3647059,28.9270588 19.2070588,28.9270588 C20.7741176,28.9270588 21.5788235,28.2070588 21.5788235,27.2964706 C21.5788235,26.2588235 20.7317647,25.9411765 18.5082353,25.4329412 C15.4376471,24.7341176 13.2564706,23.8658824 13.2564706,21.0494118 C13.2564706,18.36 15.4588235,16.5176471 18.6352941,16.5176471 C21.0070588,16.5176471 22.8494118,17.2588235 24.3317647,18.5294118 L22.7011765,20.7741176 C21.4094118,19.7364706 19.9482353,19.1647059 18.5505882,19.1647059 C17.2164706,19.1647059 16.4117647,19.8635294 16.4117647,20.7317647 C16.4117647,21.7905882 17.28,22.1294118 19.5247059,22.6376471 C22.6588235,23.3364706 24.7341176,24.2682353 24.7341176,26.9576471 C24.7341176,29.7317647 22.6376471,31.5741176 19.08,31.5741176 Z M32.4847059,31.5741176 C29.9647059,31.5741176 27.72,30.7270588 26.0258824,29.16 L27.8258824,27.0211765 C29.2023529,28.2070588 30.7694118,28.9270588 32.6117647,28.9270588 C34.1788235,28.9270588 34.9835294,28.2070588 34.9835294,27.2964706 C34.9835294,26.2588235 34.1364706,25.9411765 31.9129412,25.4329412 C28.8423529,24.7341176 26.6611765,23.8658824 26.6611765,21.0494118 C26.6611765,18.36 28.8635294,16.5176471 32.04,16.5176471 C34.4117647,16.5176471 36.2541176,17.2588235 37.7364706,18.5294118 L36.1058824,20.7741176 C34.8141176,19.7364706 33.3529412,19.1647059 31.9552941,19.1647059 C30.6211765,19.1647059 29.8164706,19.8635294 29.8164706,20.7317647 C29.8164706,21.7905882 30.6847059,22.1294118 32.9294118,22.6376471 C36.0635294,23.3364706 38.1388235,24.2682353 38.1388235,26.9576471 C38.1388235,29.7317647 36.0423529,31.5741176 32.4847059,31.5741176 Z M51.0564706,31.32 L50.1247059,29.0329412 L43.6447059,29.0329412 L42.7129412,31.32 L39.2188235,31.32 L45.1482353,16.7717647 L48.6423529,16.7717647 L54.5717647,31.32 L51.0564706,31.32 Z M44.7247059,26.3858824 L49.0447059,26.3858824 L46.8847059,21.0705882 L44.7247059,26.3858824 Z M59.8870588,31.32 L59.8870588,26.0682353 L54.1905882,16.7717647 L57.8329412,16.7717647 L61.4541176,23.1458824 L65.2235294,16.7717647 L68.7176471,16.7717647 L63.0423529,26.0682353 L63.0423529,31.32 L59.8870588,31.32 Z" id="ESSAY" fill="#000615"></path>
                    <path d="M58.2522353,5.29411765 C59.6244706,5.29411765 60.6790588,6.34870588 60.6790588,7.83529412 L60.6790588,12.0282353 L58.9002353,12.0282353 L58.9002353,8.15294118 C58.9002353,7.39058824 58.4174118,6.85694118 57.7312941,6.85694118 C56.9943529,6.85694118 56.4607059,7.35247059 56.4607059,8.05129412 L56.4607059,12.0282353 L54.6818824,12.0282353 L54.6818824,8.15294118 C54.6818824,7.39058824 54.1990588,6.85694118 53.5256471,6.85694118 C52.776,6.85694118 52.2550588,7.35247059 52.2550588,8.05129412 L52.2550588,12.0155294 L50.4,12.0155294 L50.4,5.44658824 L52.2550588,5.44658824 L52.2550588,6.31058824 C52.5727059,5.688 53.2207059,5.29411765 54.0338824,5.29411765 C54.936,5.29411765 55.7110588,5.75152941 56.1176471,6.48847059 C56.4607059,5.76423529 57.2738824,5.29411765 58.2522353,5.29411765 Z M63.7411765,14.3025882 C63.1948235,14.3025882 62.5341176,14.1374118 62.0894118,13.896 L62.4832941,12.6254118 C62.8009412,12.8032941 63.1312941,12.9176471 63.3472941,12.9176471 C63.7030588,12.9176471 63.9825882,12.8032941 64.1223529,12.5618824 L64.3510588,12.0790588 L61.6192941,5.44658824 L63.5378824,5.44658824 L65.2658824,10.0588235 L66.9049412,5.44658824 L68.7981176,5.44658824 L66.1044706,12.3458824 C65.6089412,13.6291765 64.7703529,14.3025882 63.7411765,14.3025882 Z" id="my" fill="#40AC60" fill-rule="nonzero"></path>
                </g>
                <g fill="#40AC60" fill-rule="nonzero" id="shape">
                    <path d="M35,-2.84217094e-14 C35.5522847,-2.85231625e-14 36,0.44771525 36,1 L36,35 C36,35.5522847 35.5522847,36 35,36 L1,36 C0.44771525,36 -1.02190002e-14,35.5522847 -1.42108547e-14,35 L-1.42108547e-14,19.3909499 C-1.50342843e-14,19.170036 0.1790861,18.9909499 0.4,18.9909499 C0.494498084,18.9909499 0.585944678,19.0244059 0.658132112,19.0853884 L3.8806244,21.8076843 C4.10554108,21.9976893 4.23529412,22.2771573 4.23529412,22.571588 L4.23529412,30.7647059 C4.23529412,31.3169906 4.68300937,31.7647059 5.23529412,31.7647059 L30.7647059,31.7647059 C31.3169906,31.7647059 31.7647059,31.3169906 31.7647059,30.7647059 L31.7647059,6.13814744 C31.7647059,5.58586269 31.3169906,5.13814744 30.7647059,5.13814744 L30.2956675,5.13814744 C30.0747536,5.13814744 29.8956675,4.95906134 29.8956675,4.73814744 C29.8956675,4.64399348 29.9288808,4.55285725 29.989461,4.48078086 L33.4558486,0.356583556 C33.6458531,0.130522199 33.9260592,-2.52588382e-14 34.2213649,-2.84217094e-14 L35,-2.84217094e-14 Z M26.5294118,20.1176471 C27.0816965,20.1176471 27.5294118,20.5653623 27.5294118,21.1176471 L27.5294118,23.3529412 C27.5294118,23.9052259 27.0816965,24.3529412 26.5294118,24.3529412 L13.8885324,24.3529412 C13.6676185,24.3529412 13.4885324,24.1738551 13.4885324,23.9529412 C13.4885324,23.8580219 13.5222868,23.7661959 13.5837628,23.6938746 L16.3242036,20.4699807 C16.5142033,20.2464623 16.7927672,20.1176471 17.0861276,20.1176471 L26.5294118,20.1176471 Z M26.5294118,11.6470588 C27.0816965,11.6470588 27.5294118,12.0947741 27.5294118,12.6470588 L27.5294118,14.8823529 C27.5294118,15.4346377 27.0816965,15.8823529 26.5294118,15.8823529 L21.089072,15.8823529 C20.8681581,15.8823529 20.689072,15.7032668 20.689072,15.4823529 C20.689072,15.3874696 20.7228009,15.2956758 20.7842348,15.2233659 L23.5231262,11.9995912 C23.7131266,11.7759538 23.9917676,11.6470588 24.2852191,11.6470588 L26.5294118,11.6470588 Z"></path>
                    <path d="M10.3805382,17.6818698 L25.3243394,0.347060378 C25.5143027,0.126702939 25.7908139,-6.8930236e-16 26.0817494,0 L30.0512377,0 C30.2721516,1.62475331e-15 30.4512377,0.1790861 30.4512377,0.4 C30.4512377,0.495089422 30.4173624,0.587068726 30.3556866,0.659443398 L10.8140628,23.5909407 C10.4558463,24.0112969 9.82468832,24.061671 9.40433213,23.7034544 C9.40403953,23.703205 9.40374708,23.7029555 9.40345477,23.7027059 L0.35051415,15.9699857 C0.128085736,15.7799948 1.11363813e-16,15.5021372 0,15.2096121 L0,11.2257379 C-5.64019733e-16,11.004824 0.1790861,10.8257379 0.4,10.8257379 C0.492984855,10.8257379 0.583064812,10.8581328 0.654752579,10.9173532 L8.98624683,17.7998919 C9.40572445,18.1464169 10.0252761,18.0939739 10.3805382,17.6818698 Z"></path>
                </g>
            </g>
        </g>
    </g>
</svg>