<svg width="1456" height="344" viewBox="0 0 1456 344" fill="none"
  xmlns="http://www.w3.org/2000/svg">
  <rect width="1456" height="344" fill="white"/>
  <g clip-path="url(#clip0_32_4795)">
    <path d="M78 87.8867H115.31V137.334H157.871V87.8867H194.996V217.379H157.871V166.311H115.31V217.379H78V87.8867Z" fill="black"/>
    <path d="M210.724 191.114C210.724 168.843 229.562 160.145 261.072 160.145H270.131V157.973C270.131 148.925 267.959 142.939 257.634 142.939C248.76 142.939 245.497 148.194 244.777 154.169H214.348C215.799 131.348 233.726 120.127 259.626 120.127C285.705 120.127 302.366 130.807 302.366 155.981V217.379H270.856V206.329C266.327 213.216 257.994 219.551 242.785 219.551C225.758 219.551 210.724 211.224 210.724 191.114ZM270.131 184.238V178.443H261.617C248.58 178.443 242.785 180.975 242.785 188.762C242.785 194.197 246.403 197.641 254.01 197.641C263.249 197.641 270.131 192.386 270.131 184.238Z" fill="black"/>
    <path d="M320.817 122.66H353.238V137.874C358.308 128.095 368.627 120.127 384.388 120.127C402.68 120.127 415.357 131.538 415.357 155.801V217.379H382.936V162.328C382.936 151.637 378.772 146.382 369.353 146.382C359.754 146.382 353.238 152.177 353.238 164.319V217.379H320.817V122.66Z" fill="black"/>
    <path d="M429.093 171.016V169.564C429.093 137.334 446.84 120.127 469.302 120.127C484.151 120.127 493.024 126.463 498.459 136.062V81H530.875V217.379H498.459V201.985C493.75 211.764 483.245 219.551 468.936 219.551C447.025 219.551 429.093 203.797 429.093 171.016ZM499.365 170.475V169.024C499.365 153.089 492.664 144.57 480.707 144.57C468.576 144.57 462.055 152.728 462.055 169.204V170.655C462.055 186.59 469.116 194.738 480.347 194.738C492.118 194.738 499.365 186.59 499.365 170.475Z" fill="black"/>
    <path d="M543.711 187.311H573.594C574.68 194.197 577.763 198.001 586.997 198.001C594.964 198.001 598.588 194.918 598.588 190.214C598.588 185.69 594.064 183.507 581.021 181.706C555.667 178.443 544.982 171.015 544.982 151.277C544.982 130.267 563.635 120.127 585.55 120.127C608.913 120.127 625.213 128.095 627.385 150.737H598.047C596.776 144.39 593.338 141.318 585.911 141.318C578.849 141.318 575.226 144.39 575.226 148.734C575.226 153.269 579.57 155.081 591.161 156.521C617.426 159.785 630.103 166.671 630.103 186.95C630.103 209.412 613.442 219.551 587.177 219.551C560.191 219.551 544.436 208.321 543.711 187.311Z" fill="black"/>
    <path d="M639.14 171.196V169.744C639.14 139.326 661.776 120.127 691.114 120.127C720.277 120.127 742.733 138.775 742.733 168.843V170.295C742.733 201.084 720.092 219.551 690.934 219.551C661.776 219.551 639.14 201.805 639.14 171.196ZM709.772 170.655V169.204C709.772 153.269 703.431 144.39 691.114 144.39C678.983 144.39 672.281 152.909 672.281 168.843V170.295C672.281 186.59 678.623 195.469 691.114 195.469C703.251 195.469 709.772 186.41 709.772 170.655Z" fill="black"/>
    <path d="M756.835 122.66H789.256V137.874C794.326 128.095 804.645 120.127 820.405 120.127C838.698 120.127 851.375 131.538 851.375 155.801V217.379H818.954V162.328C818.954 151.637 814.79 146.382 805.371 146.382C795.772 146.382 789.256 152.177 789.256 164.319V217.379H756.835V122.66Z" fill="black"/>
    <path d="M874.165 186.95V144.75H862.759V122.66H874.165V102.921H906.586V122.66H925.238V144.75H906.586V183.878C906.586 190.754 910.029 193.837 916.185 193.837C919.341 193.89 922.477 193.336 925.424 192.206V216.839C919.593 218.536 913.563 219.448 907.492 219.551C886.121 219.551 874.165 209.232 874.165 186.95Z" fill="black"/>
    <path d="M934.822 191.114C934.822 168.843 953.66 160.145 985.169 160.145H994.228V157.973C994.228 148.925 992.056 142.939 981.731 142.939C972.858 142.939 969.594 148.194 968.874 154.169H938.445C939.897 131.348 957.823 120.127 983.723 120.127C1009.8 120.127 1026.46 130.807 1026.46 155.981V217.379H994.954V206.329C990.424 213.216 982.091 219.551 966.882 219.551C949.856 219.551 934.822 211.224 934.822 191.114ZM994.228 184.238V178.443H985.715C972.678 178.443 966.882 180.975 966.882 188.762C966.882 194.197 970.5 197.641 978.108 197.641C987.346 197.641 994.228 192.386 994.228 184.238Z" fill="black"/>
    <path d="M1077.34 202.705V217.379H1044.91V81H1077.34V136.783C1080.32 131.628 1084.64 127.365 1089.83 124.437C1095.02 121.508 1100.9 120.021 1106.85 120.127C1128.95 120.127 1146.88 136.783 1146.88 169.204V170.655C1146.88 203.256 1128.95 219.551 1106.67 219.551C1092.54 219.551 1082.04 212.855 1077.34 202.705ZM1113.91 170.655V169.204C1113.91 152.538 1106.67 144.57 1095.26 144.57C1083.49 144.57 1076.43 153.089 1076.43 169.024V170.475C1076.43 186.59 1083.49 194.738 1095.26 194.738C1107.4 194.738 1113.91 186.23 1113.91 170.655Z" fill="black"/>
    <path d="M1162.25 81H1194.48V217.379H1162.25V81Z" fill="black"/>
    <path d="M1209.51 171.196V169.744C1209.51 139.326 1232.14 120.127 1260.76 120.127C1286.66 120.127 1308.94 134.971 1308.94 169.024V177.531H1242.29C1243.2 190.034 1250.44 197.281 1262.03 197.281C1272.71 197.281 1277.24 192.386 1278.51 186.05H1308.94C1306.04 207.42 1289.56 219.551 1260.94 219.551C1231.24 219.551 1209.51 202.165 1209.51 171.196ZM1277.42 159.244C1276.88 147.833 1271.27 141.498 1260.76 141.498C1250.98 141.498 1244.28 147.833 1242.65 159.244H1277.42Z" fill="black"/>
    <path d="M1323.33 223.667H1378V278.335H1323.33V223.667Z" fill="#1A42E8"/>
  </g>
  <defs>
    <clipPath id="clip0_32_4795">
      <rect width="1300" height="197.335" fill="white" transform="translate(78 81)"/>
    </clipPath>
  </defs>
</svg>
