<svg class="DynamicHHLogo__HHLogoSVG-sc-msikpw-0 kgoEjS"
  xmlns="http://www.w3.org/2000/svg" viewBox="0 0 269 119" role="img" aria-labelledby="HingeHealthLogoFooterDesktopMobile" height="100%">
  <title id="HingeHealthLogoFooterDesktopMobile">Hinge Health</title>
  <path color="#00A749" fill="currentColor" d="M104.502 87.0573C101.123 74.6685 91.2856 66.4868 80.4193 61.6797C72.4462 58.1509 64.0392 56.5572 56.7468 55.9762C56.6329 54.3161 56.5499 52.6442 56.5049 50.9652C56.4669 49.6253 56.4551 48.2901 56.4622 46.9644C63.8921 46.2695 71.3838 43.7154 77.111 38.4246C84.0951 31.9716 89.1702 19.635 83.4904 9.18844C81.1829 5.20903 77.5616 2.67624 73.3 2.05727C68.0945 1.30313 63.3016 3.22169 59.4479 7.60663C56.1918 11.3133 53.6804 16.654 51.98 23.4792C50.5666 29.159 49.7271 35.6001 49.4448 42.3281C48.0362 42.2403 46.5824 42.0791 45.0789 41.8301C43.1366 41.5004 41.0663 40.9811 38.9319 40.2649C37.6204 31.7155 35.2418 24.6555 31.8482 19.2745C28.6893 14.2635 24.6648 10.8864 20.5099 9.76472C16.4356 8.66433 12.6056 9.79318 10.2626 12.786C8.00488 15.6698 7.87207 19.7702 9.8096 24.129C13.5922 32.6499 22.6372 39.1479 32.1351 43.0229C32.7991 48.1573 32.6711 53.3248 31.7675 58.2718C26.415 59.818 18.1692 62.4457 9.88787 69.2282C4.85787 73.3476 -1.7397 83.704 4.32902 89.5285C6.046 91.0889 8.32978 91.8905 10.9622 91.8905C12.1669 91.8905 13.4475 91.7221 14.7779 91.383C18.6008 90.4059 22.4806 88.1222 25.9976 84.7736C30.947 80.0614 36.0291 71.9745 38.3627 61.5659C42.067 60.8686 45.9848 60.4963 49.9903 60.4655C50.6994 67.5089 51.9776 74.41 53.8179 80.6495C57.463 93.0075 63.1333 102.069 70.6747 107.578C77.4786 112.549 83.7133 112.952 85.4611 112.957H85.5299C93.733 112.957 100.468 108.724 103.558 101.623C105.247 97.741 105.984 92.2889 104.507 87.055L104.502 87.0573ZM72.2755 9.09832C74.9245 9.48251 76.4897 11.3015 77.3339 12.7576C80.673 18.6532 79.5679 30.8997 69.2755 37.6254C66.0479 39.7336 61.772 41.4554 56.5855 42.117C56.8772 35.9368 57.6574 30.1171 58.8811 25.1986C62.7918 9.48014 69.5506 8.70228 72.2755 9.09832V9.09832ZM19.4736 27.4658C15.6649 23.1496 14.7851 18.5465 15.8641 17.1686C16.5898 16.2413 17.9226 16.4334 18.653 16.6303C21.0411 17.2753 23.6545 19.6208 25.8269 23.0642C28.0561 26.6025 29.8252 31.2649 31.0418 36.7503C26.9486 34.4523 22.9383 31.3883 19.4759 27.4634L19.4736 27.4658ZM21.0909 79.6203C15.6103 84.8376 10.3811 85.4186 9.11712 84.2661C6.89263 82.3736 9.83332 76.9333 13.4783 73.5136C18.3803 68.9128 23.9202 65.8227 30.4561 63.6386C30.3304 64.0465 30.1999 64.4544 30.06 64.8575C28.0371 70.7958 24.8522 76.0393 21.0909 79.6179V79.6203ZM39.2378 56.5596C39.6813 53.0734 39.8093 49.3739 39.5319 45.4964C41.007 45.883 42.4655 46.2031 43.8836 46.4522C45.6362 46.7581 47.4646 46.9715 49.3381 47.0806C49.3286 49.9407 49.414 52.8292 49.599 55.7153C46.0583 55.7461 42.5793 56.0236 39.2402 56.5596H39.2378ZM97.0294 98.7869C95.0777 103.274 90.8848 105.845 85.5252 105.845H85.4777C83.756 105.84 68.4218 105.033 60.6384 78.6408C59.0258 73.1697 57.8543 67.1128 57.1689 60.7785C64.0842 61.4591 72.0265 63.316 78.9276 66.8899C88.001 71.5903 95.4239 79.108 97.793 89.3743C98.4737 92.7466 98.2223 96.043 97.0294 98.7869Z" class="DynamicHHLogo__LogoPath-sc-msikpw-1 gCbSU"></path>
  <path color="#00A749" fill="currentColor" d="M130.196 13.2798V46.9554H124.979V31.3033H106.955V46.9554H101.738V13.2798H106.955V26.3232H124.979V13.2798H130.196ZM136.742 24.1888H141.722V46.9554H136.742V24.1888ZM139.208 19.6829C140.09 19.6829 140.856 19.3722 141.485 18.7627C142.116 18.1509 142.433 17.3896 142.433 16.5051C142.433 15.6205 142.116 14.8568 141.487 14.226C140.859 13.5976 140.093 13.2798 139.208 13.2798C138.324 13.2798 137.565 13.5999 136.951 14.2284C136.339 14.8568 136.03 15.6228 136.03 16.5051C136.03 17.3873 136.341 18.1461 136.953 18.7604C137.565 19.3722 138.324 19.6829 139.208 19.6829ZM159.414 28.4575C156.995 28.4575 154.922 29.4749 153.248 31.4836V46.9554H148.267V24.1888H153.105V26.022C154.874 24.49 157.042 23.7145 159.556 23.7145C162.968 23.7145 165.76 25.0686 167.854 27.7413C169.334 29.6101 170.085 32.3255 170.085 35.8092V46.9554H165.105V35.5721C165.105 33.2978 164.676 31.6093 163.829 30.5492C162.741 29.1619 161.256 28.4575 159.414 28.4575ZM180.254 45.9261C181.926 46.9246 183.852 47.4297 185.972 47.4297C188.462 47.4297 190.644 46.7064 192.47 45.2763V46.0068C192.47 48.5087 192.067 50.3965 191.275 51.6178C190.22 53.2447 188.467 54.07 186.067 54.07C183.25 54.07 180.84 52.7609 178.905 50.1807L178.746 49.9696L175.089 53.3656L175.194 53.5316C176.066 54.919 177.475 56.1593 179.382 57.217C181.288 58.2747 183.603 58.813 186.257 58.813C188.469 58.813 190.45 58.315 192.138 57.3332C193.829 56.3514 195.159 54.9545 196.096 53.1806C196.995 51.4138 197.45 48.9214 197.45 45.7696V24.1888H192.612V25.9651C190.696 24.471 188.434 23.7145 185.877 23.7145C183.821 23.7145 181.945 24.203 180.304 25.1706C178.537 26.1998 177.103 27.6488 176.045 29.4773C174.985 31.3081 174.449 33.3571 174.449 35.5721C174.449 37.7871 174.978 39.829 176.021 41.6432C177.065 43.4574 178.49 44.8993 180.254 45.9261ZM181.379 30.5397C182.669 29.1571 184.343 28.4575 186.352 28.4575C188.858 28.4575 190.917 29.4749 192.47 31.4788V39.6677C190.95 41.6716 188.97 42.6866 186.589 42.6866C184.545 42.6866 182.823 41.9847 181.471 40.5997C180.115 39.2147 179.427 37.5238 179.427 35.5721C179.427 33.6203 180.084 31.9271 181.379 30.5397ZM219.278 46.2202C217.639 47.0218 215.721 47.4297 213.577 47.4297V47.432C210.268 47.432 207.451 46.2913 205.203 44.0431C202.955 41.7949 201.814 38.9705 201.814 35.5744C201.814 32.1784 202.865 29.3231 204.937 27.0891C207.012 24.8504 209.759 23.7168 212.913 23.7168C216.067 23.7168 218.709 24.8599 220.772 27.1152C222.828 29.3634 223.869 32.2092 223.869 35.5744C223.869 35.9254 223.853 36.2527 223.819 36.5491L223.796 36.7602H206.671C206.842 38.4772 207.565 39.9499 208.829 41.1404C210.152 42.3878 211.765 43.021 213.622 43.021C215.977 43.021 218.071 42.0273 219.849 40.0637L220.013 39.8835L223.283 42.9949L223.155 43.1633C222.221 44.3894 220.917 45.4186 219.278 46.2202ZM213.055 28.1255C211.661 28.1255 210.385 28.5642 209.263 29.4274H209.265C208.224 30.229 207.501 31.2583 207.112 32.4891H218.633C218.298 31.282 217.625 30.2599 216.629 29.4464C215.555 28.5713 214.352 28.1255 213.055 28.1255ZM153.44 90.8285V57.1529H148.222V70.1963H130.199V57.1529H124.981V90.8285H130.199V75.1765H148.222V90.8285H153.44ZM179.906 79.4452C179.906 79.7962 179.889 80.1235 179.856 80.4199V80.4223L179.832 80.6334H162.708C162.878 82.3503 163.602 83.8231 164.866 85.0136C166.189 86.261 167.802 86.8942 169.659 86.8942C172.013 86.8942 174.107 85.9005 175.886 83.9369L176.05 83.7567L179.32 86.8681L179.192 87.0365C178.258 88.2626 176.951 89.2918 175.315 90.0934C173.676 90.8949 171.757 91.3028 169.613 91.3028C166.305 91.3028 163.488 90.1621 161.24 87.9139C158.991 85.6657 157.851 82.8436 157.851 79.4452C157.851 76.0468 158.901 73.1939 160.974 70.9599C163.049 68.7212 165.795 67.5876 168.949 67.5876C172.104 67.5876 174.745 68.7307 176.809 70.986C178.865 73.2342 179.906 76.08 179.906 79.4452ZM165.3 73.3006C164.259 74.1022 163.538 75.1291 163.146 76.3623L163.149 76.3646H174.67C174.335 75.1575 173.662 74.1354 172.666 73.322C171.591 72.4445 170.389 71.9987 169.092 71.9987C167.697 71.9987 166.421 72.4374 165.3 73.3006ZM201.532 69.8382C199.616 68.3441 197.353 67.5876 194.797 67.5876C192.738 67.5876 190.865 68.0785 189.224 69.0437C187.457 70.073 186.022 71.522 184.964 73.3504C183.904 75.1812 183.368 77.2326 183.368 79.4452C183.368 81.6579 183.897 83.7021 184.941 85.5163C185.984 87.3305 187.409 88.7724 189.174 89.7993C190.846 90.7977 192.771 91.3028 194.891 91.3028C197.469 91.3028 199.701 90.5511 201.532 89.0665V90.8285H206.37V68.0619H201.532V69.8382ZM201.389 83.5385C199.869 85.5424 197.891 86.5574 195.508 86.5574C193.464 86.5574 191.742 85.8555 190.388 84.4705C189.031 83.0855 188.344 81.3923 188.344 79.4429C188.344 77.4935 189.001 75.7978 190.295 74.4105C191.586 73.0279 193.26 72.3283 195.269 72.3283C197.778 72.3283 199.834 73.3457 201.387 75.3496V83.5385H201.389ZM212.63 56.6786H217.611V90.8285H212.63V56.6786ZM221.832 72.5678H227.524V82.5282C227.524 85.2009 228.15 87.2499 229.385 88.6159C230.974 90.3993 233.156 91.3028 235.871 91.3028C237.28 91.3028 238.485 91.1392 239.455 90.8167L239.659 90.7479L238.658 86.2135L238.416 86.2823C237.776 86.4649 236.967 86.5574 236.014 86.5574C234.674 86.5574 233.697 86.1875 233.109 85.4523C232.708 84.9946 232.504 84.0887 232.504 82.763V72.5654H239.618V68.0595H232.504V61.8936H227.524V68.0595H221.832V72.5654V72.5678ZM255.128 72.3307C252.712 72.3307 250.636 73.348 248.962 75.3567V90.8285H243.982V56.6786H248.962V69.7457C250.805 68.3133 252.925 67.5876 255.27 67.5876C258.683 67.5876 261.474 68.9418 263.568 71.6145C265.048 73.4832 265.8 76.1986 265.8 79.6824V90.8285H260.82V79.4452C260.82 77.1709 260.391 75.4824 259.544 74.4223C258.455 73.035 256.971 72.3307 255.128 72.3307Z" class="DynamicHHLogo__LogoPath-sc-msikpw-1 gCbSU"></path>
</svg>