<svg xmlns="http://www.w3.org/2000/svg" viewBox="0 0 669.35 701.69">
  <title>Angular Camp</title>
  <defs>
    <style>
      .cls-1 {
        fill: #18D4D5;
      }
      .path-1 {
        stroke-dasharray: 1500;
        stroke-dashoffset: 1500;
        animation: dash 1.5s ease-out forwards;
      }
      .path-2 {
        stroke-dasharray: 800;
        stroke-dashoffset: 800;
        animation: dash .8s ease-out 1.5s forwards;
      }
      .path-3 {
        stroke-dasharray: 400;
        stroke-dashoffset: 400;
        animation: dash .5s ease-out 2s forwards;
      }

      @keyframes dash {
        to {
          stroke-dashoffset: 0;
        }
      }

      @supports (-ms-ime-align:auto) {
        .path-1,
        .path-2,
        .path-3{
        stroke-dashoffset: 0;
        }
      }

    </style>
    <mask id="clip-logo">
      <g fill="white">
        <g transform="scale(2.12) translate(15)">
          <rect y="312.25" width="31.84" height="8.38"/>
          <path d="M44.6,278.43H57.09v40.65a1.36,1.36,0,0,1-.47,1.08,2.21,2.21,0,0,1-1.5.47h-13V329H56.48a9.54,9.54,0,0,0,7.08-2.8,10.34,10.34,0,0,0,2.76-7.55v-48.6H44.6Z"/>
          <rect x="56.58" y="253.05" width="10.08" height="9.65"/>
          <path d="M91.38,287.14H88.49a3.55,3.55,0,0,1-2.3-.71,2.58,2.58,0,0,1-.78-2.12v-3.06a2.37,2.37,0,0,1,.88-2.05,4.54,4.54,0,0,1,2.8-.77h13.24v-8.38H89.94c-4.4,0-7.81.92-10.14,2.72s-3.61,4.89-3.61,9v2.47c0,4,1.1,7,3.27,8.95S84.8,296,89,296h3.15c1.88,0,2.65.82,2.65,2.83v4.5a2.54,2.54,0,0,1-.82,2.08,4.54,4.54,0,0,1-2.85.75H76.61v8.37H90.28c4.35,0,7.75-1,10.1-2.85s3.65-4.9,3.65-8.77V299.1c0-3.9-1.11-6.9-3.3-8.93S95.42,287.14,91.38,287.14Z"/>
          <path d="M115.91,273.54c-2.56,2.34-3.85,6.08-3.85,11.11V300c0,5.09,1.28,8.84,3.81,11.15s6.42,3.45,11.64,3.45h12v-8.37H126.66a6,6,0,0,1-4.1-1.19,4.24,4.24,0,0,1-1.28-3.34V283a4.2,4.2,0,0,1,1.28-3.33,6,6,0,0,1,4.1-1.19h12.81v-8.38h-12C122.34,270.05,118.44,271.23,115.91,273.54Z"/>
          <path d="M180.15,306.13a1.13,1.13,0,0,1-.52-1.08v-20.4c0-5-1.3-8.76-3.85-11.11s-6.44-3.49-11.6-3.49H150.85v8.38H165a6,6,0,0,1,4.09,1.19A4.2,4.2,0,0,1,170.4,283v3.25h-9.54c-8.77,0-13.41,4.9-13.41,14.18v1.7c0,4.47,1.1,7.71,3.27,9.63s5.52,2.84,10.06,2.84h7.56a7.16,7.16,0,0,0,5.2-2.05,8,8,0,0,0,1.78,1.26,6.3,6.3,0,0,0,2.88.79h5.68V306.6h-1A5.33,5.33,0,0,1,180.15,306.13Zm-23.47-7.45a3.94,3.94,0,0,1,4.1-4.1h9.62v8.35a5.12,5.12,0,0,1-.55,2.56c-.25.44-1.09.69-2.36.69h-7.56a3.53,3.53,0,0,1-2.52-.73,3.48,3.48,0,0,1-.73-2.52Z"/>
          <path d="M220.52,270.05H220a10.14,10.14,0,0,0-7.37,2.89c-1.88-1.92-4.71-2.89-8.44-2.89h-.51a8.87,8.87,0,0,0-4.27,1v-1h-8.37v44.5h8.8V281.64a5.2,5.2,0,0,1,.93-2.84,3.06,3.06,0,0,1,2.74-1.05H204c1.67,0,2.08.64,2.22.86.31.49.69,1.64.69,4.34v31.6h8.8V282.4a7.56,7.56,0,0,1,.94-3.42c.29-.53.89-1.23,2.65-1.23h.51c.89,0,2,.14,2.39.82s.61,1.71.61,4.38v31.6h8.8V283c0-4.79-.9-8.07-2.74-10S224.25,270.05,220.52,270.05Z"/>
          <path d="M269.33,273.5c-2.51-2.29-6.42-3.45-11.64-3.45h-3.06a12.84,12.84,0,0,0-5.8,1.24v-1.24H240V329h9.22V314.55h8.44c5.16,0,9.06-1.17,11.6-3.49s3.85-6.08,3.85-11.11v-15.3C273.14,279.57,271.86,275.81,269.33,273.5Zm-20.08,8.6a3.67,3.67,0,0,1,1.1-2.51,4.48,4.48,0,0,1,3.43-1.16h4.76a6,6,0,0,1,4.09,1.19,4.2,4.2,0,0,1,1.28,3.33v18.7a4.24,4.24,0,0,1-1.28,3.34,6,6,0,0,1-4.09,1.19h-9.29Z"/>
        </g>
        <polyline class="path-1" fill="transparent" points="410,0 140,470 540,470 275,0" stroke-width="18" stroke="white" stroke-linecap="square"></polyline>
        <polyline class="path-2" fill="transparent" points="280,235 420,470" stroke-width="18" stroke="white" ></polyline>
        <polyline class="path-3" fill="transparent" points="345,335 265,470" stroke-width="18" stroke="white" ></polyline>
      </g>
    </mask>
    <linearGradient id='logo-gradient' x1='0' x2='100%' y1='100%' y2='0'> <stop offset='0' stop-color='#EE0CF6'></stop> <stop offset='100%' stop-color='#18D4D5'></stop> </linearGradient>
  </defs>

  <rect mask="url(#clip-logo)" fill="url(#logo-gradient)" x="0" y="0" width="100%" height="100%" />

</svg>
