<svg height="933.33331" viewBox="0 0 933.33331 933.33331" width="933.33331" xmlns="http://www.w3.org/2000/svg" xmlns:xlink="http://www.w3.org/1999/xlink"><clipPath id="a"><path d="m0 700h700v-700h-700z"/></clipPath><clipPath id="b"><path d="m0 700h700v-700h-700z"/></clipPath><clipPath id="c"><path d="m0 700h700v-700h-700z"/></clipPath><clipPath id="d"><path d="m0 700h700v-700h-700z"/></clipPath><clipPath id="e"><path d="m0 700h700v-700h-700z"/></clipPath><clipPath id="f"><path d="m0 700h700v-700h-700z"/></clipPath><g transform="matrix(1.3333333 0 0 -1.3333333 0 933.33333)"><path d="m0 0 86.604-150h-51.964l-60.621 105zm-34.64-150h-51.963l54.849 95 25.98-44.999zm57.734 0h-46.187l23.093 40zm80.829-10-98.15 170 30.311 52.5-8.661 5-27.423-47.5-27.424 47.499-8.66-5 30.31-52.499-98.149-170z" fill="#ddd" transform="translate(349.9995 478)"/><g fill="none" stroke="#f00" stroke-miterlimit="10" stroke-width=".1"><path d="m0 0h-367.514" transform="translate(533.7568 318)"/><path d="m0 0h-367.848" transform="translate(533.9238 328)"/><path d="m0 0 163.757-283.635" transform="translate(302.4517 580.2832)"/><path d="m0 0 163.923-283.924" transform="translate(293.7075 575.4277)"/><path d="m0 0 163.757-283.635" transform="translate(238.9849 580.2832)"/><path d="m0 0 163.924-283.924" transform="translate(230.2407 575.4277)"/><path d="m0 0 163.757 283.635" transform="translate(297.2578 296.6484)"/><path d="m0 0 163.924 283.924" transform="translate(305.835 291.5039)"/><path d="m0 0 163.757 283.635" transform="translate(233.7075 296.6484)"/><path d="m0 0 163.924 283.924" transform="translate(242.2847 291.5039)"/></g><path d="m213.529 224.873h31.841v8.375h-31.841z" fill="#ddd"/><g clip-path="url(#a)"><path d="m0 0h12.495v-40.65c0-.454-.146-.788-.474-1.081-.353-.316-.844-.469-1.501-.469h-12.985v-8.375h14.346c2.869 0 5.254.944 7.088 2.806 1.826 1.859 2.752 4.397 2.752 7.544v48.6h-21.721z" fill="#ddd" transform="translate(258.1245 267.0732)"/><path d="m270.11 282.798h10.075v9.65h-10.075z" fill="#ddd"/><path d="m0 0h-2.891c-.963 0-1.714.232-2.3.71-.525.427-.78 1.119-.78 2.115v3.06c0 .938.282 1.592.883 2.053.669.512 1.609.772 2.793.772h13.239v8.375h-12.389c-4.401 0-7.81-.914-10.134-2.718-2.4-1.863-3.616-4.888-3.616-8.992v-2.465c0-4.021 1.099-7.034 3.269-8.952 2.134-1.887 5.346-2.843 9.545-2.843h3.146c1.885 0 2.655-.818 2.655-2.825v-4.505c0-.941-.27-1.619-.825-2.075-.607-.497-1.566-.75-2.851-.75h-14.515v-8.375h13.666c4.351 0 7.751.961 10.104 2.855 2.419 1.949 3.646 4.899 3.646 8.77v3.825c0 3.899-1.109 6.904-3.295 8.936-2.167 2.009-5.313 3.029-9.35 3.029" fill="#ddd" transform="translate(304.9116 258.3633)"/><path d="m0 0c-2.556-2.34-3.853-6.076-3.853-11.106v-15.301c0-5.087 1.283-8.839 3.811-11.151 2.502-2.289 6.418-3.449 11.64-3.449h11.966v8.375h-12.817c-1.834 0-3.211.401-4.093 1.191-.862.771-1.282 1.862-1.282 3.335v18.699c0 1.471.42 2.562 1.283 3.335.882.79 2.259 1.19 4.092 1.19h12.817v8.375h-11.966c-5.165 0-9.068-1.175-11.598-3.493" fill="#ddd" transform="translate(329.438 271.9551)"/><path d="m0 0c0 1.208.377 2.173 1.152 2.948.774.775 1.739 1.152 2.948 1.152h9.625v-8.35c0-1.065-.186-1.928-.549-2.564-.252-.443-1.09-.686-2.36-.686h-7.566c-1.191 0-2.039.244-2.521.728-.485.482-.729 1.331-.729 2.522zm23.473-7.449c-.258.168-.522.428-.522 1.074v20.4c0 5.028-1.297 8.764-3.853 11.107-2.534 2.318-6.436 3.493-11.598 3.493h-13.324v-8.375h14.174c1.832 0 3.211-.4 4.093-1.189.862-.774 1.282-1.866 1.282-3.336v-3.25h-9.539c-8.774 0-13.411-4.902-13.411-14.175v-1.7c0-4.473 1.1-7.713 3.27-9.631 2.133-1.887 5.514-2.844 10.055-2.844h7.566c2.063 0 3.807.69 5.195 2.055.534-.503 1.129-.926 1.782-1.263 1.015-.525 1.984-.792 2.882-.792h5.676v7.95h-1c-1.742 0-2.455.297-2.728.476" fill="#ddd" transform="translate(370.207 246.8232)"/><path d="m0 0h-.51c-2.941 0-5.414-.971-7.367-2.89-1.881 1.919-4.715 2.89-8.443 2.89h-.51c-1.565 0-2.992-.349-4.27-1.039v1.039h-8.375v-44.5h8.799v32.915c.047 1.064.352 1.992.93 2.836.486.709 1.385 1.054 2.746 1.054h.51c1.664 0 2.082-.648 2.219-.859.314-.49.691-1.641.691-4.346v-31.6h8.799v32.155c.049 1.25.365 2.4.935 3.418.297.529.895 1.232 2.657 1.232h.509c.889 0 2.024-.144 2.389-.827.275-.523.605-1.707.605-4.378v-31.6h8.801v31.515c0 4.782-.894 8.064-2.736 10.034-1.834 1.958-4.652 2.951-8.379 2.951" fill="#ddd" transform="translate(434.0508 275.4482)"/><path d="m0 0c0 .883.359 1.704 1.1 2.513.705.771 1.857 1.162 3.425 1.162h4.76c1.832 0 3.209-.401 4.094-1.191.861-.772 1.281-1.863 1.281-3.335v-18.699c0-1.471-.418-2.562-1.281-3.335-.883-.79-2.26-1.19-4.094-1.19h-9.285zm20.074 8.601c-2.504 2.289-6.42 3.449-11.638 3.449h-3.061c-2.215 0-4.158-.415-5.799-1.237v1.237h-8.801v-58.95h9.225v14.45h8.436c5.164 0 9.066 1.175 11.597 3.493 2.557 2.34 3.852 6.077 3.852 11.106v15.301c0 5.086-1.281 8.837-3.811 11.151" fill="#ddd" transform="translate(462.7812 263.3984)"/><g fill="none" stroke="#f00" stroke-miterlimit="10" stroke-width=".1"><path d="m0 0h-367.514" transform="translate(533.7568 231)"/><path d="m0 0h-367.514" transform="translate(533.7568 216.498)"/><path d="m0 0h-367.514" transform="translate(533.7568 275.5)"/><path d="m0 0v113.759" transform="translate(350 191.498)"/><path d="m0 0v384.759" transform="translate(508.459 191.498)"/><path d="m0 0v384.759" transform="translate(191.541 191.498)"/><path d="m0 0h-367.514" transform="translate(533.7568 545.5)"/><path d="m0 0h-367.514" transform="translate(533.7568 224.873)"/></g></g><path d="m0 0 86.604-150h-51.964l-60.621 105zm-34.64-150h-51.963l54.849 95 25.98-44.999zm57.734 0h-46.187l23.093 40zm80.829-10-98.15 170 30.311 52.5-8.661 5-27.423-47.5-27.424 47.499-8.66-5 30.31-52.499-98.149-170z" fill="#0e08f9" transform="translate(349.9995 478)"/><path d="m213.529 224.873h31.841v8.375h-31.841z" fill="#0e08f9"/><g clip-path="url(#b)" fill="#0e08f9"><path d="m0 0h12.495v-40.65c0-.454-.146-.788-.474-1.081-.353-.316-.844-.469-1.501-.469h-12.985v-8.375h14.346c2.869 0 5.254.944 7.088 2.806 1.826 1.859 2.752 4.397 2.752 7.544v48.6h-21.721z" transform="translate(258.1245 267.0732)"/><path d="m270.11 282.798h10.075v9.65h-10.075z"/><path d="m0 0h-2.891c-.963 0-1.714.232-2.3.71-.525.427-.78 1.119-.78 2.115v3.06c0 .938.282 1.592.883 2.053.669.512 1.609.772 2.793.772h13.239v8.375h-12.389c-4.401 0-7.81-.914-10.134-2.718-2.4-1.863-3.616-4.888-3.616-8.992v-2.465c0-4.021 1.099-7.034 3.269-8.952 2.134-1.887 5.346-2.843 9.545-2.843h3.146c1.885 0 2.655-.818 2.655-2.825v-4.505c0-.941-.27-1.619-.825-2.075-.607-.497-1.566-.75-2.851-.75h-14.515v-8.375h13.666c4.351 0 7.751.961 10.104 2.855 2.419 1.949 3.646 4.899 3.646 8.77v3.825c0 3.899-1.109 6.904-3.295 8.936-2.167 2.009-5.313 3.029-9.35 3.029" transform="translate(304.9116 258.3633)"/><path d="m0 0c-2.556-2.34-3.853-6.076-3.853-11.106v-15.301c0-5.087 1.283-8.839 3.811-11.151 2.502-2.289 6.418-3.449 11.64-3.449h11.966v8.375h-12.817c-1.834 0-3.211.401-4.093 1.191-.862.771-1.282 1.862-1.282 3.335v18.699c0 1.471.42 2.562 1.283 3.335.882.79 2.259 1.19 4.092 1.19h12.817v8.375h-11.966c-5.165 0-9.068-1.175-11.598-3.493" transform="translate(329.438 271.9551)"/><path d="m0 0c0 1.208.377 2.173 1.152 2.948.774.775 1.739 1.152 2.948 1.152h9.625v-8.35c0-1.065-.186-1.928-.549-2.564-.252-.443-1.09-.686-2.36-.686h-7.566c-1.191 0-2.039.244-2.521.728-.485.482-.729 1.331-.729 2.522zm23.473-7.449c-.258.168-.522.428-.522 1.074v20.4c0 5.028-1.297 8.764-3.853 11.107-2.534 2.318-6.436 3.493-11.598 3.493h-13.324v-8.375h14.174c1.832 0 3.211-.4 4.093-1.189.862-.774 1.282-1.866 1.282-3.336v-3.25h-9.539c-8.774 0-13.411-4.902-13.411-14.175v-1.7c0-4.473 1.1-7.713 3.27-9.631 2.133-1.887 5.514-2.844 10.055-2.844h7.566c2.063 0 3.807.69 5.195 2.055.534-.503 1.129-.926 1.782-1.263 1.015-.525 1.984-.792 2.882-.792h5.676v7.95h-1c-1.742 0-2.455.297-2.728.476" transform="translate(370.207 246.8232)"/><path d="m0 0h-.51c-2.941 0-5.414-.971-7.367-2.89-1.881 1.919-4.715 2.89-8.443 2.89h-.51c-1.565 0-2.992-.349-4.27-1.039v1.039h-8.375v-44.5h8.799v32.915c.047 1.064.352 1.992.93 2.836.486.709 1.385 1.054 2.746 1.054h.51c1.664 0 2.082-.648 2.219-.859.314-.49.691-1.641.691-4.346v-31.6h8.799v32.155c.049 1.25.365 2.4.935 3.418.297.529.895 1.232 2.657 1.232h.509c.889 0 2.024-.144 2.389-.827.275-.523.605-1.707.605-4.378v-31.6h8.801v31.515c0 4.782-.894 8.064-2.736 10.034-1.834 1.958-4.652 2.951-8.379 2.951" transform="translate(434.0508 275.4482)"/><path d="m0 0c0 .883.359 1.704 1.1 2.513.705.771 1.857 1.162 3.425 1.162h4.76c1.832 0 3.209-.401 4.094-1.191.861-.772 1.281-1.863 1.281-3.335v-18.699c0-1.471-.418-2.562-1.281-3.335-.883-.79-2.26-1.19-4.094-1.19h-9.285zm20.074 8.601c-2.504 2.289-6.42 3.449-11.638 3.449h-3.061c-2.215 0-4.158-.415-5.799-1.237v1.237h-8.801v-58.95h9.225v14.45h8.436c5.164 0 9.066 1.175 11.597 3.493 2.557 2.34 3.852 6.077 3.852 11.106v15.301c0 5.086-1.281 8.837-3.811 11.151" transform="translate(462.7812 263.3984)"/></g><path d="m0 0h700v700h-700z" fill="#ddd"/><path d="m0 0 86.604-150h-51.964l-60.621 105zm-34.64-150h-51.963l54.849 95 25.98-44.999zm57.734 0h-46.187l23.093 40zm80.829-10-98.15 170 30.311 52.5-8.661 5-27.423-47.5-27.424 47.499-8.66-5 30.31-52.499-98.149-170z" fill="#0e08f9" transform="translate(349.9995 478)"/><path d="m213.529 224.873h31.841v8.375h-31.841z" fill="#0e08f9"/><g clip-path="url(#c)" fill="#0e08f9"><path d="m0 0h12.495v-40.65c0-.454-.146-.788-.474-1.081-.353-.316-.844-.469-1.501-.469h-12.985v-8.375h14.346c2.869 0 5.254.944 7.088 2.806 1.826 1.859 2.752 4.397 2.752 7.544v48.6h-21.721z" transform="translate(258.1245 267.0732)"/><path d="m270.11 282.798h10.075v9.65h-10.075z"/><path d="m0 0h-2.891c-.963 0-1.714.232-2.3.71-.525.427-.78 1.119-.78 2.115v3.06c0 .938.282 1.592.883 2.053.669.512 1.609.772 2.793.772h13.239v8.375h-12.389c-4.401 0-7.81-.914-10.134-2.718-2.4-1.863-3.616-4.888-3.616-8.992v-2.465c0-4.021 1.099-7.034 3.269-8.952 2.134-1.887 5.346-2.843 9.545-2.843h3.146c1.885 0 2.655-.818 2.655-2.825v-4.505c0-.941-.27-1.619-.825-2.075-.607-.497-1.566-.75-2.851-.75h-14.515v-8.375h13.666c4.351 0 7.751.961 10.104 2.855 2.419 1.949 3.646 4.899 3.646 8.77v3.825c0 3.899-1.109 6.904-3.295 8.936-2.167 2.009-5.313 3.029-9.35 3.029" transform="translate(304.9116 258.3633)"/><path d="m0 0c-2.556-2.34-3.853-6.076-3.853-11.106v-15.301c0-5.087 1.283-8.839 3.811-11.151 2.502-2.289 6.418-3.449 11.64-3.449h11.966v8.375h-12.817c-1.834 0-3.211.401-4.093 1.191-.862.771-1.282 1.862-1.282 3.335v18.699c0 1.471.42 2.562 1.283 3.335.882.79 2.259 1.19 4.092 1.19h12.817v8.375h-11.966c-5.165 0-9.068-1.175-11.598-3.493" transform="translate(329.438 271.9551)"/><path d="m0 0c0 1.208.377 2.173 1.152 2.948.774.775 1.739 1.152 2.948 1.152h9.625v-8.35c0-1.065-.186-1.928-.549-2.564-.252-.443-1.09-.686-2.36-.686h-7.566c-1.191 0-2.039.244-2.521.728-.485.482-.729 1.331-.729 2.522zm23.473-7.449c-.258.168-.522.428-.522 1.074v20.4c0 5.028-1.297 8.764-3.853 11.107-2.534 2.318-6.436 3.493-11.598 3.493h-13.324v-8.375h14.174c1.832 0 3.211-.4 4.093-1.189.862-.774 1.282-1.866 1.282-3.336v-3.25h-9.539c-8.774 0-13.411-4.902-13.411-14.175v-1.7c0-4.473 1.1-7.713 3.27-9.631 2.133-1.887 5.514-2.844 10.055-2.844h7.566c2.063 0 3.807.69 5.195 2.055.534-.503 1.129-.926 1.782-1.263 1.015-.525 1.984-.792 2.882-.792h5.676v7.95h-1c-1.742 0-2.455.297-2.728.476" transform="translate(370.207 246.8232)"/><path d="m0 0h-.51c-2.941 0-5.414-.971-7.367-2.89-1.881 1.919-4.715 2.89-8.443 2.89h-.51c-1.565 0-2.992-.349-4.27-1.039v1.039h-8.375v-44.5h8.799v32.915c.047 1.064.352 1.992.93 2.836.486.709 1.385 1.054 2.746 1.054h.51c1.664 0 2.082-.648 2.219-.859.314-.49.691-1.641.691-4.346v-31.6h8.799v32.155c.049 1.25.365 2.4.935 3.418.297.529.895 1.232 2.657 1.232h.509c.889 0 2.024-.144 2.389-.827.275-.523.605-1.707.605-4.378v-31.6h8.801v31.515c0 4.782-.894 8.064-2.736 10.034-1.834 1.958-4.652 2.951-8.379 2.951" transform="translate(434.0508 275.4482)"/><path d="m0 0c0 .883.359 1.704 1.1 2.513.705.771 1.857 1.162 3.425 1.162h4.76c1.832 0 3.209-.401 4.094-1.191.861-.772 1.281-1.863 1.281-3.335v-18.699c0-1.471-.418-2.562-1.281-3.335-.883-.79-2.26-1.19-4.094-1.19h-9.285zm20.074 8.601c-2.504 2.289-6.42 3.449-11.638 3.449h-3.061c-2.215 0-4.158-.415-5.799-1.237v1.237h-8.801v-58.95h9.225v14.45h8.436c5.164 0 9.066 1.175 11.597 3.493 2.557 2.34 3.852 6.077 3.852 11.106v15.301c0 5.086-1.281 8.837-3.811 11.151" transform="translate(462.7812 263.3984)"/></g><path d="m0 0h700v700h-700z" fill="#ddd"/><path d="m0 0 86.604-150h-51.963l-60.622 105zm-34.64-150h-51.963l54.849 95 25.98-44.999zm57.734 0h-46.187l23.093 40zm80.83-10-98.151 170 30.311 52.5-8.66 5-27.424-47.5-27.424 47.499-8.66-5 30.31-52.499-98.149-170z" fill="#0e08f9" transform="translate(184.9995 413)"/><path d="m306.572 313.549h31.842v8.375h-31.842z" fill="#0e08f9"/><g clip-path="url(#d)" fill="#0e08f9"><path d="m0 0h12.496v-40.65c0-.454-.146-.788-.475-1.081-.353-.316-.843-.469-1.501-.469h-12.985v-8.375h14.346c2.869 0 5.254.944 7.088 2.806 1.826 1.859 2.752 4.397 2.752 7.544v48.6h-21.721z" transform="translate(351.168 355.749)"/><path d="m363.154 371.474h10.074v9.65h-10.074z"/><path d="m0 0h-2.891c-.963 0-1.714.232-2.3.71-.526.427-.78 1.119-.78 2.115v3.06c0 .938.282 1.592.883 2.053.668.512 1.609.772 2.793.772h13.238v8.375h-12.388c-4.401 0-7.811-.914-10.135-2.718-2.399-1.863-3.615-4.888-3.615-8.992v-2.465c0-4.021 1.099-7.034 3.269-8.952 2.133-1.887 5.346-2.843 9.545-2.843h3.145c1.886 0 2.656-.818 2.656-2.825v-4.505c0-.941-.27-1.619-.826-2.075-.606-.497-1.565-.75-2.85-.75h-14.514v-8.375h13.665c4.351 0 7.75.961 10.103 2.855 2.42 1.949 3.647 4.899 3.647 8.77v3.825c0 3.899-1.11 6.904-3.295 8.936-2.168 2.009-5.313 3.029-9.35 3.029" transform="translate(397.9551 347.0391)"/><path d="m0 0c-2.555-2.34-3.852-6.076-3.852-11.106v-15.301c0-5.087 1.282-8.839 3.811-11.151 2.502-2.289 6.418-3.449 11.639-3.449h11.966v8.375h-12.816c-1.834 0-3.211.401-4.094 1.191-.861.771-1.281 1.862-1.281 3.335v18.699c0 1.471.42 2.562 1.283 3.335.881.79 2.258 1.19 4.092 1.19h12.816v8.375h-11.966c-5.164 0-9.067-1.175-11.598-3.493" transform="translate(422.4805 360.6309)"/><path d="m0 0c0 1.208.377 2.173 1.152 2.948.774.775 1.739 1.152 2.948 1.152h9.625v-8.35c0-1.065-.186-1.928-.549-2.564-.252-.443-1.09-.686-2.36-.686h-7.566c-1.191 0-2.039.244-2.521.728-.485.482-.729 1.331-.729 2.522zm23.473-7.449c-.258.168-.522.428-.522 1.074v20.4c0 5.028-1.297 8.764-3.853 11.107-2.534 2.318-6.436 3.493-11.598 3.493h-13.324v-8.375h14.174c1.832 0 3.211-.4 4.093-1.189.862-.774 1.282-1.866 1.282-3.336v-3.25h-9.539c-8.774 0-13.411-4.902-13.411-14.175v-1.7c0-4.473 1.1-7.713 3.27-9.631 2.133-1.887 5.514-2.844 10.055-2.844h7.566c2.063 0 3.807.69 5.195 2.055.534-.503 1.129-.926 1.782-1.263 1.015-.525 1.984-.792 2.882-.792h5.676v7.95h-1c-1.742 0-2.455.297-2.728.476" transform="translate(463.25 335.499)"/><path d="m0 0h-.51c-2.941 0-5.414-.971-7.367-2.89-1.881 1.919-4.715 2.89-8.443 2.89h-.51c-1.565 0-2.992-.349-4.27-1.039v1.039h-8.375v-44.5h8.799v32.915c.047 1.064.352 1.992.93 2.836.486.709 1.385 1.054 2.746 1.054h.51c1.664 0 2.082-.648 2.219-.859.314-.49.691-1.641.691-4.346v-31.6h8.799v32.155c.049 1.25.365 2.4.935 3.418.297.529.895 1.232 2.657 1.232h.509c.889 0 2.024-.144 2.389-.827.275-.523.605-1.707.605-4.378v-31.6h8.801v31.515c0 4.782-.894 8.064-2.736 10.034-1.834 1.958-4.652 2.951-8.379 2.951" transform="translate(527.0937 364.124)"/><path d="m0 0c0 .883.359 1.704 1.1 2.513.705.771 1.857 1.162 3.425 1.162h4.76c1.832 0 3.209-.401 4.094-1.191.861-.772 1.281-1.863 1.281-3.335v-18.699c0-1.471-.418-2.562-1.281-3.335-.883-.79-2.26-1.19-4.094-1.19h-9.285zm20.074 8.601c-2.504 2.289-6.42 3.449-11.638 3.449h-3.061c-2.215 0-4.158-.415-5.799-1.237v1.237h-8.801v-58.95h9.225v14.45h8.436c5.164 0 9.066 1.175 11.597 3.493 2.557 2.34 3.852 6.077 3.852 11.106v15.301c0 5.086-1.281 8.837-3.811 11.151" transform="translate(555.8242 352.0742)"/></g><path d="m0 0h700v700h-700z" fill="#ddd"/><path d="m0 0 86.604-150h-51.964l-60.621 105zm-34.64-150h-51.963l54.849 95 25.98-44.999zm57.734 0h-46.187l23.093 40zm80.829-10-98.15 170 30.311 52.5-8.661 5-27.423-47.5-27.424 47.499-8.66-5 30.31-52.499-98.149-170z" fill="#0e08f9" transform="translate(349.9995 393)"/><g clip-path="url(#e)" fill="#0e08f9"><path d="m0 0c1.607 2.101 2.422 4.783 2.422 7.974v30.74c0 .925.203 1.164.202 1.164.077.056.535.33 1.973.33h7.985v9.251h-9.175c-3.812 0-6.625-.969-8.361-2.878-1.719-1.891-2.554-4.881-2.554-9.143v-29.464c0-2.345-.538-2.961-.704-3.094-.26-.209-1.138-.696-3.681-.696h-1.65v-5.919-6.732h1.65c2.542 0 3.422-.487 3.681-.695.165-.134.704-.751.704-3.095v-29.465c0-4.261.835-7.252 2.554-9.142 1.736-1.909 4.549-2.878 8.361-2.878h9.175v9.251h-7.985c-1.438 0-1.896.274-1.967.325-.002.002-.208.238-.208 1.169v30.74c0 3.19-.815 5.872-2.423 7.975-.654.852-1.376 1.562-2.163 2.127.788.583 1.51 1.301 2.164 2.155" transform="translate(218.8398 327.3906)"/><path d="m0 0c-2.544 0-3.422.486-3.684.697-.164.133-.701.747-.701 3.093v29.465c0 4.26-.836 7.25-2.555 9.142-1.738 1.91-4.551 2.878-8.36 2.878h-9.175v-9.251h7.985c1.437 0 1.896-.275 1.967-.324.002-.002.208-.239.208-1.17v-30.74c0-3.192.815-5.876 2.421-7.974.654-.853 1.375-1.572 2.164-2.155-.788-.564-1.509-1.274-2.164-2.128-1.606-2.099-2.421-4.782-2.421-7.973v-30.741c0-.923-.203-1.164-.202-1.164-.077-.054-.536-.33-1.973-.33h-7.985v-9.251h9.175c3.809 0 6.622.969 8.362 2.879 1.717 1.892 2.553 4.882 2.553 9.142v29.465c0 2.344.537 2.96.703 3.093.26.209 1.139.697 3.682.697h1.65v5.371 1.36 5.919z" transform="translate(492.9687 331.5742)"/></g><path d="m0 0h700v700h-700z" fill="#ddd"/><path d="m0 0 86.604-150h-51.964l-60.621 105zm-34.64-150h-51.963l54.849 95 25.98-44.999zm57.734 0h-46.187l23.093 40zm80.829-10-98.15 170 30.311 52.5-8.661 5-27.423-47.5-27.424 47.499-8.66-5 30.31-52.499-98.149-170z" fill="#0e08f9" transform="translate(349.9995 393)"/><path d="m190.537 212h53.54v10h-53.54z" fill="#0e08f9"/><path d="m0 0h700v700h-700z" fill="#ddd"/><g clip-path="url(#f)" fill="#0e08f9"><path d="m0 0c47.611 47.611 110.913 73.831 178.244 73.831s130.633-26.22 178.244-73.831 73.831-110.912 73.831-178.244c0-9.424-.532-18.766-1.547-28h-152.377l-92.378 160 30.311 52.5-8.661 5-27.423-47.5-27.424 47.498-8.66-5 30.31-52.498-92.376-160h-152.379c-1.014 9.234-1.546 18.576-1.546 28 0 67.332 26.22 130.633 73.831 178.244m172.47-156.243-28.866-50.001h-51.963l54.848 95zm28.868-50.001h-46.188l23.093 40zm-49.075 105 25.981 45 86.604-150h-51.964zm204.225-255.244c-47.611-47.611-110.913-73.831-178.244-73.831s-130.633 26.22-178.244 73.831c-38.531 38.531-63.045 87.341-70.997 140.244h145.318 207.846 145.318c-7.952-52.903-32.466-101.713-70.997-140.244m-178.244-83.831c70.003 0 135.816 27.26 185.316 76.759 49.499 49.5 76.759 115.313 76.759 185.316s-27.26 135.815-76.759 185.315c-49.5 49.499-115.313 76.76-185.316 76.76s-135.815-27.261-185.315-76.76c-49.499-49.5-76.76-115.312-76.76-185.315s27.261-135.816 76.76-185.316c49.5-49.499 115.312-76.759 185.315-76.759" transform="translate(171.7559 528.2441)"/><path d="m0 0 24.159 20.271-6.428 7.661-24.171-20.282c-3.614 4.433-7.086 8.955-10.432 13.554l25.868 18.112-5.736 8.192-25.887-18.126c-3.212 4.726-6.3 9.523-9.234 14.402l27.411 15.826-5 8.661-27.412-15.828c-2.784 4.987-5.419 10.046-7.915 15.17l28.702 13.386-4.227 9.063-28.719-13.393c-2.33 5.208-4.513 10.48-6.549 15.81l29.777 10.839-3.42 9.397-29.76-10.832c-1.858 5.388-3.572 10.83-5.131 16.324l30.576 8.194-2.589 9.659-30.573-8.194c-1.375 5.525-2.584 11.101-3.656 16.714l31.124 5.489-1.736 9.848-31.1-5.484c-.885 5.617-1.629 11.27-2.208 16.96l31.435 2.75-.872 9.962-31.419-2.749c-.396 5.666-.628 11.364-.718 17.084h31.512v10h-31.512c.089 5.721.322 11.418.718 17.084l31.42-2.749.871 9.963-31.436 2.75c.58 5.69 1.323 11.343 2.208 16.96l31.101-5.483 1.736 9.847-31.124 5.489c1.071 5.613 2.28 11.189 3.655 16.714l30.576-8.194 2.588 9.66-30.577 8.193c1.558 5.494 3.271 10.936 5.13 16.325l29.762-10.832 3.42 9.396-29.779 10.838c2.035 5.331 4.219 10.603 6.549 15.811l28.721-13.392 4.227 9.063-28.705 13.385c2.496 5.125 5.132 10.184 7.915 15.17l27.415-15.827 5 8.66-27.414 15.827c2.934 4.879 6.022 9.676 9.234 14.403l25.89-18.128 5.736 8.191-25.871 18.115c3.347 4.598 6.818 9.121 10.432 13.553l24.173-20.283 6.428 7.66-24.161 20.273c3.727 4.286 7.59 8.48 11.572 12.589l22.283-22.283 7.071 7.072-22.283 22.282c4.109 3.982 8.302 7.846 12.588 11.572l20.274-24.16 7.66 6.428-20.284 24.172c4.433 3.613 8.956 7.086 13.554 10.432l18.114-25.869 8.191 5.736-18.127 25.888c4.726 3.212 9.524 6.3 14.402 9.234l15.828-27.413 8.66 5-15.828 27.415c4.987 2.782 10.046 5.419 15.171 7.915l13.385-28.704 9.063 4.227-13.393 28.72c5.209 2.329 10.481 4.513 15.811 6.549l10.839-29.778 9.396 3.42-10.832 29.76c5.388 1.859 10.83 3.573 16.324 5.131l8.193-30.576 9.66 2.588-8.193 30.575c5.525 1.375 11.1 2.584 16.714 3.655l5.488-31.124 9.847 1.736-5.483 31.101c5.618.885 11.271 1.628 16.961 2.208l2.75-31.435 9.961.871-2.749 31.419c5.667.396 11.364.629 17.085.719v-31.512h10v31.512c5.721-.09 11.418-.323 17.084-.719l-2.746-31.42 9.963-.87 2.746 31.435c5.689-.58 11.343-1.323 16.96-2.208l-5.48-31.101 9.848-1.736 5.485 31.124c5.613-1.071 11.189-2.28 16.713-3.655l-8.188-30.576 9.659-2.587 8.188 30.576c5.495-1.558 10.937-3.272 16.325-5.13l-10.829-29.762 9.397-3.419 10.835 29.778c5.331-2.036 10.602-4.22 15.811-6.549l-13.39-28.721 9.063-4.226 13.382 28.704c5.125-2.496 10.185-5.133 15.172-7.915l-15.826-27.415 8.66-5 15.824 27.414c4.879-2.934 9.677-6.022 14.403-9.234l-18.126-25.89 8.192-5.735 18.112 25.869c4.598-3.346 9.12-6.818 13.554-10.431l-20.282-24.174 7.66-6.427 20.271 24.161c4.286-3.727 8.48-7.591 12.589-11.573l-22.281-22.282 7.07-7.072 22.282 22.284c3.982-4.11 7.845-8.303 11.573-12.59l-24.16-20.273 6.427-7.66 24.172 20.283c3.613-4.432 7.085-8.955 10.432-13.553l-25.868-18.114 5.736-8.191 25.888 18.127c3.212-4.727 6.299-9.523 9.233-14.402l-27.412-15.828 5-8.66 27.413 15.828c2.783-4.987 5.419-10.046 7.915-15.17l-28.702-13.386 4.227-9.062 28.718 13.392c2.33-5.208 4.514-10.48 6.549-15.811l-29.776-10.839 3.42-9.396 29.759 10.833c1.859-5.389 3.573-10.831 5.13-16.325l-30.574-8.193 2.588-9.659 30.573 8.193c1.375-5.525 2.584-11.101 3.655-16.714l-31.123-5.489 1.737-9.847 31.099 5.484c.886-5.618 1.628-11.27 2.208-16.96l-31.433-2.75.871-9.963 31.418 2.749c.395-5.666.629-11.363.719-17.084h-31.51v-10h31.51c-.09-5.72-.324-11.418-.719-17.084l-31.417 2.749-.871-9.962 31.432-2.75c-.58-5.69-1.322-11.342-2.208-16.96l-31.097 5.483-1.737-9.848 31.121-5.487c-1.071-5.613-2.279-11.188-3.654-16.713l-30.572 8.192-2.588-9.661 30.573-8.191c-1.558-5.493-3.272-10.936-5.131-16.323l-29.757 10.83-3.42-9.397 29.775-10.837c-2.036-5.33-4.22-10.601-6.55-15.81l-28.717 13.39-4.226-9.062 28.701-13.383c-2.496-5.125-5.132-10.184-7.915-15.171l-27.411 15.825-5-8.66 27.41-15.825c-2.934-4.879-6.022-9.676-9.233-14.402l-25.886 18.126-5.736-8.192 25.866-18.112c-3.347-4.598-6.819-9.12-10.432-13.553l-24.17 20.281-6.427-7.661 24.158-20.27c-3.727-4.286-7.59-8.48-11.572-12.588l-22.282 22.279-7.07-7.072 22.281-22.278c-4.109-3.983-8.303-7.846-12.589-11.573l-20.272 24.157-7.66-6.428 20.283-24.169c-4.433-3.613-8.955-7.085-13.554-10.431l-18.113 25.866-8.192-5.737 18.127-25.884c-4.725-3.212-9.523-6.3-14.401-9.235l-15.827 27.41-8.66-5 15.827-27.411c-4.986-2.783-10.046-5.419-15.171-7.915l-13.385 28.701-9.062-4.226 13.392-28.718c-5.209-2.33-10.48-4.514-15.811-6.55l-10.838 29.777-9.397-3.42 10.832-29.759c-5.387-1.86-10.83-3.572-16.324-5.131l-8.192 30.574-9.659-2.588 8.192-30.573c-5.525-1.376-11.101-2.585-16.714-3.655l-5.488 31.122-9.848-1.737 5.485-31.098c-5.619-.886-11.272-1.629-16.96-2.208l-2.75 31.432-9.962-.871 2.748-31.418c-5.666-.395-11.363-.628-17.084-.718v31.51h-10v-31.51c-5.721.09-11.418.323-17.084.718l2.748 31.418-9.962.871-2.75-31.433c-5.689.579-11.342 1.322-16.96 2.207l5.484 31.099-9.847 1.736-5.489-31.122c-5.613 1.071-11.189 2.28-16.713 3.655l8.192 30.572-9.659 2.588-8.193-30.574c-5.494 1.559-10.936 3.272-16.324 5.131l10.831 29.759-9.396 3.42-10.838-29.776c-5.331 2.035-10.603 4.219-15.811 6.549l13.391 28.718-9.063 4.226-13.384-28.702c-5.124 2.496-10.184 5.133-15.171 7.915l15.827 27.413-8.66 5-15.826-27.412c-4.879 2.935-9.677 6.023-14.403 9.234l18.126 25.888-8.191 5.737-18.113-25.87c-4.599 3.347-9.121 6.819-13.554 10.432l20.282 24.172-7.66 6.428-20.272-24.16c-4.286 3.727-8.48 7.59-12.589 11.573l22.281 22.281-7.071 7.07-22.281-22.281c-3.982 4.11-7.846 8.303-11.573 12.589m461.35 430.121c-60.548 60.548-141.051 93.894-226.679 93.894s-166.131-33.346-226.679-93.894-93.893-141.051-93.893-226.679 33.345-166.13 93.893-226.678 141.051-93.894 226.679-93.894c85.627 0 166.13 33.346 226.679 93.894 60.547 60.549 93.893 141.05 93.893 226.678s-33.346 166.131-93.893 226.679" transform="translate(115.3291 146.5576)"/><path d="m511 440h-86v-10h86z"/><path d="m220 440h50v10h-50z"/><path d="m170 400h50v10h-50z"/><path d="m240 470h-50v-10h50z"/><path d="m175 470h-17v-10h17z"/><path d="m290 490h-50v-10h50z"/><path d="m502 410h63v10h-63z"/><path d="m464 410h23v10h-23z"/><path d="m446 370h53v10h-53z"/><path d="m526 350h20v10h-20z"/><path d="m213.432 194.873h31.841v8.375h-31.841z"/><path d="m0 0h12.495v-40.65c0-.454-.146-.788-.474-1.081-.353-.316-.844-.469-1.501-.469h-12.985v-8.375h14.346c2.869 0 5.254.944 7.088 2.806 1.826 1.859 2.752 4.397 2.752 7.544v48.6h-21.721z" transform="translate(258.0273 237.0732)"/><path d="m270.013 252.798h10.075v9.65h-10.075z"/><path d="m0 0h-2.891c-.963 0-1.714.232-2.3.71-.525.427-.78 1.119-.78 2.115v3.06c0 .938.282 1.592.883 2.053.669.512 1.609.772 2.793.772h13.239v8.375h-12.389c-4.401 0-7.81-.914-10.134-2.718-2.4-1.863-3.616-4.888-3.616-8.992v-2.465c0-4.021 1.099-7.034 3.269-8.952 2.134-1.887 5.346-2.843 9.545-2.843h3.146c1.885 0 2.655-.818 2.655-2.825v-4.505c0-.941-.27-1.619-.825-2.075-.607-.497-1.566-.75-2.851-.75h-14.515v-8.375h13.666c4.351 0 7.751.961 10.104 2.855 2.419 1.949 3.646 4.899 3.646 8.77v3.825c0 3.899-1.109 6.904-3.295 8.936-2.167 2.009-5.313 3.029-9.35 3.029" transform="translate(304.8145 228.3633)"/><path d="m0 0c-2.556-2.34-3.853-6.076-3.853-11.106v-15.301c0-5.087 1.283-8.839 3.811-11.151 2.502-2.289 6.418-3.449 11.64-3.449h11.965v8.375h-12.816c-1.834 0-3.211.401-4.093 1.191-.862.771-1.282 1.862-1.282 3.335v18.699c0 1.471.42 2.562 1.283 3.335.882.79 2.259 1.19 4.092 1.19h12.816v8.375h-11.965c-5.165 0-9.068-1.175-11.598-3.493" transform="translate(329.3408 241.9551)"/><path d="m0 0c0 1.208.377 2.173 1.152 2.948.774.775 1.739 1.152 2.948 1.152h9.625v-8.35c0-1.065-.186-1.928-.549-2.564-.252-.443-1.09-.686-2.36-.686h-7.566c-1.191 0-2.039.244-2.521.728-.485.482-.729 1.331-.729 2.522zm23.473-7.449c-.258.168-.522.428-.522 1.074v20.4c0 5.028-1.297 8.764-3.853 11.107-2.534 2.318-6.436 3.493-11.598 3.493h-13.324v-8.375h14.174c1.832 0 3.211-.4 4.093-1.189.862-.774 1.282-1.866 1.282-3.336v-3.25h-9.539c-8.774 0-13.411-4.902-13.411-14.175v-1.7c0-4.473 1.1-7.713 3.27-9.631 2.133-1.887 5.514-2.844 10.055-2.844h7.566c2.063 0 3.807.69 5.195 2.055.534-.503 1.129-.926 1.782-1.263 1.015-.525 1.984-.792 2.882-.792h5.676v7.95h-1c-1.742 0-2.455.297-2.728.476" transform="translate(370.1094 216.8232)"/><path d="m0 0h-.51c-2.941 0-5.414-.971-7.367-2.89-1.881 1.919-4.715 2.89-8.443 2.89h-.51c-1.565 0-2.992-.349-4.27-1.039v1.039h-8.375v-44.5h8.799v32.915c.047 1.064.352 1.992.93 2.836.486.709 1.385 1.054 2.746 1.054h.51c1.664 0 2.082-.648 2.219-.859.314-.49.691-1.641.691-4.346v-31.6h8.799v32.155c.049 1.25.365 2.4.935 3.418.297.529.895 1.232 2.657 1.232h.509c.889 0 2.024-.144 2.389-.827.275-.523.605-1.707.605-4.378v-31.6h8.801v31.515c0 4.782-.894 8.064-2.736 10.034-1.834 1.958-4.652 2.951-8.379 2.951" transform="translate(433.9531 245.4482)"/><path d="m0 0c0 .883.359 1.704 1.1 2.513.705.771 1.857 1.162 3.425 1.162h4.76c1.832 0 3.209-.401 4.094-1.191.861-.772 1.281-1.863 1.281-3.335v-18.699c0-1.471-.418-2.562-1.281-3.335-.883-.79-2.26-1.19-4.094-1.19h-9.285zm20.074 8.601c-2.504 2.289-6.42 3.449-11.638 3.449h-3.061c-2.215 0-4.158-.415-5.799-1.237v1.237h-8.801v-58.95h9.225v14.45h8.436c5.164 0 9.066 1.175 11.597 3.493 2.557 2.34 3.852 6.077 3.852 11.106v15.301c0 5.086-1.281 8.837-3.811 11.151" transform="translate(462.6836 233.3984)"/></g></g></svg>