<svg class="lambda-logo" viewBox="0 0 400 100" version="1.1" xmlns="http://www.w3.org/2000/svg" xmlns:xlink="http://www.w3.org/1999/xlink" style="fill-rule:evenodd;clip-rule:evenodd;stroke-linejoin:round;stroke-miterlimit:2;fill:#939498"><g class="brand"><path d="M85.71,17.73L91.91,17.73L91.91,53.63L110.7,53.63L110.7,59.09L85.7,59.09L85.71,17.73Z"></path><path d="M145.42,50.53L125.14,50.53L121.79,59.09L115,59.09L131.4,17.73L139.16,17.73L155.59,59.09L148.77,59.09L145.42,50.53ZM126.94,45L143.62,45L135.25,23.11L126.94,45Z"></path><path d="M197.37,26.22L184,59.09L181.39,59.09L168,26.22L168,59.09L161.8,59.09L161.8,17.73L170.66,17.73L182.66,47.43L194.66,17.73L203.53,17.73L203.53,59.09L197.33,59.09L197.37,26.22Z"></path><path d="M212.47,17.73L231.88,17.73C239.26,17.73 243.54,22.25 243.54,28.27C243.63,30.44 242.962,32.573 241.65,34.303C240.338,36.033 238.464,37.252 236.35,37.75C240.75,38.44 244.35,42.9 244.35,47.92C244.35,54.44 240.01,59.09 232.35,59.09L212.47,59.09L212.47,17.73ZM230.7,35.27C234.86,35.27 237.15,32.67 237.15,29.27C237.15,25.87 234.86,23.19 230.7,23.19L218.7,23.19L218.7,35.27L230.7,35.27ZM231,53.63C235.33,53.63 237.94,51.15 237.94,47.12C237.94,43.71 235.58,40.73 231,40.73L218.67,40.73L218.67,53.63L231,53.63Z"></path><path d="M252.51,17.73L267.27,17.73C280.17,17.73 288.73,26.53 288.73,38.44C288.73,50.35 280.17,59.09 267.27,59.09L252.51,59.09L252.51,17.73ZM267.27,53.63C276.82,53.63 282.34,46.81 282.34,38.44C282.34,30.07 277,23.18 267.27,23.18L258.72,23.18L258.72,53.63L267.27,53.63Z"></path><path d="M319.9,50.53L299.62,50.53L296.27,59.09L289.45,59.09L305.88,17.73L313.63,17.73L330.07,59.09L323.24,59.09L319.9,50.53ZM301.42,45L318.1,45L309.73,23.11L301.42,45Z"></path><rect x="350.71" y="17.73" width="6.2" height="41.36"></rect><path d="M377.24,23.18L364.4,23.18L364.4,17.73L396.22,17.73L396.22,23.18L383.44,23.18L383.44,59.09L377.24,59.09L377.24,23.18Z"></path></g><g class="logo"><path d="M33.75,28.57L22.33,59.09L15.63,59.09L29.9,23.17L37.65,23.17L51.92,59.09L45.22,59.09L33.75,28.57Z"></path><path d="M65.56,63.08L59.56,63.08L35.28,2L41.28,2L65.56,63.08Z"></path><path d="M8,63.08L2,63.08L15.15,29.99L21.15,29.99L8,63.08Z"></path></g><g class="shs" transform="matrix(2.02222,0,0,2.06091,-85.0429,-42.9598)"><g transform="matrix(9.70446,0,0,9.70446,84.6953,64.3567)"><path d="M0.033,-0.094L0.09,-0.171C0.147,-0.108 0.217,-0.077 0.3,-0.077C0.349,-0.077 0.386,-0.087 0.41,-0.108C0.434,-0.128 0.446,-0.152 0.446,-0.18C0.446,-0.193 0.443,-0.205 0.437,-0.217C0.43,-0.228 0.423,-0.236 0.415,-0.243C0.407,-0.25 0.395,-0.256 0.378,-0.263C0.361,-0.27 0.346,-0.275 0.335,-0.278C0.324,-0.281 0.307,-0.286 0.285,-0.292C0.264,-0.297 0.248,-0.302 0.238,-0.305C0.228,-0.308 0.213,-0.312 0.194,-0.319C0.174,-0.326 0.159,-0.332 0.149,-0.338C0.138,-0.344 0.126,-0.352 0.112,-0.362C0.098,-0.372 0.087,-0.383 0.081,-0.394C0.074,-0.405 0.067,-0.419 0.062,-0.435C0.057,-0.451 0.054,-0.468 0.054,-0.487C0.054,-0.542 0.076,-0.588 0.12,-0.624C0.164,-0.659 0.221,-0.677 0.29,-0.677C0.391,-0.677 0.472,-0.646 0.533,-0.584L0.475,-0.51C0.426,-0.562 0.361,-0.588 0.282,-0.588C0.245,-0.588 0.215,-0.579 0.192,-0.562C0.169,-0.545 0.157,-0.522 0.157,-0.494C0.157,-0.483 0.16,-0.472 0.166,-0.463C0.172,-0.453 0.179,-0.445 0.187,-0.439C0.195,-0.433 0.207,-0.427 0.223,-0.421C0.238,-0.415 0.252,-0.41 0.263,-0.407C0.274,-0.404 0.291,-0.399 0.312,-0.394C0.341,-0.386 0.364,-0.38 0.38,-0.375C0.395,-0.37 0.416,-0.362 0.441,-0.35C0.466,-0.339 0.485,-0.327 0.498,-0.314C0.51,-0.301 0.522,-0.284 0.533,-0.263C0.543,-0.241 0.548,-0.216 0.548,-0.189C0.548,-0.132 0.527,-0.084 0.486,-0.046C0.444,-0.007 0.381,0.012 0.296,0.012C0.185,0.012 0.097,-0.023 0.033,-0.094Z"></path></g><g transform="matrix(9.70446,0,0,9.70446,91.873,64.3567)"><path d="M0.585,0L0.446,-0.515L0.308,0L0.201,0L0.01,-0.667L0.122,-0.667L0.26,-0.132L0.406,-0.667L0.487,-0.667L0.632,-0.132L0.77,-0.667L0.882,-0.667L0.692,0L0.585,0Z"></path></g><g transform="matrix(9.70446,0,0,9.70446,101.991,64.3567)"><rect x="0.074" y="-0.667" width="0.1" height="0.667"></rect></g><g transform="matrix(9.70446,0,0,9.70446,105.86,64.3567)"><path d="M0.033,-0.094L0.09,-0.171C0.147,-0.108 0.217,-0.077 0.3,-0.077C0.349,-0.077 0.386,-0.087 0.41,-0.108C0.434,-0.128 0.446,-0.152 0.446,-0.18C0.446,-0.193 0.443,-0.205 0.437,-0.217C0.43,-0.228 0.423,-0.236 0.415,-0.243C0.407,-0.25 0.395,-0.256 0.378,-0.263C0.361,-0.27 0.346,-0.275 0.335,-0.278C0.324,-0.281 0.307,-0.286 0.285,-0.292C0.264,-0.297 0.248,-0.302 0.238,-0.305C0.228,-0.308 0.213,-0.312 0.194,-0.319C0.174,-0.326 0.159,-0.332 0.149,-0.338C0.138,-0.344 0.126,-0.352 0.112,-0.362C0.098,-0.372 0.087,-0.383 0.081,-0.394C0.074,-0.405 0.067,-0.419 0.062,-0.435C0.057,-0.451 0.054,-0.468 0.054,-0.487C0.054,-0.542 0.076,-0.588 0.12,-0.624C0.164,-0.659 0.221,-0.677 0.29,-0.677C0.391,-0.677 0.472,-0.646 0.533,-0.584L0.475,-0.51C0.426,-0.562 0.361,-0.588 0.282,-0.588C0.245,-0.588 0.215,-0.579 0.192,-0.562C0.169,-0.545 0.157,-0.522 0.157,-0.494C0.157,-0.483 0.16,-0.472 0.166,-0.463C0.172,-0.453 0.179,-0.445 0.187,-0.439C0.195,-0.433 0.207,-0.427 0.223,-0.421C0.238,-0.415 0.252,-0.41 0.263,-0.407C0.274,-0.404 0.291,-0.399 0.312,-0.394C0.341,-0.386 0.364,-0.38 0.38,-0.375C0.395,-0.37 0.416,-0.362 0.441,-0.35C0.466,-0.339 0.485,-0.327 0.498,-0.314C0.51,-0.301 0.522,-0.284 0.533,-0.263C0.543,-0.241 0.548,-0.216 0.548,-0.189C0.548,-0.132 0.527,-0.084 0.486,-0.046C0.444,-0.007 0.381,0.012 0.296,0.012C0.185,0.012 0.097,-0.023 0.033,-0.094Z"></path></g><g transform="matrix(9.70446,0,0,9.70446,113.038,64.3567)"><path d="M0.033,-0.094L0.09,-0.171C0.147,-0.108 0.217,-0.077 0.3,-0.077C0.349,-0.077 0.386,-0.087 0.41,-0.108C0.434,-0.128 0.446,-0.152 0.446,-0.18C0.446,-0.193 0.443,-0.205 0.437,-0.217C0.43,-0.228 0.423,-0.236 0.415,-0.243C0.407,-0.25 0.395,-0.256 0.378,-0.263C0.361,-0.27 0.346,-0.275 0.335,-0.278C0.324,-0.281 0.307,-0.286 0.285,-0.292C0.264,-0.297 0.248,-0.302 0.238,-0.305C0.228,-0.308 0.213,-0.312 0.194,-0.319C0.174,-0.326 0.159,-0.332 0.149,-0.338C0.138,-0.344 0.126,-0.352 0.112,-0.362C0.098,-0.372 0.087,-0.383 0.081,-0.394C0.074,-0.405 0.067,-0.419 0.062,-0.435C0.057,-0.451 0.054,-0.468 0.054,-0.487C0.054,-0.542 0.076,-0.588 0.12,-0.624C0.164,-0.659 0.221,-0.677 0.29,-0.677C0.391,-0.677 0.472,-0.646 0.533,-0.584L0.475,-0.51C0.426,-0.562 0.361,-0.588 0.282,-0.588C0.245,-0.588 0.215,-0.579 0.192,-0.562C0.169,-0.545 0.157,-0.522 0.157,-0.494C0.157,-0.483 0.16,-0.472 0.166,-0.463C0.172,-0.453 0.179,-0.445 0.187,-0.439C0.195,-0.433 0.207,-0.427 0.223,-0.421C0.238,-0.415 0.252,-0.41 0.263,-0.407C0.274,-0.404 0.291,-0.399 0.312,-0.394C0.341,-0.386 0.364,-0.38 0.38,-0.375C0.395,-0.37 0.416,-0.362 0.441,-0.35C0.466,-0.339 0.485,-0.327 0.498,-0.314C0.51,-0.301 0.522,-0.284 0.533,-0.263C0.543,-0.241 0.548,-0.216 0.548,-0.189C0.548,-0.132 0.527,-0.084 0.486,-0.046C0.444,-0.007 0.381,0.012 0.296,0.012C0.185,0.012 0.097,-0.023 0.033,-0.094Z"></path></g><g transform="matrix(9.70446,0,0,9.70446,122.719,64.3567)"><path d="M0.543,0L0.543,-0.298L0.174,-0.298L0.174,0L0.074,0L0.074,-0.667L0.174,-0.667L0.174,-0.387L0.543,-0.387L0.543,-0.667L0.643,-0.667L0.643,0L0.543,0Z"></path></g><g transform="matrix(9.70446,0,0,9.70446,131.129,64.3567)"><rect x="0.074" y="-0.667" width="0.1" height="0.667"></rect></g><g transform="matrix(9.70446,0,0,9.70446,134.998,64.3567)"><path d="M0.146,-0.084C0.079,-0.148 0.046,-0.231 0.046,-0.333C0.046,-0.435 0.079,-0.518 0.146,-0.582C0.213,-0.646 0.295,-0.678 0.392,-0.678C0.502,-0.678 0.59,-0.634 0.656,-0.546L0.575,-0.499C0.555,-0.526 0.529,-0.547 0.497,-0.564C0.464,-0.581 0.429,-0.589 0.392,-0.589C0.322,-0.589 0.264,-0.565 0.218,-0.517C0.172,-0.469 0.149,-0.408 0.149,-0.333C0.149,-0.259 0.172,-0.198 0.218,-0.149C0.264,-0.1 0.322,-0.076 0.392,-0.076C0.426,-0.076 0.458,-0.083 0.488,-0.096C0.518,-0.109 0.542,-0.125 0.561,-0.142L0.561,-0.262L0.347,-0.262L0.347,-0.35L0.661,-0.35L0.661,-0.105C0.59,-0.026 0.501,0.013 0.392,0.013C0.295,0.013 0.213,-0.019 0.146,-0.084Z"></path></g><g transform="matrix(9.70446,0,0,9.70446,143.389,64.3567)"><path d="M0.543,0L0.543,-0.298L0.174,-0.298L0.174,0L0.074,0L0.074,-0.667L0.174,-0.667L0.174,-0.387L0.543,-0.387L0.543,-0.667L0.643,-0.667L0.643,0L0.543,0Z"></path></g><g transform="matrix(9.70446,0,0,9.70446,151.799,64.3567)"><path d="M0.074,0L0.074,-0.667L0.522,-0.667L0.522,-0.579L0.174,-0.579L0.174,-0.384L0.515,-0.384L0.515,-0.296L0.174,-0.296L0.174,-0.088L0.522,-0.088L0.522,0L0.074,0Z"></path></g><g transform="matrix(9.70446,0,0,9.70446,158.812,64.3567)"><path d="M0.543,0L0.174,-0.512L0.174,0L0.074,0L0.074,-0.667L0.177,-0.667L0.54,-0.167L0.54,-0.667L0.64,-0.667L0.64,0L0.543,0Z"></path></g><g transform="matrix(9.70446,0,0,9.70446,167.193,64.3567)"><path d="M0.074,0L0.074,-0.667L0.312,-0.667C0.415,-0.667 0.498,-0.636 0.562,-0.573C0.626,-0.51 0.658,-0.43 0.658,-0.333C0.658,-0.236 0.626,-0.156 0.563,-0.094C0.499,-0.031 0.415,0 0.312,0L0.074,0ZM0.174,-0.088L0.312,-0.088C0.387,-0.088 0.446,-0.111 0.49,-0.158C0.533,-0.205 0.555,-0.263 0.555,-0.333C0.555,-0.404 0.534,-0.463 0.491,-0.509C0.448,-0.556 0.388,-0.579 0.312,-0.579L0.174,-0.579L0.174,-0.088Z"></path></g><g transform="matrix(9.70446,0,0,9.70446,177.99,64.3567)"><path d="M0.033,-0.094L0.09,-0.171C0.147,-0.108 0.217,-0.077 0.3,-0.077C0.349,-0.077 0.386,-0.087 0.41,-0.108C0.434,-0.128 0.446,-0.152 0.446,-0.18C0.446,-0.193 0.443,-0.205 0.437,-0.217C0.43,-0.228 0.423,-0.236 0.415,-0.243C0.407,-0.25 0.395,-0.256 0.378,-0.263C0.361,-0.27 0.346,-0.275 0.335,-0.278C0.324,-0.281 0.307,-0.286 0.285,-0.292C0.264,-0.297 0.248,-0.302 0.238,-0.305C0.228,-0.308 0.213,-0.312 0.194,-0.319C0.174,-0.326 0.159,-0.332 0.149,-0.338C0.138,-0.344 0.126,-0.352 0.112,-0.362C0.098,-0.372 0.087,-0.383 0.081,-0.394C0.074,-0.405 0.067,-0.419 0.062,-0.435C0.057,-0.451 0.054,-0.468 0.054,-0.487C0.054,-0.542 0.076,-0.588 0.12,-0.624C0.164,-0.659 0.221,-0.677 0.29,-0.677C0.391,-0.677 0.472,-0.646 0.533,-0.584L0.475,-0.51C0.426,-0.562 0.361,-0.588 0.282,-0.588C0.245,-0.588 0.215,-0.579 0.192,-0.562C0.169,-0.545 0.157,-0.522 0.157,-0.494C0.157,-0.483 0.16,-0.472 0.166,-0.463C0.172,-0.453 0.179,-0.445 0.187,-0.439C0.195,-0.433 0.207,-0.427 0.223,-0.421C0.238,-0.415 0.252,-0.41 0.263,-0.407C0.274,-0.404 0.291,-0.399 0.312,-0.394C0.341,-0.386 0.364,-0.38 0.38,-0.375C0.395,-0.37 0.416,-0.362 0.441,-0.35C0.466,-0.339 0.485,-0.327 0.498,-0.314C0.51,-0.301 0.522,-0.284 0.533,-0.263C0.543,-0.241 0.548,-0.216 0.548,-0.189C0.548,-0.132 0.527,-0.084 0.486,-0.046C0.444,-0.007 0.381,0.012 0.296,0.012C0.185,0.012 0.097,-0.023 0.033,-0.094Z"></path></g><g transform="matrix(9.70446,0,0,9.70446,185.168,64.3567)"><path d="M0.14,-0.086C0.077,-0.151 0.046,-0.233 0.046,-0.333C0.046,-0.433 0.077,-0.516 0.14,-0.581C0.203,-0.646 0.283,-0.678 0.382,-0.678C0.481,-0.678 0.561,-0.646 0.624,-0.581C0.687,-0.516 0.718,-0.433 0.718,-0.333C0.718,-0.233 0.687,-0.151 0.624,-0.086C0.561,-0.021 0.481,0.012 0.382,0.012C0.283,0.012 0.203,-0.021 0.14,-0.086ZM0.615,-0.333C0.615,-0.408 0.594,-0.469 0.551,-0.517C0.507,-0.565 0.451,-0.589 0.382,-0.589C0.311,-0.589 0.255,-0.565 0.213,-0.517C0.17,-0.469 0.149,-0.408 0.149,-0.333C0.149,-0.258 0.17,-0.197 0.213,-0.149C0.256,-0.101 0.312,-0.077 0.382,-0.077C0.451,-0.077 0.507,-0.101 0.551,-0.15C0.594,-0.198 0.615,-0.259 0.615,-0.333Z"></path></g><g transform="matrix(9.70446,0,0,9.70446,194.044,64.3567)"><path d="M0.074,0L0.074,-0.667L0.522,-0.667L0.522,-0.579L0.174,-0.579L0.174,-0.384L0.515,-0.384L0.515,-0.296L0.174,-0.296L0.174,0L0.074,0Z"></path></g><g transform="matrix(9.70446,0,0,9.70446,200.892,64.3567)"><path d="M0.237,0L0.237,-0.579L0.03,-0.579L0.03,-0.667L0.543,-0.667L0.543,-0.579L0.337,-0.579L0.337,0L0.237,0Z"></path></g><g transform="matrix(9.70446,0,0,9.70446,207.905,64.3567)"><path d="M0.585,0L0.446,-0.515L0.308,0L0.201,0L0.01,-0.667L0.122,-0.667L0.26,-0.132L0.406,-0.667L0.487,-0.667L0.632,-0.132L0.77,-0.667L0.882,-0.667L0.692,0L0.585,0Z"></path></g><g transform="matrix(9.70446,0,0,9.70446,217.577,64.3567)"><path d="M0.55,0L0.496,-0.138L0.169,-0.138L0.115,0L0.005,0L0.27,-0.667L0.395,-0.667L0.66,0L0.55,0ZM0.332,-0.58L0.198,-0.227L0.467,-0.227L0.332,-0.58Z"></path></g><g transform="matrix(9.70446,0,0,9.70446,225.492,64.3567)"><path d="M0.458,0L0.299,-0.257L0.174,-0.257L0.174,0L0.074,0L0.074,-0.667L0.355,-0.667C0.418,-0.667 0.47,-0.648 0.509,-0.611C0.549,-0.573 0.569,-0.523 0.569,-0.462C0.569,-0.405 0.553,-0.36 0.521,-0.327C0.488,-0.293 0.449,-0.273 0.403,-0.267L0.574,0L0.458,0ZM0.431,-0.378C0.454,-0.399 0.466,-0.427 0.466,-0.462C0.466,-0.497 0.454,-0.525 0.431,-0.547C0.408,-0.568 0.378,-0.579 0.342,-0.579L0.174,-0.579L0.174,-0.345L0.342,-0.345C0.378,-0.345 0.408,-0.356 0.431,-0.378Z"></path></g><g transform="matrix(9.70446,0,0,9.70446,232.942,64.3567)"><path d="M0.074,0L0.074,-0.667L0.522,-0.667L0.522,-0.579L0.174,-0.579L0.174,-0.384L0.515,-0.384L0.515,-0.296L0.174,-0.296L0.174,-0.088L0.522,-0.088L0.522,0L0.074,0Z"></path></g></g></svg>