<svg width="133" height="48" viewBox="0 0 133 48" fill="none" xmlns="http://www.w3.org/2000/svg">
<path d="M123.492 41.6678V25.417H119.979V41.6678H123.492ZM133 41.6678V38.6498H131.475C130.858 38.6498 130.384 38.4834 130.053 38.1507C129.722 37.8179 129.556 37.3497 129.556 36.7461V31.8477H132.931V29.1314H129.487V25.8581H128.863L123.917 31.128V31.8477H126.182V37.1872C126.182 38.1158 126.359 38.9168 126.713 39.59C127.068 40.2633 127.58 40.7779 128.25 41.1338C128.921 41.4898 129.71 41.6678 130.619 41.6678H133Z" fill="white"/>
<path d="M59.3437 22.4898V19.7857H54.2267V9.06519H51.3246V22.4898H59.3437ZM64.3721 22.7775C65.5686 22.7775 66.6251 22.445 67.5415 21.7802C68.458 21.1154 69.1072 20.2204 69.489 19.0953H66.5487C66.3323 19.4661 66.0332 19.7569 65.6513 19.9679C65.2695 20.1788 64.8431 20.2843 64.3721 20.2843C63.6847 20.2843 63.1215 20.0957 62.6824 19.7186C62.2432 19.3414 61.9664 18.8012 61.8518 18.098H69.6418C69.68 17.8168 69.6991 17.5419 69.6991 17.2734C69.6991 16.2889 69.4795 15.3811 69.0403 14.5501C68.6012 13.7191 67.9711 13.0606 67.1501 12.5748C66.3291 12.0889 65.4031 11.846 64.3721 11.846C63.7611 11.846 63.182 11.9355 62.6346 12.1145C62.0873 12.2935 61.5972 12.546 61.1645 12.872C60.7317 13.198 60.353 13.5848 60.0284 14.0323C59.7038 14.4798 59.4556 14.9848 59.2838 15.5474C59.112 16.1099 59.026 16.698 59.026 17.3117C59.026 18.8588 59.5352 20.1565 60.5535 21.2049C61.5718 22.2533 62.8446 22.7775 64.3721 22.7775ZM66.9115 16.1802H61.9282C62.0809 15.5665 62.3705 15.0871 62.7969 14.7419C63.2233 14.3967 63.7484 14.2241 64.3721 14.2241C64.7794 14.2241 65.1517 14.3008 65.489 14.4542C65.8263 14.6076 66.1159 14.8282 66.3578 15.1158C66.5996 15.4035 66.7842 15.7583 66.9115 16.1802ZM76.6177 22.4898V19.9967H75.3575C74.8484 19.9967 74.457 19.8592 74.1833 19.5843C73.9096 19.3094 73.7728 18.9227 73.7728 18.4241V14.3775H76.5604V12.1337H73.7155V9.42957H73.2L69.1141 13.783V14.3775H70.9852V18.7884C70.9852 19.5556 71.1316 20.2172 71.4244 20.7734C71.7171 21.3295 72.1404 21.7546 72.6941 22.0487C73.2478 22.3428 73.9001 22.4898 74.6511 22.4898H76.6177ZM77.2165 14.6076C78.0821 14.5053 78.7758 14.1697 79.2976 13.6008C79.8195 13.0318 80.0805 12.2743 80.0805 11.3282V8.56656H77.0638V11.5583H78.6676C78.6676 11.8396 78.6198 12.0921 78.5244 12.3159C78.4289 12.5396 78.2698 12.7378 78.0471 12.9104C77.8243 13.083 77.5475 13.1885 77.2165 13.2268V14.6076ZM84.4215 22.7775C85.7199 22.7775 86.7636 22.461 87.5528 21.8282C88.342 21.1953 88.7366 20.3482 88.7366 19.2871C88.7366 19.0441 88.7206 18.814 88.6888 18.5967C88.657 18.3793 88.5965 18.1875 88.5074 18.0213C88.4183 17.8551 88.3292 17.7017 88.2401 17.561C88.151 17.4204 88.0269 17.2926 87.8678 17.1775C87.7087 17.0624 87.5751 16.9633 87.4669 16.8802C87.3587 16.7971 87.1996 16.7172 86.9895 16.6405C86.7795 16.5638 86.614 16.5031 86.4931 16.4583C86.3722 16.4136 86.1908 16.3656 85.949 16.3145C85.7071 16.2633 85.5353 16.2282 85.4335 16.209L85.364 16.1956C85.2601 16.1751 85.1114 16.1444 84.9179 16.1035C84.6379 16.0524 84.4279 16.014 84.2879 15.9884C84.1479 15.9629 83.976 15.9213 83.7724 15.8638C83.5687 15.8063 83.4191 15.7455 83.3237 15.6816C83.2282 15.6177 83.1455 15.5314 83.0755 15.4227C83.0055 15.314 82.9705 15.1958 82.9705 15.0679C82.9705 14.7611 83.0914 14.5181 83.3332 14.3391C83.5751 14.1601 83.9124 14.0706 84.3452 14.0706C85.3762 14.0706 85.8917 14.4798 85.8917 15.298H88.5456C88.5456 14.2624 88.167 13.4282 87.4096 12.7953C86.6522 12.1624 85.653 11.846 84.412 11.846C83.1709 11.846 82.1685 12.1528 81.4048 12.7665C80.6411 13.3802 80.2592 14.1729 80.2592 15.1446C80.2592 15.6177 80.342 16.0332 80.5075 16.3912C80.6729 16.7492 80.867 17.0305 81.0898 17.235C81.3125 17.4396 81.6117 17.6218 81.9872 17.7816C82.3627 17.9414 82.6872 18.0533 82.9609 18.1172C83.2346 18.1811 83.5814 18.2451 84.0015 18.309C84.6634 18.4241 85.1598 18.5583 85.4907 18.7117C85.8217 18.8651 85.9872 19.1017 85.9872 19.4213C85.9872 19.6387 85.9172 19.8272 85.7771 19.9871C85.6371 20.1469 85.4589 20.2651 85.2425 20.3419C85.0261 20.4186 84.7843 20.4569 84.517 20.4569C84.186 20.4569 83.8933 20.409 83.6387 20.3131C83.3841 20.2172 83.1837 20.0638 83.0373 19.8528C82.8909 19.6419 82.8114 19.383 82.7986 19.0761H80.0874C80.0874 19.8049 80.2688 20.4505 80.6316 21.0131C80.9943 21.5756 81.5035 22.0103 82.159 22.3172C82.8145 22.624 83.5687 22.7775 84.4215 22.7775ZM59.0884 42.016C61.5076 42.016 63.4875 41.1841 65.0284 39.5204C66.5692 37.8566 67.3473 35.7401 67.3628 33.1709H58.7417V35.8871H63.5954C63.3951 36.4288 63.0754 36.9125 62.6362 37.3381C62.1971 37.7637 61.6693 38.0926 61.053 38.3248C60.4367 38.5569 59.7818 38.673 59.0884 38.673C58.1331 38.673 57.2895 38.4563 56.5576 38.023C55.8257 37.5896 55.2594 36.986 54.8588 36.2122C54.4582 35.4383 54.2579 34.5561 54.2579 33.5656C54.2579 32.0489 54.7047 30.8107 55.5984 29.8511C56.4921 28.8915 57.6554 28.4118 59.0884 28.4118C59.7664 28.4118 60.402 28.5278 60.9952 28.76C61.5884 28.9921 62.1008 29.321 62.5322 29.7467C62.9637 30.1723 63.2949 30.6791 63.5261 31.2673H67.1316C66.7618 29.441 65.8219 27.9513 64.3119 26.7983C62.8019 25.6452 61.0376 25.0687 59.0191 25.0687C56.6308 25.0687 54.6508 25.8735 53.0791 27.4831C51.5075 29.0927 50.7217 31.1202 50.7217 33.5656C50.7217 35.9955 51.519 38.0114 53.1138 39.6132C54.7086 41.2151 56.7001 42.016 59.0884 42.016ZM71.647 41.6678V35.1443C71.647 34.1228 71.8512 33.3876 72.2595 32.9388C72.6678 32.4899 73.3496 32.2655 74.305 32.2655H75.761V29.0618H74.6516C73.0954 29.0618 71.8935 29.5957 71.0461 30.6637L70.4451 29.1314H68.2726V41.6678H71.647ZM81.6632 42.016C83.2194 42.016 84.5677 41.5208 85.7079 40.5302L85.9852 41.6446H88.6432V29.1082H86.1239L85.7541 30.3154C84.6139 29.2939 83.2502 28.7832 81.6632 28.7832C79.7833 28.7832 78.2232 29.41 76.9829 30.6637C75.7425 31.9173 75.1223 33.4882 75.1223 35.3764C75.1223 37.2801 75.7425 38.8626 76.9829 40.124C78.2232 41.3853 79.7833 42.016 81.6632 42.016ZM81.929 38.8123C80.9505 38.8123 80.1377 38.4873 79.4906 37.8372C78.8588 37.1872 78.543 36.3669 78.543 35.3764C78.543 34.7264 78.6893 34.1421 78.9821 33.6236C79.2749 33.1052 79.6793 32.695 80.1955 32.3932C80.7117 32.0914 81.2934 31.9405 81.9405 31.9405C82.9113 31.9405 83.7202 32.2655 84.3674 32.9156C85.0145 33.5656 85.3381 34.3859 85.3381 35.3764C85.3381 36.3669 85.0145 37.1872 84.3674 37.8372C83.7202 38.4873 82.9074 38.8123 81.929 38.8123ZM96.1632 42.0392C97.6578 42.0392 98.9598 41.5672 100.069 40.6231L100.462 41.6678H102.958V24.6044H99.5839V29.8047C98.5669 29.1237 97.4267 28.7832 96.1632 28.7832C94.9151 28.7832 93.7903 29.0695 92.7888 29.6422C91.7872 30.2148 91.0052 31.0042 90.4428 32.0102C89.8804 33.0162 89.5992 34.146 89.5992 35.3996C89.5992 36.6533 89.8804 37.7869 90.4428 38.8007C91.0052 39.8144 91.7872 40.6076 92.7888 41.1803C93.7903 41.7529 94.9151 42.0392 96.1632 42.0392ZM96.429 38.8355C95.4506 38.8355 94.6378 38.5105 93.9906 37.8605C93.3435 37.2104 93.0199 36.3901 93.0199 35.3996C93.0199 34.4091 93.3435 33.5888 93.9906 32.9388C94.6378 32.2887 95.4506 31.9637 96.429 31.9637C97.4074 31.9637 98.2202 32.2887 98.8674 32.9388C99.5145 33.5888 99.8381 34.4052 99.8381 35.388C99.8381 36.3708 99.5145 37.1911 98.8674 37.8489C98.2202 38.5066 97.4074 38.8355 96.429 38.8355ZM110.386 42.016C111.834 42.016 113.113 41.6136 114.223 40.8088C115.332 40.004 116.118 38.9206 116.58 37.5587H113.021C112.759 38.0075 112.397 38.3596 111.934 38.615C111.472 38.8703 110.956 38.998 110.386 38.998C109.554 38.998 108.872 38.7697 108.34 38.3132C107.809 37.8566 107.474 37.2027 107.335 36.3515H116.765C116.811 36.011 116.834 35.6782 116.834 35.3532C116.834 34.1615 116.569 33.0626 116.037 32.0566C115.505 31.0506 114.743 30.2535 113.749 29.6654C112.755 29.0773 111.634 28.7832 110.386 28.7832C109.646 28.7832 108.945 28.8915 108.283 29.1082C107.62 29.3249 107.027 29.6306 106.503 30.0252C105.979 30.4199 105.521 30.8881 105.128 31.4298C104.735 31.9715 104.434 32.5828 104.226 33.2638C104.018 33.9448 103.914 34.6567 103.914 35.3996C103.914 37.2723 104.531 38.8433 105.763 40.1124C106.996 41.3815 108.537 42.016 110.386 42.016ZM113.46 34.0299H107.427C107.612 33.287 107.963 32.7066 108.479 32.2887C108.995 31.8709 109.631 31.6619 110.386 31.6619C110.879 31.6619 111.33 31.7548 111.738 31.9405C112.146 32.1262 112.497 32.3932 112.79 32.7414C113.082 33.0897 113.306 33.5192 113.46 34.0299Z" fill="white"/>
<path fill-rule="evenodd" clip-rule="evenodd" d="M30.0886 5.80206L42.2543 17.8684C45.4017 20.9901 45.4225 26.0721 42.3008 29.2195C42.2854 29.2351 42.2699 29.2506 42.2543 29.266L29.2159 42.198C26.0868 45.3015 21.0405 45.3016 17.9114 42.198L5.7457 30.1316C2.59834 27.0099 2.57751 21.9279 5.69918 18.7805C5.71462 18.765 5.73013 18.7495 5.7457 18.734L18.7841 5.80206C21.9132 2.69847 26.9595 2.69847 30.0886 5.80206Z" fill="url(#paint0_linear)"/>
<path d="M22.7167 25.909L14.6677 33.958C14.4257 34.2 14.4251 34.5923 14.6664 34.835L14.9758 35.1463C15.2177 35.3895 15.6109 35.3907 15.8542 35.1489C15.8547 35.1484 15.8551 35.1479 15.8556 35.1474L23.9022 27.0945C24.1444 26.8518 24.1444 26.4586 23.902 26.216L23.5951 25.909C23.3525 25.6664 22.9593 25.6664 22.7167 25.909ZM20.3458 23.5381L12.2929 31.5847C12.0503 31.8271 12.0501 32.2204 12.2926 32.463C12.2931 32.4635 12.2936 32.464 12.2941 32.4645L12.6053 32.7739C12.8481 33.0152 13.2403 33.0147 13.4824 32.7726L21.5314 24.7236C21.7739 24.4811 21.7739 24.0878 21.5314 23.8453C21.5314 23.8453 21.5314 23.8453 21.5314 23.8453L21.2243 23.5383C20.9817 23.296 20.5886 23.2959 20.3458 23.5381ZM19.6543 15.1914L21.3637 16.9008C21.6063 17.1434 21.6063 17.5366 21.3637 17.7792L13.2741 25.8688C13.0315 26.1113 13.0315 26.5046 13.2741 26.7471C13.2741 26.7471 13.2741 26.7471 13.2741 26.7471L13.5811 27.0541C13.8236 27.2967 14.2169 27.2967 14.4594 27.0541L23.7344 17.7792C23.977 17.5366 23.977 17.1434 23.7344 16.9008C23.7344 16.9008 23.7344 16.9008 23.7344 16.9008L23.4073 16.5737C23.232 16.3985 23.232 16.1143 23.4073 15.939C23.4915 15.8548 23.6057 15.8075 23.7247 15.8075H31.0118C31.3548 15.8075 31.6328 16.0856 31.6328 16.4286V23.7157C31.6328 23.9635 31.4319 24.1645 31.184 24.1645C31.0649 24.1645 30.9508 24.1172 30.8666 24.033L30.5395 23.706C30.297 23.4634 29.9037 23.4634 29.6612 23.706L20.3862 32.9809C20.1436 33.2234 20.1436 33.6167 20.3862 33.8592C20.3862 33.8592 20.3862 33.8592 20.3862 33.8592L20.6932 34.1662C20.9357 34.4087 21.329 34.4087 21.5715 34.1662L29.6611 26.0766C29.9037 25.834 30.2969 25.834 30.5395 26.0766L32.2489 27.786C32.4915 28.0286 32.8847 28.0286 33.1273 27.786C33.2437 27.6696 33.3092 27.5116 33.3092 27.3469V14.7522C33.3092 14.4092 33.0311 14.1312 32.6881 14.1312H20.0935C19.7504 14.1312 19.4724 14.4092 19.4724 14.7522C19.4724 14.917 19.5378 15.0749 19.6543 15.1914Z" fill="white"/>
<defs>
<linearGradient id="paint0_linear" x1="46.1026" y1="-3.65142" x2="20.3425" y2="44.2989" gradientUnits="userSpaceOnUse">
<stop stop-color="#EDD7E3"/>
<stop offset="0.482378" stop-color="#F28BC6"/>
<stop offset="1" stop-color="#F27ABE"/>
</linearGradient>
</defs>
</svg>
