<svg width="113" height="45" viewBox="0 0 113 45" fill="none" xmlns="http://www.w3.org/2000/svg">
<path d="M1.77661 34.0869C1.78768 34.5518 1.92603 34.8451 2.19165 34.9668C2.33553 35.0221 2.6897 35.0498 3.25415 35.0498C3.56405 35.0498 4.00675 35.0719 4.58228 35.1162L5.24634 35.166L5.927 35.1992C6.50252 35.1992 7.24959 35.1937 8.16821 35.1826C8.99829 35.1826 9.74536 35.1715 10.4094 35.1494H10.5422C10.6086 35.1494 10.675 35.1494 10.7415 35.1494C10.9185 35.1383 11.0846 35.1328 11.2395 35.1328C11.6822 35.1107 11.9036 35.0941 11.9036 35.083C11.9368 34.5518 11.9368 33.9541 11.9036 33.29L11.8538 32.4102L11.804 31.5137C10.7525 31.4583 8.94295 31.4307 6.37524 31.4307C6.36418 30.3128 6.33651 29.0013 6.29224 27.4961L6.20923 25.1553L6.10962 22.8311C6.04321 21.0049 6.02108 19.4554 6.04321 18.1826L6.07642 15.8252L6.10962 13.4678C6.14282 11.6195 6.14282 10.0479 6.10962 8.75293C4.91431 8.60905 3.54191 8.57031 1.99243 8.63672C2.0035 8.96875 1.99243 9.42806 1.95923 10.0146L1.94263 10.7119L1.92603 11.3926C1.90389 14.3255 1.91496 17.8672 1.95923 22.0176C1.99243 24.9173 1.98136 27.1862 1.92603 28.8242L1.85962 30.1357L1.80981 31.4473C1.77661 32.4655 1.76554 33.3454 1.77661 34.0869Z" fill="#111"/>
<path d="M18.8098 31.3311L18.8264 30.833C18.8264 30.501 18.8209 30.1081 18.8098 29.6543L18.76 28.4756C18.7489 28.2764 18.7489 28.0439 18.76 27.7783L18.7932 27.0811C18.8375 26.4723 18.8486 26.013 18.8264 25.7031C18.7379 24.0208 18.6604 22.1393 18.594 20.0586C18.5719 19.638 18.5774 19.1676 18.6106 18.6475L18.677 17.9502L18.7434 17.2529C18.8762 16.0133 18.926 15.0781 18.8928 14.4473C18.8818 14.3477 18.8707 13.988 18.8596 13.3682L18.843 12.9365L18.8264 12.4717C18.8153 12.0843 18.8043 11.7523 18.7932 11.4756C18.7379 9.72689 18.6991 8.85254 18.677 8.85254C17.1165 8.78613 15.6057 8.78613 14.1448 8.85254C14.0673 10.6898 14.0396 12.9642 14.0618 15.6758L14.1116 19.0957C14.1226 20.4902 14.1282 21.6302 14.1282 22.5156C14.1282 23.0911 14.1116 23.9655 14.0784 25.1387L14.0286 27.6123C14.0064 28.542 14.0064 29.3665 14.0286 30.0859C14.0507 31.1374 14.106 31.9785 14.1946 32.6094C14.2056 32.7643 14.2333 33.1572 14.2776 33.7881L14.2942 34.1533L14.3108 34.4854C14.3219 34.7178 14.3329 34.8727 14.344 34.9502C14.344 34.9945 14.3495 35.0111 14.3606 35L14.3772 34.9668L14.3938 34.9502C14.5155 34.9723 14.6705 34.9834 14.8586 34.9834C15.0025 34.9723 15.163 34.9613 15.3401 34.9502C15.9267 34.9059 16.635 34.9059 17.4651 34.9502C17.5647 34.9613 17.6422 34.9613 17.6975 34.9502H17.8303C17.9078 34.9391 18.024 34.9391 18.179 34.9502C18.3671 34.9723 18.6217 34.9779 18.9426 34.9668L18.9592 34.6514L18.9426 34.3359C18.9426 34.181 18.9537 33.9652 18.9758 33.6885L19.0256 33.041C19.0367 32.8971 19.009 32.6979 18.9426 32.4434L18.8762 32.1445L18.8264 31.8623C18.8153 31.7074 18.8098 31.5303 18.8098 31.3311Z" fill="#111"/>
<path d="M35.7932 8.4043H35.3948L34.9797 8.3877C34.2935 8.35449 33.8066 8.32129 33.5188 8.28809L33.0872 8.22168L32.6721 8.15527C32.3512 8.12207 32.0634 8.111 31.8088 8.12207C31.7978 8.25488 31.7646 8.4209 31.7092 8.62012L31.6594 8.86914L31.6096 9.10156L31.5266 9.4668L31.4436 9.81543C31.3772 10.0921 31.3385 10.3301 31.3274 10.5293C31.2942 11.0495 31.2056 11.6693 31.0618 12.3887C30.8072 13.6172 30.5914 14.5911 30.4143 15.3105C30.3036 15.7533 30.1708 16.3454 30.0159 17.0869L29.8167 18L29.6174 18.9297C29.2965 20.4017 28.97 21.5472 28.6379 22.3662C28.5162 21.7907 28.3502 20.9163 28.1399 19.7432C27.9628 18.8135 27.7857 17.8118 27.6086 16.7383C27.4648 15.8307 27.1659 14.5247 26.7122 12.8203C26.3469 11.4147 26.0702 10.1585 25.8821 9.05176L25.8655 8.91895L25.8489 8.78613C25.8378 8.68652 25.8212 8.61458 25.7991 8.57031C25.7548 8.4375 25.6607 8.36003 25.5168 8.33789C25.2291 8.30469 24.9081 8.28809 24.554 8.28809C24.3547 8.28809 24.0946 8.28255 23.7737 8.27148L23.342 8.25488L22.9104 8.22168C22.1689 8.19954 21.6155 8.19401 21.2502 8.20508C21.2392 8.86914 21.2668 9.74349 21.3333 10.8281L21.4163 12.123C21.4384 12.61 21.455 13.0417 21.4661 13.418L21.5159 15.8252L21.5823 18.249C21.6265 20.1637 21.6431 21.7686 21.6321 23.0635C21.621 23.8382 21.5989 24.8122 21.5657 25.9854L21.4827 28.9072C21.4163 31.2425 21.4163 33.1904 21.4827 34.751C21.4827 34.8727 22.1467 34.9502 23.4749 34.9834C23.8954 34.9945 24.3713 35 24.9026 35H25.6995C25.7105 34.6458 25.7382 34.098 25.7825 33.3564L25.8323 32.4932L25.8821 31.5967C25.9374 30.1911 25.9374 29.0124 25.8821 28.0605C25.9485 28.2598 26.0481 28.5254 26.1809 28.8574L26.3469 29.2393L26.4963 29.6045C26.6734 30.0804 26.845 30.6947 27.011 31.4473L27.2102 32.4102C27.2877 32.7975 27.3541 33.1074 27.4094 33.3398C28.0514 33.5833 29.0198 33.6719 30.3147 33.6055C30.2594 33.0964 30.3756 32.4268 30.6633 31.5967L30.8459 31.0986L31.0286 30.584C31.1835 30.1855 31.2887 29.8646 31.344 29.6211C31.4215 29.3444 31.4989 29.0068 31.5764 28.6084L31.7922 27.5625C31.9583 26.7103 32.1409 26.0296 32.3401 25.5205C32.1962 25.8968 32.1741 26.5664 32.2737 27.5293L32.3235 28.0938L32.3899 28.6582C32.4342 29.0677 32.4508 29.3831 32.4397 29.6045C32.3733 30.999 32.3733 32.6702 32.4397 34.6182C33.7678 34.6956 35.0627 34.7344 36.3245 34.7344L36.2581 34.5352C36.2581 33.6165 36.2636 32.5374 36.2747 31.2979L36.2913 29.6709L36.3079 28.0605L36.3411 25.2383L36.3909 22.3994C36.413 20.2191 36.413 18.332 36.3909 16.7383C36.3798 15.5872 36.3743 14.165 36.3743 12.4717L36.4075 11.459L36.4407 10.4629C36.4849 9.62174 36.496 8.94661 36.4739 8.4375C36.33 8.42643 36.1031 8.41536 35.7932 8.4043Z" fill="#111"/>
<path d="M44.3928 12.0898C46.9495 12.123 48.759 12.1175 49.8215 12.0732L49.8879 11.1768L49.9377 10.2969C49.982 9.63281 49.9931 9.03516 49.9709 8.50391C49.9709 8.48177 49.7441 8.45964 49.2903 8.4375C49.1464 8.4375 48.9804 8.43197 48.7922 8.4209C48.7258 8.4209 48.6594 8.4209 48.593 8.4209C48.5487 8.4209 48.51 8.4209 48.4768 8.4209C47.8127 8.39876 47.0657 8.37663 46.2356 8.35449C45.317 8.33236 44.5644 8.32129 43.9778 8.32129L43.3137 8.35449L42.6331 8.3877C42.0575 8.43197 41.6148 8.4541 41.3049 8.4541C40.7405 8.44303 40.3863 8.46517 40.2424 8.52051C39.9768 8.64225 39.8385 8.93555 39.8274 9.40039C39.8053 10.1419 39.8053 11.0163 39.8274 12.0234L39.8772 13.3516L39.9104 14.6631C39.9547 16.29 39.9491 18.5589 39.8938 21.4697C39.8053 25.609 39.7555 29.1507 39.7444 32.0947L39.761 32.7754L39.7776 33.4727C39.7997 34.0592 39.8053 34.513 39.7942 34.834C41.1002 34.9115 42.2955 34.9059 43.3801 34.8174C44.011 34.7731 44.9075 34.8063 46.0696 34.917L46.7502 34.9668L47.4309 35.0332C47.929 35.0664 48.3717 35.0775 48.759 35.0664C49.4342 35.0443 49.816 34.9502 49.9045 34.7842C49.9267 34.7399 49.9156 34.3249 49.8713 33.5391C49.8603 33.3177 49.8603 33.0632 49.8713 32.7754L49.9211 32.0283C49.9543 31.3532 49.9654 30.8441 49.9543 30.501C49.2239 30.4124 48.2444 30.418 47.0159 30.5176L46.2522 30.584L45.5051 30.6504C44.9185 30.7057 44.4426 30.7389 44.0774 30.75C43.9003 30.0417 43.8228 29.1452 43.845 28.0605L43.8616 27.3633L43.8948 26.6826C43.9169 26.1182 43.928 25.6699 43.928 25.3379C43.928 24.3307 43.939 23.3568 43.9612 22.416C44.415 22.3717 44.8577 22.3496 45.2893 22.3496C45.4553 22.3496 45.6379 22.3496 45.8372 22.3496L46.3518 22.3662C47.2372 22.3883 48.023 22.3607 48.7092 22.2832C48.7424 21.8405 48.748 21.276 48.7258 20.5898L48.7092 20.1748L48.6926 19.7598C48.6926 19.4499 48.6982 19.151 48.7092 18.8633C47.7021 18.8301 46.1692 18.8577 44.1106 18.9463C44.1217 18.7139 44.1383 18.4593 44.1604 18.1826L44.1936 17.502C44.2268 16.9375 44.2545 16.4505 44.2766 16.041C44.332 14.5469 44.3707 13.2298 44.3928 12.0898Z" fill="#111"/>
<path d="M66.4397 14.3975V13.0361C66.4508 11.8408 66.4286 10.9388 66.3733 10.3301L66.3567 9.83203V9.33398C66.3678 8.91341 66.3567 8.58691 66.3235 8.35449H62.2561C62.3336 8.89681 62.3391 10.6012 62.2727 13.4678C62.2616 13.9105 62.2506 14.4528 62.2395 15.0947L62.2229 15.8584C62.2118 16.1462 62.2063 16.3786 62.2063 16.5557C62.1842 17.585 62.1731 18.2214 62.1731 18.4648C62.2174 20.3796 62.2118 22.9251 62.1565 26.1016V27.2637C62.1454 27.7949 62.1067 28.2487 62.0403 28.625C61.8521 29.7096 61.4371 30.3792 60.7952 30.6338C60.1311 30.8994 59.4726 30.6947 58.8196 30.0195C58.2773 29.4661 57.912 28.8242 57.7239 28.0938C57.5247 27.319 57.4749 26.2842 57.5745 24.9893L57.6409 24.1924L57.7073 23.3955C57.7626 22.7757 57.7903 22.2666 57.7903 21.8682C57.7903 21.6689 57.7792 20.8057 57.7571 19.2783C57.746 18.7803 57.7349 18.0221 57.7239 17.0039L57.7073 15.7588L57.6741 14.4805C57.6077 10.0202 57.58 7.79004 57.5911 7.79004H57.4084L57.3254 7.80664H56.9436L55.4827 7.85645L53.3743 7.93945C53.3521 8.49284 53.3466 9.17904 53.3577 9.99805L53.3909 11.1104L53.4075 12.2227C53.4517 14.1595 53.4462 15.5928 53.3909 16.5225L53.2913 18.0498C53.0035 22.4326 52.9039 26.0296 52.9924 28.8408C53.0256 29.9587 53.3079 31.0765 53.8391 32.1943C54.4478 33.4893 55.2004 34.3083 56.0969 34.6514C56.6392 34.8506 57.3365 34.9889 58.1887 35.0664L58.7366 35.1162L59.2844 35.166C59.7493 35.1992 60.0979 35.2269 60.3303 35.249C61.9351 35.415 63.1747 35.2269 64.0491 34.6846C64.9566 34.1201 65.6262 33.0742 66.0579 31.5469C66.5006 30.0306 66.6777 28.0827 66.5891 25.7031L66.5061 24.2256L66.4231 22.7314C66.3456 21.5251 66.3124 20.5456 66.3235 19.793C66.3235 19.4941 66.3401 19.151 66.3733 18.7637L66.4563 17.7676C66.5227 16.9375 66.5393 16.2679 66.5061 15.7588C66.4729 15.3604 66.4508 14.9066 66.4397 14.3975Z" fill="#111"/>
<path d="M78.1604 18.4648C78.1272 18.9186 78.1051 19.2451 78.094 19.4443C78.0387 20.3851 77.7011 20.9993 77.0813 21.2871C76.6275 21.4974 75.8639 21.5638 74.7903 21.4863C74.746 20.5234 74.7183 19.5661 74.7073 18.6143C74.6851 17.4521 74.6907 16.4948 74.7239 15.7422L74.7405 14.8789L74.7239 14.0156C74.7128 13.252 74.7183 12.6709 74.7405 12.2725C74.8733 12.2282 75.0227 12.2171 75.1887 12.2393L75.4045 12.2891L75.6204 12.3223C75.72 12.3444 75.8583 12.3555 76.0354 12.3555H76.2346H76.4504C77.037 12.4219 77.4465 12.6875 77.679 13.1523C77.8118 13.418 77.9114 13.7611 77.9778 14.1816C77.9999 14.3477 78.0221 14.5358 78.0442 14.7461L78.0608 15.0117L78.0774 15.2773C78.1217 15.7865 78.1493 16.3177 78.1604 16.8711C78.1825 17.5905 78.1825 18.1217 78.1604 18.4648ZM81.1487 9.98145C80.6285 9.33952 79.8648 8.86914 78.8577 8.57031C78.0719 8.33789 77.12 8.20508 76.0022 8.17188L75.2883 8.15527L74.5745 8.13867C73.9989 8.11654 73.5341 8.09993 73.1799 8.08887C72.0842 8.0778 71.0217 8.12207 69.9924 8.22168C69.8928 10.6012 69.843 12.8535 69.843 14.9785C69.843 15.4434 69.8485 16.0576 69.8596 16.8213L69.8762 17.8174L69.8928 18.8301C69.926 20.5013 69.9205 21.7907 69.8762 22.6982C69.6991 26.749 69.7047 30.9215 69.8928 35.2158C69.9371 35.2269 70.0256 35.2324 70.1584 35.2324C70.3134 35.2324 70.4905 35.2324 70.6897 35.2324C71.2209 35.2324 71.7245 35.2269 72.2004 35.2158C73.595 35.1937 74.2922 35.1328 74.2922 35.0332C74.3033 34.8893 74.3088 34.3083 74.3088 33.29V32.9414V32.5762V30.1689C74.3088 27.2913 74.342 25.847 74.4084 25.8359C74.6187 25.8359 74.8788 25.8359 75.1887 25.8359H75.6038H76.0188C76.7493 25.847 77.3359 25.8359 77.7786 25.8027C79.162 25.681 80.1637 25.2826 80.7834 24.6074C81.3258 24.0098 81.6633 23.1299 81.7961 21.9678C81.8404 21.5915 81.8736 21.0934 81.8958 20.4736L81.9124 19.7598C81.9234 19.4831 81.9345 19.2562 81.9456 19.0791C82.0341 17.8063 82.0784 16.5833 82.0784 15.4102C82.0784 13.9492 82.0064 12.7262 81.8625 11.7412C81.7629 11.055 81.525 10.4684 81.1487 9.98145Z" fill="#111"/>
<path d="M83.9993 24.139C84.133 24.7791 84.2693 25.4167 84.4031 26.0569C84.4555 26.3051 84.5027 26.5509 84.5446 26.8016C84.605 27.1813 84.6653 27.5634 84.7098 27.9455C84.7544 28.3325 84.9196 28.6903 84.9982 29.0676C85.208 29.3548 85.2604 29.6955 85.3758 30.0168C85.4414 30.1969 85.5462 30.3697 85.659 30.5279C86.0995 31.1485 86.498 31.7886 86.8598 32.4482C87.0775 32.8449 87.3213 33.2271 87.6779 33.5337C87.7697 33.614 87.8614 33.7017 87.9348 33.7966C88.2416 34.1933 88.6664 34.4537 89.1305 34.6606C89.6916 34.9113 90.2474 35.1717 90.819 35.4005C91.4771 35.6658 92.1378 35.9287 92.8353 36.0942C92.9428 36.1209 93.0529 36.138 93.163 36.1501C93.4331 36.1818 93.7031 36.1988 93.9706 36.2378C94.1934 36.2694 94.4111 36.2962 94.6313 36.2207C94.7047 36.1964 94.7886 36.1964 94.8673 36.1988C95.5306 36.2232 96.1652 36.0917 96.7918 35.9092C96.8364 35.8946 96.881 35.8702 96.9281 35.8654C97.4053 35.8191 97.8694 35.7072 98.3361 35.6123C98.8186 35.5149 99.301 35.4175 99.7756 35.2934C99.9539 35.2472 100.116 35.1352 100.279 35.0427C100.837 34.7263 101.388 34.4002 101.952 34.0887C102.489 33.7893 102.977 33.4388 103.402 33.008C103.748 32.66 104.102 32.3168 104.456 31.9736C104.545 31.8884 104.639 31.8081 104.736 31.7327C105.198 31.3773 105.567 30.9587 105.788 30.433C105.817 30.3648 105.853 30.2967 105.895 30.2334C106.328 29.5738 106.677 28.8753 106.994 28.1622C107.114 27.8896 107.185 27.5999 107.264 27.3127C107.358 26.9671 107.445 26.6215 107.516 26.2735C107.56 26.0569 107.568 25.8329 107.589 25.6115C107.615 25.3316 107.62 25.0468 107.673 24.7718C107.736 24.4481 107.757 24.1268 107.712 23.8007C107.699 23.713 107.71 23.623 107.71 23.5354C107.715 23.5354 107.723 23.5329 107.728 23.5329C107.686 23.1216 107.644 22.7078 107.602 22.2965C107.597 22.2527 107.589 22.2089 107.589 22.1627C107.594 21.7148 107.497 21.2792 107.371 20.8484C107.348 20.7632 107.316 20.6756 107.311 20.5879C107.29 20.2326 107.23 19.8821 107.18 19.5292C107.149 19.3077 107.099 19.096 107.033 18.8818C106.944 18.5824 106.889 18.2758 106.818 17.974C106.69 17.419 106.454 16.9079 106.102 16.4406C106.003 16.3068 105.911 16.1705 105.819 16.0317C105.547 15.6155 105.292 15.1872 105.061 14.7491C105.006 14.6444 104.922 14.5495 104.854 14.4521C104.603 14.0919 104.351 13.7317 104.097 13.3739C104.036 13.2863 103.968 13.2036 103.903 13.1208C103.68 12.8312 103.465 12.5367 103.231 12.2568C103.016 11.9988 102.791 11.7481 102.555 11.5096C102.201 11.1494 101.831 10.7989 101.469 10.446C101.346 10.1904 101.073 10.0712 100.879 9.87889C100.717 9.71825 100.539 9.56978 100.36 9.41888C99.9722 9.09275 99.5291 8.86153 99.0021 8.82502C98.4777 8.78851 97.956 8.71793 97.4289 8.74227C97.3188 8.74713 97.2035 8.74957 97.096 8.77147C96.7551 8.84206 96.4116 8.9102 96.0708 8.98079C95.5883 9.08058 95.1059 9.1755 94.6103 9.2047C94.2878 9.22417 93.9863 9.31179 93.6927 9.43836C93.4462 9.54545 93.1997 9.65254 92.9428 9.73042C92.5442 9.85211 92.1745 10.0274 91.8337 10.2464C91.5584 10.4216 91.3145 10.6383 91.0681 10.8476C90.4073 11.4049 89.7492 11.9672 89.0964 12.5342C88.8997 12.7046 88.7136 12.8896 88.5431 13.0843C88.2626 13.4056 88.003 13.7439 87.7251 14.0676C87.476 14.3572 87.261 14.6663 87.0748 14.9973C86.8362 15.4184 86.5216 15.7932 86.1991 16.1607C86.0051 16.3822 85.8451 16.6159 85.7324 16.8787C85.5777 17.2365 85.4282 17.5943 85.2578 17.9448C85.0402 18.3926 84.8986 18.8623 84.757 19.3321C84.6705 19.6144 84.6469 19.9138 84.584 20.2034C84.5473 20.3762 84.5027 20.5514 84.4345 20.7169C84.2746 21.1088 84.2117 21.5201 84.133 21.9266C84.1225 21.985 84.1146 22.0434 84.1146 22.1042C84.1304 22.6543 84.0622 23.1995 83.9757 23.7422C83.9547 23.8785 83.9731 24.0075 83.9993 24.139Z" fill="#B4F00A"/>
<path d="M84.8885 23.8886C85.0024 24.4761 85.1185 25.0612 85.2324 25.6486C85.2771 25.8764 85.3173 26.102 85.353 26.3321C85.4044 26.6805 85.4558 27.0312 85.4938 27.3818C85.5317 27.7369 85.6724 28.0652 85.7394 28.4114C85.9181 28.675 85.9628 28.9877 86.0611 29.2825C86.1169 29.4478 86.2062 29.6063 86.3023 29.7515C86.6775 30.3211 87.017 30.9085 87.3252 31.5137C87.5106 31.8778 87.7183 32.2285 88.0221 32.5099C88.1002 32.5836 88.1784 32.664 88.2409 32.7511C88.5023 33.1151 88.8641 33.3541 89.2594 33.544C89.7374 33.774 90.2109 34.013 90.6978 34.2229C91.2584 34.4664 91.8212 34.7076 92.4153 34.8595C92.5069 34.8841 92.6007 34.8997 92.6945 34.9109C92.9245 34.9399 93.1546 34.9555 93.3824 34.9913C93.5722 35.0203 93.7576 35.0449 93.9452 34.9756C94.0078 34.9533 94.0792 34.9533 94.1462 34.9555C94.7113 34.9779 95.2518 34.8573 95.7856 34.6897C95.8236 34.6763 95.8616 34.654 95.9018 34.6495C96.3083 34.6071 96.7036 34.5044 97.1011 34.4173C97.5121 34.3279 97.9231 34.2386 98.3273 34.1247C98.4792 34.0822 98.6177 33.9795 98.7561 33.8946C99.2319 33.6043 99.7009 33.305 100.181 33.0191C100.639 32.7444 101.054 32.4228 101.416 32.0274C101.711 31.708 102.013 31.3931 102.314 31.0782C102.39 31 102.47 30.9263 102.553 30.8571C102.946 30.531 103.261 30.1468 103.449 29.6644C103.473 29.6019 103.505 29.5393 103.54 29.4813C103.909 28.876 104.206 28.235 104.476 27.5806C104.579 27.3304 104.639 27.0647 104.706 26.8011C104.787 26.4839 104.86 26.1668 104.921 25.8474C104.959 25.6486 104.965 25.4431 104.983 25.2399C105.005 24.9831 105.01 24.7217 105.055 24.4694C105.108 24.1723 105.126 23.8775 105.088 23.5782C105.077 23.4978 105.086 23.4152 105.086 23.3347C105.09 23.3347 105.097 23.3325 105.101 23.3325C105.066 22.9551 105.03 22.5754 104.994 22.1979C104.99 22.1577 104.983 22.1175 104.983 22.0751C104.988 21.6641 104.905 21.2643 104.798 20.869C104.778 20.7908 104.751 20.7104 104.746 20.63C104.728 20.3039 104.677 19.9823 104.635 19.6584C104.608 19.4552 104.565 19.2609 104.51 19.0643C104.434 18.7896 104.387 18.5082 104.326 18.2313C104.217 17.722 104.016 17.253 103.717 16.8242C103.632 16.7013 103.554 16.5762 103.475 16.4489C103.243 16.067 103.027 15.6739 102.83 15.2719C102.783 15.1759 102.712 15.0887 102.654 14.9994C102.439 14.6689 102.225 14.3383 102.008 14.01C101.957 13.9296 101.899 13.8536 101.843 13.7777C101.653 13.5119 101.47 13.2417 101.271 12.9848C101.088 12.7481 100.896 12.518 100.695 12.2991C100.393 11.9686 100.078 11.647 99.7701 11.3231C99.6652 11.0886 99.4329 10.9792 99.2676 10.8027C99.1291 10.6553 98.9773 10.5191 98.8254 10.3806C98.4948 10.0813 98.1174 9.86911 97.6684 9.83561C97.2217 9.80211 96.7773 9.73734 96.3284 9.75967C96.2345 9.76414 96.1363 9.76637 96.0447 9.78647C95.7544 9.85125 95.4618 9.91378 95.1714 9.97855C94.7605 10.0701 94.3495 10.1572 93.9274 10.184C93.6527 10.2019 93.3958 10.2823 93.1457 10.3984C92.9357 10.4967 92.7258 10.595 92.5069 10.6665C92.1674 10.7781 91.8525 10.9389 91.5621 11.14C91.3276 11.3008 91.1199 11.4996 90.9099 11.6916C90.3471 12.2031 89.7865 12.719 89.2304 13.2394C89.0629 13.3958 88.9043 13.5655 88.7591 13.7442C88.5201 14.039 88.299 14.3495 88.0623 14.6465C87.8501 14.9123 87.6669 15.196 87.5084 15.4997C87.3051 15.8861 87.0371 16.2301 86.7624 16.5673C86.5971 16.7706 86.4609 16.985 86.3648 17.2262C86.233 17.5545 86.1057 17.8828 85.9606 18.2044C85.7752 18.6154 85.6546 19.0465 85.534 19.4775C85.4603 19.7366 85.4402 20.0113 85.3866 20.2771C85.3553 20.4357 85.3173 20.5965 85.2592 20.7484C85.123 21.108 85.0694 21.4854 85.0024 21.8584C84.9935 21.912 84.9868 21.9656 84.9868 22.0215C85.0002 22.5262 84.9421 23.0265 84.8684 23.5246C84.8505 23.6497 84.8662 23.768 84.8885 23.8886Z" fill="#18181D"/>
<path d="M94.9926 27.02C94.9792 26.8257 95.035 26.647 95.0685 26.4616C95.1087 26.2383 95.0886 26.0015 95.0663 25.7715C95.0373 25.4878 95.006 25.2042 95.0038 24.9183C95.0038 24.6949 95.0574 24.4872 95.111 24.2773C95.1646 24.0651 95.4326 23.94 95.6358 24.0249C95.7341 24.0651 95.8346 24.1209 95.9128 24.1924C96.0535 24.3197 96.2009 24.4493 96.3036 24.6056C96.4042 24.7597 96.5292 24.8803 96.6699 24.9831C97.0005 25.2243 97.2998 25.4945 97.5633 25.8117C97.9453 26.2718 98.3517 26.7118 98.7471 27.1585C99.0709 27.5248 99.4015 27.8866 99.7119 28.2618C99.875 28.4583 100.042 28.6571 100.094 28.9229C100.103 28.9653 100.123 29.01 100.147 29.048C100.147 29.3741 100.114 29.689 100.031 29.9972C99.9688 30.0598 99.9196 30.1379 99.8794 30.2161C99.6762 30.607 99.3881 30.933 99.1 31.2569C98.9615 31.4132 98.7984 31.5338 98.593 31.583C98.3205 31.6478 98.0949 31.8086 97.8782 31.9627C97.3578 32.3312 96.862 32.7332 96.364 33.133C96.3014 33.1844 96.2366 33.2313 96.1696 33.276C96.1473 33.2737 96.1227 33.2782 96.0937 33.2894C95.551 33.5082 95.1467 33.0772 94.9569 32.5813C94.9412 32.4831 94.9256 32.3848 94.9055 32.2865C94.8675 32.0944 94.8698 31.9091 94.9077 31.7215C94.9725 31.3998 94.9993 31.0782 95.0082 30.7499C95.0149 30.493 95.0551 30.2362 95.0864 29.9793C95.1043 29.8297 95.0886 29.6845 95.0574 29.5349C95.0194 29.3495 94.9993 29.1574 94.9971 28.9698C94.9948 28.4516 94.9904 27.9357 94.8742 27.4287C94.8519 27.3327 94.8608 27.2456 94.9435 27.1674C94.9792 27.1384 94.9971 27.0714 94.9926 27.02ZM99.2228 29.8677C99.234 29.8945 99.2831 29.9123 99.3166 29.919C99.3345 29.9213 99.3635 29.8945 99.3769 29.8721C99.3948 29.8386 99.4238 29.7917 99.4126 29.7627C99.3546 29.6019 99.3054 29.4299 99.1312 29.3473C99.1201 29.3428 99.1044 29.3473 99.0397 29.3473C99.1067 29.5438 99.1603 29.7069 99.2228 29.8677ZM98.9459 30.2005C98.9682 30.2183 99.0307 30.2183 99.0508 30.2005C99.0732 30.1804 99.0866 30.1201 99.0732 30.0955C98.8721 29.7136 98.7158 29.3093 98.4925 28.9363C98.3316 28.6705 98.2177 28.3802 98.153 28.0697C98.0927 27.7905 98.0078 27.5225 97.8246 27.2902C97.7599 27.2098 97.7219 27.1004 97.6884 26.9999C97.6147 26.7721 97.4606 26.6046 97.2931 26.446C97.2707 26.4259 97.2216 26.4326 97.1256 26.4214C97.2328 26.7073 97.2975 26.9463 97.4115 27.1585C97.5231 27.3662 97.5857 27.5851 97.6303 27.8084C97.6616 27.958 97.7063 28.0965 97.7867 28.2216C97.9185 28.4271 98.0614 28.6236 98.1999 28.8224C98.2758 28.9341 98.3517 29.0458 98.4299 29.1574C98.5193 29.2847 98.5684 29.421 98.5528 29.5773C98.5349 29.7404 98.5974 29.8654 98.7136 29.9749C98.794 30.0464 98.8632 30.129 98.9459 30.2005ZM97.2819 31.0447C97.3489 31.0291 97.4137 30.9643 97.407 30.904C97.3802 30.6628 97.3735 30.4193 97.3511 30.1781C97.331 29.9637 97.235 29.7649 97.0563 29.6175C96.9223 29.5058 96.8039 29.3718 96.6766 29.2512C96.6409 29.2177 96.5895 29.1954 96.5181 29.1507C96.5337 29.3718 96.556 29.5572 96.5605 29.7448C96.565 29.9213 96.5538 30.0977 96.5471 30.2719C96.5404 30.4595 96.5292 30.6472 96.5203 30.8683C96.6856 30.9263 96.8263 30.9777 96.9648 31.0246C97.0653 31.0626 97.1725 31.0693 97.2819 31.0447ZM96.422 31.4423C96.4667 31.4289 96.5181 31.4021 96.5471 31.3663C96.5739 31.3328 96.489 31.2703 96.3952 31.2703C96.3796 31.2904 96.3483 31.315 96.3416 31.3462C96.326 31.4043 96.3707 31.4579 96.422 31.4423ZM96.4109 26.8882C96.5337 27.2478 96.6811 27.5962 96.8196 27.9513C96.8687 28.0787 96.9201 28.2037 96.9625 28.331C97.0407 28.5633 97.1568 28.7777 97.264 28.9966C97.4651 29.4098 97.6437 29.8342 97.8202 30.2585C97.8604 30.3546 97.8537 30.4707 97.8738 30.5757C97.9028 30.7142 97.9855 30.7678 98.1061 30.7231C98.3093 30.6494 98.5036 30.5578 98.7069 30.3948C98.6376 30.3836 98.6064 30.3769 98.5729 30.3747C98.3875 30.3613 98.2847 30.263 98.2244 30.0866C98.1105 29.7538 97.981 29.4254 97.8514 29.0971C97.7755 28.9028 97.6147 28.771 97.4785 28.6192C97.3802 28.5097 97.2774 28.4025 97.1591 28.2752C97.2305 28.1881 97.2707 28.1367 97.3266 28.0675C97.2149 27.5337 97.0228 27.0133 96.7883 26.5108C96.565 26.0328 96.4645 25.91 96.2523 25.7C96.2366 25.738 96.2098 25.7715 96.2121 25.805C96.2188 26.1802 96.2925 26.5398 96.4109 26.8882ZM96.0848 29.5528C96.1942 29.1396 96.1674 28.9765 95.9642 28.6638C95.9485 28.8939 95.9865 29.1999 96.0848 29.5528ZM95.5376 25.4878C95.5822 25.796 95.6403 26.1043 95.7095 26.408C95.7386 26.5376 95.8167 26.6537 95.8748 26.7765C95.8793 26.7855 95.9016 26.7922 95.9083 26.7899C95.9284 26.7765 95.9619 26.7564 95.9597 26.743C95.9418 26.5956 95.9217 26.4482 95.8949 26.303C95.8346 25.9948 95.8033 25.6866 95.8905 25.3761C95.9061 25.3181 95.8927 25.2399 95.8681 25.1818C95.8145 25.0568 95.7319 24.9496 95.5644 24.8423C95.5197 25.088 95.5085 25.289 95.5376 25.4878Z" fill="#B4F00A"/>
<path d="M88.661 29.3402C88.7861 29.1839 88.8598 28.9873 88.9581 28.8109C88.9916 28.7528 89.0229 28.6881 89.0698 28.6434C89.3534 28.3709 89.6259 28.0872 89.9565 27.8661C90.5215 27.4887 91.0576 27.0688 91.569 26.6221C91.7834 26.4345 91.9777 26.2245 92.2279 26.0794C92.2971 26.0391 92.3597 25.9811 92.411 25.9208C92.5763 25.7198 92.7729 25.5545 92.9761 25.3937C93.1481 25.2597 93.3044 25.1078 93.4094 24.9112C93.5233 24.6991 93.6998 24.5852 93.941 24.603C94.1264 24.6164 94.2872 24.5673 94.4457 24.4824C94.4658 24.4712 94.4971 24.4847 94.5373 24.4869C94.5529 24.5137 94.5842 24.545 94.5865 24.5807C94.6133 24.8934 94.6222 25.2061 94.5261 25.5098C94.4502 25.7488 94.4547 25.99 94.4837 26.2357C94.5038 26.4099 94.5083 26.5886 94.5127 26.765C94.5194 27.0509 94.5217 27.3368 94.5261 27.6205C94.5306 28.1788 94.4748 28.7283 94.3229 29.271C94.2045 29.6887 94.1554 30.1242 94.1733 30.5619C94.1844 30.8523 94.1442 31.1292 94.0459 31.4017C94.0013 31.529 93.9812 31.6653 93.9365 31.7926C93.8449 32.0472 93.7467 32.2996 93.6462 32.552C93.6261 32.6011 93.5881 32.6458 93.5457 32.6793C93.501 32.7128 93.4675 32.7507 93.4384 32.7932C93.434 32.7954 93.4317 32.7954 93.4273 32.7977C93.2821 32.8602 93.157 32.9294 93.0364 33.021C92.5741 33.1907 92.0984 33.1773 91.6159 33.126C91.5043 33.0121 91.2921 32.9518 91.1692 32.8982C90.7136 32.6927 90.2267 32.5319 89.7912 32.2817C88.7459 31.6809 88.4355 30.6423 88.5471 29.5301C88.5762 29.4608 88.6119 29.4005 88.661 29.3402ZM90.0748 28.4156C89.8202 28.5831 89.6237 28.7997 89.4182 29.0141C89.4517 29.0454 89.4718 29.0767 89.4852 29.0744C89.5232 29.0677 89.5678 29.0543 89.5924 29.0275C89.7621 28.8511 89.9274 28.6724 90.0905 28.4937C90.1016 28.4848 90.0838 28.4513 90.0748 28.4156ZM92.3396 26.631C92.1319 26.7583 91.9777 26.9459 91.7812 27.1068C91.7633 27.3457 91.7164 27.5825 91.5981 27.7991C91.5601 27.8706 91.5154 27.9376 91.4685 28.0024C91.4127 28.0783 91.339 28.1431 91.2921 28.2235C91.2318 28.3285 91.1916 28.4424 91.1022 28.6434C91.4484 28.3687 91.5936 28.2056 91.7097 27.9532C91.7678 27.8282 91.8415 27.721 91.942 27.6249C92.009 27.5601 92.0626 27.4797 92.1274 27.4105C92.315 27.214 92.344 26.9549 92.3954 26.707C92.3976 26.6913 92.3686 26.669 92.3396 26.631ZM93.5434 27.1961C93.5769 27.1693 93.6216 27.1514 93.6283 27.1224C93.6551 27.0174 93.6774 26.9102 93.6908 26.803C93.7199 26.5327 93.7534 26.2647 93.7668 25.9945C93.7824 25.6751 93.8673 25.3825 94.0504 25.119C94.0728 25.0877 94.0862 25.0475 94.1018 25.0162C94.0504 24.9403 93.9834 24.9492 93.9209 24.976C93.8851 24.9916 93.8472 25.0162 93.8226 25.0475C93.6082 25.3267 93.3982 25.6081 93.1704 25.9096C93.3603 26.124 93.3603 26.124 93.3513 26.3496C93.3491 26.4166 93.3513 26.4858 93.3402 26.5529C93.3 26.7963 93.3781 26.9995 93.5434 27.1961ZM93.0074 29.5948C93.1012 29.539 93.1213 29.443 93.1213 29.3492C93.1235 29.1593 93.1637 28.9829 93.2307 28.802C93.3089 28.5898 93.3201 28.353 93.3558 28.1252C93.3714 28.0269 93.3424 27.9398 93.2776 27.8617C93.1816 27.7478 93.09 27.6316 92.9359 27.4395C92.9203 27.6607 92.9046 27.7924 92.9046 27.9264C92.9024 28.3999 92.9046 28.8757 92.9113 29.3492C92.9113 29.4363 92.8957 29.5435 93.0074 29.5948ZM92.6858 33.0813C92.7394 33.0992 92.7885 33.0835 92.8242 33.0366C92.8265 33.0322 92.8287 33.0277 92.8309 33.0232C92.8265 33.0255 92.8198 33.0255 92.8153 33.0277C92.7818 33.0567 92.7371 33.0746 92.6858 33.0813C92.6835 33.0791 92.6835 33.0813 92.6858 33.0813ZM92.1788 31.5469C92.1832 31.6407 92.181 31.7412 92.2123 31.8261C92.2614 31.9556 92.2815 32.0829 92.2458 32.2035C92.3552 32.3286 92.4803 32.3733 92.6255 32.4224C92.6344 32.38 92.659 32.3376 92.6456 32.3175C92.5853 32.2192 92.5652 32.1187 92.6076 32.0092C92.6121 31.9958 92.6165 31.9824 92.6188 31.9713C92.6545 31.7591 92.7349 31.5424 92.7126 31.3347C92.6902 31.1292 92.5607 30.9372 92.4915 30.7339C92.4557 30.6334 92.4445 30.5262 92.4289 30.4212C92.4177 30.3475 92.4244 30.2671 92.3731 30.2024C92.2927 30.2515 92.2949 30.3252 92.2793 30.3877C92.1922 30.7674 92.1631 31.156 92.1788 31.5469ZM91.6204 31.0086C91.6919 30.8121 91.6896 30.6088 91.6829 30.4034C91.6785 30.2537 91.6606 30.1063 91.6517 29.9567C91.6383 29.7646 91.6673 29.5792 91.7499 29.4005C91.808 29.2755 91.8817 29.1705 92.009 29.099C92.114 29.0409 92.2011 28.9538 92.2837 28.8913C92.2837 28.7193 92.2815 28.5719 92.2837 28.4223C92.286 28.3218 92.3731 28.19 92.2391 28.1386C92.143 28.1007 92.085 28.2257 92.018 28.2883C91.9197 28.3821 91.8259 28.4803 91.7187 28.5607C91.5958 28.6546 91.5087 28.7729 91.4283 28.898C91.3926 28.9538 91.3658 29.0208 91.3591 29.0856C91.3233 29.5055 91.2787 29.9209 91.3881 30.3408C91.4529 30.5865 91.473 30.8456 91.511 31.0957C91.6092 31.1203 91.6048 31.0488 91.6204 31.0086ZM90.3786 30.9863C90.6488 31.1918 90.8967 31.4263 91.1983 31.5849C91.2452 31.6094 91.2965 31.6273 91.3479 31.6452C91.3568 31.6496 91.3769 31.6452 91.3836 31.6362C91.3993 31.6161 91.4238 31.5849 91.4194 31.5715C91.3792 31.4732 91.3546 31.3481 91.2787 31.2901C91.1804 31.2141 91.1447 31.127 91.1179 31.022C91.0576 30.7585 90.9816 30.4972 90.9392 30.2292C90.9079 30.0304 90.9213 29.8249 90.9191 29.6216C90.9168 29.5457 90.9325 29.4675 90.899 29.3782C90.6332 29.7088 90.5037 30.0773 90.3942 30.4547C90.3585 30.5843 90.316 30.7094 90.2669 30.8702C90.2892 30.8947 90.3294 30.9483 90.3786 30.9863ZM89.1412 29.9433C89.1904 30.1219 89.2529 30.3408 89.4182 30.5128C89.5098 30.6111 89.6058 30.6111 89.6951 30.5217C89.7845 30.4346 89.8582 30.3341 89.8805 30.2135C89.9453 29.8606 90.1128 29.5569 90.2937 29.2531C90.3205 29.2085 90.3384 29.1549 90.3518 29.1035C90.3562 29.0811 90.3473 29.0476 90.3317 29.032C90.3205 29.0208 90.2781 29.0208 90.2647 29.032C90.1954 29.0945 90.1262 29.1593 90.0637 29.2308C89.914 29.3938 89.7398 29.5122 89.5254 29.5747C89.4361 29.6015 89.3467 29.635 89.2596 29.6708C89.1613 29.7088 89.1189 29.7892 89.1412 29.9433Z" fill="#B4F00A"/>
<path d="M94.4854 20.8042C94.3447 20.7685 94.2107 20.7104 94.1147 20.6077C94.0991 20.5831 94.079 20.5608 94.0611 20.5362C94.0589 20.5317 94.0566 20.5295 94.0544 20.5273C94.0455 20.5161 94.0365 20.5027 94.0276 20.4915C94.0052 20.467 93.9829 20.4513 93.9561 20.4424C93.9338 20.362 93.8846 20.3017 93.7752 20.2771C93.601 20.2392 93.4938 20.1252 93.4513 19.9488C93.3508 19.5267 93.1744 19.1246 93.1029 18.6914C93.0985 18.6645 93.0918 18.6377 93.0806 18.6132C92.8706 18.0771 92.8081 17.5076 92.7076 16.947C92.616 16.44 92.4932 15.9375 92.3793 15.4349C92.3413 15.263 92.2877 15.0932 92.2408 14.9235C92.2229 14.8587 92.2095 14.7895 92.1738 14.7314C91.9974 14.4366 92.042 14.1328 92.1314 13.8268C92.1917 13.6258 92.2944 13.4538 92.4642 13.3265C92.5178 13.2863 92.5669 13.2372 92.6183 13.1948C92.6719 13.1501 92.7232 13.1032 92.6964 13.025C92.6964 13.025 92.6964 13.025 92.6964 13.0228C92.7009 13.0116 92.7054 13.0005 92.7098 12.9871C92.7121 12.9848 92.7121 12.9826 92.7143 12.9803C92.8237 12.8441 92.9287 12.7056 93.0315 12.5627C93.0337 12.5605 93.0337 12.5605 93.0359 12.5582C93.0471 12.5448 93.056 12.5314 93.0627 12.518C93.0672 12.5136 93.0694 12.5091 93.0739 12.5024C93.1498 12.4644 93.2191 12.4175 93.2816 12.3572C93.4402 12.2009 93.63 12.0937 93.8377 12.0267C94.1594 11.9239 94.4475 11.7184 94.8004 11.714C94.8383 11.714 94.8808 11.6939 94.9165 11.676C95.0796 11.5867 95.256 11.5911 95.4324 11.6045C96.3951 11.6715 97.2996 11.9507 98.155 12.3885C98.3382 12.4823 98.5124 12.5873 98.6553 12.7347C98.8296 13.0139 99.0328 13.2796 99.2673 13.5075C99.3031 13.5968 99.3321 13.6861 99.3544 13.7777C99.3567 13.7866 99.3567 13.7956 99.3589 13.8045C99.3634 14.0033 99.3611 14.1998 99.3567 14.3986C99.2919 14.584 99.2294 14.7716 99.1668 14.9592C99.0306 15.359 98.8787 15.7476 98.5973 16.0759C98.394 16.3127 98.2109 16.5673 98.0166 16.813C97.8647 17.0051 97.7262 17.2061 97.6168 17.4272C97.3711 17.9297 97.083 18.4055 96.7524 18.8544C96.614 19.042 96.4531 19.2051 96.2789 19.3592C96.1159 19.5021 95.964 19.6562 95.8166 19.817C95.6692 19.9756 95.5352 20.1476 95.3945 20.3151C95.2337 20.5049 95.055 20.668 94.816 20.7506C94.7803 20.764 94.7512 20.7975 94.7244 20.8176C94.7244 20.8199 94.7244 20.8221 94.7244 20.8243C94.6463 20.8199 94.5681 20.8154 94.4854 20.8042ZM93.1163 13.4628C93.094 13.4605 93.056 13.4583 93.0538 13.4672C93.027 13.5365 93.0069 13.6102 92.9868 13.6817C93.0024 13.6906 93.0203 13.6973 93.0359 13.7062C93.0672 13.637 93.0985 13.5655 93.1297 13.4963C93.132 13.4873 93.123 13.465 93.1163 13.4628ZM97.9116 15.6605C97.9987 15.531 98.0791 15.397 98.1908 15.2205C97.9451 15.3903 97.9451 15.3903 97.8245 15.7365C97.8535 15.7119 97.8915 15.6918 97.9116 15.6605ZM97.1031 14.5125C97.1813 14.8006 97.2371 15.091 97.2349 15.3925C97.2349 15.4148 97.255 15.4394 97.2885 15.5153C97.351 15.4461 97.389 15.4126 97.418 15.3702C97.4962 15.2585 97.5609 15.1379 97.6458 15.0351C97.8245 14.8163 97.9183 14.5617 97.9339 14.2892C97.9518 13.9809 97.9339 13.6683 97.9228 13.3578C97.9183 13.2506 97.7687 13.1389 97.6525 13.1613C97.5341 13.1836 97.4202 13.2283 97.3086 13.2752C97.2259 13.3109 97.1947 13.4002 97.1947 13.4784C97.1947 13.6973 97.141 13.9028 97.0852 14.1105C97.0517 14.2445 97.0673 14.3807 97.1031 14.5125ZM96.4554 17.2865C96.5157 17.1637 96.567 17.0386 96.6207 16.9135C96.6966 16.7393 96.7703 16.5651 96.8596 16.3529C96.8284 16.2412 96.7145 16.1072 96.8105 15.9308C96.8552 15.8481 96.8127 15.7186 96.8194 15.6092C96.8284 15.4729 96.8172 15.3277 96.8663 15.2071C96.9534 14.9905 96.9311 14.7805 96.8931 14.5661C96.8395 14.2691 96.8507 13.972 96.8686 13.6727C96.8842 13.4136 96.9624 13.197 97.1567 13.0228C97.1969 12.9871 97.2304 12.9446 97.3041 12.8642C97.15 12.7749 97.0361 12.7034 96.9199 12.6409C96.6988 12.5247 96.643 12.5359 96.5335 12.7927C96.4442 13.0027 96.3928 13.2015 96.4263 13.4203C96.5492 14.2043 96.4956 14.9927 96.4799 15.7811C96.4799 15.7945 96.4755 15.8079 96.4777 15.8213C96.5 16.3239 96.4487 16.8197 96.3392 17.3468C96.3995 17.3133 96.4442 17.3088 96.4554 17.2865ZM94.6239 20.0426C94.6262 20.0337 94.6351 20.0203 94.6306 20.0158C94.6239 20.0091 94.6128 20.0069 94.6016 20.0024C94.5994 20.0113 94.5971 20.0203 94.5927 20.0292C94.6038 20.0337 94.615 20.0381 94.6239 20.0426ZM94.0745 19.2631C94.0946 19.3636 94.1415 19.4619 94.1839 19.5579C94.1884 19.5669 94.242 19.5669 94.2509 19.5557C94.2755 19.5267 94.2956 19.4887 94.3023 19.453C94.3224 19.319 94.2934 19.1939 94.2465 19.071C94.1147 19.0867 94.0544 19.1559 94.0745 19.2631ZM93.5407 12.7101C93.5318 12.7146 93.5251 12.728 93.5184 12.7391C93.5318 12.7414 93.5452 12.7503 93.5541 12.7458C93.563 12.7414 93.5675 12.7257 93.5742 12.7168C93.5653 12.7146 93.5519 12.7079 93.5407 12.7101ZM96.0466 13.2573C96.0645 13.0049 96.1472 12.862 96.1315 12.6967C96.0042 12.5538 95.8255 12.6319 95.6737 12.594C95.6089 12.5783 95.5419 12.5739 95.4481 12.5605C95.4637 12.6141 95.4637 12.661 95.4838 12.6744C95.5843 12.7391 95.7072 12.7816 95.792 12.862C95.8769 12.9424 95.9238 13.0608 96.0466 13.2573ZM95.8724 15.4662C95.8211 15.5064 95.7719 15.5287 95.7451 15.569C95.6201 15.7499 95.5553 15.962 95.5262 16.2457C95.734 16.1095 95.8702 15.8146 95.8724 15.4662ZM95.352 19.6696C95.3677 19.6808 95.4101 19.6852 95.4213 19.6718C95.5419 19.549 95.6558 19.4239 95.7742 19.2989C95.5329 19.2743 95.3967 19.3971 95.3252 19.6004C95.3185 19.6182 95.3342 19.6562 95.352 19.6696ZM95.361 18.6556C95.3565 18.3965 95.3677 18.1397 95.5486 17.9275C95.6044 17.7198 95.6647 17.5121 95.7139 17.3044C95.7496 17.157 95.7183 17.0073 95.6759 16.8644C95.658 16.8041 95.5865 16.7482 95.5195 16.7594C95.4704 16.7683 95.4146 16.7929 95.3833 16.8286C95.3498 16.8666 95.3297 16.9247 95.3185 16.976C95.218 17.4116 95.0997 17.8404 95.1287 18.296C95.1443 18.5372 95.122 18.7785 95.1153 19.0666C95.2895 18.9393 95.3632 18.8231 95.361 18.6556ZM94.7445 14.6979C94.7892 14.7493 94.8294 14.7738 94.8361 14.8051C94.8495 14.8699 94.8517 14.9391 94.8517 15.0061C94.8517 15.5757 94.8517 16.1474 94.854 16.717C94.854 16.7706 94.8629 16.8242 94.8674 16.8711C94.9478 16.9023 94.9813 16.851 94.9969 16.8041C95.0617 16.6254 95.1265 16.4467 95.1778 16.2636C95.2672 15.9486 95.3766 15.6471 95.5352 15.3568C95.6714 15.1089 95.7697 14.8364 95.8657 14.5706C95.9417 14.3606 95.9104 14.1373 95.8702 13.9251C95.8211 13.6571 95.7362 13.4002 95.5865 13.1635C95.4972 13.1434 95.3989 13.1389 95.3252 13.0965C95.2605 13.0585 95.218 12.9781 95.1711 12.9133C95.1399 12.8687 95.1198 12.8173 95.0907 12.7726C94.9589 12.5761 94.8294 12.5515 94.5681 12.6699C94.5391 12.8106 94.6061 12.9357 94.6373 13.0652C94.6775 13.2238 94.7222 13.3801 94.7579 13.5387C94.7713 13.6035 94.7758 13.6772 94.7579 13.7397C94.7468 13.7822 94.6954 13.8358 94.653 13.8469C94.6016 13.8626 94.548 13.8201 94.5324 13.7621C94.4787 13.5521 94.4274 13.3399 94.376 13.13C94.3626 13.0764 94.3671 13.0206 94.3514 12.9692C94.3358 12.9223 94.3112 12.8731 94.2755 12.8352C94.242 12.8017 94.1594 12.853 94.1169 12.9245C94.0723 12.9982 94.0432 13.0764 94.0723 13.1568C94.1772 13.427 94.1839 13.7152 94.2375 13.9943C94.2643 14.1351 94.2666 14.2691 94.1996 14.3897C94.108 14.5527 94.0767 14.7135 94.1192 14.8967C94.1348 14.9592 94.1214 15.0329 94.1102 15.0999C94.1035 15.1334 94.0745 15.1625 94.0566 15.196C94.0343 15.1669 93.9985 15.1401 93.9963 15.1089C93.9784 14.948 93.9807 14.785 93.9561 14.6242C93.9315 14.4812 93.9092 14.3405 93.8377 14.1998C93.7506 14.0256 93.7372 13.8134 93.6859 13.5923C93.6412 13.6303 93.5965 13.6482 93.5921 13.675C93.5385 13.9407 93.4938 14.2088 93.4402 14.4745C93.4 14.6644 93.4178 14.8498 93.4558 15.0396C93.601 15.7432 93.7439 16.4489 93.8779 17.1547C93.9204 17.3803 93.9427 17.6126 93.9583 17.8426C93.9695 18.0347 94.0097 18.2134 94.0723 18.4077C94.2599 18.1285 94.1973 17.8404 94.1728 17.5612C94.146 17.2642 94.1013 16.9693 94.0589 16.6745C94.0455 16.5762 94.0589 16.4869 94.108 16.3998C94.1795 16.268 94.1996 16.1251 94.2063 15.9777C94.3023 16.0603 94.4006 16.143 94.5145 16.239C94.548 15.7834 94.5458 15.3344 94.6798 14.9034C94.6909 14.8431 94.7133 14.785 94.7445 14.6979Z" fill="#B4F00A"/>
<path d="M99.4596 26.884C99.3457 26.6964 99.2162 26.5244 99.0643 26.3681C98.9146 26.2118 98.7784 26.042 98.622 25.8924C98.4657 25.7427 98.2915 25.6109 98.1262 25.468C97.9721 25.3362 97.8001 25.2179 97.7354 25.0101C97.3289 24.492 96.8598 24.0475 96.2456 23.7817C95.9463 23.6522 95.7386 23.4244 95.5845 23.143C95.5309 23.0447 95.5264 22.9442 95.5398 22.8303C95.5734 22.5667 95.7029 22.388 95.924 22.2406C96.2121 22.0508 96.5047 21.8922 96.8487 21.8364C96.976 21.8163 97.1122 21.7872 97.2016 21.6756C96.8531 21.6823 96.5025 21.6778 96.1585 21.6041C95.9374 21.5572 95.7565 21.45 95.6203 21.2646C95.5421 21.1574 95.5153 21.0457 95.5689 20.9206C95.5845 20.8827 95.5957 20.8425 95.618 20.809C95.8123 20.5298 95.9843 20.2372 96.2479 20.0116C96.6007 19.7101 96.8755 19.3371 97.1681 18.9798C97.2194 18.9172 97.2641 18.8457 97.2954 18.772C97.4785 18.3432 97.7756 17.9836 98.0123 17.5883C98.1083 17.4275 98.2334 17.2801 98.3607 17.1371C98.497 16.983 98.6176 16.8222 98.7136 16.6413C98.9303 16.2281 99.2117 15.8663 99.5378 15.5335C99.6606 15.4084 99.7745 15.2766 99.8773 15.1315C100.036 15.0265 100.199 14.926 100.349 14.8076C100.57 14.8233 100.719 14.9483 100.851 15.1047C101.01 15.29 101.175 15.471 101.273 15.701C101.309 15.7859 101.374 15.8618 101.425 15.9422C101.535 16.112 101.664 16.275 101.753 16.4559C101.905 16.7597 102.039 17.0724 102.164 17.3895C102.26 17.633 102.383 17.8541 102.542 18.0618C102.812 18.4169 102.98 18.81 102.951 19.2701C102.942 19.4197 102.955 19.5694 102.937 19.719C102.919 19.8664 102.892 20.0161 102.837 20.1523C102.823 20.1858 102.812 20.2193 102.805 20.2528C102.801 20.2573 102.794 20.2618 102.79 20.2662C102.548 20.4762 102.294 20.6638 102.021 20.8291C101.99 20.8291 101.959 20.8291 101.93 20.8291C101.878 20.8313 101.82 20.8335 101.773 20.8559C101.624 20.9318 101.463 20.9407 101.3 20.9452C101.166 20.9497 101.03 20.9698 100.9 21.001C100.73 21.0435 100.565 21.1083 100.395 21.1552C100.228 21.2021 100.056 21.24 99.8616 21.2869C99.9577 21.374 100.054 21.345 100.139 21.3562C100.23 21.3696 100.328 21.3673 100.422 21.3584C100.706 21.3316 100.987 21.3182 101.273 21.345C101.407 21.3584 101.543 21.345 101.68 21.3405C101.771 21.3383 101.861 21.3294 101.952 21.3271C101.959 21.3294 101.966 21.3338 101.972 21.3361C102.321 21.4567 102.685 21.5214 103.015 21.6845C103.029 21.7113 103.042 21.7381 103.06 21.7649C103.096 21.8163 103.102 21.8944 103.111 21.9592C103.201 22.6762 103.212 23.3976 103.143 24.1167C103.116 24.4004 103.064 24.6818 103.038 24.9655C102.982 25.5998 102.787 26.1872 102.47 26.7366C102.318 27.0024 102.131 27.228 101.854 27.3687C101.794 27.4 101.742 27.4446 101.691 27.4781C101.59 27.7283 101.452 27.9583 101.347 28.2018C101.119 28.3246 100.896 28.3313 100.643 28.1995C100.619 28.1861 100.592 28.1794 100.57 28.1772C100.476 28.1191 100.395 28.0588 100.319 27.9918C100.288 27.9494 100.25 27.898 100.208 27.8377C100.031 27.5965 99.8326 27.3732 99.6472 27.1386C99.578 27.0649 99.5132 26.9756 99.4596 26.884ZM97.0541 23.1765C96.9469 22.9084 96.9469 22.9084 96.6454 23.0402C96.7794 23.1809 96.9514 23.2412 97.1167 23.306C97.0966 23.2636 97.072 23.2211 97.0541 23.1765ZM98.459 23.3261C98.7739 23.4735 99.0911 23.6209 99.4082 23.7661C99.4306 23.7773 99.4618 23.7773 99.4864 23.7706C99.5087 23.7639 99.5288 23.7438 99.5445 23.7259C99.5512 23.717 99.5534 23.6969 99.5489 23.6879C99.5311 23.6522 99.5132 23.6097 99.4842 23.5896C99.406 23.536 99.3278 23.478 99.2407 23.4489C98.9973 23.3708 98.7516 23.306 98.5171 23.239C98.4836 23.2636 98.4635 23.2747 98.4478 23.2926C98.4411 23.2948 98.4501 23.3216 98.459 23.3261ZM99.0419 24.2039C99.1916 24.3848 99.3345 24.4428 99.4864 24.4808C99.502 24.4853 99.5266 24.4562 99.5445 24.4384C99.5512 24.4317 99.5512 24.4093 99.5467 24.4004C99.435 24.2463 99.2809 24.2128 99.0419 24.2039ZM96.7928 20.5923C96.6477 20.7241 96.4801 20.8313 96.3327 21.001C96.5449 21.0346 96.6745 20.934 96.8018 20.8402C96.8978 20.771 96.8665 20.6504 96.8933 20.5521C96.8576 20.5633 96.8174 20.57 96.7928 20.5923ZM96.9067 20.5343C97.0318 20.4538 97.1569 20.3712 97.2797 20.2908C97.0943 20.2752 96.9581 20.3377 96.9067 20.5343ZM97.6304 21.4522C97.4562 21.4522 97.3311 21.5482 97.2194 21.6689C97.3825 21.6778 97.5254 21.5907 97.6795 21.5617C97.6974 21.5572 97.7108 21.5214 97.7264 21.5013C97.6952 21.4835 97.6639 21.4522 97.6304 21.4522ZM97.5611 22.053C97.5723 22.0552 97.5812 22.0642 97.5924 22.062C97.6281 22.0552 97.6326 22.0418 97.6013 22.0284C97.5924 22.024 97.579 22.0262 97.5678 22.0307C97.5634 22.0329 97.5634 22.0441 97.5611 22.053ZM97.7086 23.5383C97.5946 23.4489 97.4629 23.402 97.3199 23.3886C97.3847 23.5517 97.5321 23.5986 97.6795 23.641C97.6952 23.6455 97.7331 23.6209 97.7376 23.6053C97.7421 23.5852 97.7264 23.5517 97.7086 23.5383ZM97.8939 23.0648C97.9475 23.1273 98.0212 23.1385 98.0972 23.1497C98.048 23.0759 97.9676 23.0782 97.8939 23.0648ZM98.1798 21.8632C98.1597 21.8676 98.1396 21.8788 98.1217 21.89C98.1307 21.8967 98.1418 21.9034 98.1508 21.9078C98.1709 21.8989 98.191 21.89 98.2111 21.881C98.1999 21.8743 98.1865 21.8609 98.1798 21.8632ZM100.416 15.9177C100.402 15.8529 100.393 15.7859 100.378 15.7211C100.355 15.6273 100.266 15.5849 100.194 15.6452C100.029 15.7814 99.8549 15.9132 99.7165 16.074C99.569 16.2437 99.4484 16.4403 99.3524 16.7083C99.6338 16.7306 99.8125 16.5497 100.031 16.5051C100.116 16.4872 100.197 16.418 100.266 16.3554C100.393 16.237 100.453 16.0919 100.416 15.9177ZM100.413 17.4141C100.295 17.3493 100.172 17.2979 100.056 17.2309C99.9666 17.1796 99.8795 17.1639 99.7857 17.1952C99.6963 17.2242 99.6003 17.2488 99.5244 17.3002C99.3457 17.4208 99.167 17.5392 98.966 17.6218C98.9102 17.6441 98.8588 17.7067 98.8298 17.7625C98.7806 17.8563 98.7494 17.9591 98.6846 18.1243C98.8521 18.0908 98.9459 18.0841 99.0308 18.0506C99.5043 17.8608 99.98 17.6776 100.491 17.5101C100.453 17.4632 100.44 17.4297 100.413 17.4141ZM99.3345 18.2673C99.3524 18.2851 99.368 18.3142 99.3859 18.3164C99.4685 18.3276 99.5489 18.3142 99.5958 18.2338C99.6092 18.2137 99.6159 18.1802 99.6092 18.1601C99.6003 18.14 99.5623 18.1154 99.5489 18.1199C99.4775 18.1511 99.4105 18.1913 99.3435 18.2293C99.3345 18.2338 99.3368 18.2539 99.3345 18.2673ZM100.902 16.6458C100.896 16.6346 100.889 16.6234 100.88 16.6145C100.844 16.5698 100.789 16.5698 100.751 16.6212C100.728 16.6502 100.724 16.6904 100.704 16.744C100.762 16.7708 100.784 16.7887 100.809 16.7909C100.844 16.7954 100.893 16.8021 100.916 16.7842C100.965 16.7418 100.925 16.6904 100.902 16.6458ZM101.595 18.4035C101.53 18.1556 101.463 17.9099 101.383 17.6687C101.336 17.5258 101.231 17.49 101.092 17.5459C101.054 17.5615 101.016 17.5771 100.983 17.5995C100.804 17.7223 100.625 17.8451 100.451 17.9702C100.433 17.9814 100.433 18.0171 100.42 18.0596C100.625 18.1333 100.871 18.0618 101.088 18.2226C100.833 18.2896 100.614 18.3477 100.395 18.4102C100.293 18.4393 100.188 18.4705 100.089 18.5107C99.9309 18.5755 99.7879 18.6983 99.5958 18.6425C99.4172 18.7006 99.2385 18.7586 99.0687 18.8122C99.0375 18.8926 99.0933 18.8904 99.1268 18.8971C99.2474 18.9217 99.3658 18.9395 99.4864 18.9619C99.6874 18.9976 99.8884 19.0043 100.092 18.9753C100.252 18.9507 100.413 18.9306 100.576 18.9239C100.914 18.9127 101.204 18.7676 101.488 18.6068C101.559 18.5621 101.619 18.4929 101.595 18.4035ZM100.112 19.8486C100.261 19.8553 100.409 19.8754 100.558 19.8865C100.768 19.9022 100.768 19.8999 100.911 20.1032C101.222 20.0987 101.519 19.9982 101.816 19.9156C101.899 19.8932 101.943 19.8151 101.945 19.728C101.945 19.6878 101.945 19.6453 101.941 19.6051C101.937 19.5649 101.925 19.5247 101.912 19.4868C101.861 19.3326 101.807 19.1785 101.751 19.0267C101.749 19.0177 101.731 19.0155 101.72 19.0088C101.336 19.3617 100.867 19.5225 100.36 19.5582C99.8326 19.594 99.301 19.6275 98.7762 19.5046C98.6131 19.4667 98.4612 19.5002 98.3094 19.594C98.5372 19.7347 98.8097 19.6543 99.0129 19.8106C99.0196 19.8173 99.0196 19.8329 99.0241 19.8441C98.9213 19.9066 98.8275 19.987 98.7181 20.025C98.6064 20.063 98.4813 20.0585 98.3697 20.0719C98.3406 20.1479 98.3853 20.1613 98.4255 20.1568C98.7762 20.1233 99.1268 20.0853 99.4775 20.0451C99.5422 20.0384 99.6271 20.0273 99.6651 19.9848C99.7879 19.8396 99.9487 19.8419 100.112 19.8486ZM99.5445 22.3501C99.4663 22.3679 99.3904 22.3992 99.3144 22.4215C99.0174 22.5086 98.7226 22.5958 98.4166 22.598C98.3808 22.6873 98.4344 22.7074 98.4836 22.7164C98.6287 22.7454 98.7739 22.7677 98.9146 22.7923C99.0084 22.732 99.0799 22.6672 99.2095 22.6896C99.3368 22.7119 99.4752 22.6784 99.6092 22.6583C99.7656 22.636 99.8572 22.5086 100.04 22.3903C99.8304 22.3009 99.6874 22.3188 99.5445 22.3501ZM100.27 23.7505C100.226 23.7795 100.177 23.8041 100.139 23.8398C100.065 23.9113 100.081 24.0051 100.161 24.0386C100.344 24.1145 100.355 24.1145 100.679 24.0877C100.643 24.0564 100.614 24.0319 100.585 24.0073C100.565 23.9894 100.541 23.976 100.523 23.9559C100.496 23.9247 100.476 23.8889 100.449 23.8599C100.431 23.8398 100.411 23.8219 100.389 23.8085C100.351 23.7862 100.313 23.7706 100.27 23.7505ZM101.863 22.5042C101.61 22.4662 101.354 22.4506 101.106 22.3813C100.96 22.3389 100.809 22.3679 100.666 22.4104C100.55 22.4461 100.438 22.4975 100.369 22.6069C100.407 22.7186 100.445 22.828 100.485 22.9397C100.512 22.9397 100.541 22.9464 100.561 22.9375C100.976 22.77 101.403 22.6583 101.852 22.627C101.881 22.6248 101.905 22.5823 101.934 22.5555C101.903 22.5332 101.885 22.5086 101.863 22.5042ZM102.234 23.5405C102.274 23.5159 102.307 23.4579 102.318 23.411C102.341 23.3194 102.345 23.2234 102.352 23.1296C102.356 23.0514 102.352 22.9732 102.352 22.8861C102.292 22.8883 102.251 22.8839 102.216 22.895C102.021 22.9486 101.829 23.0179 101.633 23.0603C101.499 23.0893 101.376 23.105 101.28 23.2256C101.237 23.2792 101.137 23.2971 101.061 23.3082C100.858 23.3373 100.679 23.4244 100.483 23.5159C100.527 23.5561 100.55 23.5941 100.583 23.6075C100.708 23.6589 100.838 23.6991 100.963 23.7482C101.427 23.9202 101.838 23.7728 102.234 23.5405ZM101.231 24.2463C101.253 24.2463 101.275 24.2463 101.298 24.2463C101.287 24.2418 101.275 24.2351 101.264 24.2307C101.253 24.2374 101.242 24.2418 101.231 24.2463ZM101.963 24.3602C102.012 24.3513 102.059 24.2843 102.037 24.2418C102.021 24.2128 101.981 24.1771 101.957 24.1793C101.843 24.1882 101.718 24.1704 101.604 24.2865C101.731 24.3959 101.847 24.3803 101.963 24.3602ZM101.016 26.7992C101.063 26.8036 101.128 26.7858 101.162 26.7523C101.396 26.5133 101.387 26.2743 101.206 26.0755C101.117 25.9772 101.021 25.8901 100.835 25.8589C100.96 26.281 100.96 26.281 100.789 26.6696C100.829 26.7724 100.925 26.7902 101.016 26.7992ZM100.181 24.8962C100.583 25.2447 101.021 25.5395 101.512 25.7584C101.653 25.6824 101.651 25.5283 101.713 25.4144C101.767 25.3206 101.807 25.2179 101.762 25.0883C101.698 25.057 101.628 25.0101 101.552 24.9923C101.311 24.9364 101.092 24.8315 100.871 24.7265C100.61 24.6036 100.333 24.5389 100.054 24.483C100.025 24.4763 99.9822 24.5054 99.9554 24.5299C99.9443 24.5411 99.9487 24.5858 99.9621 24.6059C100.031 24.7064 100.092 24.8203 100.181 24.8962ZM99.5065 24.9856C99.3479 24.9141 99.1916 24.8359 99.0308 24.7645C98.9816 24.7421 98.928 24.7265 98.8767 24.7243C98.8432 24.7243 98.8074 24.7511 98.7806 24.7756C98.7717 24.7846 98.7829 24.827 98.7963 24.8449C98.8208 24.8761 98.8499 24.9052 98.8811 24.9297C99.1335 25.1084 99.3837 25.2871 99.6405 25.4591C99.7164 25.5104 99.8058 25.5395 99.9621 25.6154C99.8639 25.2893 99.7455 25.0928 99.5065 24.9856Z" fill="#B4F00A"/>
<path d="M92.5769 19.1941C92.5903 19.2745 92.6014 19.3549 92.6148 19.4331C92.6238 19.4934 92.6573 19.5313 92.6975 19.5492C92.722 19.6586 92.7466 19.7703 92.7756 19.8797C92.789 19.9468 92.8047 20.0115 92.827 20.0741C92.8047 20.1299 92.8114 20.1924 92.8761 20.2438C93.133 20.4493 93.5909 20.657 93.8611 20.9429C93.8857 21.0657 93.8767 21.1908 93.8209 21.3226C93.7048 21.5906 93.5462 21.8229 93.2804 21.9636C92.9186 22.1534 92.5367 22.3008 92.1436 22.4125C92.0006 22.4527 91.8487 22.4549 91.7013 22.4751C91.6879 22.4773 91.6745 22.4751 91.6611 22.4751C91.1251 22.522 90.6092 22.4103 90.091 22.2897C89.5483 22.1646 89.0904 21.8809 88.6325 21.5884C88.3578 21.2868 88.0183 21.1015 87.6275 21.0054C87.5247 20.9496 87.4488 20.9161 87.3907 20.8982C87.3126 20.8491 87.2299 20.8089 87.1428 20.7776C86.9686 20.6548 86.8346 20.523 86.7341 20.3599C86.7229 20.2505 86.7363 20.1299 86.7587 20.0071C86.7721 19.9289 86.7698 19.844 86.7654 19.7636C86.752 19.5693 86.7899 19.3839 86.8793 19.2119C86.9932 18.9931 87.0624 18.7608 87.116 18.5196C87.1517 18.361 87.1852 18.2002 87.2388 18.0461C87.4064 17.5726 87.5806 17.1013 87.7548 16.63C87.9647 16.0672 88.3109 15.6116 88.7978 15.2542C89.1708 14.9817 89.5438 14.7115 89.9771 14.5328C89.986 14.5283 89.9927 14.5261 90.0017 14.5216C90.1915 14.5082 90.3858 14.4948 90.5667 14.5015C90.7588 14.6177 90.9576 14.7249 91.0648 14.9326C91.0715 14.9438 91.0782 14.9549 91.0849 14.9639C91.1005 15.013 91.1184 15.0644 91.1363 15.1135C91.201 15.2922 91.2345 15.4798 91.2881 15.6629C91.3797 15.9756 91.4802 16.2861 91.5696 16.5988C91.7795 17.3336 92.0877 18.0282 92.387 18.7273C92.4518 18.8859 92.5143 19.04 92.5769 19.1941ZM92.3267 20.7709C92.387 20.7687 92.4428 20.7575 92.4831 20.7061C92.4227 20.7039 92.3691 20.7262 92.3267 20.7709ZM92.5032 20.6927C92.5188 20.686 92.5344 20.6816 92.5478 20.6749C92.5121 20.6436 92.5099 20.6726 92.5032 20.6927ZM90.3143 21.7425C90.6851 21.8184 91.0559 21.8899 91.4378 21.9077C91.9247 21.9323 92.3781 21.805 92.8315 21.671C92.9968 21.6219 93.1464 21.5169 93.296 21.4253C93.4032 21.3583 93.4055 21.2466 93.305 21.1506C93.2179 21.0657 93.1218 20.992 93.0258 20.9116C92.7511 20.9518 92.5523 21.1238 92.3334 21.2511C92.3044 21.269 92.2843 21.3159 92.2753 21.3516C92.2374 21.5281 92.1123 21.5906 91.9537 21.6129C91.6991 21.6509 91.4445 21.6933 91.1876 21.7179C91.0693 21.7291 90.9442 21.709 90.8258 21.6889C90.665 21.6621 90.5087 21.6196 90.3478 21.5928C90.3032 21.5839 90.2518 21.604 90.1513 21.6196C90.2317 21.6844 90.2697 21.7335 90.3143 21.7425ZM92.3088 20.7754C92.2128 20.7329 92.1145 20.7039 92.0051 20.7218C91.7907 20.7553 91.6053 20.6749 91.44 20.552C91.277 20.4314 91.1229 20.3019 90.9643 20.1768C90.9353 20.1545 90.904 20.1366 90.8504 20.1009C90.8504 20.1634 90.837 20.2081 90.8526 20.2349C90.9978 20.4649 91.1586 20.686 91.4065 20.8089C91.708 20.9563 92.0163 20.992 92.3088 20.7754ZM88.3467 20.1924C88.5186 20.3845 88.6951 20.5744 88.8693 20.762C88.9609 20.8602 89.0636 20.8848 89.1998 20.8513C89.4947 20.7754 89.7783 20.7999 90.0776 20.8982C90.4082 21.0077 90.7677 21.0077 91.105 20.9183C91.1407 20.8379 91.1072 20.7932 91.0693 20.7553C90.9844 20.6659 90.8772 20.6079 90.7588 20.5699C90.6181 20.5252 90.4841 20.4649 90.3635 20.4158C90.1223 20.418 89.8922 20.418 89.6622 20.4203C89.555 20.4225 89.4433 20.4136 89.3383 20.4314C89.182 20.4582 89.039 20.4337 88.9028 20.3666C88.7196 20.2773 88.541 20.1835 88.3221 20.0718C88.3355 20.1433 88.3333 20.1768 88.3467 20.1924ZM90.2004 20.1254C90.2049 20.1009 90.1647 20.0495 90.1401 20.045C89.9414 20.0115 89.7448 19.9825 89.5438 19.9624C89.4433 19.9512 89.3383 19.9624 89.2356 19.9646C89.4902 20.1969 89.8006 20.2237 90.1223 20.1991C90.1535 20.1947 90.196 20.1545 90.2004 20.1254ZM89.2199 19.9579C89.1864 19.8954 89.1261 19.8865 89.0636 19.8865C89.0993 19.9468 89.1552 19.9624 89.2199 19.9579ZM89.048 19.8797C88.9787 19.7681 88.8671 19.7301 88.7442 19.7212C88.8023 19.8552 88.9207 19.8753 89.048 19.8797ZM88.7286 19.7145C88.6973 19.6452 88.637 19.6363 88.57 19.643C88.6057 19.7078 88.6638 19.7212 88.7286 19.7145ZM88.5588 19.6363C88.5343 19.5715 88.4784 19.5626 88.4204 19.5559C88.4449 19.6184 88.4985 19.6341 88.5588 19.6363ZM88.1613 19.4442C88.1814 19.4576 88.2037 19.4666 88.2238 19.4755C88.2193 19.4532 88.2193 19.4286 88.2059 19.4107C88.1992 19.3996 88.1657 19.4107 88.1434 19.4107C88.1501 19.4219 88.1523 19.4398 88.1613 19.4442ZM88.1925 18.9462C88.2238 18.9707 88.2528 19.0109 88.2863 19.0176C88.6124 19.0779 88.8916 19.2477 89.1797 19.3973C89.2869 19.4532 89.3964 19.509 89.5081 19.5537C89.5818 19.5849 89.6599 19.5983 89.747 19.6229C89.7448 19.5827 89.7515 19.5537 89.7426 19.5425C89.412 19.1851 89.0792 18.8278 88.7442 18.4727C88.6727 18.3967 88.6057 18.3074 88.4784 18.2806C88.3757 18.5017 88.2216 18.6915 88.1925 18.9462ZM88.8827 17.5703C88.8604 17.5123 88.8157 17.4609 88.7777 17.4006C88.6102 17.6329 88.6035 17.7177 88.7442 17.8629C88.8067 17.9277 88.8604 18.0103 88.9676 18.0126C88.9787 17.9902 89.0055 17.9657 89.0011 17.95C88.9653 17.8205 88.9296 17.6932 88.8827 17.5703ZM90.3903 17.3001C90.3769 17.2085 90.3277 17.1214 90.3054 17.0276C90.2697 16.8824 90.2429 16.7372 90.2183 16.5921C90.2161 16.5742 90.2429 16.5407 90.263 16.534C90.2831 16.5273 90.3255 16.5385 90.3322 16.5541C90.4037 16.7127 90.4707 16.8757 90.5399 17.0343C90.5511 17.0388 90.5712 17.0455 90.5712 17.0432C90.627 16.9517 90.6829 16.8601 90.7298 16.7842C90.7476 16.6278 90.6337 16.5072 90.6873 16.3665C90.7298 16.4 90.7834 16.4246 90.8102 16.467C90.9241 16.6524 91.0112 16.8512 91.0536 17.0678C91.0827 17.2174 91.0961 17.3626 91.0603 17.51C91.038 17.6016 91.0179 17.6954 91.0112 17.7892C91 17.9255 91.0179 18.0595 91.0916 18.1801C91.4177 18.7116 91.746 19.241 92.1592 19.7122C92.1659 19.7212 92.1838 19.7212 92.1972 19.7256C92.2441 19.6787 92.2284 19.6229 92.2039 19.5782C92.0185 19.2432 91.9001 18.8836 91.8175 18.5106C91.7884 18.3789 91.7438 18.2471 91.6879 18.1265C91.5629 17.854 91.4691 17.5726 91.3953 17.2822C91.3797 17.2174 91.3596 17.1504 91.335 17.0879C91.0715 16.4313 90.942 15.7344 90.7499 15.0577C90.7387 15.0197 90.7208 14.9817 90.7052 14.9393C90.6628 14.9125 90.6181 14.8835 90.5712 14.8567C90.5087 14.8209 90.4394 14.8187 90.3769 14.8522C90.2049 14.9415 90.0664 15.0711 89.9503 15.2207C89.9123 15.2699 89.928 15.3302 89.9704 15.3681C90.0307 15.4217 90.1044 15.4597 90.1669 15.5111C90.3903 15.6964 90.5824 15.9019 90.6181 16.2101C90.4729 16.1208 90.3858 15.9488 90.1937 15.9176C90.1535 15.9109 90.1156 15.8528 90.0888 15.8126C90.0084 15.6875 89.9682 15.5379 89.8274 15.4329C89.7872 15.4619 89.7381 15.4843 89.7068 15.5222C89.5818 15.683 89.4634 15.8483 89.3406 16.0114C89.0614 16.3799 89.0212 16.7864 89.1753 17.2063C89.2534 17.4162 89.3294 17.6351 89.4991 17.8361C89.5103 17.7691 89.5282 17.7289 89.5192 17.6954C89.4813 17.5368 89.4344 17.3805 89.3919 17.2241C89.3562 17.0968 89.2825 16.9695 89.4031 16.8467C89.3942 16.7573 89.383 16.668 89.3718 16.5697C89.5996 16.6836 89.6242 16.6993 89.7135 16.8958C89.8207 17.1303 89.9079 17.3738 90.0106 17.6105C90.3568 18.4101 90.7275 19.1941 91.3261 19.844C91.5606 20.0986 91.8264 20.3019 92.1525 20.4225C92.2128 20.4448 92.282 20.4672 92.349 20.3867C92.1123 20.016 91.8554 19.6519 91.5472 19.3281C91.516 19.2946 91.4512 19.2789 91.402 19.2767C91.2792 19.2722 91.2077 19.1963 91.1363 19.1114C90.942 18.8769 90.8392 18.5977 90.7543 18.3096C90.732 18.2314 90.7052 18.1533 90.6963 18.0729C90.6739 17.8674 90.56 17.7244 90.3925 17.6105C90.3925 17.5123 90.4037 17.4051 90.3903 17.3001Z" fill="#B4F00A"/>
<path d="M85.9072 22.4931C85.9563 22.3926 86.0345 22.3167 86.135 22.2676C86.2333 22.2229 86.336 22.1849 86.4343 22.138C86.479 22.1157 86.5147 22.0866 86.5415 22.0487C86.6174 21.9995 86.6934 21.9459 86.7626 21.8879C86.8095 21.8588 86.8587 21.8298 86.9078 21.803C86.9636 21.8008 87.0172 21.803 87.0753 21.803C87.0753 21.8097 87.0753 21.8164 87.0753 21.8253C87.2294 21.8834 87.3835 21.9281 87.5242 21.9973C87.694 22.0799 87.8525 22.1872 88.0201 22.281C88.1139 22.3346 88.2121 22.3837 88.3104 22.4306C88.4936 22.5177 88.6812 22.5981 88.8643 22.6875C89.1725 22.8371 89.5053 22.9175 89.8381 22.9733C90.4836 23.0783 91.138 23.0828 91.7902 23.0515C91.98 23.0426 92.1676 23.0068 92.3552 22.9756C92.5071 22.9488 92.6545 22.9555 92.7885 23.0336C92.9516 23.1274 93.1146 23.1408 93.2978 23.1006C93.4541 23.0671 93.5926 23.1207 93.6797 23.286C93.6283 23.3776 93.5747 23.4714 93.5233 23.5652C93.4831 23.6367 93.4206 23.7037 93.4094 23.7796C93.3692 24.0164 93.2084 24.1571 93.0364 24.2933C92.9627 24.3514 92.8756 24.405 92.8243 24.4809C92.6925 24.6819 92.5071 24.8182 92.2949 24.912C92.0358 25.0259 91.8371 25.1956 91.6919 25.4391C91.5646 25.6513 91.3859 25.8233 91.1827 25.9617C91.0129 26.0779 90.8633 26.2119 90.7248 26.3638C90.6064 26.4933 90.4724 26.6139 90.325 26.7077C89.9118 26.969 89.521 27.2661 89.0877 27.4939C88.8353 27.6257 88.5874 27.7686 88.3796 27.9719C88.1764 28.1706 87.9352 28.289 87.6493 28.2778C87.6292 28.2577 87.6069 28.2421 87.5778 28.2354C87.3411 28.184 86.9927 28.3069 86.7916 28.1729C86.6487 28.0768 86.5236 27.9607 86.4008 27.8423C86.2668 27.5631 86.1305 27.2839 85.9965 27.0048C85.8111 26.6206 85.7151 26.2096 85.6615 25.792C85.6057 25.3609 85.5498 24.9299 85.4627 24.5033C85.4136 24.2598 85.4181 24.0164 85.4158 23.7729C85.4136 23.6099 85.4493 23.4491 85.523 23.2994C85.6548 23.0336 85.7776 22.7612 85.9072 22.4931ZM92.7193 24.003C92.8555 23.9583 92.9426 23.869 92.9761 23.726C92.9873 23.6791 92.9359 23.6143 92.889 23.6143C92.7081 23.6143 92.5987 23.735 92.6076 23.9203C92.6076 23.9717 92.6724 24.0186 92.7193 24.003ZM88.0357 23.3329C87.7275 23.1989 87.3969 23.1185 87.1244 22.9063C87.1043 22.8907 87.0753 22.884 87.0507 22.8728C86.9458 22.8282 86.8654 22.8639 86.8296 22.9733C86.7805 23.1185 86.8229 23.2034 86.9726 23.2436C87.1535 23.2927 87.3366 23.3396 87.522 23.3776C87.7074 23.4156 87.8928 23.4491 88.0781 23.4759C88.1541 23.487 88.2322 23.4759 88.3082 23.4736C88.2434 23.3821 88.1295 23.3731 88.0357 23.3329ZM87.2227 24.8606C87.2249 24.9008 87.2361 24.941 87.2495 24.979C87.2584 25.0036 87.2808 25.0214 87.3009 25.0505C87.3344 25.0549 87.3746 25.0661 87.4126 25.0616C87.8749 24.9924 88.3305 25.008 88.7772 25.1465C88.9425 25.1979 89.0988 25.1822 89.244 25.0907C89.2708 25.0728 89.282 25.0259 89.2887 24.9902C89.2909 24.979 89.2529 24.95 89.2306 24.9477C88.8263 24.9053 88.4333 24.8137 88.0402 24.7065C87.8458 24.6529 87.6404 24.644 87.4394 24.6306C87.2919 24.6216 87.2182 24.711 87.2227 24.8606ZM88.326 23.4803C88.3796 23.5518 88.4467 23.5652 88.5293 23.5183C88.4712 23.4468 88.3953 23.4781 88.326 23.4803ZM90.5015 23.7238C90.2759 23.7149 90.0503 23.6836 89.7957 23.659C89.8269 23.7126 89.8359 23.7573 89.8604 23.7662C89.9721 23.8087 90.0905 23.8399 90.2044 23.8824C90.6176 24.032 90.8208 24.0097 91.3122 23.7149C90.9816 23.7015 90.7404 23.7327 90.5015 23.7238ZM92.1431 23.8109C91.951 23.7707 91.7701 23.7662 91.6405 23.9605C91.5825 24.0476 91.4976 24.1169 91.4239 24.195C91.435 24.2152 91.444 24.2375 91.4551 24.2576C91.5043 24.2464 91.5557 24.2397 91.6026 24.2241C91.7656 24.166 91.9197 24.0767 92.1051 24.0856C92.1788 24.0901 92.2056 24.0074 92.2145 23.9382C92.2235 23.8779 92.2011 23.8243 92.1431 23.8109ZM90.0369 25.0594C90.1195 25.0505 90.1977 25.1353 90.1798 25.2157C90.1463 25.3743 90.1106 25.5329 90.0079 25.6669C89.9632 25.7272 89.8828 25.7741 89.8984 25.8702C89.9542 25.9148 90.0012 25.8791 90.0458 25.8523C90.1553 25.7853 90.2759 25.7451 90.3942 25.7853C90.5015 25.821 90.5796 25.7965 90.66 25.7384C90.7829 25.6535 90.9079 25.5709 91.0241 25.4815C91.0933 25.4279 91.0598 25.3118 90.9705 25.2895C90.8834 25.2694 90.794 25.2582 90.7025 25.2425C90.7181 25.209 90.7203 25.1912 90.7293 25.1867C90.9347 25.084 91.1425 24.9835 91.3502 24.883C91.6182 24.7534 91.8884 24.6261 92.1565 24.4943C92.1788 24.4832 92.2034 24.4586 92.2101 24.4363C92.219 24.4005 92.2257 24.3536 92.2101 24.3224C92.1944 24.2933 92.1475 24.2554 92.1185 24.2598C92.0537 24.2688 91.9867 24.2933 91.9264 24.3246C91.7924 24.3894 91.6517 24.4497 91.5289 24.5323C91.339 24.6618 91.1313 24.6976 90.9079 24.6909C90.7449 24.6864 90.5819 24.6886 90.4188 24.6886C90.1776 24.6864 89.9676 24.778 89.78 24.9209C89.7443 24.95 89.7264 25.0036 89.7019 25.046C89.8269 25.1264 89.9319 25.0706 90.0369 25.0594ZM89.6996 24.2755C89.4405 24.0298 88.9872 23.9427 88.3685 24.0208C88.8085 24.2219 89.2328 24.3045 89.6996 24.2755ZM89.4517 26.6228C89.2105 26.6005 89.0765 26.7211 88.9671 26.9646C89.2954 26.8238 89.2954 26.8239 89.4517 26.6228ZM88.364 27.2906C88.3886 27.2862 88.4199 27.2906 88.4355 27.275C88.4578 27.2527 88.4668 27.2192 88.4824 27.1901C88.4601 27.1901 88.4355 27.1834 88.4132 27.1901C88.3908 27.1968 88.3685 27.2147 88.3506 27.2303C88.3417 27.237 88.3327 27.2527 88.335 27.2638C88.3394 27.2772 88.3551 27.2839 88.364 27.2906ZM87.8123 27.0427C88.1898 26.739 88.2657 26.6496 88.3841 26.3772C88.7683 26.2096 89.2373 25.897 89.3713 25.7227C89.1703 25.6736 89.1681 25.6714 88.641 25.8233C88.4087 25.8903 88.1809 25.9684 87.9151 26.0511C87.8324 26.1248 87.8615 26.2789 87.7967 26.3928C87.7319 26.5089 87.6471 26.6139 87.5667 26.7278C87.6158 26.8685 87.7208 26.9512 87.8123 27.0427ZM86.9994 26.1002C87.0619 26.2029 87.1468 26.2878 87.2383 26.3504C87.4394 26.3347 87.4885 26.1337 87.6426 26.0935C87.627 25.9952 87.5644 26.0176 87.5198 26.0064C87.4796 25.9774 87.4416 25.9372 87.3947 25.9282C87.2629 25.9037 87.1267 25.9059 86.977 25.9506C86.9837 26.0042 86.9748 26.0622 86.9994 26.1002ZM86.6107 24.9902C86.6197 25.0549 86.6465 25.1197 86.6733 25.18C86.6822 25.1979 86.7179 25.2135 86.7425 25.2113C86.7648 25.209 86.8006 25.1867 86.8028 25.1711C86.8184 25.0371 86.8452 24.9008 86.8318 24.7691C86.8117 24.5747 86.8765 24.4251 87.0061 24.2911C87.053 24.242 87.1043 24.1995 87.187 24.1236C87.1043 24.0409 87.053 23.9762 86.9904 23.9293C86.8363 23.8176 86.7425 23.8511 86.6934 24.0253C86.604 24.3402 86.5661 24.6618 86.6107 24.9902Z" fill="#B4F00A"/>
<path d="M94.1243 15.6982C94.1265 15.7004 94.1287 15.7026 94.1309 15.7048C94.1309 15.7091 94.1287 15.7135 94.1287 15.7178C94.1265 15.7156 94.1265 15.7135 94.1243 15.7113C94.1243 15.7069 94.1243 15.7026 94.1243 15.6982Z" fill="#B4F00A"/>
<path d="M94.0634 15.624C94.0634 15.6129 94.0701 15.6039 94.0746 15.5928C94.088 15.6062 94.1081 15.6196 94.1148 15.6352C94.1215 15.6553 94.1237 15.6776 94.126 15.6977C94.1081 15.6843 94.0902 15.6732 94.0746 15.6575C94.0657 15.6508 94.0612 15.6352 94.0634 15.624Z" fill="#B4F00A"/>
<path d="M94.1313 15.7185C94.1871 15.79 94.1983 15.8748 94.196 15.962C94.1156 15.8949 94.1179 15.8078 94.1313 15.7185Z" fill="#B4F00A"/>
<path d="M94.1929 15.9619C94.1953 15.9644 94.1978 15.9668 94.2002 15.9692L94.1929 15.9766C94.1929 15.9692 94.1929 15.9644 94.1929 15.9619Z" fill="#B4F00A"/>
</svg>
