<svg enable-background="new 281 -30 467.8 94.1" viewBox="281 -30 467.8 94.1" xmlns="http://www.w3.org/2000/svg"><g fill="#111"><path d="m281 41.9h20v20h-20z"/><path d="m508-10v10h1.1c2.6-4 5.8-7.3 9.9-9.3 4-1.9 8.2-2.9 12.4-2.9 5.4 0 9.7.7 13.2 2.1 3.4 1.5 6.1 3.4 8.1 6s2.9 5.7 3.7 9.4.7 7.8.7 12.3v44.4h-20v-40.7c0-6-.5-10.4-2.3-13.4-1.9-2.9-5-4.4-9.8-4.4-5.5 0-9.6 1.6-12 4.8s-3.9 8.5-3.9 15.9v37.8h-20v-72z"/><path d="m613-10v13h-15v35.9c0 3.4.8 5.6 2 6.7 1.1 1.1 3.5 1.7 6.9 1.7 1.1 0 2.2 0 3.2-.1s1.9-.2 2.9-.4v15.4c-2 .3-3.5.5-5.5.5-2.1.1-4 .2-6 .2-3.1 0-6-.2-8.8-.6s-5.2-1.2-7.3-2.4-4-2.9-5.3-5.2c-1.2-2.2-2.1-5.2-2.1-8.8v-42.9h-12v-13h12v-15l20-5v20z"/><path d="m641-10v13h1.1c.9-2 2.2-4.2 3.8-6.2 1.6-1.9 3.4-3.5 5.5-4.8 2-1.4 4.3-2.4 6.6-3.1s4.5-1.1 7-1.1c1.3 0 2 .3 4 .7v18.5c-1-.2-1.7-.4-3.1-.5-1.3-.1-2.4-.2-3.6-.2-3.7 0-6.7.6-9.2 1.8s-4.5 2.9-6.1 5c-1.5 2.1-3 4.6-3.7 7.3-.7 2.8-1.4 5.8-1.4 9.1v32.5h-20v-72z"/><path d="m676.1 10.3c1.8-4.7 4.3-8.7 7.6-12.1 3.3-3.3 7.2-5.9 11.8-7.7s9.8-2.7 15.5-2.7 10.9.9 15.6 2.7 8.6 4.4 11.9 7.7 5.8 7.3 7.6 12.1c1.8 4.7 2.7 10 2.7 15.8s-.9 11-2.7 15.7-4.3 8.7-7.6 12-7.2 5.8-11.9 7.6c-4.6 1.8-9.8 2.7-15.6 2.7-5.7 0-10.9-.9-15.5-2.7s-8.6-4.3-11.8-7.6c-3.3-3.3-5.8-7.3-7.6-12s-2.7-9.9-2.7-15.7c0-5.9.9-11.1 2.7-15.8m18.1 24.2c.6 2.8 1.5 5.2 2.9 7.4s3.2 3.9 5.4 5.3c2.2 1.3 5.1 1.9 8.4 1.9 3.4 0 6.2-.6 8.5-1.9s4.1-3.1 5.5-5.3 2.3-4.7 2.9-7.4c.6-2.8.8-5.6.8-8.5s-.3-5.7-.8-8.6c-.6-2.8-1.5-5.3-2.9-7.4-1.4-2.2-3.2-3.9-5.5-5.3s-5.1-2-8.5-2-6.2.7-8.4 2c-2.3 1.4-4.1 3.1-5.4 5.3-1.4 2.1-2.3 4.6-2.9 7.4-.5 2.8-.8 5.7-.8 8.6s.3 5.7.8 8.5"/><path d="m411.7.3c2.1-3.1 4.7-5.6 7.9-7.4 3.2-1.9 6.8-3.2 10.8-4s8-1.2 12-1.2c3.7 0 7.4.3 11.1.8 3.8.5 7.2 1.5 10.3 3s5.4 3.6 7.4 6.2c2 2.7 2.7 6.2 2.7 10.6v37.7c0 3.3.4 6.3.8 9.3s1.2 4.7 2.2 6.7h-20.3c-.4-1-.7-2.2-.9-3.4s-.4-2.3-.5-3.5c-3.2 3.3-7 5.6-11.3 6.9s-8.7 2-13.2 2c-3.5 0-6.7-.4-9.7-1.3-3-.8-5.6-2.1-7.9-3.9s-4-4-5.3-6.7-1.9-5.9-1.9-9.7c0-4.1.7-7.5 2.2-10.2s3.3-4.8 5.6-6.4 4.9-2.8 7.9-3.6 5.9-1.4 9-1.9c3-.5 6-.8 8.9-1.1s5.5-.7 7.7-1.3c2.3-.6 4-1.4 5.3-2.4 1.3-1.1 1.9-2.6 1.8-4.7 0-2.2-.3-3.9-1.1-5.1-.7-1.3-1.6-2.2-2.8-2.9s-2.5-1.2-4.1-1.4c-1.5-.2-3.2-.3-5-.3-3.9 0-7 .9-9.3 2.5-2.2 1.7-3.6 4.4-3.9 8.4h-20c.4-4 1.6-8.6 3.6-11.7m39.3 28.1c-1.3.4-2.5.8-4 1.1s-2.9.5-4.5.7-3.2.4-4.8.7c-1.5.3-3 .7-4.4 1.1-1.5.5-2.7 1.1-3.8 1.9s-1.9 1.8-2.6 3-1 2.8-1 4.6.3 3.3 1 4.5 1.6 2.2 2.7 2.9 2.4 1.2 3.9 1.5 3 .4 4.6.4c3.9 0 7-.7 9.2-2s3.8-2.9 4.8-4.7 1.5-3.7 1.7-5.5c.2-1.9.1-3.4.1-4.5v-7.4c.1.7-1.6 1.3-2.9 1.7"/><path d="m300-10v10h.2c2.6-4 5.8-6.8 9.5-8.8s8-3.1 12.8-3.1c4.6 0 8.8.8 12.6 2.6s6.7 4.9 8.7 9.3c2.1-3.2 5.1-6 8.8-8.4s8.1-3.6 13.2-3.6c3.8 0 7.4.5 10.7 1.4s6.1 2.4 8.5 4.5c2.3 2 4 4.7 5.3 8s1.8 7.3 1.8 11.9v48.2h-20.1v-40.8c0-2.4.1-4.7-.1-6.8s-.6-4-1.5-5.6c-.8-1.6-2.1-2.8-3.7-3.8-1.6-.9-3.9-1.4-6.7-1.4s-5.1.5-6.8 1.6-3.1 2.5-4.1 4.2-1.5 3.7-1.8 5.9c-.3 2.1-.3 4.3-.3 6.6v40.1h-20v-40.4c0-2.1-.2-4.3-.3-6.3-.1-2.1-.6-4-1.3-5.8s-1.9-3.2-3.6-4.3c-1.6-1.1-4.1-1.6-7.3-1.6-.9 0-2.2.2-3.7.6s-3.1 1.2-4.5 2.4-2.7 2.8-3.7 5-1.6 5-1.6 8.6v16.8h-20v-47z"/></g></svg>