<svg viewBox="0 0 95 22" xmlns="http://www.w3.org/2000/svg" class="v-logo main-logo" data-v-76dc6814=""><path d="M38.761 4.92a4.084 4.084 0 012.42 2.385c.24.608.353 1.274.342 1.929v6.498h-2.796V9.748c0-.806-.193-1.426-.568-1.858-.375-.433-.954-.655-1.739-.655a2.234 2.234 0 00-1.772.818c-.478.55-.705 1.274-.705 2.186v5.482h-2.807V9.748c0-.806-.193-1.426-.568-1.858-.375-.433-.954-.655-1.738-.655a2.234 2.234 0 00-1.773.818c-.477.55-.705 1.274-.705 2.186v5.482h-2.795V4.897h2.795v.819a3.683 3.683 0 011.239-.784 4.633 4.633 0 011.773-.327 5.948 5.948 0 012.216.386c.625.257 1.17.69 1.556 1.25.41-.502.91-.9 1.489-1.168.636-.316 1.398-.48 2.284-.48.625 0 1.261.117 1.852.328zm12.091.118A5.442 5.442 0 0152.67 6.23c.512.514.92 1.134 1.194 1.812.295.724.443 1.496.431 2.279a5.706 5.706 0 01-.431 2.267 5.607 5.607 0 01-1.194 1.8 5.442 5.442 0 01-1.818 1.193 6.227 6.227 0 01-4.545 0 5.442 5.442 0 01-1.818-1.193 5.427 5.427 0 01-1.194-1.8 5.745 5.745 0 01-.431-2.267 5.802 5.802 0 01.431-2.28A5.476 5.476 0 0144.49 6.23a5.442 5.442 0 011.818-1.192 6.227 6.227 0 014.545 0zM47.42 7.48c-.34.151-.659.362-.931.63a3 3 0 00-.625.97 3.63 3.63 0 00-.228 1.251c0 .421.069.842.228 1.24.136.362.352.689.625.958a2.939 2.939 0 004.17 0 2.83 2.83 0 00.625-.959c.148-.397.227-.818.227-1.239 0-.432-.068-.853-.227-1.25a2.823 2.823 0 00-.625-.97 2.977 2.977 0 00-3.239-.631zm11.5 8.264L54.057 4.91h3.08l3.147 6.978 3.148-6.99h2.977l-4.864 10.835zm7.728-7.55a5.72 5.72 0 011.057-1.824 5.184 5.184 0 011.693-1.274 5.266 5.266 0 012.272-.48c.58 0 1.17.094 1.716.293.512.175.978.456 1.364.842v-.842h2.795v10.835H74.75v-.818a3.383 3.383 0 01-1.364.83 5.414 5.414 0 01-3.988-.199 5.077 5.077 0 01-1.693-1.262 5.542 5.542 0 01-1.057-1.812 6.46 6.46 0 010-4.29zm2.636 3.307c.136.363.33.69.58.982.25.28.545.514.886.666.364.164.75.246 1.136.246.375 0 .739-.07 1.091-.199a2.87 2.87 0 00.955-.573c.295-.257.523-.584.682-.946a3.21 3.21 0 00.25-1.345 3.362 3.362 0 00-.25-1.344 2.984 2.984 0 00-.682-.958 2.79 2.79 0 00-.955-.585 3.15 3.15 0 00-1.08-.198 2.54 2.54 0 00-1.136.257c-.34.164-.647.397-.897.678-.773.912-1 2.197-.58 3.32zm14.136 4.243L78.557 4.91h3.08l3.147 6.978 3.148-6.99h2.977l-4.864 10.835zM94.943.012v3.132h-3.057V.012h3.057zm-.136 15.732H92.01V4.897h2.796v10.847z"></path><ellipse cx="9.114" cy="4.652" rx="3.318" ry="3.413"></ellipse><ellipse cx="9.114" cy="16.434" rx="3.318" ry="3.413"></ellipse><ellipse cx="14.841" cy="10.543" rx="3.318" ry="3.413"></ellipse><ellipse cx="3.386" cy="10.543" rx="3.318" ry="3.413"></ellipse></svg>