<svg width="500" height="162" viewBox="0 0 500 162" fill="none" xmlns="http://www.w3.org/2000/svg">
<path d="M0 160.2V0H26.5517L95.5347 120.787V0H115.977V160.2H94.5825L20.2436 30.6668V160.2H0Z" fill="#112E8C"/>
<path d="M198.032 160.2V0H219.436V160.2H198.032Z" fill="#112E8C"/>
<path d="M258.356 160.2V41.9603H277.856V54.3186C287.775 44.7364 298.1 40.4678 310.329 40.4678C331.555 40.4678 345.877 55.1643 345.877 80.9555V160.2H324.85V86.06C324.85 67.3136 315.308 59.8609 304.021 59.8609C294.46 59.8609 286.426 64.3286 278.977 70.9355V160.2H258.356Z" fill="#112E8C"/>
<path d="M452.074 158.488C443.561 160.898 434.743 162.044 425.899 161.891C392.464 161.891 373.54 142.08 373.54 105.453C373.54 63.4827 394.557 40.8956 428.766 40.8956C436.561 40.7753 444.337 41.7056 451.886 43.6618V62.627C444.654 60.6855 437.204 59.6823 429.718 59.6419C406.399 59.6419 394.368 73.0549 394.368 102.428C394.368 130.757 405.636 143.553 432.207 143.553C438.887 143.519 445.542 142.728 452.044 141.194L452.074 158.488Z" fill="#112E8C"/>
<path d="M500 130.15V160.2H472.853V130.15H500Z" fill="#112E8C"/>
</svg>
