<?xml version="1.0" encoding="UTF-8"?>
<svg width="88px" height="11px" viewBox="0 0 88 11" version="1.1" xmlns="http://www.w3.org/2000/svg" xmlns:xlink="http://www.w3.org/1999/xlink">
    <!-- Generator: Sketch 64 (93537) - https://sketch.com -->
    <title>Shape</title>
    <desc>Created with Sketch.</desc>
    <g id="Industries" stroke="none" stroke-width="1" fill="none" fill-rule="evenodd">
        <g id="Pricing/v5" transform="translate(-100.000000, -28.000000)" fill="#3E40DB" fill-rule="nonzero">
            <g id="Group-4" transform="translate(100.000000, 28.000000)">
                <g id="Group-3">
                    <path d="M2.19199802,6.43730515 L2.19199802,10.8173407 L0.0945213836,10.8173407 L0.0945213836,0.274518329 L0.318679153,0.274518329 L5.81054552,5.22319005 C6.3389175,5.69961493 7.09144732,6.65246476 7.09144732,6.65246476 C7.09144732,6.65246476 6.94734586,5.46908676 6.94734586,4.7467651 L6.94734586,0.366729582 L9.0448225,0.366729582 L9.0448225,10.909552 L8.82066466,10.909552 L3.32879836,5.9608802 C2.78486616,5.46949428 2.0331322,4.53315875 2.03188682,4.53160743 C2.03217514,4.53369258 2.19199802,5.68492831 2.19199802,6.43730515 Z M11.6070617,10.8173407 L16.3944321,0.274518329 L16.5865674,0.274518329 L21.5660728,10.8173407 L19.212416,10.8173407 L18.7000553,9.63396267 L14.2809442,9.63396267 L13.7685835,10.8173407 L11.6070617,10.8173407 Z M15.8180263,6.02235441 L14.2809442,9.63396267 L18.7000553,9.63396267 L17.1149394,6.02235441 C16.7947975,5.28485663 16.4586526,4.14798508 16.4584772,4.14739205 C16.4582959,4.14803588 16.1381611,5.28487313 15.8180263,6.02235441 Z M28.4353446,10.9556576 C25.2971352,10.9556576 22.7993766,8.68111284 22.7993766,5.59203512 C22.7993766,2.50295741 25.2971352,0.228412671 28.4353446,0.228412671 C31.5735541,0.228412671 34.071312,2.50295741 34.071312,5.59203512 C34.071312,8.68111284 31.5735541,10.9556576 28.4353446,10.9556576 Z M28.4353446,9.03458936 C30.4207421,9.03458936 31.7656894,7.54384044 31.7656894,5.59203512 C31.7656894,3.64022981 30.4207421,2.14948088 28.4353446,2.14948088 C26.4499465,2.14948088 25.1049999,3.64022981 25.1049999,5.59203512 C25.1049999,7.54384044 26.4499465,9.03458936 28.4353446,9.03458936 Z M37.4181037,10.8173407 L37.4181037,0.366729582 L38.5709157,0.366729582 L38.5709157,9.83375373 L43.7105341,9.83375373 L43.7105341,10.8173407 L37.4181037,10.8173407 Z M51.1882337,10.940289 C48.0980583,10.940289 45.6002997,8.74258699 45.6002997,5.59203512 C45.6002997,2.44148326 48.0980583,0.243781224 51.1882337,0.243781224 C54.2944207,0.243781224 56.7921786,2.44148326 56.7921786,5.59203512 C56.7921786,8.74258699 54.2944207,10.940289 51.1882337,10.940289 Z M51.1882337,9.9413336 C53.7340256,9.9413336 55.5913333,8.08173954 55.5913333,5.59203512 C55.5913333,3.10233071 53.7340256,1.24273671 51.1882337,1.24273671 C48.6584527,1.24273671 46.801145,3.10233071 46.801145,5.59203512 C46.801145,8.08173954 48.6584527,9.9413336 51.1882337,9.9413336 Z M65.3106113,10.940289 C62.0603229,10.940289 59.6105983,8.74258699 59.6105983,5.59203512 C59.6105983,2.44148326 62.044312,0.243781224 65.2145439,0.243781224 C66.7836483,0.243781224 68.1125841,0.674100512 69.0092151,1.59621324 L68.2246629,2.34927201 C67.5201672,1.64231889 66.5594906,1.24273671 65.2145439,1.24273671 C62.6527405,1.24273671 60.8114436,3.10233071 60.8114436,5.59203512 C60.8114436,8.08173954 62.6687514,9.9413336 65.3106113,9.9413336 C66.7996599,9.9413336 67.8564038,9.51101431 68.5288772,8.98848377 L68.5288772,6.83688733 L65.2946004,6.83688733 L65.2946004,5.85330039 L69.6176436,5.85330039 L69.6176436,9.49564576 C68.8170798,10.2487045 67.3600543,10.940289 65.3106113,10.940289 Z M73.2686495,10.8173407 L73.2686495,0.366729582 L74.4374723,0.366729582 L74.4374723,10.8173407 L73.2686495,10.8173407 Z M83.5162994,10.940289 C80.4261239,10.940289 77.9283654,8.74258699 77.9283654,5.59203512 C77.9283654,2.44148326 80.4261239,0.243781224 83.5162994,0.243781224 C85.437652,0.243781224 86.910689,0.935365782 87.8393426,2.27242924 L86.9587224,2.8871711 C86.2542266,1.88821561 85.0854038,1.24273671 83.5162994,1.24273671 C80.9705068,1.24273671 79.1292106,3.10233071 79.1292106,5.59203512 C79.1292106,8.08173954 80.9705068,9.9413336 83.5162994,9.9413336 C85.1014153,9.9413336 86.3182715,9.28048608 87.1028244,8.18931934 L87.9994555,8.78869265 C87.0387788,10.1411247 85.4696744,10.940289 83.5162994,10.940289 Z" id="Shape"></path>
                </g>
            </g>
        </g>
    </g>
</svg>