<svg enable-background="new 0 0 672.8 173.6" viewBox="0 0 672.8 173.6" xmlns="http://www.w3.org/2000/svg"><g fill="#00a8ff"><path d="m207.7 80c3.5-8.2 10-14.7 18.2-18.1 8.5-3.5 18.1-3.5 26.6 0 4.1 1.7 7.7 4.2 10.9 7.3 3.1 3.1 5.7 6.8 7.4 10.8 1.8 4.2 2.7 8.7 2.7 13.3v34.2h-13.5v-34.2c0-2.7-.5-5.5-1.6-8-3.3-7.6-10.8-12.6-19.2-12.5-2.7 0-5.5.5-8 1.6-2.5 1-4.7 2.5-6.6 4.4s-3.4 4.1-4.4 6.5c-1.1 2.5-1.6 5.3-1.6 8v34.2h-13.6v-34.2c0-4.6.9-9.1 2.7-13.3z"/><path d="m333.5 103.3 9.6 9.6-4.7 4.7c-13.3 13.4-34.9 13.4-48.2.1 0 0-.1-.1-.1-.1-3.3-3.2-5.8-7.1-7.5-11.3-1.6-4.1-2.4-8.5-2.4-12.8 0-4.4.8-8.7 2.4-12.8 1.7-4.2 4.2-8.1 7.4-11.3 3.2-3.3 7.1-5.8 11.3-7.5 8.2-3.3 17.5-3.3 25.7 0 4.3 1.7 8.1 4.3 11.3 7.5l4.8 4.7-37.8 37.9c7.9 3.9 17.4 2.3 23.6-4zm-33.9-24.5c-6.3 6.2-7.9 15.7-4 23.6l5.5-5.6 8-7.9c2.8-2.8 5.5-5.5 8.1-8s4.6-4.5 6-5.9c-3.8-1.9-8.1-2.6-12.2-2-4.4.6-8.4 2.7-11.4 5.8z"/><path d="m379.7 59.1c4.6 0 9.1.9 13.3 2.7 8.1 3.5 14.6 10 18.1 18.1 1.8 4.2 2.7 8.7 2.7 13.3v34.2h-34.1c-4.5 0-9-.9-13.2-2.7-8.2-3.5-14.8-10.1-18.3-18.3-3.6-8.5-3.6-18.1 0-26.5 1.7-4 4.2-7.7 7.4-10.8s6.9-5.6 10.9-7.3c4.1-1.8 8.6-2.7 13.2-2.7zm20.5 54.7v-20.7c0-2.7-.5-5.5-1.6-8-2.1-5-6-8.9-11-11-2.5-1.1-5.3-1.6-8-1.6-2.8 0-5.5.5-8.1 1.6-5 2.1-8.9 6-11 11-1.1 2.5-1.6 5.3-1.6 8-.1 11.4 9.1 20.6 20.5 20.7h.2z"/><path d="m461 59.1v13.5h-6.8c-2.7 0-5.5.5-8 1.6-5 2.1-8.9 6-11 11-1.1 2.5-1.6 5.3-1.6 8v34.2h-13.7v-34.3c0-4.6.9-9.1 2.7-13.3 1.7-4 4.2-7.7 7.4-10.8s6.9-5.6 11-7.3c4.2-1.8 8.7-2.7 13.2-2.7h6.8z"/><path d="m526.7 80.1c-1.7-4.1-4.2-7.8-7.3-10.9-9.8-9.8-24.7-12.8-37.5-7.4-8.2 3.5-14.8 10.1-18.3 18.3-1.8 4.2-2.7 8.7-2.7 13.2 0 1.1.1 2.2.2 3.3v45.9h13.2v-22.2c2.3 1.8 4.9 3.3 7.6 4.5 8.5 3.5 18.1 3.5 26.6 0 8.2-3.4 14.7-9.9 18.2-18.1 3.6-8.5 3.6-18.1 0-26.6zm-12.3 21.2c-1 2.4-2.5 4.7-4.4 6.5-1.9 1.9-4.2 3.4-6.7 4.4-5.2 2.1-11 2.1-16.2 0-2.5-1-4.7-2.5-6.6-4.4s-3.4-4.1-4.4-6.5c-1.1-2.5-1.6-5.3-1.6-8 0-11.4 9.2-20.7 20.6-20.7h.2c2.8 0 5.5.5 8.1 1.6 7.6 3.2 12.7 10.8 12.6 19.1 0 2.8-.5 5.5-1.6 8z"/><path d="m601.2 93.3c0 4.6-.9 9.1-2.7 13.3-3.5 8.2-10 14.7-18.2 18.1-8.5 3.5-18.1 3.5-26.6 0-4.1-1.7-7.8-4.2-10.9-7.3s-5.7-6.7-7.4-10.8c-3.6-8.5-3.6-18 0-26.5 3.5-8.2 10-14.8 18.3-18.3 12.8-5.4 27.7-2.5 37.5 7.4 3.1 3.2 5.6 6.9 7.3 10.9 1.8 4.2 2.7 8.7 2.7 13.2zm-13.4 0c.1-8.4-4.9-15.9-12.7-19.1-5.2-2.1-11-2.1-16.2 0-2.5 1-4.7 2.5-6.7 4.4-3.9 3.9-6 9.2-6 14.7 0 2.7.5 5.5 1.6 8 1 2.4 2.6 4.7 4.4 6.5 1.9 1.9 4.2 3.4 6.7 4.4 5.2 2.1 11 2.1 16.2 0 5-2.1 9-6 11.1-11 1.1-2.4 1.6-5.1 1.6-7.9z"/><path d="m672.8 44.3h-13.2v22c-2.3-1.8-4.9-3.4-7.6-4.5-8.5-3.5-18.1-3.5-26.6 0-8.2 3.5-14.8 10.1-18.3 18.3-3.6 8.5-3.6 18 0 26.5 1.7 4 4.3 7.7 7.4 10.8s6.8 5.6 10.9 7.3c8.5 3.5 18.1 3.5 26.6 0 8.2-3.4 14.7-9.9 18.2-18.1 1.8-4.2 2.7-8.7 2.7-13.3 0-.5 0-1-.1-1.5h.1zm-14.9 57c-1 2.4-2.5 4.7-4.4 6.5-1.9 1.9-4.2 3.4-6.7 4.4-5.2 2.1-11 2.1-16.2 0-2.5-1-4.7-2.5-6.7-4.4-1.9-1.9-3.4-4.1-4.4-6.5-1.1-2.5-1.6-5.3-1.6-8 0-11.4 9.2-20.7 20.6-20.7h.2c2.8 0 5.5.5 8.1 1.6 7.7 3.2 12.7 10.7 12.7 19.1 0 2.8-.5 5.5-1.6 8z"/><path d="m86.8 0c-47.9 0-86.8 38.9-86.8 86.8s38.9 86.8 86.8 86.8 86.8-38.9 86.8-86.8c-.1-47.9-38.9-86.7-86.8-86.8z"/></g><path d="m55.5 50.2 3.7-7.5c2.5-5.1 7.4-8 14.4-8h38.8c1.8-.1 3.7.4 5.2 1.5 1.1.8 1.7 2.1 1.7 3.5 0 1-.3 2.1-.7 3h-44.8c-2.8 0-4.9.2-7.2 4.5l-1.5 3-28.1 58.4h-9.8z" fill="#fff"/><path d="m26.8 122.7c-1.1-.8-1.7-2.1-1.7-3.5 0-1.1.3-2.1.8-3.1h11.8c.1 0 .2.1.3.1h50.7c2.8 0 4.9-.2 7.2-4.5l1.5-3 14.8-30.7.1-.3 1.6-3.4 4.8-10.1h9.8l-24.3 50.3c-.2.3-.3.7-.6 1l-.2.5c-2.5 5.1-7.4 8-14.4 8h-57c-1.9.3-3.7-.2-5.2-1.3z" fill="#fff"/><path d="m114.6 129.3c-.2.3-.4.7-.6 1l-.2.5c-2.5 5.1-7.4 8-14.4 8h-38.8c-1.8.1-3.7-.4-5.2-1.5-1.1-.8-1.7-2.1-1.7-3.5 0-1.1.3-2.1.8-3.1h11.8c.1 0 .2.1.3.1h33c2.5 0 4.5-.4 6.7-4.4l1.5-3 28.2-58.7h9.8z" fill="#fff"/><path d="m147.7 56.6h-61.8c-3.2 0-5.3.7-7.3 4.1l-17.7 36.7-5.7 11.5h-9.6l25.2-52.2c2.5-5.1 7.4-8 14.4-8h56.4c1.8-.1 3.7.4 5.2 1.5 1.1.8 1.7 2.1 1.7 3.5-.1.9-.4 2-.8 2.9z" fill="#fff"/></svg>