<svg id="Layer_1" data-name="Layer 1" xmlns="http://www.w3.org/2000/svg" xmlns:xlink="http://www.w3.org/1999/xlink" viewBox="0 0 200 150"><defs><style>.cls-1{fill:none;}.cls-2{fill:#191818;}.cls-3{fill:#3557a5;}.cls-4{fill:#243b7c;}.cls-5{fill:#fff;}.cls-6{fill:#f1f1f2;}.cls-7{clip-path:url(#clip-path);}</style><clipPath id="clip-path"><path class="cls-1" d="M74.53,70.86l20,11.55a11,11,0,0,0,10.94,0l20-11.55a10.92,10.92,0,0,0,5.46-9.46V38.3a10.92,10.92,0,0,0-5.46-9.46l-20-11.55a11,11,0,0,0-10.94,0l-20,11.55a10.92,10.92,0,0,0-5.46,9.46V61.4A10.92,10.92,0,0,0,74.53,70.86Z"/></clipPath></defs><title>FN_200x150px</title><path d="M136.19,149.93l.16-1.16h1.22l-.16,1.16Z"/><path d="M143,148.92a8.75,8.75,0,0,0,1.15-.06,2.05,2.05,0,0,0,.65-.18.73.73,0,0,0,.33-.32,2.6,2.6,0,0,0,.15-.47h1.35a5.33,5.33,0,0,1-.15.68,2.21,2.21,0,0,1-.24.54,1.31,1.31,0,0,1-.41.4,2.05,2.05,0,0,1-.65.28,6.75,6.75,0,0,1-1,.16c-.38,0-.83.05-1.36.05a14.55,14.55,0,0,1-1.64-.08,3,3,0,0,1-1-.29,1.11,1.11,0,0,1-.53-.54,2.09,2.09,0,0,1-.15-.85q0-.24,0-.54c0-.2,0-.41.08-.63a10.09,10.09,0,0,1,.19-1,2.88,2.88,0,0,1,.28-.77,1.9,1.9,0,0,1,.46-.55,2.08,2.08,0,0,1,.7-.34,4.46,4.46,0,0,1,1-.18c.39,0,.87-.06,1.41-.06a14.68,14.68,0,0,1,1.66.08,3.21,3.21,0,0,1,1,.25,1,1,0,0,1,.48.44,1.56,1.56,0,0,1,.12.64,2.62,2.62,0,0,1,0,.27l0,.31h-1.35a1.32,1.32,0,0,0,0-.41.41.41,0,0,0-.24-.28,1.79,1.79,0,0,0-.61-.15,8.58,8.58,0,0,0-1.14-.05,8.39,8.39,0,0,0-1.27.07,1.47,1.47,0,0,0-.7.27,1.07,1.07,0,0,0-.32.56,8.16,8.16,0,0,0-.18.95q0,.28-.06.51a3,3,0,0,0,0,.41,1,1,0,0,0,.09.46.63.63,0,0,0,.31.29,1.83,1.83,0,0,0,.62.14A9.7,9.7,0,0,0,143,148.92Z"/><path d="M151.91,150a16.79,16.79,0,0,1-1.74-.07,3.44,3.44,0,0,1-1.08-.25,1.07,1.07,0,0,1-.56-.5,2,2,0,0,1-.15-.83c0-.18,0-.37,0-.58s.06-.44.09-.7.12-.76.19-1.06a3,3,0,0,1,.27-.79,1.61,1.61,0,0,1,.46-.54,2.15,2.15,0,0,1,.73-.33,4.84,4.84,0,0,1,1.07-.18c.43,0,.93,0,1.52,0s1.28,0,1.73.07a3.55,3.55,0,0,1,1.08.26,1.08,1.08,0,0,1,.56.53,2.06,2.06,0,0,1,.15.85q0,.25,0,.57c0,.2,0,.43-.08.67-.06.41-.12.77-.19,1.07a3,3,0,0,1-.28.78,1.76,1.76,0,0,1-.47.54,2.18,2.18,0,0,1-.72.33,5.78,5.78,0,0,1-1.07.16C153,150,152.49,150,151.91,150Zm.15-1.06a10.21,10.21,0,0,0,1.25-.07,1.89,1.89,0,0,0,.76-.24.9.9,0,0,0,.4-.44,2.78,2.78,0,0,0,.19-.71c0-.25.06-.45.08-.6s0-.27,0-.37,0-.15,0-.2,0-.08,0-.11a1,1,0,0,0-.11-.49.62.62,0,0,0-.35-.3,2.19,2.19,0,0,0-.68-.16,10.67,10.67,0,0,0-1.09-.05,8.74,8.74,0,0,0-1.27.07,2,2,0,0,0-.76.22.92.92,0,0,0-.4.45,3.37,3.37,0,0,0-.17.71c0,.25-.07.45-.09.61s0,.27-.05.36,0,.16,0,.2v.12a1,1,0,0,0,.1.48.68.68,0,0,0,.35.31,2.84,2.84,0,0,0,.68.16A10.74,10.74,0,0,0,152.06,148.94Z"/><path d="M165.36,149.93l.36-2.61c0-.21.06-.41.09-.59s.05-.33.07-.48,0-.28.06-.4l.06-.35-.48.66-.65.88-2.13,2.89h-1.38l-1.23-2.86-.2-.45c-.05-.13-.11-.26-.16-.38a2.75,2.75,0,0,1-.15-.36l-.15-.38c0,.15,0,.29-.05.42s0,.27,0,.41,0,.29-.06.45,0,.34-.07.55l-.37,2.6h-1.32l.8-5.72h2l1.92,4.53,3.29-4.53h1.94l-.8,5.72Z"/><path d="M30.27,149.93l-2.58-3.05c-.27-.32-.5-.59-.69-.83l-.54-.67c0,.15,0,.29-.05.43s0,.29-.05.46,0,.33-.07.52-.05.41-.09.66l-.35,2.48H24.53l.8-5.72H27.2l2.35,2.84.44.53c.12.15.24.28.33.41l.27.32.22.29,0-.32c0-.12,0-.25.05-.39s0-.31.07-.5.06-.42.09-.68l.35-2.5h1.36l-.8,5.72Z"/><path d="M33.85,149.93l.8-5.72h6.11l-.16,1.17H35.83l-.14,1h4.69l-.16,1.08H35.53l-.18,1.31h4.8L40,149.93Z"/><path d="M43.89,149.93l.64-4.58H42.1l.15-1.14h6.3l-.16,1.14H46l-.64,4.58Z"/><path d="M51.38,149.93l.64-4.58H49.58l.16-1.14H56l-.16,1.14H53.44l-.65,4.58Z"/><path d="M56.84,149.93l.8-5.72h1.42l-.8,5.72Z"/><path d="M63.9,148.92a8.75,8.75,0,0,0,1.15-.06,2.05,2.05,0,0,0,.65-.18.73.73,0,0,0,.33-.32,2.6,2.6,0,0,0,.15-.47h1.35a5.33,5.33,0,0,1-.15.68,2.21,2.21,0,0,1-.24.54,1.31,1.31,0,0,1-.41.4,2.05,2.05,0,0,1-.65.28,6.75,6.75,0,0,1-1,.16c-.38,0-.83.05-1.36.05a14.55,14.55,0,0,1-1.64-.08,3,3,0,0,1-1-.29,1.11,1.11,0,0,1-.53-.54,2.09,2.09,0,0,1-.15-.85q0-.24,0-.54c0-.2,0-.41.08-.63a10.09,10.09,0,0,1,.19-1,2.88,2.88,0,0,1,.28-.77,1.9,1.9,0,0,1,.46-.55,2.08,2.08,0,0,1,.7-.34,4.46,4.46,0,0,1,1-.18c.39,0,.87-.06,1.41-.06a14.68,14.68,0,0,1,1.66.08,3.21,3.21,0,0,1,1,.25,1,1,0,0,1,.48.44,1.56,1.56,0,0,1,.12.64,2.62,2.62,0,0,1,0,.27l0,.31H66.43a1.32,1.32,0,0,0,0-.41.41.41,0,0,0-.24-.28,1.79,1.79,0,0,0-.61-.15,8.58,8.58,0,0,0-1.14-.05,8.39,8.39,0,0,0-1.27.07,1.47,1.47,0,0,0-.7.27,1.07,1.07,0,0,0-.32.56,8.16,8.16,0,0,0-.18.95q0,.28-.06.51a3,3,0,0,0,0,.41,1,1,0,0,0,.09.46.63.63,0,0,0,.31.29,1.83,1.83,0,0,0,.62.14A9.7,9.7,0,0,0,63.9,148.92Z"/><path d="M74.89,148.75H71.08l-.81,1.18H68.76l4-5.72h1.82l2.28,5.72H75.36Zm-.4-1c-.17-.42-.3-.78-.41-1.07s-.21-.52-.28-.71-.12-.35-.17-.48-.08-.25-.11-.36c-.07.11-.14.24-.22.36l-.31.48-.49.72c-.19.28-.43.64-.73,1.06Z"/><path d="M85.53,145.16a2.34,2.34,0,0,1,0,.38,2.22,2.22,0,0,1-.09.37H84.09l0-.14a1,1,0,0,0,0-.18.31.31,0,0,0-.06-.19.44.44,0,0,0-.24-.12,2.75,2.75,0,0,0-.52-.06c-.22,0-.51,0-.88,0l-.86,0-.58,0a1.73,1.73,0,0,0-.37.1.72.72,0,0,0-.21.16.67.67,0,0,0-.09.21,1,1,0,0,0,0,.25.38.38,0,0,0,0,.16.25.25,0,0,0,.11.12l.21.09.32.07c.19,0,.43.05.72.07l.95,0c.5,0,.93,0,1.27.08a3.39,3.39,0,0,1,.82.2.89.89,0,0,1,.43.37,1.11,1.11,0,0,1,.14.58,3.77,3.77,0,0,1-.06.66,1.89,1.89,0,0,1-.22.63,1.3,1.3,0,0,1-.41.46,1.8,1.8,0,0,1-.64.29A5.45,5.45,0,0,1,83,150c-.37,0-.8,0-1.29,0-.65,0-1.18,0-1.6-.06a4.16,4.16,0,0,1-1-.2,1,1,0,0,1-.51-.36,1,1,0,0,1-.15-.56,2.55,2.55,0,0,1,.1-.72h1.38a.94.94,0,0,0,0,.16,1.11,1.11,0,0,0,0,.19.36.36,0,0,0,.08.24.52.52,0,0,0,.29.15,3.36,3.36,0,0,0,.6.08l1,0,.83,0,.56,0a1.56,1.56,0,0,0,.34-.1.49.49,0,0,0,.18-.17.85.85,0,0,0,.09-.24,2.11,2.11,0,0,0,0-.25.42.42,0,0,0,0-.2.37.37,0,0,0-.17-.12,1.31,1.31,0,0,0-.34-.08l-.56-.06-.54,0-.6,0-.74,0a6.82,6.82,0,0,1-.79-.1,1.75,1.75,0,0,1-.87-.38,1.08,1.08,0,0,1-.32-.87,3.63,3.63,0,0,1,.06-.64,1.81,1.81,0,0,1,.24-.61,1.24,1.24,0,0,1,.39-.4,2,2,0,0,1,.65-.26,5.76,5.76,0,0,1,1-.14c.38,0,.83,0,1.36,0s1.06,0,1.44,0a3.69,3.69,0,0,1,.92.17.89.89,0,0,1,.47.32A.88.88,0,0,1,85.53,145.16Z"/><path d="M86.84,149.93l.8-5.72h1.42l-.8,5.72Z"/><path d="M95.93,149.93l-2.57-3.05-.7-.83-.54-.67c0,.15,0,.29,0,.43s0,.29-.06.46,0,.33-.06.52-.06.41-.1.66l-.34,2.48H90.2l.8-5.72h1.87l2.34,2.84.44.53L96,148l.26.32.22.29,0-.32c0-.12,0-.25,0-.39s0-.31.07-.5.06-.42.1-.68l.34-2.5h1.36l-.8,5.72Z"/><path d="M103.23,150a16.54,16.54,0,0,1-1.74-.07,3.31,3.31,0,0,1-1.08-.25,1,1,0,0,1-.56-.5,2,2,0,0,1-.15-.83c0-.18,0-.37,0-.58s0-.44.09-.7A10.53,10.53,0,0,1,100,146a3,3,0,0,1,.28-.79,1.61,1.61,0,0,1,.46-.54,2,2,0,0,1,.72-.33,5.05,5.05,0,0,1,1.08-.18c.42,0,.93,0,1.52,0s1.27,0,1.73.07a3.71,3.71,0,0,1,1.08.26,1.06,1.06,0,0,1,.55.53,1.9,1.9,0,0,1,.16.85q0,.25,0,.57c0,.2,0,.43-.08.67-.06.41-.13.77-.2,1.07a2.64,2.64,0,0,1-.28.78,1.61,1.61,0,0,1-.46.54,2.15,2.15,0,0,1-.73.33,5.65,5.65,0,0,1-1.07.16C104.31,150,103.81,150,103.23,150Zm.15-1.06a10.21,10.21,0,0,0,1.25-.07,2,2,0,0,0,.76-.24,1,1,0,0,0,.4-.44,2.81,2.81,0,0,0,.18-.71q.06-.37.09-.6c0-.15,0-.27,0-.37s0-.15,0-.2v-.11a1,1,0,0,0-.1-.49.68.68,0,0,0-.36-.3,2.06,2.06,0,0,0-.68-.16,10.45,10.45,0,0,0-1.08-.05,8.65,8.65,0,0,0-1.27.07,2,2,0,0,0-.76.22.92.92,0,0,0-.4.45,2.81,2.81,0,0,0-.18.71c0,.25-.06.45-.08.61s0,.27,0,.36,0,.16,0,.2,0,.09,0,.12a1.14,1.14,0,0,0,.1.48.72.72,0,0,0,.35.31,2.94,2.94,0,0,0,.69.16A10.59,10.59,0,0,0,103.38,148.94Z"/><path d="M114.76,149.93l.33-2.41h-4.43l-.34,2.41h-1.43l.8-5.72h1.43l-.31,2.2h4.44l.31-2.2H117l-.8,5.72Z"/><path d="M118.12,149.93l.8-5.72H125l-.17,1.17h-4.77l-.13,1h4.68l-.16,1.08H119.8l-.18,1.31h4.8l-.16,1.15Z"/><path d="M132.07,149.93l-1.95-2.2-2.55,2.2h-1.84l3.63-3-2.69-2.73h1.82l1.82,2,2.47-2h1.76L131.13,147l2.73,3Z"/><path class="cls-2" d="M148.94,115.89l.55-3.92h-2.08l.13-1h5.38l-.14,1H150.7l-.55,3.92Zm11.49,0,.31-2.23c.1-.74.17-1.17.23-1.56-.23.34-.53.74-1,1.32l-1.82,2.47H157l-1-2.44c-.25-.57-.39-.88-.56-1.35-.05.52-.11.87-.2,1.57l-.31,2.22h-1.13l.68-4.89h1.69l1.63,3.87,2.81-3.87h1.66l-.68,4.89Z"/><polygon class="cls-2" points="53.81 137.93 55.36 126.69 34.7 126.69 33.16 137.93 26.48 137.93 30.21 111.27 36.88 111.27 35.44 121.53 56.09 121.53 57.53 111.27 64.21 111.27 60.48 137.93 53.81 137.93"/><polygon class="cls-2" points="67.37 137.93 71.09 111.27 99.54 111.27 98.77 116.75 76.57 116.75 75.94 121.42 97.75 121.42 97.01 126.44 75.2 126.44 74.36 132.55 96.7 132.55 95.96 137.93 67.37 137.93"/><polygon class="cls-2" points="131.65 137.93 122.5 127.6 110.55 137.93 101.92 137.93 118.92 123.93 106.3 111.09 114.86 111.09 123.38 120.43 134.94 111.09 143.21 111.09 127.23 124.03 140.03 137.93 131.65 137.93"/><g id="_Group_" data-name="&lt;Group&gt;"><path class="cls-3" d="M100,98.75a15.63,15.63,0,0,1-7.83-2.1L63.08,79.86A15.71,15.71,0,0,1,55.25,66.3V32.7a15.68,15.68,0,0,1,7.83-13.55L92.17,2.35a15.65,15.65,0,0,1,15.66,0l29.09,16.8a15.68,15.68,0,0,1,7.83,13.55V66.3a15.71,15.71,0,0,1-7.83,13.56L107.83,96.65A15.63,15.63,0,0,1,100,98.75Z"/><path class="cls-4" d="M100,.5a15.43,15.43,0,0,1,7.7,2.07l29.1,16.79a15.46,15.46,0,0,1,7.7,13.34V66.3a15.45,15.45,0,0,1-7.7,13.34l-29.1,16.8a15.42,15.42,0,0,1-15.4,0L63.2,79.64A15.45,15.45,0,0,1,55.5,66.3V32.7a15.46,15.46,0,0,1,7.7-13.34L92.3,2.57A15.43,15.43,0,0,1,100,.5m0-.5a15.88,15.88,0,0,0-8,2.13L63,18.93A15.9,15.9,0,0,0,55,32.7V66.3a15.9,15.9,0,0,0,8,13.77l29.1,16.8a15.9,15.9,0,0,0,15.9,0l29.1-16.8A15.9,15.9,0,0,0,145,66.3V32.7a15.9,15.9,0,0,0-7.95-13.77L108,2.13A15.88,15.88,0,0,0,100,0Z"/></g><path class="cls-5" d="M55.38,58.74V40.51h2.3A2.52,2.52,0,0,1,60.2,43V56.22a2.52,2.52,0,0,1-2.52,2.52Z"/><path class="cls-4" d="M57.68,40.64A2.39,2.39,0,0,1,60.07,43V56.22a2.39,2.39,0,0,1-2.39,2.4H55.51v-18h2.17m0-.25H55.26V58.87h2.42a2.65,2.65,0,0,0,2.64-2.65V43a2.64,2.64,0,0,0-2.64-2.64Z"/><path class="cls-5" d="M71.65,19.65a2.51,2.51,0,0,1-2.17-1.24l-1.24-2.09L84,7.2l1.22,2.06a2.52,2.52,0,0,1-.91,3.46L72.9,19.31a2.5,2.5,0,0,1-1.25.34Z"/><path class="cls-4" d="M84,7.37l1.15,2a2.39,2.39,0,0,1-.86,3.29L72.84,19.2a2.39,2.39,0,0,1-3.25-.85l-1.18-2L84,7.37M84.07,7l-.22.13-15.56,9-.22.12.13.22,1.17,2a2.66,2.66,0,0,0,2.28,1.3A2.7,2.7,0,0,0,73,19.42l11.42-6.6a2.61,2.61,0,0,0,1.24-1.61,2.64,2.64,0,0,0-.28-2L84.2,7.25,84.07,7Z"/><path class="cls-5" d="M126.22,18.42a2.5,2.5,0,0,1-1.25-.34l-11.43-6.59A2.52,2.52,0,0,1,112.63,8L113.84,6l15.79,9.12-1.24,2.09a2.51,2.51,0,0,1-2.17,1.24Z"/><path class="cls-4" d="M113.89,6.14l15.57,9-1.18,2A2.39,2.39,0,0,1,125,18L113.6,11.38a2.39,2.39,0,0,1-.86-3.29l1.15-1.95m-.09-.34-.13.22L112.52,8a2.64,2.64,0,0,0-.28,2,2.61,2.61,0,0,0,1.24,1.61l11.42,6.6a2.7,2.7,0,0,0,1.32.36,2.66,2.66,0,0,0,2.28-1.3l1.17-2,.13-.22-.22-.12L114,5.93l-.21-.13Z"/><path class="cls-5" d="M142.32,58.74a2.52,2.52,0,0,1-2.52-2.52V43a2.52,2.52,0,0,1,2.52-2.52h2.3V58.74Z"/><path class="cls-4" d="M144.49,40.64v18h-2.17a2.39,2.39,0,0,1-2.39-2.4V43a2.39,2.39,0,0,1,2.39-2.39h2.17m.25-.25h-2.42A2.64,2.64,0,0,0,139.68,43V56.22a2.65,2.65,0,0,0,2.64,2.65h2.42V40.39Z"/><path class="cls-5" d="M68.43,82.8l1.13-1.91a2.54,2.54,0,0,1,2.17-1.24A2.5,2.5,0,0,1,73,80l11.43,6.6a2.51,2.51,0,0,1,1.18,1.54,2.54,2.54,0,0,1-.27,1.92l-1.1,1.86Z"/><path class="cls-4" d="M71.73,79.78a2.37,2.37,0,0,1,1.19.32l11.43,6.6A2.38,2.38,0,0,1,85.21,90l-1,1.76-15.57-9L69.67,81a2.38,2.38,0,0,1,2.06-1.17m0-.25a2.65,2.65,0,0,0-2.28,1.29l-1.06,1.8-.13.22.22.13,15.57,9,.21.12.13-.21,1-1.76a2.64,2.64,0,0,0-1-3.63l-11.42-6.6a2.66,2.66,0,0,0-1.32-.35Z"/><path class="cls-5" d="M112.55,91.28a2.54,2.54,0,0,1-.27-1.92,2.48,2.48,0,0,1,1.18-1.54l11.43-6.6a2.5,2.5,0,0,1,1.25-.34,2.54,2.54,0,0,1,2.17,1.24L129.44,84l-15.79,9.11Z"/><path class="cls-4" d="M126.14,81a2.38,2.38,0,0,1,2.06,1.17l1.06,1.8L113.7,93l-1-1.76a2.38,2.38,0,0,1,.86-3.28L125,81.33a2.34,2.34,0,0,1,1.19-.32m0-.25a2.66,2.66,0,0,0-1.32.35l-11.42,6.6a2.64,2.64,0,0,0-1,3.63l1,1.76.13.21.21-.12,15.57-9,.22-.13-.13-.22-1.06-1.79a2.65,2.65,0,0,0-2.28-1.3Z"/><g id="_Group_2" data-name="&lt;Group&gt;"><path class="cls-4" d="M100,87.23a12.21,12.21,0,0,1-1.35-.07.25.25,0,0,1-.22-.28.24.24,0,0,1,.28-.22,11.8,11.8,0,0,0,2.45,0,.25.25,0,0,1,.27.23.23.23,0,0,1-.22.27C100.81,87.21,100.4,87.23,100,87.23Zm3.64-.56a.25.25,0,0,1-.08-.49,12.11,12.11,0,0,0,2.24-1,.26.26,0,0,1,.35.09.25.25,0,0,1-.1.34,11.64,11.64,0,0,1-2.34,1Zm-7.41,0h-.08a12.19,12.19,0,0,1-2.24-1l-.09,0a.25.25,0,1,1,.25-.43l.09,0a11.85,11.85,0,0,0,2.15,1,.26.26,0,0,1,.16.32A.25.25,0,0,1,96.23,86.62ZM108.1,84.4a.23.23,0,0,1-.21-.13.25.25,0,0,1,.09-.34l2.17-1.25a.25.25,0,0,1,.25.43l-2.17,1.26A.28.28,0,0,1,108.1,84.4Zm-16.32-.07a.28.28,0,0,1-.13,0L89.48,83a.25.25,0,0,1-.1-.34.26.26,0,0,1,.35-.09l2.17,1.25a.25.25,0,0,1,.09.34A.23.23,0,0,1,91.78,84.33Zm20.67-2.44a.24.24,0,0,1-.22-.13.25.25,0,0,1,.1-.34l2.17-1.25a.25.25,0,1,1,.25.43l-2.17,1.26A.31.31,0,0,1,112.45,81.89Zm-25-.07a.28.28,0,0,1-.13,0l-2.17-1.26a.25.25,0,1,1,.25-.43l2.17,1.25a.25.25,0,0,1,.09.34A.23.23,0,0,1,87.43,81.82Zm29.37-2.44a.26.26,0,0,1-.22-.13.25.25,0,0,1,.09-.34l2.18-1.25a.25.25,0,0,1,.25.43l-2.18,1.26A.24.24,0,0,1,116.8,79.38Zm-33.72-.07a.31.31,0,0,1-.13,0L80.78,78a.25.25,0,1,1,.25-.43l2.18,1.25a.25.25,0,0,1,.09.34A.26.26,0,0,1,83.08,79.31Zm38.07-2.44a.26.26,0,0,1-.22-.13.25.25,0,0,1,.09-.34l2.18-1.25a.25.25,0,0,1,.25.43l-2.18,1.26A.27.27,0,0,1,121.15,76.87ZM78.73,76.8a.27.27,0,0,1-.12,0l-2.18-1.26a.25.25,0,0,1,.25-.43l2.18,1.25a.25.25,0,0,1,.09.34A.26.26,0,0,1,78.73,76.8Zm46.77-2.44a.25.25,0,0,1-.13-.47l2.17-1.25a.26.26,0,0,1,.35.09.25.25,0,0,1-.1.34l-2.17,1.26A.27.27,0,0,1,125.5,74.36Zm-51.12-.07a.27.27,0,0,1-.12,0L72.08,73l-.22-.13a.25.25,0,1,1,.26-.43l.22.13,2.17,1.25a.25.25,0,0,1,.09.34A.26.26,0,0,1,74.38,74.29Zm55.33-2.64a.24.24,0,0,1-.19-.08.26.26,0,0,1,0-.36,11.82,11.82,0,0,0,1.66-1.8.24.24,0,0,1,.35,0,.25.25,0,0,1,.05.35,12.33,12.33,0,0,1-1.73,1.88A.27.27,0,0,1,129.71,71.65ZM70,71.39a.28.28,0,0,1-.17-.07,12.25,12.25,0,0,1-1.66-1.94.25.25,0,1,1,.41-.29A10.92,10.92,0,0,0,70.17,71a.26.26,0,0,1,0,.36A.27.27,0,0,1,70,71.39Zm62.69-3.74-.1,0a.25.25,0,0,1-.13-.33,12,12,0,0,0,.78-2.33.25.25,0,0,1,.49.11,12.08,12.08,0,0,1-.81,2.42A.24.24,0,0,1,132.68,67.65Zm-65.52-.36a.25.25,0,0,1-.23-.16,12.13,12.13,0,0,1-.73-2.45.25.25,0,0,1,.2-.29.24.24,0,0,1,.29.2,12,12,0,0,0,.7,2.35.24.24,0,0,1-.13.33Zm66.6-4.5h0a.26.26,0,0,1-.25-.26V60a.26.26,0,1,1,.51,0v2.51A.25.25,0,0,1,133.76,62.79Zm-67.52-.4a.25.25,0,0,1-.25-.25V59.63a.26.26,0,0,1,.51,0v2.51A.26.26,0,0,1,66.24,62.39Zm67.52-4.62a.26.26,0,0,1-.26-.26V55a.26.26,0,0,1,.51,0v2.51A.26.26,0,0,1,133.76,57.77Zm-67.52-.4a.25.25,0,0,1-.25-.25V54.61a.26.26,0,0,1,.51,0v2.51A.26.26,0,0,1,66.24,57.37Zm67.52-4.62a.26.26,0,0,1-.26-.26V50a.26.26,0,0,1,.51,0v2.51A.26.26,0,0,1,133.76,52.75Zm-67.52-.4A.25.25,0,0,1,66,52.1V49.59a.26.26,0,0,1,.51,0V52.1A.26.26,0,0,1,66.24,52.35Zm67.52-4.63a.26.26,0,0,1-.26-.25V45a.26.26,0,0,1,.51,0v2.51A.25.25,0,0,1,133.76,47.72Zm-67.52-.39a.25.25,0,0,1-.25-.25V44.57a.26.26,0,0,1,.51,0v2.51A.26.26,0,0,1,66.24,47.33Zm67.52-4.63a.26.26,0,0,1-.26-.25V39.94a.26.26,0,0,1,.51,0v2.51A.25.25,0,0,1,133.76,42.7Zm-67.52-.39a.25.25,0,0,1-.25-.25V39.55a.26.26,0,0,1,.51,0v2.51A.26.26,0,0,1,66.24,42.31Zm67.52-4.63a.26.26,0,0,1-.26-.25v-.18a11.39,11.39,0,0,0-.22-2.26.27.27,0,0,1,.2-.3.25.25,0,0,1,.3.2,12.42,12.42,0,0,1,.23,2.36v.18A.25.25,0,0,1,133.76,37.68Zm-67.51-.39h0A.26.26,0,0,1,66,37a12.8,12.8,0,0,1,.32-2.54.24.24,0,0,1,.3-.18.25.25,0,0,1,.19.3A11,11,0,0,0,66.5,37,.26.26,0,0,1,66.25,37.29Zm66.54-4.49a.25.25,0,0,1-.23-.16,11.84,11.84,0,0,0-1.2-2.14.25.25,0,0,1,.41-.29A12.58,12.58,0,0,1,133,32.45a.24.24,0,0,1-.13.32A.19.19,0,0,1,132.79,32.8Zm-65.42-.37a.18.18,0,0,1-.1,0,.24.24,0,0,1-.12-.33,11.59,11.59,0,0,1,1.32-2.19.25.25,0,1,1,.4.3,11.51,11.51,0,0,0-1.27,2.1A.24.24,0,0,1,67.37,32.43Zm62.54-3.7a.23.23,0,0,1-.17-.07,11.29,11.29,0,0,0-2-1.46.26.26,0,0,1-.09-.35.25.25,0,0,1,.35-.08,12.09,12.09,0,0,1,2.05,1.52.26.26,0,0,1,0,.36A.27.27,0,0,1,129.91,28.73Zm-59.53-.27a.27.27,0,0,1-.19-.08.26.26,0,0,1,0-.36,12.77,12.77,0,0,1,1.86-1.32l.24-.14a.26.26,0,0,1,.34.1.25.25,0,0,1-.09.34l-.23.13a12,12,0,0,0-1.79,1.27A.27.27,0,0,1,70.38,28.46ZM125.73,26a.2.2,0,0,1-.13,0l-2.17-1.25a.25.25,0,0,1-.09-.34.24.24,0,0,1,.34-.1l2.17,1.26a.25.25,0,0,1-.12.47Zm-51.11-.2a.26.26,0,0,1-.22-.13.25.25,0,0,1,.09-.34l2.17-1.26a.27.27,0,0,1,.35.1.25.25,0,0,1-.09.34l-2.18,1.25A.19.19,0,0,1,74.62,25.78Zm46.76-2.31a.22.22,0,0,1-.13,0l-2.17-1.25a.26.26,0,0,1-.09-.35.25.25,0,0,1,.34-.09L121.51,23a.25.25,0,0,1,.09.34A.26.26,0,0,1,121.38,23.47ZM79,23.27a.25.25,0,0,1-.12-.47L81,21.54a.25.25,0,1,1,.25.44l-2.17,1.25A.2.2,0,0,1,79,23.27ZM117,21a.19.19,0,0,1-.12,0l-2.18-1.25a.26.26,0,0,1-.09-.35.25.25,0,0,1,.34-.09l2.18,1.26a.25.25,0,0,1,.09.34A.26.26,0,0,1,117,21Zm-33.72-.2a.27.27,0,0,1-.22-.13.26.26,0,0,1,.1-.34L85.36,19a.25.25,0,0,1,.34.1.25.25,0,0,1-.09.34l-2.17,1.25A.2.2,0,0,1,83.31,20.76Zm29.37-2.31a.19.19,0,0,1-.12,0l-2.18-1.25a.26.26,0,1,1,.26-.44L112.81,18a.25.25,0,0,1,.09.34A.26.26,0,0,1,112.68,18.45Zm-25-.2a.26.26,0,0,1-.22-.13.25.25,0,0,1,.09-.34l2.18-1.26a.25.25,0,0,1,.34.1A.25.25,0,0,1,90,17l-2.17,1.25A.22.22,0,0,1,87.66,18.25Zm20.68-2.31a.28.28,0,0,1-.13,0L106,14.65a.27.27,0,0,1-.1-.35.26.26,0,0,1,.35-.09l2.17,1.26a.25.25,0,0,1-.12.47ZM92,15.74a.26.26,0,0,1-.22-.13.25.25,0,0,1,.09-.34l2-1.17.15-.09a.26.26,0,0,1,.34.1.24.24,0,0,1-.1.34l-.14.08-2,1.17A.19.19,0,0,1,92,15.74Zm11.88-2.12h-.08a10.91,10.91,0,0,0-2.39-.55.25.25,0,0,1-.22-.28.25.25,0,0,1,.28-.22,11.69,11.69,0,0,1,2.49.57.26.26,0,0,1,.16.32A.25.25,0,0,1,103.89,13.62Zm-7.4-.12a.25.25,0,0,1-.08-.49,12.68,12.68,0,0,1,2.51-.5.25.25,0,0,1,.27.23A.24.24,0,0,1,99,13a12.25,12.25,0,0,0-2.41.48Z"/></g><g id="_Group_3" data-name="&lt;Group&gt;"><path class="cls-6" d="M74.53,70.86l20,11.55a11,11,0,0,0,10.94,0l20-11.55a10.92,10.92,0,0,0,5.46-9.46V38.3a10.92,10.92,0,0,0-5.46-9.46l-20-11.55a11,11,0,0,0-10.94,0l-20,11.55a10.92,10.92,0,0,0-5.46,9.46V61.4A10.92,10.92,0,0,0,74.53,70.86Z"/><path class="cls-4" d="M100,84.12a11.23,11.23,0,0,1-5.59-1.49l-20-11.55a11.2,11.2,0,0,1-5.59-9.68V38.3a11.2,11.2,0,0,1,5.59-9.68l20-11.55a11.21,11.21,0,0,1,11.18,0l20,11.55a11.2,11.2,0,0,1,5.59,9.68V61.4a11.2,11.2,0,0,1-5.59,9.68l-20,11.55A11.23,11.23,0,0,1,100,84.12ZM74.66,70.65l20,11.54a10.67,10.67,0,0,0,10.68,0l20-11.54a10.72,10.72,0,0,0,5.34-9.25V38.3a10.72,10.72,0,0,0-5.34-9.25l-20-11.54a10.67,10.67,0,0,0-10.68,0l-20,11.54a10.72,10.72,0,0,0-5.34,9.25V61.4a10.72,10.72,0,0,0,5.34,9.25Z"/></g><g class="cls-7"><polygon class="cls-4" points="159.38 40.43 98.74 40.43 98.74 14.27 80.55 14.27 80.55 40.43 50.24 40.43 50.24 58.62 80.55 58.62 80.55 87.66 98.74 88.1 98.74 59.06 159.38 58.62 159.38 40.43"/></g></svg>