<svg xmlns="http://www.w3.org/2000/svg" viewBox="0 0 150 40" width="150" height="40"><path d="M2,12H4v4H2a2,2,0,0,1,0-4Z" style="fill:#5357ce;fill-rule:evenodd"/><path d="M2,6H4v4H2A2,2,0,0,1,2,6Z" style="fill:#e1e4ea;fill-rule:evenodd"/><path d="M2,36H4v4H2a2,2,0,0,1,0-4ZM2,0H4V4H2A2,2,0,0,1,2,0Z" style="fill:#eff1f5;fill-rule:evenodd"/><path d="M2,30H4v4H2a2,2,0,0,1,0-4Z" style="fill:#e1e4ea;fill-rule:evenodd"/><path d="M2,18H4v4H2a2,2,0,0,1,0-4Zm0,6H4v4H2a2,2,0,0,1,0-4ZM6,12H18a2,2,0,0,1,0,4H6Z" style="fill:#5357ce;fill-rule:evenodd"/><path d="M6,6H18a2,2,0,0,1,0,4H6Z" style="fill:#e1e4ea;fill-rule:evenodd"/><path d="M6,36H18a2,2,0,0,1,0,4H6ZM6,0H18a2,2,0,0,1,0,4H6Z" style="fill:#eff1f5;fill-rule:evenodd"/><path d="M6,30H18a2,2,0,0,1,0,4H6Z" style="fill:#e1e4ea;fill-rule:evenodd"/><path d="M6,18H18a2,2,0,0,1,0,4H6Zm0,6H18a2,2,0,0,1,0,4H6Z" style="fill:#5357ce;fill-rule:evenodd"/><g style="isolation:isolate"><g style="isolation:isolate"><path d="M37.6,13.8V25h-1L30.4,15.88V25H29.28V13.8h1l6.24,9.12V13.8Z" style="fill:#5357ce"/><path d="M47.67,21c0,.16,0,.34,0,.5h-7a3,3,0,0,0,3.18,2.64,2.82,2.82,0,0,0,2.58-1.36l.93.54a4,4,0,0,1-3.52,1.84A4.06,4.06,0,0,1,39.52,21a4.08,4.08,0,1,1,8.15,0Zm-7.06-.53h6a2.87,2.87,0,0,0-2.88-2.67A3,3,0,0,0,40.61,20.5Z" style="fill:#5357ce"/><path d="M51,18v4.85c0,1.38.75,1.27,2.31,1.2V25c-2.16.32-3.37-.21-3.37-2.13V18H48.3V17H50V15.08L51,14.76V17h2.31v1Z" style="fill:#5357ce"/><path d="M56.56,18v4.85c0,1.38.75,1.27,2.31,1.2V25c-2.16.32-3.37-.21-3.37-2.13V18H53.82V17H55.5V15.08l1.06-.32V17h2.31v1Z" style="fill:#5357ce"/><path d="M60.38,14.53a.77.77,0,1,1,.77.77A.78.78,0,0,1,60.38,14.53ZM60.62,17h1.06v8H60.62Z" style="fill:#5357ce"/><path d="M69,25l-4-3.86V25H63.92V13.8H65v6.73L68.79,17h1.44L66.1,20.84,70.39,25Z" style="fill:#5357ce"/><path d="M79,17v8h-1V23.43a3.73,3.73,0,0,1-3.24,1.76,4.2,4.2,0,0,1,0-8.39,3.72,3.72,0,0,1,3.24,1.77V17Zm-1,4a3.16,3.16,0,1,0-3.16,3.17A3.12,3.12,0,0,0,77.91,21Z" style="fill:#5357ce"/><path d="M86.71,22.89c0,1.36-1.19,2.3-2.9,2.3a3.13,3.13,0,0,1-3.09-1.84l.9-.53a2.18,2.18,0,0,0,2.19,1.35c.94,0,1.84-.34,1.84-1.28,0-2-4.67-.85-4.67-3.8a2.47,2.47,0,0,1,2.73-2.29,3,3,0,0,1,2.8,1.64l-.88.51a2,2,0,0,0-1.92-1.12c-.83,0-1.68.4-1.68,1.26C82,21.08,86.71,19.94,86.71,22.89Z" style="fill:#5357ce"/><path d="M88.14,14.53a.77.77,0,1,1,.77.77A.78.78,0,0,1,88.14,14.53ZM88.38,17h1.06v8H88.38Z" style="fill:#5357ce"/><path d="M98.56,20.09V25h-1V20.09a2,2,0,0,0-2.18-2.26c-1.41,0-2.59.83-2.59,3V25H91.68V17h1.06v1.25a3.16,3.16,0,0,1,5.82,1.84Z" style="fill:#5357ce"/><path d="M100.13,21a4.21,4.21,0,1,1,4.21,4.19A4.16,4.16,0,0,1,100.13,21Zm7.36,0a3.16,3.16,0,1,0-3.15,3.17A3.12,3.12,0,0,0,107.49,21Z" style="fill:#5357ce"/><path d="M110.3,13.32h1.06V25H110.3Z" style="fill:#5357ce"/><path d="M113.36,14.53a.77.77,0,1,1,.77.77A.78.78,0,0,1,113.36,14.53ZM113.6,17h1.06v8H113.6Z" style="fill:#5357ce"/><path d="M122.4,22.89c0,1.36-1.18,2.3-2.9,2.3a3.12,3.12,0,0,1-3.08-1.84l.89-.53a2.19,2.19,0,0,0,2.19,1.35c1,0,1.85-.34,1.85-1.28,0-2-4.68-.85-4.68-3.8a2.48,2.48,0,0,1,2.74-2.29,3,3,0,0,1,2.8,1.64l-.88.51a2,2,0,0,0-1.92-1.12c-.83,0-1.68.4-1.68,1.26C117.73,21.08,122.4,19.94,122.4,22.89Z" style="fill:#5357ce"/><path d="M125.78,18v4.85c0,1.38.75,1.27,2.3,1.2V25c-2.16.32-3.36-.21-3.36-2.13V18H123V17h1.68V15.08l1.06-.32V17h2.3v1Z" style="fill:#5357ce"/><path d="M137.3,17v8h-1.06V23.43A3.71,3.71,0,0,1,133,25.19a4.2,4.2,0,0,1,0-8.39,3.7,3.7,0,0,1,3.23,1.77V17Zm-1.06,4a3.15,3.15,0,1,0-3.15,3.17A3.12,3.12,0,0,0,136.24,21Z" style="fill:#5357ce"/></g></g></svg>