<svg enable-background="new 0 0 357.3 320.1" viewBox="0 0 357.3 320.1" xmlns="http://www.w3.org/2000/svg"><path d="m171.7 6.2-143.2 51 22 189.3 121.2 67.3 123.1-68.2 23.8-189.3z" fill="#df0032"/><path d="m171.7 6.2v307.6l123.1-68.2 23.8-189.3z" fill="#b20028"/><path d="m171.2 315.7-122.7-68.1-9.4-80.8-1.6 19.8h-28.6l2.5-76.9 20.6-4.3-5.7-49.3 144.9-51.7.6.2 148.2 50.6-7.1 56.9 2.8-4.7 32.5 6.7-33.9 39.8-1.2 35.5h-10l-7.2 57.3zm-119.6-70.2 119.6 66.4 121.6-67.3 7.3-58.5h9.7l1.1-33.5 31-36.3-24.6-5.1-9.8 16.4 8.8-70-145.1-49.6-141.3 50.4 5.8 49.7-21 4.4-2.3 70.8h22l2.7-33.9 3.4-.1z"/><path d="m319.8 112.2-14 23.4-4.3-25.3-19.5.7.3-6.5-29.6-1.5-16 42.3-11.4-39.8-29.9 3.1-1.5 84.7 27.8-2.9-.4-37.6 8.4 31.1h9.9l11.5-35-.2 43.2 26.8-2.1 3-55.1 8.1 21.5-.7 34.3h26.7l1.1-34.5 32.4-38z"/><path d="m315.8 109.2-14 23.4-4.4-25.3-19.4.7.3-6.5-29.7-1.5-15.9 42.3-11.5-39.8-29.8 3.1-1.5 84.8 27.8-3-.4-37.6 8.4 31.1h9.8l11.5-35-.2 43.2 26.9-2.1 3-55.1 8.1 21.6-.7 34.2h26.7l1.1-34.5 32.4-38z" fill="#fff"/><path d="m189.4 190.9 1.6-85.7 30.7-3.2 11.1 38.8 15.6-41.3 30.5 1.6-.4 6.5 19.4-.7 4.2 24.4 13.5-22.5 29.7 6.2-32.9 38.6-1.1 34.8h-27.7l.7-34.7-7.2-19.2-2.9 53.2-27.8 2.1.2-40.5-10.6 32.3h-10.6l-7.5-27.6.4 34.1zm2.5-84.8-1.5 83.7 26.8-2.8-.5-41.1 9.3 34.5h9.1l12.4-37.6-.2 45.8 25.9-2 3.1-57.1 9 23.9-.7 33.9h25.7l1.1-34.2.1-.1 31.9-37.4-27.4-5.7-14.5 24.1-4.5-26.2-19.6.7.4-6.6-28.8-1.5-16.4 43.4-11.7-40.8z"/><path d="m245 269c-.4-17.8-7.3-49.4-12.7-58.4s-18.9-70.2-18.9-70.2-6.9 1.9-9.3 2.4c-6.7 1.6-8.5.4-8.5.4 0 .4 9.8 40.2 9.8 40.2l-25.4-8.1-12.4 9.4-4.8 9s-4.3-14.3-4.3-25.3c0-10.9-1-26.9-1-26.9l-16.9.9v.8l-.8 41.8c-.3 16.5 2 28.7 4.9 39 .7 2.6 1.1 3.5 1.4 3.7-.3.7-.9 3.6-1.4 14.2-1.1 24.8 19.3 60 19.3 60s-2.1 2.3-4.7 6.1l10.5 5.8 75.3-41.6c0-1.1-.1-2.2-.1-3.2z" fill="#b74e15"/><path d="m194.6 141 .4-.9-1 .1v-.5l.9-.7 1 .5.1.6h-1l.6.8-.6-.8z"/><path d="m160.2 308.4c2.5-3.7 4.5-5.9 4.6-5.9l.5-.5-.4-.6c-.2-.3-20.3-35.2-19.2-59.5.5-11.6 1.2-13.5 1.3-13.8l.3-.6-.5-.5c-.1-.1-.4-.7-1.1-3.3-2.4-8.8-5.2-21.2-4.8-38.7l.8-41.7 15-.8c.2 3.6.9 16.7.9 25.9 0 11.1 4.1 25 4.3 25.6l.7 2.3 44.3-11.5-.4-1.7c-2.3-9.5-8-32.5-9.5-38.6 1.4.2 3.7.1 7.4-.8 1.8-.4 6.3-1.6 8.3-2.2 1.8 8.3 13.6 61 18.8 69.5 5.3 8.8 12.2 40.2 12.6 57.9v3.7l2-1.1c0-.9 0-1.7 0-2.6-.4-17.9-7.4-49.9-12.9-58.9-5.3-8.8-18.6-69.3-18.8-69.9l-.2-1-1 .3c-.1 0-6.9 1.9-9.2 2.4-6 1.4-7.7.5-7.7.5l-.5-.3-1 .6v.6c0 .1 0 .5 9.4 38.7l-41 9.2c-1.2-4.5-3.6-14.5-3.6-22.7 0-10.8-1-26.8-1-27l-.1-1-18.8 1v1.7l-.8 41.8c-.3 17.8 2.4 30.4 4.9 39.3.6 2 .9 3 1.2 3.6-.6 2.3-1 8.7-1.3 14-1.1 23.3 16.3 55 19.1 59.9-.8.9-2.5 2.9-4.4 5.8z"/><path d="m190.2 213.8s-27.8 1.1-27.5 33.3c.3 28.9 22.8 46.7 42.4 47.2l24-13.3c7-11 8.8-26.6 6.1-36.9-4.3-16.6-19.9-33.6-45-30.3z" fill="#c66f0c"/><path d="m180.4 170.1s-15.6.8-17.4 17.4c-1.1 12.2.4 23.4 11.2 30.2 0 0 4.1 8.6 6.8 12s9 8.8 15.5 9.6c8.6 1.1 18.4-6.6 16.3-26.5-1.3-12.5 0-23.3-5.9-32.8-9.4-15-26.5-9.9-26.5-9.9z" fill="#b74e15"/><path d="m198.3 239.9c-.6 0-1.3 0-2-.1-7.1-.9-13.5-6.8-15.8-9.8-2.5-3.2-6.2-10.8-6.8-12-11.8-7.5-12.2-20.3-11.3-30.6 1.7-16.3 16.7-17.8 17.9-17.9 1.2-.3 17.9-4.5 27.1 10.2 4.5 7.1 4.9 15.2 5.3 23.7.2 3 .3 6.1.7 9.4 1.1 10.3-1 18.5-5.8 23.3-2.6 2.4-5.9 3.8-9.3 3.8zm-11.9-70.1c-3.4.1-5.7.8-5.8.8h-.1c-.6 0-15.2 1-16.9 16.9-1.7 19.1 4.9 25.8 10.9 29.6l.1.1.1.2c0 .1 4.1 8.6 6.7 11.9 2.6 3.4 8.8 8.6 15.1 9.4 3.7.5 7.4-.8 10.2-3.6 4.6-4.5 6.5-12.4 5.5-22.3-.3-3.3-.5-6.4-.7-9.4-.5-8.7-.8-16.2-5.1-23.1-5.7-9.1-14.3-10.6-20-10.5z"/><path d="m185.1 181.5s-11.6-.4-13.4 10.5c-1.2 7.3 6.6 21.2 6.6 21.2s6.1-7 12-8.6c10.1-2.7 16.5.5 16.5.5s2-11.2-3.1-19.1c-6.2-9.8-18.6-4.5-18.6-4.5z" fill="#ecbb97"/><path d="m178.4 213.6c-.2 0-.3-.1-.4-.2 0 0-2-3.5-3.8-7.9-2.4-5.9-3.4-10.4-2.9-13.5 1.7-10.6 12.6-10.8 13.7-10.8 1.1-.4 12.9-4.9 19.1 4.7 5.1 7.9 3.2 18.9 3.1 19.3 0 .1-.1.2-.2.3s-.2.1-.3 0c-.1 0-6.5-3.1-16.3-.4-5.7 1.5-11.7 8.4-11.8 8.4 0 0-.1.1-.2.1zm6.4-31.7c-.8 0-3.1.2-5.5 1.1-4 1.6-6.4 4.7-7.1 9-1 6.4 5 17.9 6.3 20.4 1.4-1.5 6.6-6.9 11.8-8.3 8.6-2.3 14.6-.4 16.3.3.3-2.2 1.2-11.6-3.1-18.3-6.1-9.4-18.1-4.4-18.2-4.4h-.2c0 .2-.1.2-.3.2z"/><path d="m180.1 219.1s6.9-6.4 11-8.3 16 3.9 16 3.9 1.9-7.3 3.7.9c1.2 5.4.5 16.5-10.1 19.3-8.6 2.2-20.8-5.2-20.6-15.8z" fill="#e9af84"/><path d="m197.8 235.5c-3.9.1-8.2-1.4-11.6-4.1-4.1-3.2-6.4-7.7-6.3-12.3v-.1l.1-.1c.3-.3 7-6.4 11-8.3 3.9-1.8 14.1 3 15.9 3.8.2-.8.9-2.9 2-2.9.8 0 1.5 1.3 2.2 4.1 1.5 6.4-.1 16.9-10.3 19.5-1 .2-2 .4-3 .4zm-17.5-16.3c0 4.4 2.2 8.8 6.2 11.9 4.2 3.3 9.8 4.8 14.1 3.6 11.1-2.9 11-14.7 10-19-.8-3.4-1.5-3.7-1.7-3.7-.6 0-1.3 1.6-1.6 2.8l-.1.3-.3-.1c-.1-.1-11.8-5.7-15.8-3.9-3.7 1.6-10 7.4-10.8 8.1z"/><path d="m185 227.9c5.6 4 8.7 3.8 14.1 2.7 10.4-2.1 14.3-15.9 9.2-20.1-15.6-9.2-38.3 3.4-23.3 17.4z" fill="#ecbb97"/><path d="m194.2 231.5c-2.9.1-5.6-.7-9.3-3.4-5.3-4.9-6.4-10.3-3.2-14.7 4.6-6.2 17-8.8 26.7-3.1 2.2 1.8 2.9 5.4 1.9 9.3-1.1 4.4-4.7 10-11.1 11.3-1.9.3-3.4.6-5 .6zm-9-3.8c5.6 4.1 8.8 3.7 13.9 2.7 6.2-1.2 9.7-6.7 10.8-10.9 1-3.8.3-7.2-1.7-8.8-9.5-5.6-21.6-3-26.1 3-3.2 4.2-2 9.3 3.1 14z"/><path d="m185.7 199.5c1-.2 2 .3 2.2 1.3.2.9-.4 1.8-1.4 2s-2-.3-2.2-1.3c-.3-.9.4-1.8 1.4-2z"/><path d="m194.2 197.9c1-.2 2 .3 2.2 1.3.2.9-.4 1.8-1.4 2s-2-.3-2.2-1.3c-.3-.9.4-1.8 1.4-2z"/><path d="m177.2 214.8s3.4-9.8 14.3-11.3c11.9-2.4 18.3 2.7 18.3 2.7s-16.5-5.9-32.6 8.6z" fill="#c15216"/><path d="m236.7 131.9.6 5.6-120.3 19.2-3.1-15.1c107.7-2.5 82.2-7.7 122.8-9.7z" fill="#803300"/><path d="m116.7 157-3.3-15.7h.4.5c68.4-1.7 83-4.4 94.8-6.6 6.9-1.3 12.9-2.4 27.6-3.1h.3l.7 6.2zm-2.5-15.1 3 14.4 119.8-19-.5-5.1c-14.5.7-20.4 1.8-27.2 3.1-11.8 2.2-26.5 5-94.9 6.6z"/><path d="m142 140.4s-.1-1.2 1.2-2.3c1.3-1.2 7.6-3.7 10.4-3.7 2.9-.1 8.6 1.2 10.6 5.3 2 4-2.8 5.6-5.1 5.4-.8-.1-3.2-.2-5.9-.7-4.9-1.2-11-2.9-11.2-4z" fill="#ecbb97"/><path d="m159.7 145.2c-.2 0-.4 0-.5 0h-.3c-1-.1-3.2-.2-5.6-.7-3.9-.8-11.2-2.6-11.4-4 0-.1-.1-1.3 1.3-2.5s7.6-3.7 10.6-3.8c3.1-.1 8.8 1.3 10.8 5.4.7 1.4.7 2.6 0 3.6-1.2 1.3-3.4 1.9-4.9 2zm-17.5-4.9c.2.8 5.2 2.5 11.1 3.7 2.4.5 4.6.6 5.6.7h.3c1.4.1 3.9-.4 4.9-2 .6-.9.6-1.9 0-3.2-1.9-3.9-7.4-5.2-10.4-5.2-2.8.1-9 2.6-10.3 3.7-1.2 1.2-1.2 2.2-1.2 2.3z"/><path d="m211 135.7c-.2.8-8.8 4-12.1 4.8s-8.8 1.5-9.4-2.7c-.6-4.1 5.3-7.1 9.2-7.5s11.2 2.5 11.9 4 .4 1.4.4 1.4z" fill="#ecbb97"/><path d="m194.7 141.3c-1.7 0-3.1-.3-4-.9-.8-.6-1.3-1.4-1.5-2.5-.2-1.2.2-2.5 1.1-3.6 1.8-2.4 5.6-3.9 8.3-4.2 1.8-.2 4.5.3 7.2 1.3 2 .7 4.4 1.9 4.9 2.8.6 1.3.6 1.5.5 1.6l-.1.1c-.8 1.1-9.3 4.1-12.2 4.8-1.6.4-3 .6-4.2.6zm4.5-10.8c-.2 0-.4 0-.6 0-2.6.3-6.2 1.7-8 4-.8 1.1-1.2 2.2-1 3.3.1 1 .6 1.7 1.3 2.3 1.5 1 4.1 1.1 7.9.2 3.5-.8 11.7-4 12-4.6v-.1c0-.1-.1-.5-.5-1.2-.6-1.4-7.2-4-11.1-3.9z"/><path d="m229.2 210.6c-1.9-3.2-4-12.7-5.9-23.7-1.3-4.8-2.6-10.3-4.2-17l-6.3-27-4.7.2 10 61.6s13.5 15 16.5 37.1c1.3 9.8-.3 23.7-.9 36.5l8.1-4.5c0-1.5 0-3.1 0-4.8-.3-17.8-7.2-49.4-12.6-58.4z" fill="#cb5617"/><path d="m133.8 140.1c-5.5-.1-10 0-15.6 0l-.8 18.9 13.9.6-.1 3c-1.1 1-.7 1.7-2.2 2-1.5.4-3 .5-4.4.5-2.1 0-4-.6-5.6-1.5-1.6-1-3-2.3-4.1-3.8-1.1-1.6-2-3.4-2.5-5.4-.6-2-.9-4-.9-6.2 0-3.4.5-6.3 1.6-8.9s2.6-4.7 4.5-6.5c1.9-1.7 4.1-3 6.7-3.8 2.5-.8 5.3-1.2 8.2-1 2.1.1 4.2.4 6.3.8 2.2.4 4.2 1.1 6.3 2l.7-21.6c-1.4-.9-2.9-1.7-4.5-2.4s-3.3-1.2-5.1-1.7c-1.7-.4-3.5-.8-5.2-1-1.8-.3-3.4-.4-5-.5-4.2-.3-8.1 0-11.8.9s-7.2 2.3-10.3 4.3c-3.2 2-6.1 4.4-8.6 7.2-1.3 1.5-2.5 3-3.6 4.7l.6-15.1-26.2 2.6-1.5 36.7-19.1-36.8-28.2 5.9-2.3 73.9h25.3l3-37.7 15.3 37 30.5-1.4.4-10.3c1.3 2.2 2.8 4.2 4.5 6.1 3.6 4 7.8 7.1 12.7 9.4 4.8 2.3 10.1 3.4 15.8 3.4 2.9 0 5.9-.3 9.1-.9 3.1-.6 6.2-1.5 9.1-2.7s5.7-2.6 8.1-4.5c1.3-1 3.2-3.3 4.1-4.5v-41.1c-5.5-.3-13.7-.5-19.1-.6z"/><path d="m118.3 191.9c-5.7 0-11.1-1.2-16-3.4-4.9-2.3-9.2-5.5-12.8-9.5-1.3-1.4-2.5-3-3.6-4.6l-.3 9-31.4 1.5-14.5-35.2-2.8 35.9h-26.6l2.4-74.8 28.6-6 18.4 35.2 1.5-35.1 27.4-2.7-.5 13.8c.8-1.1 1.7-2.2 2.6-3.2 2.6-2.9 5.5-5.4 8.7-7.3 3.2-2 6.7-3.4 10.5-4.3 2.8-.7 5.8-1 8.9-1 1 0 2 0 3.1.1 1.6.1 3.2.3 5 .6s3.6.6 5.3 1.1c1.8.4 3.5 1 5.1 1.7 1.7.7 3.2 1.5 4.6 2.4l.3.2-.7 22.7-.8-.3c-2-.9-4.1-1.5-6.1-1.9-2.1-.4-4.2-.6-6.3-.8-.4 0-.9 0-1.3 0-2.3 0-4.6.3-6.7 1-2.5.8-4.6 2-6.5 3.7-1.8 1.7-3.3 3.8-4.3 6.3-1.1 2.5-1.6 5.4-1.5 8.7 0 2.1.3 4.1.9 6 .5 1.9 1.4 3.7 2.4 5.2 1.1 1.5 2.4 2.7 4 3.7 1.5.9 3.4 1.4 5.4 1.5h.3c1.3 0 2.6-.2 3.9-.5.7-.2.8-.4 1.1-.8.2-.3.4-.6.7-.9l.1-2.2-13.9-.6.8-20h2.7 4.7 4.5 4.2c3.4.1 7.9.1 12 .2l7.5.1v41.9l-.1.2c-.3.3-2.6 3.3-4.2 4.6-2.2 1.7-4.9 3.2-8.2 4.6-3 1.2-6.1 2.2-9.2 2.8-3.3 0-6.4.4-9.3.4z" fill="#fff"/><path d="m118.7 100.6c1 0 2 0 3 .1 1.6.1 3.2.3 5 .5 1.8.3 3.5.6 5.2 1s3.4 1 5.1 1.7c1.6.7 3.1 1.5 4.5 2.4l-.7 21.6c-2-.9-4.1-1.6-6.3-2s-4.3-.7-6.3-.8c-.5 0-.9 0-1.4 0-2.4 0-4.7.3-6.8 1-2.6.8-4.8 2.1-6.7 3.8s-3.4 3.9-4.5 6.5-1.6 5.6-1.6 8.9c0 2.1.3 4.2.9 6.2s1.4 3.8 2.5 5.4 2.5 2.8 4.1 3.8 3.5 1.5 5.6 1.5h.3c1.3 0 2.7-.2 4.1-.5 1.5-.4 1.1-1.1 2.2-2l.1-3-13.9-.6.8-18.9h2.2 9.2 4.1c5.4.1 13.6.2 19 .3v41.1c-.9 1.2-2.8 3.5-4.1 4.5-2.4 1.9-5.2 3.3-8.1 4.5s-6 2.1-9.1 2.7c-3.2.6-6.2.9-9.1.9-5.6 0-10.9-1.1-15.8-3.4s-9.1-5.4-12.7-9.4c-1.7-1.9-3.2-3.9-4.5-6.1v10.5l-30.5 1.4-15.3-37-3 37.7h-25.3l2.4-73.8 27.8-5.8 19.1 36.8 1.5-36.7 26.2-2.6-.6 15.1c1.1-1.7 2.3-3.2 3.6-4.7 2.5-2.9 5.4-5.3 8.6-7.2s6.6-3.4 10.3-4.3c3-.8 5.9-1.1 8.9-1.1m0-1.1c-3.1 0-6.2.4-9 1.1-3.8.9-7.4 2.4-10.6 4.4-3.3 2-6.3 4.5-8.9 7.4-.5.6-1 1.2-1.5 1.8l.4-11.4v-1.3l-1.3.1-26.2 2.6-1 .1v1l-1.4 32.5-17.2-33.1-.4-.8-.8.2-27.8 5.8-.9.2v.9l-2.4 73.8v1.2h1.2 25.3 1l.1-1 2.6-33 13.5 32.6.3.7h.8l30.5-1.4h1v-1l.2-6.8c.8 1.2 1.7 2.3 2.7 3.3 3.6 4.1 8 7.3 13 9.6s10.4 3.5 16.2 3.5c3 0 6.1-.3 9.3-.9s6.3-1.6 9.3-2.8c3.4-1.4 6.1-2.9 8.4-4.7 1.7-1.3 4.1-4.4 4.3-4.7l.2-.3v-.4-41.1-1.1h-1.1c-2 0-4.5-.1-7-.1-4.2-.1-8.6-.1-12-.2-1.4 0-2.8 0-4.2 0-1.5 0-3 0-4.5 0s-3.1 0-4.7 0c-.7 0-1.4 0-2.2 0h-1.1v1.1l-.8 18.9v.9c-.2-.2-.4-.5-.6-.8-1-1.5-1.8-3.1-2.4-5-.5-1.9-.8-3.9-.8-5.9 0-3.2.5-6 1.5-8.5 1-2.4 2.4-4.5 4.2-6.1s3.9-2.8 6.2-3.6c2-.7 4.2-1 6.5-1h1.3c2 .1 4.1.4 6.2.7 2.1.4 4.1 1 6 1.9l1.5.7.1-1.7.7-21.6v-.6l-.5-.3c-1.4-.9-3-1.8-4.7-2.5s-3.4-1.3-5.2-1.7-3.6-.8-5.4-1.1-3.5-.4-5.1-.6c-.7.1-1.8.1-2.8.1zm2.2 61.6c-.1 0-.2 0-.3 0-1.9 0-3.6-.5-5.1-1.4-1.2-.7-2.2-1.5-3-2.6h.9l12.7.6v1.4c-.3.3-.5.6-.6.9-.2.4-.3.4-.7.5-1.4.5-2.7.6-3.9.6z"/></svg>