<svg width="248" height="85" viewBox="0 0 248 85" fill="none" xmlns="http://www.w3.org/2000/svg">
<rect x="61" y="14" width="186" height="53" rx="26.5" fill="#01002C" stroke="#82EF5C" stroke-width="2" stroke-linecap="round" stroke-dasharray="4 4"/>
<path d="M128.921 26C129.473 26 129.921 26.4477 129.921 27V55C129.921 55.5523 129.473 56 128.921 56H124.605C124.308 56 124.027 55.8682 123.837 55.6402L110.727 39.9077C110.128 39.1891 108.958 39.6125 108.958 40.5478V55C108.958 55.5523 108.511 56 107.958 56H103C102.448 56 102 55.5523 102 55V27C102 26.4477 102.448 26 103 26H107.358C107.656 26 107.938 26.1323 108.128 26.3609L121.193 42.0852C121.791 42.8051 122.962 42.3821 122.962 41.4461V27C122.962 26.4477 123.41 26 123.962 26H128.921Z" fill="url(#paint0_linear_324_6251)"/>
<path d="M161 50.3429C161.552 50.3429 162 50.7906 162 51.3429V55C162 55.5523 161.552 56 161 56H136.384C135.832 56 135.384 55.5523 135.384 55V51.8648C135.384 51.6292 135.467 51.4011 135.619 51.2209L150.701 33.3011C151.248 32.6506 150.786 31.6571 149.936 31.6571H136.732C136.18 31.6571 135.732 31.2094 135.732 30.6571V27C135.732 26.4477 136.18 26 136.732 26H160.348C160.9 26 161.348 26.4477 161.348 27V30.1359C161.348 30.3711 161.265 30.5987 161.114 30.7789L146.07 48.6999C145.524 49.3506 145.986 50.3429 146.836 50.3429H161Z" fill="url(#paint1_linear_324_6251)"/>
<g clip-path="url(#clip0_324_6251)">
<path d="M9.101 28.7044C8.84922 28.1094 8.72026 27.478 8.71412 26.8284C8.71412 26.6705 8.72026 26.5066 8.73254 26.3548C8.84922 25.0313 9.48174 23.8292 10.5073 22.9793L29.5382 7.19429L26.6028 5.16045C26.2466 4.91761 25.8475 4.73547 25.4115 4.63226C25.2395 4.58977 25.0983 4.56548 24.9632 4.54727C24.736 4.52298 24.5087 4.51691 24.2754 4.53513C24.1587 4.54727 24.0482 4.55941 23.9376 4.57762C23.4525 4.66262 22.9919 4.84475 22.5682 5.12403C22.1997 5.36687 21.8865 5.67043 21.6348 6.02256L0.644861 35.674C0.0983133 36.4451 -0.11048 37.38 0.0553264 38.3028C0.116736 38.6428 0.221133 38.9646 0.374658 39.2621C0.63872 39.7842 1.03174 40.2395 1.52302 40.5734L43.6134 69.7089L9.88705 29.9793C9.56158 29.5968 9.29137 29.1658 9.101 28.7044ZM5.36728 40.3245C5.74188 38.4182 5.14006 36.4451 4.00398 34.6601C6.15947 35.1823 7.9772 34.8484 9.8502 33.9923C9.4756 35.8987 10.0774 37.8718 11.2135 39.6567C9.05802 39.1346 7.24028 39.4685 5.36728 40.3245Z" fill="white"/>
<path d="M26.2466 15.785C26.6519 14.1822 27.831 12.883 29.4092 12.3184L34.365 10.5334L35.2063 10.2299L36.0476 9.92632L48.1699 5.56724L44.516 1.2628C44.4546 1.18994 44.3871 1.11709 44.2949 1.02602L44.2397 0.971383C44.1598 0.89853 44.0862 0.831747 44.0063 0.764964L43.9879 0.752822C43.9203 0.698182 43.8405 0.643541 43.7423 0.576759L43.6808 0.540332C43.5949 0.485692 43.5089 0.437122 43.4229 0.394624L43.3922 0.376411C43.3185 0.339984 43.2264 0.297486 43.1282 0.261059L43.0606 0.236775C42.9746 0.200348 42.8825 0.169992 42.7904 0.145707L42.7597 0.133565C42.6614 0.109281 42.5632 0.084996 42.4711 0.0667826L42.3974 0.0546403C42.3053 0.0364269 42.2132 0.0242846 42.121 0.0182134L42.0781 0.0121423C41.9859 0.00607115 41.8877 0 41.7894 0L41.7157 0.00607115C41.6236 0.00607115 41.5315 0.0121423 41.4394 0.0242846H41.4025C41.3227 0.0303557 41.2429 0.042498 41.163 0.0546403L41.0341 0.0789249C40.942 0.0971383 40.8499 0.121423 40.7639 0.145707L40.7209 0.15785C40.6349 0.182134 40.5428 0.218561 40.4445 0.261059L40.377 0.291415C40.2849 0.327842 40.1928 0.37034 40.1068 0.418909L40.0822 0.431051C40.0024 0.473549 39.9164 0.522118 39.8243 0.588901L39.7629 0.631399C39.6585 0.704253 39.5725 0.764964 39.4988 0.825676L31.9454 7.08503L31.362 7.57072L30.7786 8.05034L11.4529 24.0903C10.7222 24.6913 10.28 25.5413 10.194 26.4763C10.1818 26.5916 10.1818 26.7009 10.1818 26.8163C10.1879 27.2777 10.28 27.7209 10.4581 28.1458C10.5993 28.4737 10.7836 28.7712 11.0169 29.0504L44.9275 69.0046L26.4001 18.687C26.0562 17.752 26.0009 16.7503 26.2466 15.785ZM21.6408 26.7859C21.6101 27.2777 21.3706 27.733 20.9715 28.0669C20.6214 28.3583 20.167 28.5344 19.7064 28.5526C19.4547 28.5647 19.2152 28.5344 18.9818 28.4615C19.2029 28.7104 19.4547 28.929 19.7187 29.1111C20.2346 29.4693 20.8302 29.694 21.4382 29.7911L19.6266 31.2968C19.6389 30.6836 19.5161 30.0704 19.252 29.5058C19.1169 29.2144 18.945 28.9351 18.73 28.674C18.7607 28.9108 18.7546 29.1536 18.6993 29.3904C18.5949 29.8397 18.3493 30.2464 17.9931 30.5379C17.5939 30.8718 17.1027 31.0236 16.6052 30.9689C16.0403 30.9082 15.4999 30.5864 15.0331 30.04C14.6585 29.5968 14.4252 29.014 14.3392 28.2915C14.2717 27.7209 14.3024 27.0712 14.419 26.3548C14.6156 25.1406 15.0086 24.1449 15.0147 24.1328L15.0393 24.0721L15.1068 24.0599C15.1191 24.0599 16.1815 23.8414 17.422 23.8596C18.1528 23.8717 18.8037 23.9567 19.3564 24.1207C20.0626 24.3271 20.6092 24.6549 20.9838 25.0981C21.4566 25.6506 21.6777 26.2334 21.6408 26.7859Z" fill="white"/>
<path d="M46.7083 18.1952V17.3088V13.7208C46.7083 13.5812 46.7145 13.4415 46.7329 13.3079C46.739 13.2655 46.7452 13.2169 46.7513 13.1744C46.7636 13.0833 46.7759 12.9922 46.7943 12.9073C46.8066 12.8526 46.8189 12.804 46.8312 12.7494C46.8496 12.6705 46.868 12.5916 46.8926 12.5126C46.911 12.458 46.9233 12.4094 46.9417 12.3548C46.9663 12.2819 46.9908 12.2091 47.0215 12.1362C47.0399 12.0876 47.0645 12.033 47.0891 11.9844C47.1198 11.9177 47.1566 11.8448 47.1873 11.778C47.2119 11.7295 47.2426 11.6809 47.2672 11.6323C47.304 11.5655 47.347 11.4987 47.39 11.438C47.4207 11.3955 47.4452 11.347 47.476 11.3045C47.5251 11.2377 47.5742 11.1709 47.6295 11.1041C47.6602 11.0677 47.6847 11.0252 47.7155 10.9948C47.783 10.9159 47.8506 10.837 47.9242 10.7702C47.9427 10.752 47.9611 10.7277 47.9795 10.7095C48.0716 10.6184 48.1637 10.5334 48.2681 10.4484C48.2988 10.4242 48.3357 10.3999 48.3664 10.3756C48.4339 10.3209 48.5076 10.2663 48.5813 10.2177C48.6243 10.1874 48.6673 10.1631 48.7103 10.1327C48.7778 10.0902 48.8454 10.0477 48.9129 10.0113C48.9621 9.98703 49.0112 9.96275 49.0603 9.93846C49.1279 9.90204 49.1954 9.87168 49.2691 9.83525C49.3183 9.81097 49.3735 9.79276 49.4226 9.76847C49.4963 9.73812 49.57 9.71383 49.6437 9.68955C49.699 9.67133 49.7481 9.65312 49.8034 9.64098C49.8771 9.61669 49.9569 9.59848 50.0367 9.58027C50.092 9.56812 50.1411 9.55598 50.1964 9.54384C50.2148 9.53777 50.2394 9.5317 50.2578 9.5317C50.3254 9.51955 50.3929 9.51348 50.4666 9.50741C50.5096 9.50134 50.5526 9.49527 50.6017 9.4892C50.7368 9.47706 50.8719 9.47099 51.0132 9.47099H51.4922H52.4502H53.4082H71.1188L68.8896 3.40591C68.8527 3.3027 68.8036 3.19949 68.7545 3.09021L68.6992 2.99307C68.6624 2.92629 68.6317 2.85344 68.5887 2.79273C68.5764 2.77451 68.5641 2.7563 68.5518 2.73201L68.5211 2.68345C68.4843 2.62881 68.4474 2.57417 68.4044 2.51952C68.3799 2.4831 68.3492 2.45274 68.3185 2.41632C68.2755 2.36167 68.2325 2.31311 68.1895 2.26454C68.1588 2.22811 68.1281 2.19775 68.0974 2.16133C68.0544 2.11276 68.0053 2.07026 67.9561 2.02776C67.9193 1.99741 67.8886 1.96705 67.8579 1.94277C67.8088 1.90027 67.7535 1.85777 67.6982 1.82134L67.6675 1.79706C67.643 1.77885 67.6184 1.76063 67.6 1.74242C67.5386 1.69992 67.4772 1.66349 67.4157 1.62707L67.3236 1.56636C67.2438 1.52386 67.164 1.48136 67.078 1.43886C67.0657 1.43279 67.0473 1.42065 67.0227 1.41458C66.9367 1.37208 66.8385 1.33565 66.7341 1.29922L66.6481 1.27494C66.5744 1.25066 66.5007 1.22637 66.427 1.20816C66.4025 1.20209 66.3779 1.19602 66.3595 1.19602L66.3104 1.18387C66.2428 1.17173 66.1753 1.15352 66.1077 1.14137C66.077 1.1353 66.0402 1.1353 66.0095 1.12923L65.9788 1.12316C65.9112 1.11709 65.8436 1.11102 65.7822 1.10495C65.7393 1.10495 65.6901 1.09888 65.6471 1.09888C65.5857 1.09888 65.5182 1.09888 65.4568 1.09888C65.4076 1.09888 65.3647 1.09888 65.3217 1.10495C65.2541 1.11102 65.1866 1.11709 65.119 1.12316L65.0822 1.12923C65.0453 1.1353 65.0146 1.14137 64.9839 1.14137C64.9655 1.14137 64.9471 1.14745 64.9225 1.14745C64.8979 1.15352 64.8611 1.15959 64.8304 1.17173L64.6584 1.20816C64.5418 1.23851 64.4312 1.27494 64.333 1.3053L50.6631 6.22292L49.9323 6.48398L49.1954 6.75111L37.5214 10.9463L36.6801 11.2498L35.8388 11.5534L29.9127 13.6844C28.8012 14.0851 27.966 15.0018 27.6713 16.1371C27.4993 16.8171 27.5362 17.5335 27.7818 18.1952L46.7083 69.6057V19.0755V18.1952ZM38.0495 18.3288C37.9144 18.8813 37.6688 19.4884 37.3126 20.1198C36.7108 21.1944 35.9862 21.9958 35.98 22.0079L35.9309 22.0565L35.8633 22.0443C35.8511 22.0443 34.7825 21.8804 33.6157 21.4494C32.9341 21.1883 32.3507 20.8847 31.884 20.5448C31.2945 20.1137 30.8953 19.6219 30.6988 19.0816C30.4531 18.4077 30.4409 17.7885 30.6681 17.2724C30.8707 16.8171 31.2515 16.4771 31.7427 16.301C32.1726 16.1492 32.6577 16.1371 33.0999 16.2707C33.4499 16.3799 33.757 16.5682 34.0088 16.8353C34.0272 16.4771 34.1377 16.131 34.3404 15.8275C34.5922 15.4389 34.9668 15.1414 35.4028 14.9897C35.8879 14.8136 36.4099 14.8379 36.8582 15.0564C37.3679 15.3054 37.7671 15.785 38.0127 16.4589C38.2031 16.9931 38.2153 17.6245 38.0495 18.3288Z" fill="white"/>
<path d="M89.6155 11.7416C89.0812 11.2134 88.375 10.922 87.6196 10.922H73.2129H72.4268H71.6469H54.6364H53.6784H52.7204H51.0132C50.9272 10.922 50.8413 10.9281 50.7369 10.9341H50.7246C50.7 10.9402 50.6755 10.9402 50.6509 10.9463L50.5772 10.9584C50.5649 10.9584 50.5526 10.9584 50.5342 10.9584C50.5158 10.9645 50.4974 10.9706 50.4789 10.9706C50.4544 10.9766 50.4298 10.9827 50.4052 10.9888L50.3684 10.9949C50.3131 11.007 50.264 11.0191 50.2149 11.0313C50.178 11.0434 50.1473 11.0556 50.1105 11.0616C50.0614 11.0798 50.0122 11.0981 49.9692 11.1163C49.9324 11.1284 49.9017 11.1406 49.8648 11.1588C49.8157 11.177 49.7727 11.2013 49.7297 11.2256L49.7113 11.2316C49.6868 11.2438 49.6622 11.2559 49.6376 11.2741C49.5946 11.2984 49.5517 11.3288 49.5025 11.353L49.4534 11.3834C49.4411 11.3955 49.4288 11.4016 49.4166 11.4077C49.3797 11.432 49.3306 11.4745 49.2753 11.5109C49.2507 11.5291 49.2323 11.5473 49.2078 11.5595L49.2016 11.5655C49.1463 11.6141 49.0911 11.6627 49.0419 11.7112C49.0235 11.7295 49.0051 11.7477 48.9867 11.7659C48.9253 11.8266 48.8823 11.8752 48.8454 11.9177L48.8332 11.9359L48.7902 11.9905C48.7595 12.033 48.7226 12.0755 48.6919 12.118C48.6796 12.1362 48.6674 12.1544 48.6612 12.1727L48.6366 12.2091C48.6121 12.2516 48.5814 12.2941 48.5568 12.3426C48.5384 12.373 48.52 12.4034 48.5077 12.4337C48.4831 12.4823 48.4586 12.5248 48.4401 12.5673C48.4217 12.5976 48.4094 12.6341 48.3971 12.6705C48.3787 12.713 48.3603 12.7616 48.3419 12.8162C48.3296 12.8526 48.3173 12.883 48.3112 12.9133C48.2928 12.968 48.2805 13.0165 48.2682 13.0712L48.2559 13.1258C48.2498 13.144 48.2436 13.1562 48.2436 13.1744C48.2375 13.223 48.2252 13.2897 48.2191 13.3505C48.2191 13.3808 48.2129 13.4051 48.2068 13.4355L48.2006 13.4537C48.1945 13.5508 48.1884 13.6358 48.1884 13.7147V18.3227V20.0955V70.5346C48.1884 70.8199 48.2313 71.0992 48.3173 71.3663C48.3419 71.4513 48.3787 71.5424 48.4094 71.6213C48.4831 71.7852 48.5691 71.9491 48.6674 72.0948C48.7717 72.2406 48.8823 72.3863 49.0112 72.5077C49.2385 72.7323 49.5087 72.9145 49.8096 73.0602C49.8771 73.0905 49.9385 73.1209 50.0061 73.1452C50.3316 73.2666 50.6693 73.3334 51.0071 73.3334H52.4134H52.5116H52.9967H53.6293H53.7214H54.6057H54.8636H55.14H57.2832H81.1532H87.4784H87.4968H87.6258C87.7056 73.3334 87.7854 73.3273 87.8837 73.3151H87.896C87.9205 73.3151 87.9451 73.3091 87.9697 73.303L88.0434 73.2969C88.0556 73.2969 88.0741 73.2969 88.0864 73.2909C88.1048 73.2848 88.1232 73.2787 88.1416 73.2787C88.1662 73.2726 88.1908 73.2727 88.2092 73.2666L88.246 73.2605C88.2951 73.2484 88.3504 73.2362 88.3995 73.2241C88.4364 73.218 88.4732 73.2059 88.5039 73.1937C88.5531 73.1755 88.6022 73.1634 88.6513 73.1452C88.682 73.1269 88.7189 73.1148 88.7496 73.1027C88.7987 73.0844 88.8417 73.0602 88.8908 73.0359L88.9154 73.0237C88.94 73.0116 88.9645 72.9994 88.9891 72.9873C89.0321 72.963 89.0812 72.9327 89.1242 72.9023L89.1794 72.872L89.2163 72.8537C89.2593 72.8234 89.3145 72.787 89.3575 72.7445C89.3821 72.7262 89.4067 72.708 89.4251 72.6898L89.4312 72.6837C89.4865 72.6352 89.5418 72.5866 89.5909 72.538C89.6093 72.5198 89.6277 72.5016 89.64 72.4834C89.7014 72.4227 89.7444 72.3741 89.7813 72.3316L89.7935 72.3195L89.8365 72.2648C89.8672 72.2223 89.9041 72.1798 89.9348 72.1313C89.9471 72.1191 89.9594 72.0948 89.9655 72.0827L89.9901 72.0463C90.0146 72.0038 90.0453 71.9613 90.0699 71.9127C90.0883 71.8824 90.1067 71.852 90.119 71.8156C90.1436 71.7731 90.162 71.7245 90.1866 71.682C90.1989 71.6516 90.2173 71.6152 90.2296 71.5849C90.248 71.5363 90.2664 71.4877 90.2848 71.4392C90.2971 71.4027 90.3094 71.3724 90.3217 71.336C90.3401 71.2813 90.3462 71.2327 90.3647 71.1781L90.3769 71.1295C90.3831 71.1113 90.3831 71.0931 90.3892 71.081C90.4015 71.0324 90.4076 70.9717 90.4138 70.9049C90.4138 70.8806 90.4199 70.8503 90.4261 70.826V70.8078C90.4322 70.7167 90.4383 70.6317 90.4383 70.5467V70.5346V70.5285V13.7269C90.4445 12.968 90.1497 12.2698 89.6155 11.7416ZM49.8833 17.5031C49.8833 17.1571 49.9754 16.8292 50.1412 16.5499C50.4789 15.9732 51.1053 15.5846 51.83 15.5846C52.1739 15.5846 52.4993 15.6696 52.7757 15.8275C52.4502 15.6332 52.1861 15.3539 52.0203 15.0139C51.8975 14.759 51.8238 14.4797 51.8238 14.1761C51.8238 13.8544 51.9037 13.5569 52.0449 13.2897C52.0695 13.2351 52.1002 13.1865 52.1309 13.138C52.4748 12.6037 53.0827 12.2516 53.7705 12.2516C53.7951 12.2516 53.8258 12.2516 53.8565 12.2516C54.5136 12.2759 55.0847 12.628 55.4163 13.144C55.447 13.1865 55.4716 13.2351 55.4961 13.2837C55.6374 13.5508 55.7172 13.8544 55.7172 14.1761C55.7172 14.2611 55.7111 14.3461 55.6988 14.425C55.6742 14.6315 55.6128 14.8318 55.5207 15.0139C55.3549 15.3479 55.0908 15.6332 54.7654 15.8275C55.0478 15.6696 55.3672 15.5846 55.7111 15.5846C56.4296 15.5846 57.0621 15.9732 57.3998 16.5499C57.5656 16.8292 57.6578 17.1571 57.6578 17.5031C57.6578 18.5656 56.7919 19.4216 55.7172 19.4216C55.4961 19.4216 55.2873 19.3852 55.0908 19.3184C54.5811 19.1484 54.1697 18.772 53.9486 18.2863V18.2984C53.9486 18.687 53.9977 19.0573 54.096 19.4155C54.2679 20.053 54.5934 20.6298 55.0171 21.1094H52.53C52.9599 20.6298 53.2792 20.053 53.4512 19.4155C53.5494 19.0634 53.6047 18.687 53.5986 18.2984V18.2863C53.3836 18.7659 52.966 19.1423 52.4563 19.3123C52.2598 19.3791 52.0449 19.4155 51.8238 19.4155C50.7491 19.4277 49.8833 18.5656 49.8833 17.5031Z" fill="white"/>
</g>
<path d="M51.7876 37.728C47.9992 38.1249 44.6843 39.018 41.8488 40.4015C38.8227 41.8726 36.3336 43.9098 34.4047 46.5192C34.1044 46.9161 34.1853 47.4765 34.5722 47.7742C34.8667 47.9961 35.2594 48.0077 35.5598 47.8268C38.9324 45.7837 42.0913 44.371 45.0366 43.5946C47.6585 42.9058 50.1071 42.7132 52.3825 43.0284C52.5557 46.2332 54.8311 47.3248 57.0256 48.3755L57.0543 48.3893C58.3782 49.0265 59.662 49.6444 60.069 50.7514C60.4368 51.7504 59.9184 53.2059 59.4524 54.5143L59.4453 54.5341C59.249 55.0769 59.0642 55.6023 58.9314 56.1102C58.0709 59.4317 57.7186 62.5372 57.8745 65.4209C58.0305 68.3397 58.7004 71.0308 59.89 73.4942C59.9362 73.5817 60.0171 73.7394 60.1268 73.9553C60.2365 74.1655 62.8927 77.5177 62.9446 77.6111L63.5558 77L61.0335 71.6962C60.225 69.7232 59.7572 67.5925 59.6359 65.3159C59.4915 62.6131 59.8265 59.6885 60.6408 56.548C60.7505 56.1335 60.9237 55.6432 61.1086 55.1295L61.1126 55.1182C61.6833 53.5158 62.3199 51.7283 61.7207 50.1092C61.0513 48.3127 59.4363 47.5361 57.7744 46.737L57.7706 46.7352L57.7564 46.7284C55.9185 45.8432 54.0114 44.9246 54.1438 42.287C54.1612 41.8492 53.8609 41.4464 53.4162 41.3647C50.6788 40.851 47.7335 41.0086 44.5804 41.8434C43.2059 42.2053 41.7968 42.6956 40.3415 43.3144C41.0576 42.8416 41.8141 42.4096 42.6169 42.0185C45.412 40.6525 48.7153 39.8003 52.5326 39.45C52.9484 39.4442 53.3122 39.1465 53.3815 38.7203C53.4913 38.1658 53.6356 37.617 53.8147 37.0858C54.6001 34.7683 56.0496 32.7661 57.8976 31.4702C59.7168 30.1918 61.9286 29.5963 64.2848 30.0575C64.6891 30.1392 65.0991 30.2501 65.5091 30.3902C68.1426 31.3009 70.1349 33.5075 72.1562 35.7549C73.5884 37.3485 75.038 38.9538 76.7878 40.2206C79.1874 41.9572 81.8881 43.206 84.58 44.4506L84.6476 44.4819C87.6507 45.8654 90.6479 47.2489 93.1312 49.2978C94.0883 50.0875 94.1108 50.1104 96.1253 52.1576L96.2959 52.331L97.1669 50.7222C96.5558 50.1111 96.5558 50.1111 96.0533 49.5955C93.5002 46.4444 89.2446 44.6337 85.3926 42.8591C82.7707 41.6507 80.1373 40.4365 77.8331 38.767C76.2396 37.614 74.868 36.093 73.5094 34.5864L73.4787 34.5524C71.3015 32.1356 69.159 29.7598 66.0866 28.6974C65.5958 28.5281 65.1107 28.3938 64.6256 28.3004C61.7727 27.74 59.0931 28.458 56.8985 29.9991C54.7329 31.5169 53.0466 33.8344 52.1399 36.5138C52.0071 36.9107 51.8858 37.3135 51.7876 37.728Z" fill="#010042"/>
<path fill-rule="evenodd" clip-rule="evenodd" d="M52.5151 38.5511C44.6148 39.2633 38.8052 42.0945 35.0918 47.0388C41.9872 42.8592 48.0394 41.2655 53.2601 42.2462C52.9829 47.7918 59.5953 46.9221 60.8889 50.4187C61.5531 52.2108 60.2306 54.5867 59.7801 56.3204C58.1054 62.7825 58.4057 68.369 60.681 73.0798C60.8254 73.3775 60.9755 73.6694 61.1315 73.9554C62.8813 68.8476 65.7515 64.2652 69.4591 60.5234C75.7828 54.1313 84.5146 50.1794 94.1647 50.1794C94.5805 50.1794 94.9906 50.1852 95.4006 50.2027C90.5322 44.9723 83.0073 43.618 77.3074 39.491C73.1205 36.4555 70.5563 31.1842 65.7977 29.538C59.4394 27.3432 53.7221 32.2466 52.5151 38.5511Z" fill="#82EF5C"/>
<path fill-rule="evenodd" clip-rule="evenodd" d="M59.9014 35.9825C61.709 35.9825 63.17 37.4653 63.17 39.2866C63.17 41.1137 61.7032 42.5906 59.9014 42.5906C58.0938 42.5906 56.6327 41.1079 56.6327 39.2866C56.6327 37.4594 58.0938 35.9825 59.9014 35.9825Z" fill="#010042"/>
<path fill-rule="evenodd" clip-rule="evenodd" d="M58.8448 37.1091C59.688 37.1091 60.3752 37.798 60.3752 38.6561C60.3752 39.5142 59.688 40.203 58.8448 40.203C58.0017 40.203 57.3145 39.5142 57.3145 38.6561C57.3145 37.798 58.0017 37.1091 58.8448 37.1091Z" fill="#FEFEFE"/>
<path fill-rule="evenodd" clip-rule="evenodd" d="M61.7843 38.2067C62.2636 38.2067 62.6563 38.6036 62.6563 39.0881C62.6563 39.5726 62.2694 39.9696 61.7843 39.9696C61.3049 39.9696 60.9122 39.5726 60.9122 39.0881C60.918 38.5978 61.3049 38.2067 61.7843 38.2067Z" fill="#FEFEFE"/>
<path d="M61.2908 75.5157C61.7528 76.1636 62.2436 76.7824 62.7576 77.3603C66.3786 81.4349 71.4491 84.0034 76.739 84.7272C82.0463 85.4569 87.5903 84.3361 92.1526 81.0438C92.7763 80.5943 93.3711 80.1098 93.9428 79.5902C97.9219 75.971 100.232 70.9508 100.827 65.7554C101.439 60.455 100.158 55.0827 97.1669 50.7221L96.6109 50.2277C96.1778 50.1927 95.71 50.1635 95.2018 50.1401C94.6878 50.1226 94.7224 50.7221 95.3336 51.3332L95.9447 51.9443C98.5088 55.8788 99.6024 60.8111 99.0595 65.5511C98.5167 70.3262 96.3972 74.9378 92.7532 78.2534C92.2219 78.738 91.679 79.1758 91.1246 79.5786C86.9435 82.5965 81.8557 83.6181 76.9758 82.9468C72.0901 82.2755 67.4123 79.9113 64.0743 76.1578C63.6874 75.7258 63.3236 75.2763 62.9771 74.8093L61.1464 74.7218C61.0655 75.0078 61.129 75.2997 61.2908 75.5157Z" fill="#010042"/>
<path fill-rule="evenodd" clip-rule="evenodd" d="M62.0009 74.9787C68.9656 84.8323 84.0153 87.4125 93.3536 78.9248C101.057 71.9198 102.056 59.2777 96.5556 51.3332C95.9445 50.7221 95.9445 50.7221 95.3333 50.111C84.9445 49.4999 75.6669 53.8236 69.6667 59.8888C66.2117 63.3811 60.5 72.7221 61.1111 73.9444C61.7222 74.5555 61.786 74.687 62.0009 74.9787Z" fill="#82EF5C"/>
<path fill-rule="evenodd" clip-rule="evenodd" d="M64.4613 77.8507C72.0786 85.2526 85.0031 86.5135 93.3539 78.9248C100.503 72.4277 102.022 61.1847 97.6736 52.9889C105.684 79.9872 74.0941 87.3191 64.4613 77.8507Z" fill="#389B15"/>
<path fill-rule="evenodd" clip-rule="evenodd" d="M53.2601 42.2461C54.3458 40.9386 54.0975 39.7068 52.5151 38.551C44.6148 39.2632 38.8052 42.0944 35.0918 47.0387C41.9872 42.8649 48.0452 41.2655 53.2601 42.2461Z" fill="#E17543"/>
<path fill-rule="evenodd" clip-rule="evenodd" d="M51.7471 39.4033C51.9665 39.5025 52.0993 39.6718 52.0531 39.7827C52.0069 39.8936 51.7875 39.8995 51.568 39.8002C51.3486 39.701 51.2158 39.5317 51.262 39.4208C51.3139 39.3099 51.5276 39.3041 51.7471 39.4033Z" fill="#010042"/>
<path fill-rule="evenodd" clip-rule="evenodd" d="M68.3328 46.8578C59.7453 48.7199 53.5025 45.0014 53.8201 41.283C53.7162 41.5982 53.5256 41.9192 53.2542 42.2461C53.0116 47.138 58.1283 47.0387 60.2247 49.3445C60.5076 49.6539 60.7329 50.0042 60.883 50.4186C61.5471 52.2107 60.2247 54.5866 59.7742 56.3203C59.5894 57.0266 59.4335 57.7271 59.2949 58.4101C60.3806 53.8978 64.0997 48.7082 68.3328 46.8578Z" fill="#389B15"/>
<path fill-rule="evenodd" clip-rule="evenodd" d="M94.4939 49.2979C89.6371 44.7972 82.6666 43.367 77.3131 39.4909C73.5767 36.7881 71.3764 32.2933 67.2819 30.1976C70.7931 33.1747 73.1551 37.1267 76.828 39.9229C82.2161 44.0266 88.8228 44.4878 94.4939 49.2979Z" fill="#FEFEFE"/>
<path fill-rule="evenodd" clip-rule="evenodd" d="M60.1096 42.614C65.4284 42.4856 66.3062 40.8335 62.7488 37.658C63.6497 39.2399 63.1126 41.2597 61.5534 42.1762C61.0972 42.4389 60.6005 42.5848 60.1096 42.614Z" fill="#389B15"/>
<path fill-rule="evenodd" clip-rule="evenodd" d="M53.6527 39.7361C53.4102 40.2673 52.0992 40.7109 49.7199 41.0787C49.4369 41.1196 49.1366 41.1663 48.819 41.2071C43.7947 41.8668 39.8734 43.5421 35.7212 46.6652C42.3509 42.7716 48.1953 41.3005 53.2542 42.252C53.4621 41.9952 53.6238 41.7442 53.7336 41.499C53.7624 41.429 53.7913 41.3589 53.8144 41.2889C53.9992 40.7518 53.9415 40.2381 53.6527 39.7361Z" fill="#B14918"/>
<path d="M175.926 56C174.811 56 173.799 55.7697 172.893 55.3091C171.996 54.8385 171.287 54.1927 170.766 53.3717C170.255 52.5407 170 51.6045 170 50.5632C170 49.5219 170.255 48.5907 170.766 47.7697C171.287 46.9387 171.996 46.2929 172.893 45.8323C173.799 45.3617 174.816 45.1264 175.942 45.1264C176.89 45.1264 177.745 45.2866 178.506 45.607C179.277 45.9274 179.923 46.388 180.445 46.9887L178.819 48.4305C178.078 47.6095 177.161 47.199 176.067 47.199C175.389 47.199 174.785 47.3442 174.253 47.6345C173.721 47.9149 173.304 48.3104 173.002 48.821C172.71 49.3317 172.564 49.9124 172.564 50.5632C172.564 51.214 172.71 51.7947 173.002 52.3054C173.304 52.816 173.721 53.2165 174.253 53.5069C174.785 53.7872 175.389 53.9274 176.067 53.9274C177.161 53.9274 178.078 53.5119 178.819 52.6809L180.445 54.1227C179.923 54.7334 179.277 55.199 178.506 55.5194C177.734 55.8398 176.874 56 175.926 56Z" fill="white"/>
<path d="M185.393 47.6195C186.696 47.6195 187.697 47.9199 188.395 48.5207C189.094 49.1114 189.443 50.0075 189.443 51.209V55.8198H187.16V54.8135C186.701 55.5645 185.847 55.9399 184.596 55.9399C183.949 55.9399 183.387 55.8348 182.907 55.6245C182.438 55.4143 182.078 55.1239 181.828 54.7534C181.578 54.383 181.453 53.9625 181.453 53.4919C181.453 52.7409 181.745 52.1502 182.329 51.7196C182.923 51.2891 183.835 51.0738 185.065 51.0738H187.004C187.004 50.5632 186.842 50.1727 186.519 49.9024C186.196 49.622 185.711 49.4819 185.065 49.4819C184.617 49.4819 184.174 49.5519 183.736 49.6921C183.308 49.8223 182.944 50.0025 182.641 50.2328L181.766 48.5957C182.224 48.2854 182.772 48.0451 183.407 47.8748C184.054 47.7046 184.716 47.6195 185.393 47.6195ZM185.206 54.363C185.623 54.363 185.993 54.2728 186.316 54.0926C186.639 53.9024 186.868 53.627 187.004 53.2666V52.4405H185.331C184.33 52.4405 183.83 52.7559 183.83 53.3867C183.83 53.6871 183.949 53.9274 184.189 54.1076C184.439 54.2778 184.778 54.363 185.206 54.363Z" fill="white"/>
<path d="M194.559 55.9399C193.86 55.9399 193.177 55.8598 192.51 55.6996C191.843 55.5294 191.312 55.3191 190.916 55.0688L191.729 53.3867C192.104 53.617 192.557 53.8073 193.089 53.9574C193.62 54.0976 194.142 54.1677 194.652 54.1677C195.684 54.1677 196.2 53.9224 196.2 53.4318C196.2 53.2015 196.06 53.0363 195.778 52.9362C195.497 52.836 195.064 52.7509 194.48 52.6809C193.792 52.5807 193.224 52.4656 192.776 52.3354C192.328 52.2053 191.937 51.975 191.603 51.6446C191.28 51.3141 191.119 50.8436 191.119 50.2328C191.119 49.7222 191.27 49.2716 191.572 48.8811C191.885 48.4806 192.333 48.1702 192.917 47.9499C193.511 47.7297 194.209 47.6195 195.012 47.6195C195.606 47.6195 196.195 47.6846 196.779 47.8148C197.373 47.9349 197.863 48.1051 198.249 48.3254L197.436 49.9925C196.695 49.592 195.888 49.3917 195.012 49.3917C194.491 49.3917 194.1 49.4618 193.839 49.602C193.579 49.7422 193.448 49.9224 193.448 50.1427C193.448 50.393 193.589 50.5682 193.871 50.6683C194.152 50.7685 194.6 50.8636 195.215 50.9537C195.903 51.0638 196.466 51.184 196.904 51.3141C197.342 51.4343 197.722 51.6596 198.045 51.99C198.369 52.3204 198.53 52.781 198.53 53.3717C198.53 53.8723 198.374 54.3179 198.061 54.7084C197.748 55.0989 197.29 55.4043 196.685 55.6245C196.091 55.8348 195.382 55.9399 194.559 55.9399Z" fill="white"/>
<path d="M200.113 47.7397H202.552V55.8198H200.113V47.7397ZM201.333 46.6133C200.885 46.6133 200.52 46.4881 200.238 46.2378C199.957 45.9875 199.816 45.6771 199.816 45.3066C199.816 44.9362 199.957 44.6258 200.238 44.3755C200.52 44.1252 200.885 44 201.333 44C201.781 44 202.146 44.1202 202.427 44.3605C202.709 44.6008 202.849 44.9011 202.849 45.2616C202.849 45.6521 202.709 45.9775 202.427 46.2378C202.146 46.4881 201.781 46.6133 201.333 46.6133Z" fill="white"/>
<path d="M210.007 47.6195C211.05 47.6195 211.889 47.9199 212.524 48.5207C213.171 49.1214 213.494 50.0125 213.494 51.194V55.8198H211.055V51.5544C211.055 50.9136 210.909 50.438 210.617 50.1277C210.325 49.8073 209.903 49.6471 209.35 49.6471C208.735 49.6471 208.246 49.8323 207.881 50.2028C207.516 50.5632 207.333 51.1039 207.333 51.8248V55.8198H204.894V47.7397H207.224V48.6859C207.547 48.3454 207.948 48.0851 208.428 47.9049C208.907 47.7146 209.434 47.6195 210.007 47.6195Z" fill="white"/>
<path d="M219.877 55.9399C218.991 55.9399 218.194 55.7647 217.485 55.4143C216.787 55.0538 216.24 54.5582 215.843 53.9274C215.447 53.2966 215.249 52.5807 215.249 51.7797C215.249 50.9787 215.447 50.2628 215.843 49.632C216.24 49.0013 216.787 48.5106 217.485 48.1602C218.194 47.7997 218.991 47.6195 219.877 47.6195C220.763 47.6195 221.556 47.7997 222.254 48.1602C222.952 48.5106 223.5 49.0013 223.896 49.632C224.292 50.2628 224.49 50.9787 224.49 51.7797C224.49 52.5807 224.292 53.2966 223.896 53.9274C223.5 54.5582 222.952 55.0538 222.254 55.4143C221.556 55.7647 220.763 55.9399 219.877 55.9399ZM219.877 54.0175C220.503 54.0175 221.014 53.8173 221.41 53.4168C221.816 53.0063 222.019 52.4606 222.019 51.7797C222.019 51.0989 221.816 50.5582 221.41 50.1577C221.014 49.7472 220.503 49.5419 219.877 49.5419C219.252 49.5419 218.736 49.7472 218.329 50.1577C217.923 50.5582 217.72 51.0989 217.72 51.7797C217.72 52.4606 217.923 53.0063 218.329 53.4168C218.736 53.8173 219.252 54.0175 219.877 54.0175Z" fill="white"/>
<path d="M229.029 55.9399C228.33 55.9399 227.647 55.8598 226.98 55.6996C226.313 55.5294 225.782 55.3191 225.385 55.0688L226.198 53.3867C226.574 53.617 227.027 53.8073 227.559 53.9574C228.09 54.0976 228.612 54.1677 229.122 54.1677C230.154 54.1677 230.67 53.9224 230.67 53.4318C230.67 53.2015 230.53 53.0363 230.248 52.9362C229.967 52.836 229.534 52.7509 228.95 52.6809C228.262 52.5807 227.694 52.4656 227.246 52.3354C226.798 52.2053 226.407 51.975 226.073 51.6446C225.75 51.3141 225.589 50.8436 225.589 50.2328C225.589 49.7222 225.74 49.2716 226.042 48.8811C226.355 48.4806 226.803 48.1702 227.387 47.9499C227.981 47.7297 228.679 47.6195 229.482 47.6195C230.076 47.6195 230.665 47.6846 231.249 47.8148C231.843 47.9349 232.333 48.1051 232.719 48.3254L231.906 49.9925C231.165 49.592 230.358 49.3917 229.482 49.3917C228.961 49.3917 228.57 49.4618 228.309 49.602C228.049 49.7422 227.918 49.9224 227.918 50.1427C227.918 50.393 228.059 50.5682 228.341 50.6683C228.622 50.7685 229.07 50.8636 229.685 50.9537C230.373 51.0638 230.936 51.184 231.374 51.3141C231.812 51.4343 232.192 51.6596 232.515 51.99C232.838 52.3204 233 52.781 233 53.3717C233 53.8723 232.844 54.3179 232.531 54.7084C232.218 55.0989 231.76 55.4043 231.155 55.6245C230.561 55.8348 229.852 55.9399 229.029 55.9399Z" fill="white"/>
<path d="M173.525 29.2755V32.0679H178.575V34.0302H173.525V37.8792H171V27.3132H179.245V29.2755H173.525Z" fill="white"/>
<path d="M180.708 29.7585H183.14V37.8792H180.708V29.7585ZM181.924 28.6264C181.477 28.6264 181.114 28.5006 180.833 28.2491C180.553 27.9975 180.412 27.6855 180.412 27.3132C180.412 26.9409 180.553 26.6289 180.833 26.3774C181.114 26.1258 181.477 26 181.924 26C182.371 26 182.735 26.1208 183.015 26.3623C183.296 26.6038 183.436 26.9057 183.436 27.2679C183.436 27.6604 183.296 27.9874 183.015 28.2491C182.735 28.5006 182.371 28.6264 181.924 28.6264Z" fill="white"/>
<path d="M187.797 30.8302C188.087 30.4377 188.477 30.1409 188.965 29.9396C189.464 29.7384 190.036 29.6377 190.68 29.6377V31.8113C190.41 31.7912 190.228 31.7811 190.134 31.7811C189.438 31.7811 188.893 31.9723 188.498 32.3547C188.103 32.727 187.906 33.2906 187.906 34.0453V37.8792H185.474V29.7585H187.797V30.8302Z" fill="white"/>
<path d="M195.055 38C194.359 38 193.678 37.9195 193.013 37.7585C192.348 37.5874 191.818 37.3761 191.423 37.1245L192.234 35.434C192.608 35.6654 193.06 35.8566 193.59 36.0075C194.12 36.1484 194.639 36.2189 195.148 36.2189C196.177 36.2189 196.691 35.9723 196.691 35.4792C196.691 35.2478 196.551 35.0818 196.271 34.9811C195.99 34.8805 195.559 34.795 194.977 34.7245C194.291 34.6239 193.725 34.5082 193.278 34.3774C192.831 34.2465 192.442 34.0151 192.109 33.683C191.787 33.3509 191.626 32.878 191.626 32.2642C191.626 31.7509 191.777 31.2981 192.078 30.9057C192.39 30.5031 192.837 30.1912 193.418 29.9698C194.011 29.7484 194.707 29.6377 195.507 29.6377C196.099 29.6377 196.686 29.7031 197.268 29.834C197.86 29.9547 198.349 30.1258 198.733 30.3472L197.923 32.0226C197.185 31.6201 196.38 31.4189 195.507 31.4189C194.987 31.4189 194.598 31.4893 194.338 31.6302C194.078 31.7711 193.948 31.9522 193.948 32.1736C193.948 32.4252 194.089 32.6013 194.369 32.7019C194.65 32.8025 195.097 32.8981 195.71 32.9887C196.395 33.0994 196.956 33.2201 197.393 33.3509C197.829 33.4717 198.208 33.6981 198.531 34.0302C198.853 34.3623 199.014 34.8252 199.014 35.4189C199.014 35.922 198.858 36.3698 198.546 36.7623C198.234 37.1547 197.777 37.4616 197.175 37.683C196.582 37.8943 195.876 38 195.055 38Z" fill="white"/>
<path d="M206 37.4868C205.761 37.6579 205.465 37.7887 205.112 37.8792C204.769 37.9597 204.405 38 204.021 38C203.023 38 202.249 37.7535 201.698 37.2604C201.158 36.7673 200.888 36.0428 200.888 35.0868V31.7509H199.594V29.9396H200.888V27.9623H203.319V29.9396H205.408V31.7509H203.319V35.0566C203.319 35.3987 203.408 35.6654 203.584 35.8566C203.771 36.0377 204.031 36.1283 204.364 36.1283C204.748 36.1283 205.075 36.0277 205.345 35.8264L206 37.4868Z" fill="white"/>
<defs>
<linearGradient id="paint0_linear_324_6251" x1="130.843" y1="-21.2162" x2="130.843" y2="109.396" gradientUnits="userSpaceOnUse">
<stop offset="0.354167" stop-color="#82EF5C"/>
<stop offset="1" stop-color="#00751A"/>
</linearGradient>
<linearGradient id="paint1_linear_324_6251" x1="130.843" y1="-21.2162" x2="130.843" y2="109.396" gradientUnits="userSpaceOnUse">
<stop offset="0.354167" stop-color="#82EF5C"/>
<stop offset="1" stop-color="#00751A"/>
</linearGradient>
<clipPath id="clip0_324_6251">
<rect width="90.4445" height="73.3334" fill="white"/>
</clipPath>
</defs>
</svg>
