<?xml version="1.0" encoding="utf-8"?>
<!-- Generator: Adobe Illustrator 23.0.1, SVG Export Plug-In . SVG Version: 6.00 Build 0)  -->
<!DOCTYPE svg PUBLIC "-//W3C//DTD SVG 1.1//EN" "http://www.w3.org/Graphics/SVG/1.1/DTD/svg11.dtd" [
	<!ENTITY ns_extend "http://ns.adobe.com/Extensibility/1.0/">
	<!ENTITY ns_ai "http://ns.adobe.com/AdobeIllustrator/10.0/">
	<!ENTITY ns_graphs "http://ns.adobe.com/Graphs/1.0/">
	<!ENTITY ns_vars "http://ns.adobe.com/Variables/1.0/">
	<!ENTITY ns_imrep "http://ns.adobe.com/ImageReplacement/1.0/">
	<!ENTITY ns_sfw "http://ns.adobe.com/SaveForWeb/1.0/">
	<!ENTITY ns_custom "http://ns.adobe.com/GenericCustomNamespace/1.0/">
	<!ENTITY ns_adobe_xpath "http://ns.adobe.com/XPath/1.0/">
]>
<svg version="1.1" id="Шар_1" xmlns:x="&ns_extend;" xmlns:i="&ns_ai;" xmlns:graph="&ns_graphs;"
	 xmlns="http://www.w3.org/2000/svg" xmlns:xlink="http://www.w3.org/1999/xlink" x="0px" y="0px" width="799.174px"
	 height="142.346px" viewBox="0 0 799.174 142.346" style="enable-background:new 0 0 799.174 142.346;" xml:space="preserve">
<metadata>
	<sfw  xmlns="&ns_sfw;">
		<slices></slices>
		<sliceSourceBounds  bottomLeftOrigin="true" height="5001.167" width="16383" x="-7441" y="-3858.167"></sliceSourceBounds>
	</sfw>
</metadata>
<g>
	<g>
		<path style="fill:#212528;" d="M47.624,126.836c0,8.566,6.944,15.51,15.51,15.51h197.07c8.566,0,15.51-6.944,15.51-15.51V15.528
			c0-8.566-6.944-15.51-15.51-15.51h-70.347c-19.601,0-39.203,0-58.804,0c-23.514,0-41.247-1.004-58.356,12.237
			c-4.46,3.452-8.349,7.583-11.704,12.117L22.149,75.633L49.34,64.36L0,142.346L47.624,126.836z"/>
	</g>
	<g>
		<path style="fill:#FFFFFF;" d="M90.471,40.557h33.101c10.923,0,16.384,4.608,16.384,13.82v20.507
			c0,9.214-5.461,13.82-16.384,13.82h-13.597v23.404H90.471V40.557z M120.451,72.32V56.94c0-1.634-0.93-2.452-2.786-2.452h-7.69
			v20.284h7.69C119.522,74.772,120.451,73.956,120.451,72.32z"/>
		<path style="fill:#FFFFFF;" d="M168.486,86.697v25.411h-19.504V40.557h33.101c10.923,0,16.384,4.608,16.384,13.82v18.501
			c0,7.06-3.195,11.406-9.585,13.04l13.151,26.19H181.08l-11.368-25.411H168.486z M176.177,54.488h-7.69v18.946h7.69
			c1.856,0,2.786-0.816,2.786-2.451V56.94C178.963,55.307,178.033,54.488,176.177,54.488z"/>
		<path style="fill:#FFFFFF;" d="M224.656,40.557h16.495c10.922,0,16.383,4.608,16.383,13.82v43.911
			c0,9.214-5.461,13.82-16.383,13.82h-16.495c-10.922,0-16.383-4.606-16.383-13.82V54.377
			C208.273,45.165,213.734,40.557,224.656,40.557z M238.03,95.725V56.94c0-1.634-0.93-2.452-2.786-2.452h-4.681
			c-1.858,0-2.786,0.818-2.786,2.452v38.785c0,1.635,0.928,2.451,2.786,2.451h4.681C237.101,98.177,238.03,97.36,238.03,95.725z"/>
		<path style="fill:#83CDEA;" d="M293.086,40.557h32.767c10.922,0,16.383,4.608,16.383,13.82v9.139
			c0,6.465-1.783,10.663-5.35,12.594c2.079,0.892,3.492,2.249,4.235,4.068c0.742,1.821,1.114,4.291,1.114,7.411v10.699
			c0,9.214-5.461,13.82-16.383,13.82h-32.767V40.557z M323.066,67.417V55.826c0-1.634-0.93-2.452-2.786-2.452h-8.024v16.494h8.024
			C322.137,69.868,323.066,69.052,323.066,67.417z M323.066,96.84V85.138c0-1.634-0.93-2.452-2.786-2.452h-8.024v16.606h8.024
			C322.137,99.292,323.066,98.475,323.066,96.84z"/>
		<path style="fill:#83CDEA;" d="M379.013,56.494h18.947v55.614h-18.612v-7.133c-1.042,4.756-4.422,7.133-10.143,7.133h-2.006
			c-9.883,0-14.823-4.606-14.823-13.82V56.494h18.947v39.231c0,1.635,0.928,2.451,2.786,2.451h1.895
			c2.006,0,3.009-1.114,3.009-3.343V56.494z"/>
		<path style="fill:#83CDEA;" d="M428.162,112.108h-18.946V37.548h18.946v44.246l10.477-25.3h19.615l-11.925,27.417l11.925,28.197
			h-19.727l-10.365-25.968V112.108z"/>
		<path style="fill:#83CDEA;" d="M519.885,56.494h2.007c9.881,0,14.822,4.608,14.822,13.82v41.794h-18.946v-39.23
			c0-1.634-0.93-2.452-2.786-2.452h-1.895c-2.007,0-3.01,1.114-3.01,3.344v38.339h-18.946v-39.23c0-1.634-0.93-2.452-2.786-2.452
			h-1.895c-2.007,0-3.01,1.114-3.01,3.344v38.339h-18.946V56.494h18.612v7.133c1.04-4.754,4.42-7.133,10.142-7.133h2.007
			c6.909,0,11.44,2.341,13.597,7.021c0.594-2.154,1.895-3.862,3.9-5.126C514.759,57.127,517.136,56.494,519.885,56.494z"/>
		<path style="fill:#83CDEA;" d="M573.269,56.494h18.612v55.614h-18.946v-6.019c-1.412,4.013-4.682,6.019-9.808,6.019h-2.007
			c-9.882,0-14.822-4.606-14.822-13.82V70.314c0-9.212,4.94-13.82,14.822-13.82h2.007c5.721,0,9.101,2.379,10.142,7.133V56.494z
			 M568.03,98.177h1.895c2.007,0,3.01-1.114,3.01-3.343V73.769c0-2.229-1.003-3.344-3.01-3.344h-1.895
			c-1.857,0-2.786,0.818-2.786,2.452v22.848C565.244,97.36,566.173,98.177,568.03,98.177z"/>
		<path style="fill:#83CDEA;" d="M646.712,78.005h-18.278v-5.127c0-1.634-0.93-2.452-2.786-2.452h-1.895
			c-1.857,0-2.786,0.818-2.786,2.452v22.848c0,1.635,0.929,2.451,2.786,2.451h1.895c1.856,0,2.786-0.816,2.786-2.451v-5.127h18.278
			v7.689c0,9.214-5.461,13.82-16.383,13.82h-11.925c-10.922,0-16.383-4.606-16.383-13.82V70.314c0-9.212,5.461-13.82,16.383-13.82
			h11.925c10.922,0,16.383,4.608,16.383,13.82V78.005z"/>
		<path style="fill:#83CDEA;" d="M684.493,56.494h2.007c9.881,0,14.822,4.608,14.822,13.82v41.794h-18.946v-39.23
			c0-1.634-0.93-2.452-2.786-2.452h-1.895c-2.007,0-3.01,1.114-3.01,3.344v38.339h-18.946V37.548h18.946v24.965
			C676.096,58.501,679.367,56.494,684.493,56.494z"/>
		<path style="fill:#83CDEA;" d="M727.29,56.494h13.598c10.922,0,16.383,4.608,16.383,13.82v18.946h-28.42v7.356
			c0,1.635,0.928,2.451,2.786,2.451h4.904c1.856,0,2.786-0.892,2.786-2.675v-3.12h17.943v5.015c0,9.214-5.461,13.82-16.383,13.82
			H727.29c-10.922,0-16.383-4.606-16.383-13.82V70.314C710.907,61.102,716.368,56.494,727.29,56.494z M728.85,79.008h10.477v-7.021
			c0-1.634-0.93-2.452-2.786-2.452h-4.904c-1.858,0-2.786,0.818-2.786,2.452V79.008z"/>
		<path style="fill:#83CDEA;" d="M797.503,55.937h1.671v16.494h-6.353c-4.681,0-7.021,2.527-7.021,7.579v32.098h-18.946V56.494
			h18.612v8.582c0.594-2.823,1.932-5.052,4.012-6.687C791.558,56.756,794.233,55.937,797.503,55.937z"/>
	</g>
</g>
</svg>
