<?xml version="1.0" encoding="UTF-8"?> <svg xmlns="http://www.w3.org/2000/svg" width="61" height="23" viewBox="0 0 61 23" fill="none"><path d="M19.0997 7.95202V7.89239C19.0997 3.30516 15.9094 0.455719 10.773 0.455719H0V22.557H5.44744V15.7507H9.20096L13.6985 22.5528H20.1001L14.8207 14.737C17.5823 13.5103 19.0997 11.1209 19.0997 7.95202ZM13.5934 8.19479C13.5934 9.81331 12.4249 11.2018 10.4704 11.2018H5.44744V5.09831H10.3821C11.849 5.09831 13.5934 5.97146 13.5934 8.13516V8.19479V8.19479Z" fill="#1E9EFF"></path><path d="M28.3888 0.455719H22.9414V22.557H28.3888V0.455719Z" fill="#1E9EFF"></path><path d="M42.3988 0.455719H32.374V22.557H42.3988C49.0988 22.557 52.4993 17.9102 52.4993 11.5085V11.4489C52.4993 5.07701 49.0988 0.455719 42.3988 0.455719ZM46.8459 11.5639C46.8459 15.1076 45.3117 17.7441 41.7767 17.7441H37.8215V5.26442H41.7767C45.3117 5.26442 46.8459 7.9222 46.8459 11.5042V11.5639Z" fill="#1E9EFF"></path><path d="M60.9308 0.455719H55.4834V22.557H60.9308V0.455719Z" fill="#1E9EFF"></path></svg> 