<svg xmlns="http://www.w3.org/2000/svg" width="517" height="300" viewBox="100 300 850 417" fill="none">
<path d="M328.04 394C317.11 394 306.426 397.239 297.338 403.307C288.251 409.376 281.168 418 276.985 428.091C272.803 438.182 271.709 449.286 273.841 459.998C275.973 470.711 281.237 480.551 288.965 488.274C296.694 495.997 306.54 501.257 317.26 503.387C327.98 505.518 339.091 504.425 349.189 500.245C359.287 496.065 367.917 488.987 373.99 479.905C380.062 470.824 383.303 460.147 383.303 449.224C383.303 441.972 381.874 434.791 379.096 428.091C376.319 421.39 372.248 415.302 367.117 410.174C361.985 405.046 355.893 400.979 349.188 398.203C342.483 395.428 335.297 394 328.04 394V394ZM328.04 468.148C324.295 468.148 320.633 467.038 317.519 464.959C314.405 462.88 311.978 459.924 310.544 456.466C309.111 453.008 308.736 449.203 309.467 445.532C310.197 441.861 312.001 438.489 314.649 435.843C317.298 433.196 320.672 431.394 324.345 430.663C328.019 429.933 331.827 430.308 335.287 431.74C338.747 433.173 341.705 435.598 343.786 438.71C345.866 441.823 346.977 445.481 346.977 449.224C346.977 454.243 344.982 459.057 341.43 462.605C337.879 466.154 333.062 468.148 328.04 468.148Z" fill="#1138D7"/>
<path d="M546.657 475.997L553.159 467.307L571.96 499.871H613.231L577.756 440.539L610.335 398.586H569.841L546.657 428.951V398.586H508.981V499.871H546.657V475.997Z" fill="#1138D7"/>
<path d="M400.942 552.887H430.259V619.419H467.861V552.887H497.171V518.134H400.942V552.887Z" fill="#1138D7"/>
<path d="M512.919 619.419H597.594V589.047H550.595V582.067H584.59V555.554H550.595V548.503H597.594V518.134H512.919V619.419Z" fill="#1138D7"/>
<path d="M625.873 499.871H710.545V469.499H663.545V462.519H697.54V436.006H663.545V428.954H710.545V398.586H625.873V499.871Z" fill="#1138D7"/>
<path d="M449.061 504.447C458.408 504.446 467.602 502.072 475.779 497.547C483.956 493.023 490.849 486.496 495.811 478.58L465.059 459.268C462.877 462.749 459.621 465.427 455.783 466.896C451.944 468.365 447.732 468.546 443.781 467.412C439.83 466.278 436.356 463.89 433.883 460.609C431.41 457.328 430.073 453.332 430.073 449.224C430.073 445.116 431.41 441.12 433.883 437.839C436.356 434.558 439.83 432.17 443.781 431.036C447.732 429.902 451.944 430.083 455.783 431.552C459.621 433.021 462.877 435.699 465.059 439.18L495.811 419.866C490.697 411.736 483.549 405.08 475.073 400.555C466.597 396.03 457.087 393.792 447.481 394.064C437.875 394.335 428.507 397.106 420.3 402.102C412.094 407.099 405.334 414.148 400.688 422.554C396.042 430.96 393.67 440.432 393.808 450.034C393.945 459.636 396.587 469.036 401.471 477.306C406.356 485.575 413.315 492.429 421.661 497.189C430.007 501.949 439.451 504.45 449.061 504.447Z" fill="#1138D7"/>
<path d="M663.8 549.85C667.001 549.853 670.148 550.67 672.947 552.224C675.745 553.777 678.102 556.016 679.797 558.729L710.548 539.416C704.174 529.267 694.67 521.464 683.469 517.187C672.269 512.909 659.98 512.388 648.457 515.703C636.934 519.017 626.802 525.986 619.591 535.559C612.38 545.133 608.48 556.79 608.48 568.772C608.48 580.755 612.38 592.412 619.591 601.986C626.802 611.559 636.934 618.528 648.457 621.842C659.98 625.157 672.269 624.636 683.469 620.358C694.67 616.08 704.174 608.278 710.548 598.129L679.797 578.817C678.045 581.602 675.596 583.881 672.693 585.43C669.79 586.98 666.532 587.745 663.242 587.651C659.952 587.558 656.744 586.608 653.934 584.896C651.124 583.183 648.809 580.768 647.219 577.889C645.629 575.009 644.818 571.765 644.866 568.476C644.915 565.187 645.821 561.968 647.496 559.137C649.17 556.305 651.555 553.959 654.414 552.33C657.273 550.702 660.509 549.847 663.8 549.85V549.85Z" fill="#1138D7"/>
<path d="M243.893 465.367C251.919 460.177 259.606 450.715 259.606 433.325C259.606 396.927 219.114 398.584 213.72 398.584H167V499.87H204.668V472.392H211.172L224.177 499.87H263.263L243.893 465.367ZM224.24 438.745C222.798 439.986 220.934 440.628 219.033 440.538H204.668V428.028H219.033C220.934 427.938 222.798 428.58 224.24 429.821C224.86 430.387 225.356 431.076 225.695 431.845C226.034 432.613 226.209 433.443 226.209 434.283C226.209 435.123 226.034 435.953 225.695 436.721C225.356 437.49 224.86 438.179 224.24 438.745L224.24 438.745Z" fill="#1138D7"/>
<path d="M794.908 587.703V619.422H832.584H850.001L832.584 587.703V518.137L795.313 398.586L794.908 550.098H779.014L778.61 398.586L741.339 518.137V587.703L723.922 619.422H741.339H779.014V587.703H794.908Z" fill="#1138D7"/>
</svg>
