<svg enable-background="new 0 0 491.497 111.451" height="111.451" viewBox="0 0 491.497 111.451" width="491.497" xmlns="http://www.w3.org/2000/svg"><path d="m128.775 90.347s8.31 9.053 22.26 9.053c8.014 0 14.988-4.008 14.988-11.873 0-16.323-40.215-12.318-40.215-36.657 0-13.356 12.021-20.629 25.524-20.629 15.73 0 23.001 8.163 23.001 8.163l-4.6 7.717s-6.381-6.827-18.698-6.827c-7.568 0-14.839 3.265-14.839 11.576 0 16.474 40.214 12.022 40.214 36.657 0 12.171-10.536 20.927-25.524 20.927-18.104 0-27.601-10.833-27.601-10.833zm92.897-60.108c18.252 0 27.305 10.686 27.305 10.686l-5.194 7.569s-8.311-9.053-21.814-9.053c-16.323 0-29.085 12.17-29.085 29.979 0 17.513 12.91 29.979 29.383 29.979 15.136 0 23.891-10.537 23.891-10.537l4.6 7.865s-10.09 11.726-29.085 11.726c-22.111 0-39.177-15.879-39.177-39.032 0-23.004 17.213-39.182 39.176-39.182zm79.69 30.276h4.156v-1.929c0-14.396-7.866-19.293-18.551-19.293-12.316 0-21.072 7.125-21.072 7.125l-4.748-7.718s9.793-8.459 26.562-8.459c17.955 0 27.898 9.944 27.898 28.643v47.789h-9.646v-8.163c0-3.711.297-6.235.297-6.235h-.297s-6.232 16.179-24.932 16.179c-12.465 0-25.375-7.272-25.375-22.112.003-25.234 32.8-25.827 45.708-25.827zm-18.697 39.328c14.246 0 22.854-14.841 22.854-27.752v-3.265h-4.305c-11.725 0-35.17.444-35.17 16.918-.001 6.978 5.49 14.099 16.621 14.099zm48.082-96.318h10.09v84.445c0 9.795 4.453 11.279 8.311 11.279 1.338 0 2.523-.148 2.523-.148v9.056s-1.779.296-3.709.296c-6.234 0-17.215-1.93-17.215-18.254zm30.271 93.054h11.725v11.872h-11.725zm21.221-92.46h10.537v12.614h-10.537zm.299 29.682h10.09v74.65h-10.09zm60.988-3.562c21.814 0 39.473 16.622 39.473 38.734 0 22.56-17.656 39.479-39.473 39.479-21.814 0-39.473-16.918-39.473-39.479 0-22.112 17.66-38.734 39.473-38.734zm0 69.158c16.025 0 29.086-13.061 29.086-30.424 0-16.918-13.061-29.535-29.086-29.535s-29.084 12.615-29.084 29.535c0 17.365 13.058 30.424 29.084 30.424z" fill="#45484c"/><g fill="#3c97d3"><path d="m74.001 2.659h26.448v105.792h-26.448z"/><path d="m40.501 37.923h26.448v70.528h-26.448z" opacity=".7"/><path d="m7 73.187h26.448v35.266h-26.448z" opacity=".4"/></g></svg>