<svg xmlns="http://www.w3.org/2000/svg" width="130" height="34" viewBox="0 0 130 34" fill="none"><path d="M34.3093 22V14.2H39.3493V15.928H36.3733V17.152H38.9173V18.88H36.3733V20.272H39.4693V22H34.3093Z" fill="#08509C"></path><path d="M40.9773 22V14.2H43.0893L44.8173 17.68C44.9533 17.944 45.0813 18.228 45.2013 18.532C45.3213 18.828 45.4413 19.128 45.5613 19.432H45.6093C45.5613 19.008 45.5053 18.528 45.4413 17.992C45.3773 17.448 45.3453 16.936 45.3453 16.456V14.2H47.3133V22H45.2013L43.4733 18.52C43.3453 18.256 43.2173 17.972 43.0893 17.668C42.9693 17.364 42.8493 17.064 42.7293 16.768H42.6813C42.7293 17.208 42.7853 17.696 42.8493 18.232C42.9133 18.76 42.9453 19.264 42.9453 19.744V22H40.9773Z" fill="#08509C"></path><path d="M49.0398 22V14.2H54.0798V15.928H51.1038V17.152H53.6478V18.88H51.1038V20.272H54.1998V22H49.0398Z" fill="#08509C"></path><path d="M66.8663 22.144C66.1383 22.144 65.4743 22 64.8743 21.712C64.2823 21.416 63.8103 20.972 63.4583 20.38C63.1063 19.788 62.9303 19.048 62.9303 18.16C62.9303 17.504 63.0343 16.924 63.2423 16.42C63.4503 15.908 63.7343 15.476 64.0943 15.124C64.4543 14.772 64.8663 14.508 65.3303 14.332C65.8023 14.148 66.2983 14.056 66.8183 14.056C67.3943 14.056 67.8943 14.156 68.3183 14.356C68.7423 14.556 69.0903 14.8 69.3623 15.088L68.2823 16.336C68.0903 16.168 67.8863 16.044 67.6703 15.964C67.4623 15.876 67.2023 15.832 66.8903 15.832C66.5383 15.832 66.2223 15.924 65.9423 16.108C65.6623 16.284 65.4423 16.54 65.2823 16.876C65.1223 17.212 65.0423 17.616 65.0423 18.088C65.0423 18.576 65.1143 18.992 65.2583 19.336C65.4103 19.672 65.6343 19.928 65.9303 20.104C66.2343 20.28 66.6183 20.368 67.0823 20.368C67.1943 20.368 67.3023 20.356 67.4063 20.332C67.5183 20.308 67.6103 20.272 67.6823 20.224V19.144H66.5303V17.464H69.5063V21.184C69.2343 21.448 68.8623 21.676 68.3903 21.868C67.9263 22.052 67.4183 22.144 66.8663 22.144Z" fill="#08509C"></path><path d="M71.0242 22V14.2H73.0882V22H71.0242Z" fill="#08509C"></path><path d="M74.821 22V14.2H79.861V15.928H76.885V17.152H79.429V18.88H76.885V20.272H79.981V22H74.821Z" fill="#08509C"></path><path d="M80.745 22L82.857 17.992L80.865 14.2H83.169L83.697 15.472C83.785 15.648 83.873 15.844 83.961 16.06C84.049 16.276 84.145 16.512 84.249 16.768H84.297C84.385 16.512 84.469 16.276 84.549 16.06C84.629 15.844 84.705 15.648 84.777 15.472L85.233 14.2H87.441L85.449 18.088L87.561 22H85.257L84.633 20.608C84.537 20.4 84.445 20.192 84.357 19.984C84.269 19.776 84.177 19.552 84.081 19.312H84.033C83.953 19.552 83.869 19.776 83.781 19.984C83.701 20.192 83.617 20.4 83.529 20.608L82.953 22H80.745Z" fill="#08509C"></path><path d="M88.5437 22V14.2H91.3997C91.9677 14.2 92.4917 14.28 92.9717 14.44C93.4517 14.6 93.8357 14.868 94.1237 15.244C94.4197 15.62 94.5677 16.136 94.5677 16.792C94.5677 17.424 94.4197 17.944 94.1237 18.352C93.8357 18.752 93.4517 19.048 92.9717 19.24C92.4997 19.432 91.9917 19.528 91.4477 19.528H90.6077V22H88.5437ZM90.6077 17.896H91.3517C91.7597 17.896 92.0597 17.8 92.2517 17.608C92.4517 17.408 92.5517 17.136 92.5517 16.792C92.5517 16.44 92.4437 16.192 92.2277 16.048C92.0117 15.904 91.7037 15.832 91.3037 15.832H90.6077V17.896Z" fill="#08509C"></path><path d="M95.8445 22V14.2H100.884V15.928H97.9085V17.152H100.452V18.88H97.9085V20.272H101.004V22H95.8445Z" fill="#08509C"></path><path d="M111.325 22V15.928H109.261V14.2H115.453V15.928H113.389V22H111.325Z" fill="#08509C"></path><path d="M116.61 22V14.2H121.65V15.928H118.674V17.152H121.218V18.88H118.674V20.272H121.77V22H116.61Z" fill="#08509C"></path><path d="M123.278 22V14.2H125.39L127.118 17.68C127.254 17.944 127.382 18.228 127.502 18.532C127.622 18.828 127.742 19.128 127.862 19.432H127.91C127.862 19.008 127.806 18.528 127.742 17.992C127.678 17.448 127.646 16.936 127.646 16.456V14.2H129.614V22H127.502L125.774 18.52C125.646 18.256 125.518 17.972 125.39 17.668C125.27 17.364 125.15 17.064 125.03 16.768H124.982C125.03 17.208 125.086 17.696 125.15 18.232C125.214 18.76 125.246 19.264 125.246 19.744V22H123.278Z" fill="#08509C"></path><path fill-rule="evenodd" clip-rule="evenodd" d="M102.512 14.2V22H104.576V19.384H105.464L106.648 19.1729L106.212 19.2972L105.5 19.5L106.712 22H109.016L107.262 18.9771L107.188 19.0193C107.477 18.8595 107.92 18.5609 108.152 18.244C108.44 17.852 108.584 17.344 108.584 16.72C108.584 16.072 108.44 15.564 108.152 15.196C107.864 14.828 107.484 14.572 107.012 14.428C106.54 14.276 106.024 14.2 105.464 14.2H102.512ZM105.32 17.752H104.576V15.832H105.32C105.728 15.832 106.036 15.896 106.244 16.024C106.46 16.152 106.568 16.384 106.568 16.72C106.568 17.056 106.46 17.312 106.244 17.488C106.036 17.664 105.728 17.752 105.32 17.752Z" fill="#08509C"></path><path d="M106.648 19.1729L105.464 19.384C105.736 19.384 105.974 19.3482 106.212 19.2972L106.648 19.1729Z" fill="#08509C"></path><path d="M105.464 19.384L105.5 19.5L106.212 19.2972C105.974 19.3482 105.736 19.384 105.464 19.384Z" fill="#08509C"></path><path fill-rule="evenodd" clip-rule="evenodd" d="M55.996 14.2V22H58.06V19.384H58.948L60.132 19.1729L59.6955 19.2972L58.9836 19.5L60.196 22H62.5L60.7456 18.9771L60.6712 19.0193C60.9606 18.8595 61.4032 18.5609 61.636 18.244C61.924 17.852 62.068 17.344 62.068 16.72C62.068 16.072 61.924 15.564 61.636 15.196C61.348 14.828 60.968 14.572 60.496 14.428C60.024 14.276 59.508 14.2 58.948 14.2H55.996ZM58.804 17.752H58.06V15.832H58.804C59.212 15.832 59.52 15.896 59.728 16.024C59.944 16.152 60.052 16.384 60.052 16.72C60.052 17.056 59.944 17.312 59.728 17.488C59.52 17.664 59.212 17.752 58.804 17.752Z" fill="#08509C"></path><path d="M60.132 19.1729L58.948 19.384C59.2192 19.384 59.4574 19.3482 59.6955 19.2972L60.132 19.1729Z" fill="#08509C"></path><path d="M58.948 19.384L58.9836 19.5L59.6955 19.2972C59.4574 19.3482 59.2192 19.384 58.948 19.384Z" fill="#08509C"></path><path fill-rule="evenodd" clip-rule="evenodd" d="M17 34C26.3888 34 34 26.3888 34 17C34 7.61116 26.3888 0 17 0C7.61116 0 0 7.61116 0 17C0 26.3888 7.61116 34 17 34ZM13.788 21.88C14.308 22.056 14.824 22.144 15.336 22.144C15.984 22.144 16.536 22.028 16.992 21.796C17.448 21.564 17.792 21.26 18.024 20.884C18.264 20.5 18.384 20.088 18.384 19.648C18.384 19.288 18.324 18.972 18.204 18.7C18.084 18.428 17.912 18.196 17.688 18.004C17.464 17.804 17.188 17.64 16.86 17.512L15.912 17.14C15.68 17.044 15.476 16.964 15.3 16.9C15.124 16.828 14.988 16.752 14.892 16.672C14.804 16.584 14.76 16.48 14.76 16.36C14.76 16.184 14.832 16.052 14.976 15.964C15.128 15.876 15.328 15.832 15.576 15.832C15.808 15.832 16.052 15.88 16.308 15.976C16.564 16.064 16.824 16.2 17.088 16.384L18.168 15.04C17.816 14.712 17.412 14.468 16.956 14.308C16.508 14.14 16.048 14.056 15.576 14.056C15.008 14.056 14.504 14.168 14.064 14.392C13.632 14.608 13.292 14.9 13.044 15.268C12.796 15.628 12.672 16.032 12.672 16.48C12.672 16.856 12.744 17.188 12.888 17.476C13.032 17.756 13.224 17.996 13.464 18.196C13.704 18.388 13.964 18.544 14.244 18.664L15.216 19.06C15.44 19.148 15.628 19.228 15.78 19.3C15.94 19.364 16.06 19.436 16.14 19.516C16.228 19.588 16.272 19.688 16.272 19.816C16.272 19.992 16.2 20.128 16.056 20.224C15.92 20.32 15.696 20.368 15.384 20.368C15.072 20.368 14.744 20.308 14.4 20.188C14.056 20.068 13.744 19.896 13.464 19.672L12.384 21.016C12.808 21.408 13.276 21.696 13.788 21.88ZM22.9254 22.144C22.2054 22.144 21.5734 21.984 21.0294 21.664C20.4854 21.336 20.0614 20.868 19.7574 20.26C19.4534 19.652 19.3014 18.92 19.3014 18.064C19.3014 17.208 19.4534 16.484 19.7574 15.892C20.0614 15.292 20.4854 14.836 21.0294 14.524C21.5734 14.212 22.2054 14.056 22.9254 14.056C23.6454 14.056 24.2774 14.212 24.8214 14.524C25.3654 14.836 25.7894 15.292 26.0934 15.892C26.3974 16.484 26.5494 17.208 26.5494 18.064C26.5494 18.92 26.3974 19.652 26.0934 20.26C25.7894 20.868 25.3654 21.336 24.8214 21.664C24.2774 21.984 23.6454 22.144 22.9254 22.144ZM23.7294 20.092C23.5054 20.276 23.2374 20.368 22.9254 20.368C22.6134 20.368 22.3414 20.276 22.1094 20.092C21.8854 19.9 21.7134 19.632 21.5934 19.288C21.4734 18.944 21.4134 18.536 21.4134 18.064C21.4134 17.592 21.4734 17.192 21.5934 16.864C21.7134 16.528 21.8854 16.272 22.1094 16.096C22.3414 15.92 22.6134 15.832 22.9254 15.832C23.2374 15.832 23.5054 15.92 23.7294 16.096C23.9614 16.272 24.1374 16.528 24.2574 16.864C24.3774 17.192 24.4374 17.592 24.4374 18.064C24.4374 18.536 24.3774 18.944 24.2574 19.288C24.1374 19.632 23.9614 19.9 23.7294 20.092ZM27.946 14.2V22H32.962V20.272H30.01V14.2H27.946Z" fill="#08509C"></path></svg>