<svg height="38" viewBox="0 0 148 38" width="148" xmlns="http://www.w3.org/2000/svg"><path d="m3.9300486 25.231838c-23.3333326 7.666667-11.666667 3.833333 0 0zm-2.1 0c-21.9333326 7.666667-10.966667 3.833333 0 0zm74.4000004-15.8h-2.1v19.7h2.1zm-60.7-7.699999c-6.4000004 0-11.6000004 5.099999-11.6000004 11.499999v23.5h130.9000014c6.4 0 11.5-5.1 11.6-11.5v-23.499999zm128.800001 23.499999c0 5.2-4.3 9.4-9.5 9.4h-128.8000014v-21.4c0-5.2 4.3000004-9.399999 9.5000004-9.399999h128.800001zm-55.400001-12.2 11.100001 16h2.1v-19.6h-2.1v16l-11.100001-16h-2.1v19.7h2.1zm-45 15.4.2.6h2.1l.2-.6 5-15.5 5 15.5.2.6h2.1l.2-.6 6.2-19h-2.2l-5.3 16.1-5.1-16.1h-2.1l-5.3 16.1-5.1-16.1h-2.2zm94.100001-13.1c.6-.7 1-1.6 1-2.5 0-1.9-1.5-3.4-3.3-3.4h-2.7v6.9h2.5c.9 0 1.9-.3 2.5-1zm-3.7-4.6h1.1c1.1-.1 2.1.8 2.1 1.9v.2c0 .6-.2 1.2-.6 1.6s-1 .6-1.6.6h-1.1v-4.3zm-108.400001 16.3c-2.6.6-6.1.2-8.1-2.4-.1-.1-.3-.5-.4-.7l-1.9.9c.2.4.5.9.6 1 1.8 2.3 4.7 3.6 7.6 3.5.9 0 1.8-.1 2.6-.3 3.8-.8 5.3-3.8 4.8-6.2s-1.8-3.9-7.4-5c-5.3-1.1-5.3-2.3-5.3-3.4 0-.7.2-1.4.7-2l.1-.1c1.4-1.4 4.2-1.3 4.3-1.3 3.7 0 4.7 1.5 5.4 2.3l.1.1 1.7-1.2-.1-.1c-.7-1-2.3-3.2-7.1-3.2-.4 0-3.8-.1-5.8 1.9-1 .9-1.5 2.2-1.5 3.6 0 2.9 1.9 4.4 7 5.4 5.3 1 5.5 2.1 5.7 3.4.5 1.5-.5 3.3-3 3.8zm94.100001 2.3h.4c2.5-.1 4.8-1.1 6.6-2.8l.3-.3v-7.7h-8.4v2.1h6.3v4.7c-2.6 2.2-5 2-5 2h-.1c-2 .1-3.9-.6-5.4-2-1.4-1.6-2.3-3.7-2.3-5.9s.8-4.3 2.2-6c1.5-1.4 3.4-2.1 5.4-2.1 3.7 0 4.7 1.5 5.4 2.3l.1.1 1.7-1.2-.1-.1c-.7-1-2.3-3.2-7-3.2-2.6 0-5.1 1-6.9 2.7-1.9 2-2.9 4.6-2.8 7.4.1 2.7 1.1 5.4 2.9 7.4 1.7 1.7 4.2 2.7 6.7 2.6z"/></svg>