<?xml version="1.0" encoding="utf-8"?>
<!-- Generator: Adobe Illustrator 25.4.1, SVG Export Plug-In . SVG Version: 6.00 Build 0)  -->
<svg version="1.1" id="Layer_1" xmlns="http://www.w3.org/2000/svg" xmlns:xlink="http://www.w3.org/1999/xlink" x="0px" y="0px"
	 viewBox="0 0 777.717 146.08" style="enable-background:new 0 0 777.717 146.08;" xml:space="preserve">
<style type="text/css">
	.st0{fill:#242A45;}
	.st1{fill:#FFC402;}
	.st2{fill:#007A49;}
</style>
<g id="Layer_2_00000043453342615453490540000009007772181978237090_">
	<g id="Layer_1-2">
		<path class="st0" d="M297.465,107.86v-33c-0.039-2.789,1.088-5.468,3.11-7.39c1.952-2.012,4.647-3.13,7.45-3.09
			c5.763,0.044,10.418,4.717,10.44,10.48v33c-0.001,0.378-0.157,0.739-0.43,1c-0.26,0.274-0.623,0.426-1,0.42h-2.93
			c-0.397,0.009-0.778-0.151-1.05-0.44c-0.263-0.267-0.414-0.625-0.42-1V89.79h-9.37v18.07c-0.002,0.376-0.153,0.735-0.42,1
			c-0.261,0.273-0.623,0.425-1,0.42h-2.93c-0.379-0.005-0.74-0.164-1-0.44C297.646,108.583,297.485,108.232,297.465,107.86z
			 M303.275,84h9.37v-9.1c0.017-1.232-0.471-2.417-1.35-3.28c-0.849-0.897-2.035-1.397-3.27-1.38
			c-1.258-0.018-2.469,0.481-3.35,1.38c-0.905,0.85-1.412,2.039-1.4,3.28L303.275,84z"/>
		<path class="st0" d="M326.005,98.75v-33c0.049-0.789,0.681-1.416,1.47-1.46h2.93c0.377-0.002,0.738,0.149,1,0.42
			c0.267,0.265,0.418,0.624,0.42,1v33c0.005,2.621,2.129,4.744,4.75,4.75c1.234,0.018,2.418-0.487,3.26-1.39
			c0.886-0.892,1.376-2.103,1.36-3.36v-33c0.006-0.375,0.157-0.733,0.42-1c0.257-0.28,0.62-0.44,1-0.44h2.93
			c0.377-0.002,0.738,0.149,1,0.42c0.267,0.265,0.418,0.624,0.42,1v33c0.043,2.801-1.063,5.496-3.06,7.46
			c-1.917,2.017-4.588,3.144-7.37,3.11c-5.826-0.027-10.543-4.744-10.57-10.57L326.005,98.75z"/>
		<path class="st0" d="M353.665,98.84v-3.06c0.006-0.375,0.157-0.733,0.42-1c0.257-0.28,0.62-0.44,1-0.44h2.89
			c0.38,0.003,0.741,0.162,1,0.44c0.279,0.259,0.441,0.62,0.45,1v3.06c-0.017,1.235,0.47,2.423,1.35,3.29
			c0.847,0.893,2.029,1.391,3.26,1.37c2.585,0.017,4.693-2.065,4.71-4.65c0-0.003,0-0.007,0-0.01c0.049-0.518-0.04-1.039-0.26-1.51
			l-12.65-16.73c-0.733-0.908-1.37-1.89-1.9-2.93c-0.233-0.945-0.324-1.919-0.27-2.89c-0.032-2.782,1.082-5.454,3.08-7.39
			c4.102-4.076,10.731-4.055,14.807,0.047c1.94,1.953,3.034,4.591,3.043,7.343v3.07c-0.021,0.801-0.669,1.444-1.47,1.46h-2.88
			c-0.38-0.003-0.741-0.162-1-0.44c-0.27-0.263-0.425-0.623-0.43-1v-3.09c-0.016-2.567-2.093-4.644-4.66-4.66
			c-1.232-0.017-2.414,0.484-3.26,1.38c-0.878,0.864-1.366,2.048-1.35,3.28c-0.054,0.534,0.035,1.073,0.26,1.56L372.395,93
			c0.743,0.928,1.384,1.934,1.91,3c0.233,0.941,0.324,1.912,0.27,2.88c0.179,5.774-4.358,10.6-10.132,10.778
			s-10.6-4.358-10.778-10.132c-0.007-0.215-0.007-0.431,0-0.647L353.665,98.84z"/>
		<path class="st0" d="M377.595,68.7v-2.93c0.006-0.375,0.157-0.733,0.42-1c0.257-0.28,0.62-0.44,1-0.44h14
			c0.379,0.005,0.74,0.164,1,0.44c0.272,0.263,0.43,0.622,0.44,1v2.93c0.005,0.377-0.147,0.739-0.42,1
			c-0.265,0.267-0.624,0.418-1,0.42h-4.09v37.74c-0.01,0.378-0.168,0.737-0.44,1c-0.252,0.291-0.615,0.462-1,0.47h-2.89
			c-0.385-0.008-0.748-0.179-1-0.47c-0.276-0.26-0.435-0.621-0.44-1V70.12h-4.09c-0.376-0.002-0.735-0.153-1-0.42
			C377.787,69.452,377.609,69.088,377.595,68.7z"/>
		<path class="st0" d="M207.557,68.7v-2.93c0.006-0.375,0.157-0.733,0.42-1c0.257-0.28,0.62-0.44,1-0.44h14
			c0.379,0.005,0.74,0.164,1,0.44c0.272,0.263,0.43,0.622,0.44,1v2.93c0.005,0.377-0.147,0.739-0.42,1
			c-0.265,0.267-0.624,0.418-1,0.42h-4.09v37.74c-0.01,0.378-0.168,0.737-0.44,1c-0.252,0.291-0.615,0.462-1,0.47h-2.89
			c-0.385-0.008-0.748-0.179-1-0.47c-0.276-0.26-0.435-0.621-0.44-1V70.12h-4.09c-0.376-0.002-0.735-0.153-1-0.42
			C207.748,69.452,207.57,69.088,207.557,68.7z"/>
		<path class="st0" d="M400.635,107.86V67.24c-0.033-1.585,1.224-2.897,2.809-2.93c0.04-0.001,0.081-0.001,0.121,0h7.55
			c2.785-0.047,5.463,1.069,7.39,3.08c1.963,1.953,3.046,4.621,3,7.39v4.35c0.084,2.879-1.062,5.657-3.15,7.64
			c2.078,1.952,3.225,4.699,3.15,7.55v13.54c-0.009,0.38-0.171,0.741-0.45,1c-0.249,0.294-0.614,0.466-1,0.47h-2.88
			c-0.386-0.004-0.751-0.176-1-0.47c-0.279-0.259-0.441-0.62-0.45-1V94.32c0.006-2.546-2.054-4.614-4.6-4.62
			c-0.003,0-0.007,0-0.01,0h-4.67v18.16c-0.069,0.776-0.684,1.391-1.46,1.46h-2.89c-0.385-0.008-0.748-0.179-1-0.47
			C400.818,108.593,400.653,108.238,400.635,107.86z M406.445,83.86h4.67c1.236,0.017,2.421-0.492,3.26-1.4
			c0.887-0.88,1.381-2.081,1.37-3.33v-4.35c0.016-1.232-0.472-2.416-1.35-3.28c-0.847-0.894-2.029-1.394-3.26-1.38h-4.69V83.86z"/>
		<path class="st0" d="M429.045,107.86v-33c-0.032-2.788,1.094-5.464,3.11-7.39c1.955-2.013,4.654-3.131,7.46-3.09
			c2.779-0.039,5.45,1.08,7.37,3.09c1.99,1.939,3.097,4.611,3.06,7.39v33c-0.002,0.376-0.153,0.735-0.42,1
			c-0.263,0.27-0.624,0.421-1,0.42h-2.88c-0.396,0.006-0.777-0.153-1.05-0.44c-0.263-0.267-0.414-0.625-0.42-1V89.79h-9.36v18.07
			c-0.006,0.377-0.16,0.736-0.43,1c-0.26,0.274-0.623,0.426-1,0.42h-2.94c-0.379-0.005-0.74-0.164-1-0.44
			C429.257,108.591,429.078,108.239,429.045,107.86z M434.865,84h9.36v-9.1c0.017-1.232-0.471-2.417-1.35-3.28
			c-0.846-0.896-2.028-1.397-3.26-1.38c-1.261-0.018-2.475,0.481-3.36,1.38c-0.902,0.851-1.406,2.04-1.39,3.28L434.865,84z"/>
		<path class="st0" d="M457.585,106.39V65.77c0.01-0.376,0.164-0.734,0.43-1c0.256-0.281,0.62-0.441,1-0.44h2.93
			c0.38,0,0.743,0.16,1,0.44c0.272,0.263,0.43,0.622,0.44,1v37.73h7.86c0.378,0.001,0.739,0.157,1,0.43
			c0.267,0.265,0.418,0.624,0.42,1v2.89c-0.006,0.375-0.157,0.733-0.42,1c-0.246,0.299-0.613,0.471-1,0.47h-10.73
			c-1.603-0.037-2.893-1.327-2.93-2.93V106.39z"/>
		<path class="st0" d="M479.295,107.86V65.77c0.006-0.375,0.157-0.733,0.42-1c0.259-0.278,0.62-0.437,1-0.44h3.03
			c0.381-0.005,0.746,0.156,1,0.44c0.279,0.259,0.441,0.62,0.45,1v42.09c-0.002,0.376-0.153,0.735-0.42,1
			c-0.262,0.271-0.623,0.422-1,0.42h-3.03c-0.379-0.007-0.739-0.166-1-0.44C479.476,108.583,479.315,108.232,479.295,107.86z"/>
		<path class="st0" d="M492.665,107.86v-33c-0.042-2.788,1.082-5.467,3.1-7.39c1.956-2.012,4.654-3.13,7.46-3.09
			c2.779-0.039,5.45,1.08,7.37,3.09c1.99,1.939,3.097,4.611,3.06,7.39v33c-0.002,0.376-0.153,0.735-0.42,1
			c-0.261,0.273-0.623,0.425-1,0.42h-2.93c-0.379-0.005-0.74-0.164-1-0.44c-0.263-0.267-0.414-0.625-0.42-1V89.79h-9.37v18.07
			c-0.002,0.376-0.153,0.735-0.42,1c-0.262,0.271-0.623,0.422-1,0.42h-2.93c-0.38-0.003-0.741-0.162-1-0.44
			C492.877,108.591,492.698,108.239,492.665,107.86z M498.475,84h9.37v-9.1c0.018-1.234-0.474-2.421-1.36-3.28
			c-0.846-0.896-2.028-1.397-3.26-1.38c-1.258-0.018-2.469,0.481-3.35,1.38c-0.905,0.85-1.412,2.039-1.4,3.28V84z"/>
		<path class="st0" d="M521.205,107.86V74.78c-0.032-2.788,1.094-5.464,3.11-7.39c1.95-2.002,4.636-3.116,7.43-3.08
			c2.778-0.042,5.448,1.074,7.37,3.08c1.99,1.939,3.097,4.611,3.06,7.39v33.08c-0.006,0.375-0.157,0.733-0.42,1
			c-0.247,0.298-0.613,0.47-1,0.47h-2.93c-0.386-0.004-0.751-0.176-1-0.47c-0.279-0.259-0.441-0.62-0.45-1V74.78
			c0.016-1.232-0.472-2.416-1.35-3.28c-0.85-0.901-2.041-1.402-3.28-1.38c-1.261-0.018-2.475,0.481-3.36,1.38
			c-0.9,0.852-1.404,2.041-1.39,3.28v33.08c-0.01,0.376-0.164,0.734-0.43,1c-0.244,0.301-0.612,0.474-1,0.47h-2.94
			c-0.385-0.008-0.748-0.179-1-0.47C521.36,108.594,521.21,108.235,521.205,107.86z"/>
		<path class="st0" d="M562.805,99V74.87c-0.179-5.774,4.358-10.6,10.132-10.778c5.774-0.179,10.6,4.358,10.778,10.132
			c0.007,0.215,0.007,0.431,0,0.647v3.06c-0.003,0.378-0.158,0.738-0.43,1c-0.26,0.274-0.623,0.426-1,0.42h-2.93
			c-0.396,0.009-0.778-0.151-1.05-0.44c-0.263-0.267-0.414-0.625-0.42-1v-3.04c0.023-1.242-0.465-2.438-1.35-3.31
			c-0.858-0.881-2.041-1.369-3.27-1.35c-1.232-0.016-2.416,0.472-3.28,1.35c-0.901,0.863-1.401,2.063-1.38,3.31V99
			c-0.017,1.232,0.484,2.414,1.38,3.26c0.864,0.878,2.048,1.366,3.28,1.35c2.546,0.011,4.619-2.044,4.63-4.59
			c0-0.007,0-0.013,0-0.02v-9.39h-3.15c-0.376-0.002-0.735-0.153-1-0.42c-0.292-0.249-0.458-0.616-0.45-1V85.3
			c-0.002-0.379,0.154-0.741,0.43-1c0.263-0.269,0.624-0.42,1-0.42h7.55c0.377-0.005,0.739,0.147,1,0.42
			c0.256,0.27,0.399,0.628,0.4,1V99c0.047,2.762-1.066,5.418-3.07,7.32c-4.09,4.041-10.67,4.041-14.76,0
			C563.858,104.409,562.756,101.757,562.805,99z"/>
		<path class="st0" d="M591.255,107.86v-33c-0.032-2.788,1.094-5.464,3.11-7.39c1.956-2.012,4.654-3.13,7.46-3.09
			c2.779-0.039,5.45,1.08,7.37,3.09c1.99,1.939,3.097,4.611,3.06,7.39v33c-0.002,0.376-0.153,0.735-0.42,1
			c-0.262,0.271-0.623,0.422-1,0.42h-2.93c-0.379-0.005-0.74-0.164-1-0.44c-0.263-0.267-0.414-0.625-0.42-1V89.79h-9.37v18.07
			c-0.002,0.376-0.153,0.735-0.42,1c-0.262,0.271-0.623,0.422-1,0.42h-2.95c-0.396,0.006-0.777-0.153-1.05-0.44
			C591.43,108.581,591.272,108.231,591.255,107.86z M597.075,84h9.37v-9.1c0.013-1.233-0.478-2.418-1.36-3.28
			c-0.846-0.896-2.028-1.397-3.26-1.38c-1.258-0.018-2.469,0.481-3.35,1.38c-0.909,0.847-1.417,2.038-1.4,3.28L597.075,84z"/>
		<path class="st0" d="M619.805,107.86V74.78c-0.039-2.789,1.088-5.468,3.11-7.39c4.065-4.089,10.676-4.107,14.764-0.042
			c0.08,0.079,0.158,0.16,0.236,0.242c3.991-4.192,10.625-4.355,14.816-0.364c2.068,1.969,3.244,4.698,3.254,7.554v33.08
			c-0.006,0.375-0.157,0.733-0.42,1c-0.246,0.299-0.613,0.471-1,0.47h-2.93c-0.386-0.004-0.751-0.176-1-0.47
			c-0.279-0.259-0.441-0.62-0.45-1V74.78c-0.005-2.585-2.104-4.676-4.688-4.672c-2.578,0.005-4.667,2.093-4.672,4.672v33.08
			c-0.006,0.377-0.16,0.736-0.43,1c-0.244,0.301-0.612,0.474-1,0.47h-2.93c-0.385-0.008-0.748-0.179-1-0.47
			c-0.272-0.263-0.43-0.622-0.44-1V74.78c0.016-1.232-0.472-2.416-1.35-3.28c-0.849-0.897-2.035-1.397-3.27-1.38
			c-1.258-0.018-2.469,0.481-3.35,1.38c-0.903,0.851-1.41,2.04-1.4,3.28v33.08c-0.006,0.375-0.157,0.733-0.42,1
			c-0.244,0.301-0.612,0.474-1,0.47h-2.93c-0.776-0.069-1.391-0.684-1.46-1.46L619.805,107.86z"/>
		<path class="st0" d="M663.535,106.39V67.24c-0.033-1.585,1.224-2.896,2.809-2.93c0.037-0.001,0.074-0.001,0.111,0h7.64
			c2.781-0.036,5.451,1.087,7.37,3.1c1.994,1.966,3.1,4.66,3.06,7.46v4.35c0.078,2.87-1.106,5.629-3.24,7.55
			c2.145,1.946,3.329,4.735,3.24,7.63v4.35c0.043,2.801-1.063,5.496-3.06,7.46c-1.917,2.017-4.588,3.144-7.37,3.11h-7.64
			c-0.775,0.005-1.519-0.305-2.06-0.86C663.835,107.918,663.524,107.169,663.535,106.39z M669.345,83.88h4.75
			c1.23,0.016,2.411-0.481,3.26-1.37c0.895-0.859,1.398-2.049,1.39-3.29v-4.35c0.021-1.255-0.47-2.464-1.36-3.35
			c-0.841-0.906-2.025-1.414-3.26-1.4h-4.78V83.88z M669.345,103.42h4.75c1.232,0.017,2.414-0.484,3.26-1.38
			c0.897-0.858,1.4-2.049,1.39-3.29V94.4c0.024-1.247-0.468-2.448-1.36-3.32c-0.846-0.896-2.028-1.397-3.26-1.38h-4.78V103.42z"/>
		<path class="st0" d="M692.075,106.39V65.77c0.006-0.375,0.157-0.733,0.42-1c0.257-0.28,0.62-0.44,1-0.44h2.94
			c0.381-0.005,0.746,0.156,1,0.44c0.279,0.259,0.441,0.62,0.45,1v37.73h7.86c0.378-0.001,0.74,0.155,1,0.43
			c0.267,0.265,0.418,0.624,0.42,1v2.89c-0.006,0.375-0.157,0.733-0.42,1c-0.244,0.301-0.612,0.474-1,0.47h-10.74
			c-1.603-0.037-2.893-1.327-2.93-2.93V106.39z"/>
		<path class="st0" d="M713.745,107.86V65.77c0.006-0.375,0.157-0.733,0.42-1c0.257-0.28,0.62-0.44,1-0.44h2.93
			c0.381-0.002,0.744,0.158,1,0.44c0.276,0.26,0.435,0.621,0.44,1v42.09c-0.002,0.376-0.153,0.735-0.42,1
			c-0.261,0.273-0.623,0.425-1,0.42h-2.87c-0.379-0.005-0.74-0.164-1-0.44C713.957,108.591,713.778,108.239,713.745,107.86z"/>
		<path class="st0" d="M727.145,107.86V74.78c-0.032-2.788,1.094-5.464,3.11-7.39c1.964-2.017,4.675-3.132,7.49-3.08
			c2.778-0.042,5.448,1.074,7.37,3.08c1.99,1.939,3.097,4.611,3.06,7.39v33.08c-0.006,0.375-0.157,0.733-0.42,1
			c-0.246,0.299-0.613,0.471-1,0.47h-2.93c-0.386-0.004-0.751-0.176-1-0.47c-0.279-0.259-0.441-0.62-0.45-1V74.78
			c0.016-1.232-0.472-2.416-1.35-3.28c-0.85-0.901-2.041-1.402-3.28-1.38c-1.261-0.018-2.475,0.481-3.36,1.38
			c-0.9,0.852-1.404,2.041-1.39,3.28v33.08c-0.006,0.377-0.16,0.736-0.43,1c-0.244,0.301-0.612,0.474-1,0.47h-2.93
			c-0.385-0.008-0.748-0.179-1-0.47C727.345,108.606,727.168,108.246,727.145,107.86z"/>
		<path class="st0" d="M755.745,99V74.87c-0.074-2.78,1.013-5.465,3-7.41c4.078-4.076,10.688-4.074,14.764,0.004
			c1.963,1.964,3.062,4.629,3.056,7.406v3.06c-0.002,0.376-0.153,0.735-0.42,1c-0.261,0.273-0.623,0.425-1,0.42h-2.9
			c-0.379-0.005-0.74-0.164-1-0.44c-0.263-0.267-0.414-0.625-0.42-1v-3.04c0.018-2.557-2.041-4.644-4.598-4.662
			c-1.237-0.009-2.427,0.478-3.302,1.352c-0.901,0.863-1.401,2.063-1.38,3.31V99c-0.017,1.232,0.484,2.414,1.38,3.26
			c1.813,1.799,4.737,1.799,6.55,0c0.851-0.868,1.31-2.046,1.27-3.26v-9.39h-3.15c-0.376-0.002-0.735-0.153-1-0.42
			c-0.292-0.249-0.458-0.616-0.45-1V85.3c-0.001-0.376,0.15-0.737,0.42-1c0.266-0.265,0.625-0.416,1-0.42h7.54
			c0.377-0.005,0.739,0.147,1,0.42c0.253,0.271,0.393,0.629,0.39,1V99c0.046,2.76-1.063,5.414-3.06,7.32
			c-4.09,4.041-10.67,4.041-14.76,0C756.724,104.393,755.663,101.741,755.745,99z"/>
		<circle class="st1" cx="109.53" cy="74.35" r="71.73"/>
		<path class="st2" d="M158,136.87c-0.44,0.125-0.914,0.019-1.26-0.28c-0.578-0.492-0.65-1.359-0.16-1.94
			c14.32-16.89,9.75-23.43,6.09-28.69c-2-2.81-4-5.72-1.78-9.34c17.45-28.4,8.65-37.5,3.38-42.93c-2.22-2.3-4.74-4.91-1.85-7.84
			c4.09-4.13,8.58-1.62,12.54,0.59c3.44,1.92,6.71,3.74,10,2.19c2.309-1.082,5.014-0.892,7.15,0.5c1.065-3.2,2.584-6.231,4.51-9
			c4.51-6.28,10.29-8.79,16.27-7.08c3.3,1,5.1,3.4,6.69,5.57s2.82,3.72,4.86,3.81c1.57,0.07,2.75-0.78,4.11-1.77
			c1.77-1.28,3.78-2.74,6.91-2.37c1.22,0.15,2.68,1,4.53,2.19c3,1.83,6.67,4.09,9.45,3.26c2-0.6,6.19-1.85,6.42-3.3
			c0.3-1.94-4.26-6.17-13.55-12.57l-0.19-0.12c-4.15-2.69-9.43-6.28-14.11-10c-0.393,1.097-0.942,2.131-1.63,3.07
			c-3.25,4.39-11.17,8.48-30.39,3c-50.3-14.32-56.91-7.55-74.58,10.54c-5,5.15-10.74,11-18.53,17.59
			C86.19,66.09,66.37,68.8,45.55,59.84c-9.948-4.472-19.091-10.553-27.06-18c10.26,18.24,29.1,38,71.14,30.21
			c6.23-1.16,13.19-3.44,19.92-5.64c15.54-5.08,30.22-9.88,38.21-2.61c6.37,5.8,7.17,18.06,2.53,38.58
			c-0.142,0.749-0.865,1.24-1.613,1.098c-0.749-0.142-1.24-0.865-1.098-1.613c0.006-0.032,0.013-0.063,0.021-0.094
			c4.33-19.18,3.78-30.93-1.7-35.92c-6.8-6.19-21.39-1.42-35.49,3.19c-6.82,2.23-13.86,4.53-20.27,5.72
			c-49.95,9.3-68.36-18.79-78-39.16C4.67,27.6,0.15,20.38,0,17.71c-0.12-0.838,0.274-1.665,1-2.1c0.859-0.522,1.902-0.646,2.86-0.34
			c2.72,0.91,4.64,5.28,7.53,11.9c0.92,2.11,1.93,4.41,3.07,6.84c7.835,8.366,16.973,15.407,27.06,20.85
			c15.16,7.89,37.79,13.43,59.56-5c6.402-5.492,12.523-11.302,18.34-17.41c18-18.42,25.43-26,77.32-11.27c17.7,5,24.67,1.69,27.41-2
			c0.73-0.993,1.254-2.122,1.54-3.32c-5.48-4.64-9.58-9.28-9-12.44c0.21-1.17,1.09-2.72,4.07-3.36c1.78-0.39,3.72,0.81,5.32,3.29
			c2.121,3.401,3.04,7.415,2.61,11.4c4.785,3.822,9.765,7.394,14.92,10.7l0.25,0.16c11.26,7.75,15.25,11.89,14.72,15.28
			c-0.46,2.93-4.06,4.23-8.35,5.52c-4,1.22-8.45-1.55-11.7-3.56c-1.049-0.745-2.192-1.347-3.4-1.79c-2.06-0.25-3.41,0.73-5,1.86
			s-3.32,2.4-5.85,2.29c-3.47-0.15-5.33-2.69-7-4.94c-1.46-2-2.83-3.86-5.22-4.54c-6.13-1.76-10.59,2.31-13.26,6
			c-1.969,2.807-3.471,5.914-4.45,9.2c3.16,3.2,5.29,8.4,4.62,11.71c-0.213,1.484-1.285,2.702-2.73,3.1
			c-1.72,0.583-3.617-0.065-4.62-1.58C190,61.75,190,57,191.28,51.9c-1.414-1.242-3.424-1.543-5.14-0.77
			c-4.56,2.16-8.78-0.2-12.5-2.28c-4.22-2.36-6.74-3.57-9.22-1.06c-0.81,0.82-0.89,1.12,1.87,4c5.44,5.61,15.56,16.07-3,46.3
			c-1.22,2-0.31,3.45,1.68,6.31c3.77,5.39,9.46,13.54-6.24,32.05C158.539,136.665,158.282,136.813,158,136.87z M193.56,54.23
			c-0.73,3.81-0.59,7,0.37,8.39c0.337,0.552,1.034,0.763,1.62,0.49c0.17,0,0.57-0.15,0.74-1c0.41-1.86-0.69-5.25-2.7-7.88
			L193.56,54.23z M221,2.86c-0.72,0.2-1.46,0.53-1.56,1.07c-0.29,1.58,2.17,4.66,6.62,8.58c-0.089-2.702-0.87-5.337-2.27-7.65
			c-1.08-1.67-2-2.17-2.42-2.09L221,2.86z M2.78,17.87C3,19.3,4.94,22.6,8.22,26.79C6.24,22.3,4.4,18.36,3,17.9
			C2.93,17.872,2.855,17.861,2.78,17.87z"/>
		<g>
			<path class="st0" d="M238.984,109.454c-5.864,0-10.635-4.771-10.635-10.636V75.251c0-5.864,4.771-10.635,10.635-10.635
				s10.635,4.771,10.635,10.635v23.567C249.619,104.683,244.848,109.454,238.984,109.454z M238.984,70.215
				c-2.776,0-5.036,2.259-5.036,5.036v23.567c0,2.776,2.259,5.036,5.036,5.036s5.036-2.26,5.036-5.036V75.251
				C244.02,72.475,241.76,70.215,238.984,70.215z"/>
		</g>
		<path class="st0" d="M266.833,64.308h-4.907v0.002h-2.497c-1.59,0.03-2.84,1.35-2.81,2.93v40.62c0.02,0.38,0.18,0.73,0.46,0.99
			c0.25,0.29,0.62,0.46,1,0.47h2.89c0.78-0.07,1.39-0.68,1.46-1.46V89.723h4.404c5.904,0,10.707-4.804,10.707-10.707v-2.032v-0.525
			v-1.444C277.539,69.112,272.737,64.308,266.833,64.308z M271.74,76.984v2.032c0,2.705-2.201,4.906-4.907,4.906h-4.404V70.109
			h4.404c2.706,0,4.907,2.201,4.907,4.906v1.444V76.984z"/>
	</g>
</g>
</svg>
