<?xml version="1.0" encoding="UTF-8"?>
<svg width="397px" height="115px" viewBox="0 0 397 115" version="1.1" xmlns="http://www.w3.org/2000/svg" xmlns:xlink="http://www.w3.org/1999/xlink">
    <!-- Generator: Sketch 57.1 (83088) - https://sketch.com -->
    <title>Logo</title>
    <desc>Created with Sketch.</desc>
    <defs>
        <linearGradient x1="46.9886181%" y1="41.5244425%" x2="50%" y2="64.6184381%" id="linearGradient-1">
            <stop stop-color="#FFF3CD" offset="0%"></stop>
            <stop stop-color="#FFE49F" stop-opacity="0" offset="100%"></stop>
        </linearGradient>
        <path d="M126.28,103.228571 L135.807306,109.926878 C129.107722,112.71279 121.762906,114.250196 114.060532,114.250196 C112.947292,114.250196 111.841521,114.21808 110.744087,114.154721 L126.28,103.228571 Z M114.060532,6.89226454e-13 C141.648881,6.89226454e-13 164.65002,19.7238041 169.844811,45.8959903 L152.990895,45.4073039 C147.976984,28.5831892 132.444628,16.3214566 114.060532,16.3214566 C91.6208472,16.3214566 73.4298885,34.5898691 73.4298885,57.125098 C73.4298885,71.6990133 81.038127,84.488363 92.4834426,91.705929 L89.7723489,100.517113 L89.6155668,101.068662 L89.4863862,101.624584 L89.3810577,102.176204 C88.9691562,104.59487 89.2372619,106.87914 90.0070877,108.905704 C70.614264,99.8059286 57.177631,80.0413413 57.177631,57.125098 C57.177631,25.5757776 82.6449733,6.89226454e-13 114.060532,6.89226454e-13 Z M59.8565766,19.3735613 L59.8565766,30.8145994 L36.6685637,30.8145994 L36.6685637,94.7151885 L23.1880128,94.7151885 L23.1880128,30.8145994 L2.00525311e-12,30.8145994 L2.00525311e-12,19.3735613 L59.8565766,19.3735613 Z M205.560818,19.3735613 L206.1748,19.3776905 C211.668889,19.4520171 216.305748,20.5297525 220.085379,22.6108968 C224.004996,24.7691205 226.972182,27.7305468 228.986938,31.4951756 C231.001695,35.2598044 232.009073,39.5333326 232.009073,44.3157601 C232.009073,49.1472382 230.995589,53.4391603 228.968622,57.1915265 C227.019616,60.7995709 224.178744,63.6650094 220.446008,65.787842 L219.993799,66.0390174 L219.679561,66.2062062 C215.924903,68.1653561 211.365134,69.1812116 206.000256,69.2537728 L205.377658,69.257959 L191.017929,69.2581137 L191.017941,94.7151885 L177.427494,94.7151885 L177.427494,19.3735613 L205.560818,19.3735613 Z M159.863879,91.0050812 L156.8,81.0542857 L165.261588,74.7044885 L169.030739,71.8689749 C167.174444,78.8668545 164.028407,85.3363589 159.863879,91.0050812 Z M203.472798,30.7778115 L191.017929,30.7778115 L191.017929,58.0379157 L203.546062,58.0379157 L204.047003,58.0334992 C207.190634,57.9775574 209.783259,57.3901812 211.824878,56.2718289 C213.973952,55.094616 215.567441,53.4759482 216.605345,51.4158256 C217.64325,49.355703 218.162202,46.9890145 218.162202,44.3157601 C218.162202,41.6425058 217.64325,39.2880799 216.605345,37.2524826 C215.567441,35.2168852 213.967846,33.628874 211.806562,32.488449 C209.645278,31.348024 206.867357,30.7778115 203.472798,30.7778115 Z" id="path-2"></path>
        <filter x="-0.3%" y="-0.7%" width="100.6%" height="101.3%" filterUnits="objectBoundingBox" id="filter-3">
            <feGaussianBlur stdDeviation="0.25" in="SourceAlpha" result="shadowBlurInner1"></feGaussianBlur>
            <feOffset dx="0" dy="1" in="shadowBlurInner1" result="shadowOffsetInner1"></feOffset>
            <feComposite in="shadowOffsetInner1" in2="SourceAlpha" operator="arithmetic" k2="-1" k3="1" result="shadowInnerInner1"></feComposite>
            <feColorMatrix values="0 0 0 0 1   0 0 0 0 0.907567602   0 0 0 0 0.674637957  0 0 0 1 0" type="matrix" in="shadowInnerInner1"></feColorMatrix>
        </filter>
        <linearGradient x1="50%" y1="0%" x2="50%" y2="100%" id="linearGradient-4">
            <stop stop-color="#FFFFFF" offset="0%"></stop>
            <stop stop-color="#FBF3DE" offset="100%"></stop>
        </linearGradient>
        <path d="M122.122768,28.6871494 C123.464104,24.7668896 128.962322,24.7238098 130.395018,28.5579101 L130.441258,28.6871494 L138.984411,53.6560446 L157.852871,53.9481323 L146.405278,62.563744 L135.757617,62.3988576 C133.997441,62.3715559 132.433226,61.2984876 131.76565,59.6887255 L131.713501,59.5570383 L131.666548,59.4265226 L126.282013,43.6898933 L120.897477,59.4265226 C120.312185,61.137128 118.741695,62.3102902 116.945046,62.3945343 L116.806409,62.3988576 L100.175327,62.6570363 L113.478583,72.6408529 C114.884594,73.6960794 115.519527,75.4801397 115.11686,77.1727601 L115.080897,77.3135826 L115.041232,77.4501919 L110.146851,93.3472529 L123.753594,83.7800931 C125.186224,82.7727991 127.07031,82.7168383 128.553102,83.6122108 L128.682874,83.6936831 L128.810432,83.7800931 L142.416686,93.3472529 L140.42969,86.8925044 L147.937029,81.3975426 L154.599663,103.039075 C155.807786,106.96337 151.475181,110.206752 148.075723,108.065677 L147.973002,107.999143 L147.869863,107.928561 L126.282013,92.750378 L104.694162,107.928561 C101.335267,110.290228 96.9117783,107.171936 97.8975719,103.277231 L97.9291069,103.158977 L97.9643629,103.039075 L105.728902,77.8177581 L84.6223376,61.9765434 C81.3386378,59.5120906 82.9367152,54.3423015 86.9445262,54.0753433 L87.0679644,54.0687107 L87.1928923,54.0651896 L113.579126,53.6560446 L122.122768,28.6871494 Z" id="path-5"></path>
        <filter x="-8.7%" y="-6.6%" width="117.3%" height="115.7%" filterUnits="objectBoundingBox" id="filter-6">
            <feOffset dx="0" dy="1" in="SourceAlpha" result="shadowOffsetOuter1"></feOffset>
            <feGaussianBlur stdDeviation="2" in="shadowOffsetOuter1" result="shadowBlurOuter1"></feGaussianBlur>
            <feColorMatrix values="0 0 0 0 0.0745098039   0 0 0 0 0.156862745   0 0 0 0 0.31372549  0 0 0 1 0" type="matrix" in="shadowBlurOuter1"></feColorMatrix>
        </filter>
        <linearGradient x1="56.8239083%" y1="32.6989619%" x2="50%" y2="43.9997319%" id="linearGradient-7">
            <stop stop-color="#2BFF6C" offset="0%"></stop>
            <stop stop-color="#00E346" offset="100%"></stop>
        </linearGradient>
    </defs>
    <g id="Logo" stroke="none" stroke-width="1" fill="none" fill-rule="evenodd">
        <g transform="translate(-54.000000, -39.000000)">
            <g transform="translate(54.000000, 39.000000)">
                <g id="Combined-Shape">
                    <use fill="#FDCC46" fill-rule="evenodd" xlink:href="#path-2"></use>
                    <use fill="black" fill-opacity="1" filter="url(#filter-3)" xlink:href="#path-2"></use>
                    <path stroke="url(#linearGradient-1)" stroke-width="0.5" d="M126.280022,103.534191 L111.480794,113.942243 C112.338118,113.980841 113.198169,114.000196 114.060532,114.000196 C121.431564,114.000196 128.605818,112.58546 135.290411,109.869071 L126.280022,103.534191 Z M89.5710929,108.421464 C88.923739,106.439186 88.764344,104.30842 89.1354942,102.129316 L89.2428742,101.567998 L89.3750935,101.000305 L89.5334039,100.443592 L92.1883546,91.8148758 C80.4483343,84.3351424 73.1798885,71.356307 73.1798885,57.125098 C73.1798885,34.4520352 91.4825377,16.0714566 114.060532,16.0714566 C132.185736,16.0714566 147.988422,28.0225407 153.178431,45.1626365 L169.537647,45.6369789 C164.180232,19.3996914 141.083333,0.25 114.060532,0.25 C82.7832828,0.25 57.427631,25.7136115 57.427631,57.125098 C57.427631,79.2322455 70.1013922,99.0334407 89.5710929,108.421464 Z M59.6065766,19.6235613 L0.25,19.6235613 L0.25,30.5645994 L23.4380128,30.5645994 L23.4380128,94.4651885 L36.4185637,94.4651885 L36.4185637,30.5645994 L59.6065766,30.5645994 L59.6065766,19.6235613 Z M177.677494,19.6235613 L177.677494,94.4651885 L190.767941,94.4651885 L190.767929,69.0081164 L191.017927,69.0081137 L205.375977,69.0079646 L205.996875,69.0037956 C211.324708,68.9317356 215.846294,67.9243865 219.562135,65.9855 L219.872407,65.8204674 L220.32242,65.5705269 C224.014925,63.470574 226.822196,60.6390258 228.748663,57.072708 C230.755232,53.3581024 231.759073,49.1070161 231.759073,44.3157601 C231.759073,39.5733433 230.761249,35.3403487 228.766519,31.6131396 C226.774864,27.8916754 223.84258,24.9650836 219.964795,22.8298933 C216.223602,20.7699137 211.626717,19.7014695 206.173119,19.6276849 L205.559137,19.6235556 L205.560818,19.6235613 L177.677494,19.6235613 Z M159.955792,90.4540347 C163.862773,85.0373935 166.794494,78.9693335 168.597881,72.5074564 L165.411642,74.9044476 L157.090662,81.1487295 L159.955792,90.4540347 Z M203.472798,30.5278115 C206.90523,30.5278115 209.722496,31.1061002 211.923232,32.2673422 C214.129316,33.4314063 215.766308,35.0565451 216.828065,37.1389228 C217.884687,39.211229 218.412202,41.6045044 218.412202,44.3157601 C218.412202,47.0267042 217.884814,49.4318665 216.828611,51.5283085 C215.767547,53.6344006 214.137768,55.2899317 211.944984,56.4910884 C209.864565,57.6306938 207.232678,58.2268488 204.049207,58.2834895 L203.546062,58.2879157 L190.767929,58.2879157 L190.767929,30.5278115 L203.472798,30.5278115 Z" stroke-linejoin="square"></path>
                </g>
                <g id="Combined-Shape" fill-rule="nonzero">
                    <use fill="black" fill-opacity="1" filter="url(#filter-6)" xlink:href="#path-5"></use>
                    <use fill="url(#linearGradient-4)" xlink:href="#path-5"></use>
                </g>
                <path d="M120,68.2937395 C124.240488,65.6661151 127.660935,65.0585916 130.261343,66.4711688 C132.261657,67.5577667 134.697339,69.0860221 137.568392,71.0559349 L139.642575,72.5043573 L150.275959,64.4654594 L163.256429,54.8897775 L164.392563,54.9076426 C168.310063,54.9688804 169.998366,59.8466372 167.144814,62.3677124 L159.327875,68.2965862 L146.526785,77.9794923 L146.533358,78.0013166 L139.335324,83.461206 L120,68.2937395 Z" id="Path" fill="url(#linearGradient-7)" fill-rule="nonzero"></path>
                <path d="M258.063949,65.3971587 C259.501181,65.3971587 260.89419,65.6358668 262.242977,66.1132829 C263.591763,66.590699 264.802354,67.3401313 265.87475,68.3615798 C266.947146,69.3830283 267.792902,70.7070253 268.412017,72.333571 C269.031132,73.9601166 269.34069,75.9336216 269.34069,78.2540861 L269.34069,78.2540861 L269.34069,80.0194155 L251.23904,80.0202149 L251.231571,79.6696804 C251.231571,81.3794963 251.532837,82.8339501 252.135369,84.0330418 C252.737901,85.2321335 253.580892,86.1453306 254.664344,86.7726332 C255.747795,87.3999358 257.013665,87.7135871 258.461952,87.7135871 C259.40168,87.7135871 260.258491,87.577579 261.032385,87.3055628 C261.806279,87.0335466 262.475145,86.6255224 263.038982,86.0814901 C263.602819,85.5374577 264.033988,84.8657443 264.33249,84.0663499 L264.33249,84.0663499 L269.025604,84.9157065 L268.92547,85.2590228 C268.535721,86.5044914 267.897469,87.6030227 267.010716,88.5546166 C266.043349,89.5927191 264.832757,90.3976649 263.378942,90.969454 C261.925127,91.5412431 260.269547,91.8271377 258.412201,91.8271377 C255.902574,91.8271377 253.743963,91.285881 251.936367,90.2033677 C250.128772,89.1208544 248.735763,87.594233 247.75734,85.6235037 C246.778917,83.6527743 246.289706,81.3406369 246.289706,78.6870914 C246.289706,76.0668541 246.778917,73.7574923 247.75734,71.7590062 C248.735763,69.7605201 250.106661,68.2005906 251.870034,67.0792179 C253.633406,65.9578451 255.698045,65.3971587 258.063949,65.3971587 Z M317.308611,65.3971587 C318.745842,65.3971587 320.138851,65.6358668 321.487638,66.1132829 C322.836425,66.590699 324.047016,67.3401313 325.119412,68.3615798 C326.191808,69.3830283 327.037563,70.7070253 327.656678,72.333571 C328.275794,73.9601166 328.585351,75.9336216 328.585351,78.2540861 L328.585351,78.2540861 L328.585351,80.0194155 L310.482524,80.0202149 L310.476233,79.6696804 C310.476233,81.3794963 310.777499,82.8339501 311.38003,84.0330418 C311.982562,85.2321335 312.825554,86.1453306 313.909005,86.7726332 C314.992457,87.3999358 316.258326,87.7135871 317.706613,87.7135871 C318.646342,87.7135871 319.503153,87.577579 320.277047,87.3055628 C321.050941,87.0335466 321.719806,86.6255224 322.283643,86.0814901 C322.84748,85.5374577 323.27865,84.8657443 323.577152,84.0663499 L323.577152,84.0663499 L328.270266,84.9157065 L328.170132,85.2590228 C327.780382,86.5044914 327.142131,87.6030227 326.255378,88.5546166 C325.28801,89.5927191 324.077419,90.3976649 322.623604,90.969454 C321.169789,91.5412431 319.514208,91.8271377 317.656863,91.8271377 C315.147235,91.8271377 312.988624,91.285881 311.181029,90.2033677 C309.373434,89.1208544 307.980425,87.594233 307.002002,85.6235037 C306.023579,83.6527743 305.534367,81.3406369 305.534367,78.6870914 C305.534367,76.0668541 306.023579,73.7574923 307.002002,71.7590062 C307.980425,69.7605201 309.351323,68.2005906 311.114695,67.0792179 C312.878068,65.9578451 314.942706,65.3971587 317.308611,65.3971587 Z M335.364204,65.7302397 L340.35582,84.5160093 L340.604572,84.5160093 L345.612771,65.7302397 L350.737055,65.7302397 L355.712087,84.432739 L355.960839,84.432739 L360.919288,65.7302397 L366.043571,65.7302397 L358.564439,91.3108621 L353.506489,91.3108621 L348.332456,72.8415195 L347.951036,72.8415195 L342.777003,91.3108621 L337.735636,91.3108621 L330.239921,65.7302397 L335.364204,65.7302397 Z M243.772777,65.3471966 C244.082334,65.3471966 244.449934,65.3582993 244.875576,65.3805047 C245.301217,65.4027101 245.63565,65.4304668 245.878874,65.4637749 L245.878874,65.4637749 L245.878874,70.2268335 L245.796993,70.2056256 C245.589009,70.1552298 245.262523,70.0984585 244.817534,70.0353119 C244.308975,69.9631444 243.800416,69.9270606 243.291857,69.9270606 C242.119961,69.9270606 241.077968,70.1740957 240.165878,70.6681659 C239.253789,71.162236 238.532409,71.8450521 238.001739,72.7166141 C237.471069,73.5881761 237.205734,74.5790922 237.205734,75.6893622 L237.205734,75.6893622 L237.205734,91.3108621 L232.247285,91.3108621 L232.247285,65.7302397 L237.0399,65.7302397 L237.0399,69.7938282 L237.305235,69.7938282 L237.410193,69.5032745 C237.888659,68.263539 238.674553,67.2751012 239.767876,66.5379612 C240.9453,65.7441181 242.280267,65.3471966 243.772777,65.3471966 Z M275.588872,65.7302397 L282.039831,85.415328 L282.305166,85.415328 L288.739542,65.7302397 L294.062827,65.7302397 L284.825849,91.3108621 L279.519148,91.3108621 L270.265588,65.7302397 L275.588872,65.7302397 Z M301.849966,65.7302397 L301.849966,91.3108621 L296.891517,91.3108621 L296.891517,65.7302397 L301.849966,65.7302397 Z M258.097116,69.5107093 C256.704107,69.5107093 255.490752,69.8521174 254.457051,70.5349334 C253.423349,71.2177495 252.627344,72.1059656 252.069035,73.1995816 C251.603777,74.1109283 251.332377,75.0858842 251.254834,76.1244493 L251.254834,76.1244493 L251.247796,76.2889081 L264.481741,76.2889081 L264.475163,75.9352504 C264.431306,74.7685492 264.168163,73.7234272 263.685736,72.7998844 C263.155066,71.7839873 262.411575,70.9818172 261.455263,70.393374 C260.498951,69.8049309 259.379569,69.5107093 258.097116,69.5107093 Z M317.341778,69.5107093 C315.948769,69.5107093 314.735413,69.8521174 313.701712,70.5349334 C312.668011,71.2177495 311.872006,72.1059656 311.313697,73.1995816 C310.848439,74.1109283 310.577039,75.0858842 310.499496,76.1244493 L310.499496,76.1244493 L310.49128,76.2889081 L323.726403,76.2889081 L323.719824,75.9352504 C323.675967,74.7685492 323.412825,73.7234272 322.930397,72.7998844 C322.399727,71.7839873 321.656236,70.9818172 320.699925,70.393374 C319.743613,69.8049309 318.62423,69.5107093 317.341778,69.5107093 Z M299.395616,55.8377334 C300.257955,55.8377334 300.995918,56.1291793 301.609506,56.7120711 C302.223093,57.2949629 302.529887,57.9972087 302.529887,58.8188086 C302.529887,59.6293057 302.223093,60.3260002 301.609506,60.908892 C300.995918,61.4917838 300.257955,61.7832296 299.395616,61.7832296 C298.533277,61.7832296 297.795314,61.4917838 297.181727,60.908892 C296.56814,60.3260002 296.261346,59.6293057 296.261346,58.8188086 C296.261346,57.9972087 296.56814,57.2949629 297.181727,56.7120711 C297.795314,56.1291793 298.533277,55.8377334 299.395616,55.8377334 Z M336.742508,47.545602 C336.785291,49.0876292 337.084775,50.4120697 337.640958,51.5189235 C338.24349,52.7180152 339.086481,53.6312123 340.169933,54.2585149 C341.253384,54.8858175 342.519254,55.1994688 343.967541,55.1994688 C344.907269,55.1994688 345.76408,55.0634607 346.537974,54.7914445 C347.311868,54.5194284 347.980734,54.1114041 348.544571,53.5673718 C349.108408,53.0233394 349.539577,52.3516261 349.838079,51.5522316 L349.838079,51.5522316 L354.531193,52.4015882 L354.431059,52.7449045 C354.04131,53.9903731 353.403059,55.0889044 352.516305,56.0404984 C351.548938,57.0786009 350.338346,57.8835467 348.884531,58.4553358 C347.430716,59.0271248 345.775136,59.3130194 343.917791,59.3130194 C341.408163,59.3130194 339.249552,58.7717627 337.441957,57.6892494 C335.634361,56.6067361 334.241352,55.0801147 333.262929,53.1093854 C332.284506,51.138656 331.795295,48.8265186 331.795295,46.1729731 C331.795295,43.5527358 332.284506,41.243374 333.262929,39.2448879 C334.241352,37.2464018 335.61225,35.6864724 337.375623,34.5650996 C339.138995,33.4437268 341.203634,32.8830404 343.569538,32.8830404 C345.00677,32.8830404 346.399779,33.1217485 347.748566,33.5991646 C349.097352,34.0765808 350.307943,34.8260131 351.380339,35.8474615 C352.452735,36.86891 353.298491,38.192907 353.917606,39.8194527 C354.536721,41.4459983 354.846279,43.4195034 354.846279,45.7399678 L354.846279,45.7399678 L354.846279,47.5052972 L336.743439,47.5060966 L336.740285,47.3656152 Z M386.44347,32.8830404 C389.196322,32.8830404 391.363234,33.4798106 392.944179,34.6733509 C394.525134,35.8668912 395.569891,37.4629045 396.07845,39.4613906 L396.07845,39.4613906 L391.584337,40.260785 L391.481382,39.9744279 C391.294818,39.5010211 391.033398,39.0468898 390.697123,38.612034 C390.293593,38.090207 389.749103,37.6627531 389.063654,37.3296721 C388.378205,36.996591 387.521394,36.8300505 386.493221,36.8300505 C385.089156,36.8300505 383.917259,37.1437018 382.977531,37.7710044 C382.037803,38.398307 381.567938,39.2060285 381.567938,40.1941688 C381.567938,41.0490768 381.883024,41.7374442 382.513195,42.2592712 C383.143365,42.7810981 384.160483,43.2085521 385.564548,43.5416331 L385.564548,43.5416331 L389.610908,44.4742599 L390.018321,44.5733198 C392.15814,45.1179284 393.769124,45.9231624 394.851275,46.9890216 C396.00106,48.1214971 396.575953,49.5926049 396.575953,51.4023452 C396.575953,52.9345178 396.136492,54.2973744 395.25757,55.4909147 C394.378647,56.684455 393.157,57.6198575 391.592629,58.2971223 C390.028258,58.974387 388.217899,59.3130194 386.161552,59.3130194 C383.3092,59.3130194 380.98199,58.6995952 379.179923,57.4727467 C377.377855,56.2458983 376.272293,54.4999986 375.863234,52.2350477 L375.863234,52.2350477 L380.655849,51.5022695 L380.724637,51.7663976 C381.043614,52.8905177 381.634272,53.7489802 382.496611,54.3417852 C383.425284,54.9801904 384.635875,55.2993931 386.128385,55.2993931 C387.753562,55.2993931 389.052598,54.957985 390.025494,54.2751689 C390.998389,53.5923529 391.484837,52.7568746 391.484837,51.7687343 C391.484837,50.9693398 391.189098,50.2976264 390.597622,49.7535941 C390.006146,49.2095618 389.102349,48.7987618 387.88623,48.5211943 L387.88623,48.5211943 L383.574535,47.5719134 L383.161527,47.4725654 C380.993247,46.9248834 379.375835,46.0919887 378.309292,44.9738815 C377.17609,43.7858925 376.609489,42.2814766 376.609489,40.4606336 C376.609489,38.9506664 377.029603,37.629445 377.869831,36.4969695 C378.710059,35.364494 379.8709,34.4790537 381.352354,33.8406484 C382.833808,33.2022431 384.530847,32.8830404 386.44347,32.8830404 Z M323.172355,27.0874307 L323.17155,33.2169209 L328.396139,33.2161215 L328.396139,37.2130937 L323.17155,37.214959 L323.172355,51.2857668 L323.176667,51.5683028 C323.202537,52.3941772 323.344823,53.0244497 323.603525,53.4591205 C323.890971,53.9420879 324.264099,54.2696176 324.722907,54.4417095 C325.181716,54.6138013 325.681983,54.6998473 326.223709,54.6998473 C326.621711,54.6998473 326.969963,54.6720905 327.268465,54.616577 C327.566967,54.5610635 327.799135,54.5166527 327.96497,54.4833446 L327.96497,54.4833446 L328.860476,58.5968952 L328.729839,58.6446481 C328.453674,58.7404939 328.088161,58.8383789 327.633301,58.9383032 C327.102631,59.0548816 326.439293,59.1187221 325.643288,59.1298248 C324.338724,59.1520302 323.122605,58.9188735 321.994931,58.4303547 C320.867257,57.9418358 319.955168,57.1868522 319.258663,56.1654037 L319.258663,56.1654037 L318.981483,55.7116658 C318.469765,54.7722414 318.213906,53.6411254 318.213906,52.318318 L318.213906,52.318318 L318.212703,37.214959 L314.482632,37.2130937 L314.482632,33.2161215 L318.212703,33.2169209 L318.213906,27.0874307 L323.172355,27.0874307 Z M371.233576,32.8330783 C371.543134,32.8330783 371.910734,32.844181 372.336375,32.8663864 C372.762017,32.8885918 373.09645,32.9163485 373.339674,32.9496566 L373.339674,32.9496566 L373.339674,37.7127152 L373.257793,37.6915073 C373.049809,37.6411115 372.723322,37.5843403 372.278333,37.5211936 C371.769774,37.4490261 371.261216,37.4129423 370.752657,37.4129423 C369.58076,37.4129423 368.538767,37.6599774 367.626678,38.1540476 C366.714589,38.6481178 365.993209,39.3309338 365.462539,40.2024959 C364.931869,41.0740579 364.666534,42.0649739 364.666534,43.175244 L364.666534,43.175244 L364.666534,58.7967438 L359.708084,58.7967438 L359.708084,33.2161215 L364.500699,33.2161215 L364.500699,37.2797099 L364.766034,37.2797099 L364.870992,36.9891562 C365.349458,35.7494207 366.135353,34.7609829 367.228675,34.0238429 C368.4061,33.2299998 369.741067,32.8330783 371.233576,32.8330783 Z M310.50968,33.2161215 L310.50968,58.7967438 L305.551231,58.7967438 L305.551231,33.2161215 L310.50968,33.2161215 Z M299.793899,32.8330783 C300.103456,32.8330783 300.471056,32.844181 300.896698,32.8663864 C301.322339,32.8885918 301.656772,32.9163485 301.899996,32.9496566 L301.899996,32.9496566 L301.899996,37.7127152 L301.818115,37.6915073 C301.610131,37.6411115 301.283645,37.5843403 300.838656,37.5211936 C300.330097,37.4490261 299.821538,37.4129423 299.312979,37.4129423 C298.141082,37.4129423 297.099089,37.6599774 296.187,38.1540476 C295.274911,38.6481178 294.553531,39.3309338 294.022861,40.2024959 C293.492191,41.0740579 293.226856,42.0649739 293.226856,43.175244 L293.226856,43.175244 L293.226856,58.7967438 L288.268407,58.7967438 L288.268407,33.2161215 L293.061021,33.2161215 L293.061021,37.2797099 L293.326356,37.2797099 L293.431314,36.9891562 C293.909781,35.7494207 294.695675,34.7609829 295.788998,34.0238429 C296.966422,33.2299998 298.301389,32.8330783 299.793899,32.8330783 Z M253.559701,33.2161215 L258.551317,52.001891 L258.800069,52.001891 L263.808268,33.2161215 L268.932552,33.2161215 L273.907584,51.9186207 L274.156336,51.9186207 L279.114785,33.2161215 L284.239069,33.2161215 L276.759936,58.7967438 L271.701987,58.7967438 L266.527953,40.3274012 L266.146534,40.3274012 L260.9725,58.7967438 L255.931134,58.7967438 L248.435418,33.2161215 L253.559701,33.2161215 Z M343.602705,36.996591 C342.209696,36.996591 340.996341,37.3379991 339.96264,38.0208152 C338.928938,38.7036313 338.132933,39.5918473 337.574624,40.6854633 C337.109366,41.59681 336.837966,42.5717659 336.760423,43.610331 L336.760423,43.610331 L336.752195,43.7747898 L349.98733,43.7747898 L349.980752,43.4211321 C349.936895,42.2544309 349.673752,41.2093089 349.191325,40.2857661 C348.660655,39.269869 347.917164,38.4676989 346.960852,37.8792557 C346.00454,37.2908126 344.885158,36.996591 343.602705,36.996591 Z M308.05533,23.3236152 C308.917669,23.3236152 309.655633,23.6150611 310.26922,24.1979528 C310.882807,24.7808446 311.189601,25.4830904 311.189601,26.3046903 C311.189601,27.1151874 310.882807,27.8118819 310.26922,28.3947737 C309.655633,28.9776655 308.917669,29.2691114 308.05533,29.2691114 C307.192991,29.2691114 306.455028,28.9776655 305.841441,28.3947737 C305.227854,27.8118819 304.92106,27.1151874 304.92106,26.3046903 C304.92106,25.4830904 305.227854,24.7808446 305.841441,24.1979528 C306.455028,23.6150611 307.192991,23.3236152 308.05533,23.3236152 Z" id="Combined-Shape" fill="#FFFFFF" fill-rule="nonzero"></path>
            </g>
        </g>
    </g>
</svg>