<?xml version="1.0" encoding="UTF-8" standalone="no"?>
<!DOCTYPE svg PUBLIC "-//W3C//DTD SVG 1.1//EN" "http://www.w3.org/Graphics/SVG/1.1/DTD/svg11.dtd">
<svg width="100%" height="100%" viewBox="0 0 600 450" version="1.1" xmlns="http://www.w3.org/2000/svg" xmlns:xlink="http://www.w3.org/1999/xlink" xml:space="preserve" xmlns:serif="http://www.serif.com/" style="fill-rule:evenodd;clip-rule:evenodd;stroke-linejoin:round;stroke-miterlimit:2;">
    <g transform="matrix(2.21924e-16,-3.6243,3.6243,2.21924e-16,-332.954,1080.17)">
        <g transform="matrix(1,0,0,1,-2,0)">
            <path d="M245.557,235.461C243.076,235.831 240.537,236.023 237.954,236.023C233.479,236.023 229.137,235.447 225,234.366L225,197.454L245.557,197.454L245.557,235.461ZM270.557,224.277C264.667,229.155 257.669,232.74 250,234.594L250,197.454L270.557,197.454L270.557,224.277ZM220.557,232.984C212.603,230.104 205.564,225.307 200,219.153L200,197.454L220.557,197.454L220.557,232.984Z" style="fill:rgb(127,42,104);"/>
        </g>
        <g transform="matrix(1.6597e-17,0.27105,-0.275915,1.68949e-17,298.035,94.5623)">
            <path d="M355.5,27C465.055,27 554,115.945 554,225.5C554,335.055 465.055,424 355.5,424C245.945,424 157,335.055 157,225.5C157,115.945 245.945,27 355.5,27ZM338.5,51C438.673,51 520,129.191 520,225.5C520,321.809 438.673,400 338.5,400C238.327,400 157,321.809 157,225.5C157,129.191 238.327,51 338.5,51Z" style="fill:rgb(51,51,51);"/>
        </g>
        <g transform="matrix(1,-2.40803e-32,2.40692e-32,0.635813,0.497014,45.3154)">
            <g transform="matrix(1.65006e-17,0.413522,-0.248507,2.3404e-17,310.028,50.0654)">
                <path d="M143.573,370.304L483.702,370.304L483.702,453.026L104.461,453.026L143.573,370.304Z" style="fill:rgb(127,42,104);"/>
            </g>
            <g transform="matrix(1.65006e-17,0.413522,-0.248507,2.3404e-17,310.028,50.0654)">
                <path d="M189.518,269.704L483.676,269.704L483.676,352.425L152.027,352.425L191,270L189.518,269.704Z" style="fill:rgb(127,42,104);"/>
            </g>
            <g transform="matrix(0.999742,1.23228e-32,-2.98035e-32,1.11431,34.8064,-16.7908)">
                <path d="M233.253,117.538L212.696,130.603L212.696,239.333L233.253,239.333L233.253,117.538Z" style="fill:rgb(127,42,104);"/>
            </g>
        </g>
    </g>
</svg>
