<svg enable-background="new 0 0 512.001 512.001" viewBox="0 0 512.001 512.001" xmlns="http://www.w3.org/2000/svg" xmlns:xlink="http://www.w3.org/1999/xlink"><linearGradient id="a" x1="0%" x2="100%" y1="0%" y2="0%"><stop offset="0" stop-color="#ea2845"/><stop offset="1" stop-color="#ea2868"/></linearGradient><g fill="url(#a)"><g stroke-width="1.034537"><path d="m116.78044 1040.1545v-61.2397c0-5.6456-4.6886-10.222-10.47029-10.222s-10.47029 4.5764-10.47029 10.222v61.2397c9.18874-3.9203 13.35806-2.1562 20.94058 0z" transform="translate(150.16114 -926.24453)"/><path d="m409.17264 405.87457 52.41662 31.66701c4.83221 2.91934 11.17374 1.2727 14.16345-3.676 2.98971-4.94869 1.49712-11.32824-3.33509-14.24758l-52.41662-31.667c-1.396 9.89206-5.06189 12.54847-10.82836 17.92357z"/><path d="m289.27393 1330.8649 54.2092 28.4898c4.99753 2.6265 6.86734 8.9058 4.17752 14.0237-2.68965 5.118-8.92197 7.1392-13.91935 4.5129l-54.2093-28.4898c7.74501-6.3101 8.12309-10.8214 9.74193-18.5366z" transform="matrix(-.51709932 .8559254 -.8559254 -.51709932 1386.573351 850.135498)"/></g><path d="m502.001 438c-5.52 0-10 4.48-10 10s4.48 10 10 10 10-4.48 10-10c-.001-5.52-4.48-10-10-10z"/><path d="m256.001 0c-5.52 0-10 4.48-10 10s4.48 10 10 10 10-4.48 10-10-4.48-10-10-10z"/><path d="m10.001 438c-5.52 0-10 4.48-10 10s4.48 10 10 10 10-4.48 10-10-4.48-10-10-10z"/></g><path d="m426.001 393.951v-195.301c0-3.74-2.087-7.168-5.41-8.885l-154.59-79.855c-7.81722-3.06813-9.49817-5.9445-20 0l-154.589 79.855c-3.324 1.717-5.411 5.145-5.411 8.885v195.301c.08544 11.33032.650285 10.38812 10.036 17.308l154.565 99.159c1.645 1.055 3.522 1.583 5.399 1.583 1.884 0 3.767-.531 5.416-1.594l154.547-99.148c9.96133-6.3446 9.95122-6.3612 10.037-17.308zm-180 89.753-131.047-84.072 94.824-58.282c4.704-2.892 6.175-9.051 3.283-13.756-2.892-4.706-9.052-6.174-13.756-3.283l-93.304 57.347v-163.86l140 83.869zm10-199.361-140.807-84.352 130.807-67.57v103.579c0 5.523 4.478 10 10 10s10-4.477 10-10v-103.579l130.807 67.57zm150 97.315-93.304-57.348c-4.703-2.892-10.862-1.421-13.756 3.283-2.892 4.705-1.422 10.864 3.283 13.756l94.824 58.282-131.047 84.072v-182.037l140-83.869z"/></svg>