<svg enable-background="new 0 0 512 512" viewBox="0 0 512 512" xmlns="http://www.w3.org/2000/svg"><path d="m143.428.985h-79.691c-5.501 0-9.961 4.461-9.961 9.961v79.691c0 5.501 4.46 9.961 9.961 9.961h79.691c5.501 0 9.961-4.461 9.961-9.961v-79.69c.001-5.501-4.46-9.962-9.961-9.962zm-9.961 79.691h-59.769v-59.768h59.768v59.768z"/><path d="m262.965.985h-79.691c-5.501 0-9.961 4.461-9.961 9.961v79.691c0 5.501 4.46 9.961 9.961 9.961h79.691c5.501 0 9.961-4.461 9.961-9.961v-79.69c0-5.501-4.46-9.962-9.961-9.962zm-9.961 79.691h-59.768v-59.768h59.768z"/><path d="m382.502.985h-79.691c-5.501 0-9.961 4.461-9.961 9.961v79.691c0 5.501 4.461 9.961 9.961 9.961h79.691c5.501 0 9.961-4.461 9.961-9.961v-79.69c0-5.501-4.46-9.962-9.961-9.962zm-9.962 79.691h-59.768v-59.768h59.768z"/><path d="m392.463 210.174v-79.691c0-5.5-4.461-9.96-9.961-9.96h-79.691c-5.501 0-9.961 4.461-9.961 9.961v19.726c-44.121-21.456-96.806-19.624-139.46 5.508v-25.234c0-5.501-4.461-9.961-9.961-9.961h-79.692c-5.501 0-9.961 4.461-9.961 9.961v79.691c0 5.501 4.461 9.961 9.961 9.961h31.042c-25.553 54.623-15.813 121.804 29.231 166.85 3.326 3.326 6.778 6.451 10.331 9.392l-90.627 90.627c-2.635 2.635-6.136 4.086-9.861 4.086s-7.227-1.451-9.861-4.086c-5.438-5.437-5.437-14.285 0-19.723l40.033-40.033c3.89-3.89 3.89-10.198 0-14.088-3.891-3.889-10.197-3.889-14.088 0l-40.033 40.036c-13.205 13.206-13.205 34.693 0 47.897 6.397 6.397 14.902 9.921 23.949 9.921s17.552-3.523 23.949-9.921l92.938-92.938c7.249 4.481 14.804 8.275 22.573 11.383v29.709c0 5.501 4.461 9.961 9.961 9.961h79.691c5.501 0 9.961-4.461 9.961-9.961v-26.036c6.787-2.146 13.447-4.793 19.923-7.942v33.978c0 5.501 4.461 9.961 9.961 9.961h79.691c5.501 0 9.961-4.461 9.961-9.961v-79.691c0-5.501-4.461-9.961-9.961-9.961h-28.447c6.825-11.154 12.175-23.182 15.812-35.752 1.529-5.285-1.515-10.809-6.8-12.337-5.278-1.535-10.809 1.515-12.337 6.8-5.936 20.513-17.109 39.39-32.312 54.593-49.713 49.715-130.607 49.715-180.321 0-49.714-49.714-49.714-130.606 0-180.32 49.713-49.715 130.607-49.715 180.321 0 16.535 16.535 28.188 37.213 33.699 59.801 1.305 5.344 6.695 8.623 12.038 7.317 5.345-1.304 8.621-6.694 7.317-12.038-2.321-9.511-5.593-18.723-9.723-27.523h20.753c5.502-.002 9.962-4.463 9.962-9.963zm-79.692 193.379c6.936-4.857 13.546-10.376 19.735-16.566 2.409-2.41 4.722-4.906 6.952-7.469h33.081v59.768h-59.768zm-119.536 22.358c11.492 2.791 23.258 4.188 35.023 4.188 8.28 0 16.56-.691 24.745-2.074v11.262h-59.768zm-59.768-256.08c-3.244 2.728-6.404 5.608-9.456 8.66-6.777 6.778-12.745 14.061-17.924 21.722h-32.389v-59.768h59.768v29.386zm216.948 30.382c-5.244-7.751-11.223-15.036-17.909-21.722-6.19-6.19-12.799-11.709-19.736-16.566v-21.482h59.768v59.769h-22.123z" fill="#ea2845"/><path d="m502.039 120.522h-79.691c-5.501 0-9.961 4.461-9.961 9.961v79.691c0 5.501 4.461 9.961 9.961 9.961h79.691c5.501 0 9.961-4.461 9.961-9.961v-79.691c0-5.5-4.461-9.961-9.961-9.961zm-9.962 79.691h-59.768v-59.768h59.768z"/><path d="m502.039 240.059h-79.691c-5.501 0-9.961 4.461-9.961 9.961v79.691c0 5.501 4.461 9.961 9.961 9.961h79.691c5.501 0 9.961-4.461 9.961-9.961v-79.691c0-5.501-4.461-9.961-9.961-9.961zm-9.962 79.691h-59.768v-59.768h59.768z"/><path d="m502.039 359.596h-79.691c-5.501 0-9.961 4.461-9.961 9.961v79.691c0 5.501 4.461 9.961 9.961 9.961h79.691c5.501 0 9.961-4.461 9.961-9.961v-79.691c0-5.501-4.461-9.961-9.961-9.961zm-9.962 79.691h-59.768v-59.768h59.768z"/><path d="m92.226 384.958c-1.852-1.853-4.422-2.919-7.042-2.919-2.621 0-5.191 1.065-7.043 2.919-1.853 1.852-2.919 4.422-2.919 7.043 0 2.63 1.065 5.19 2.919 7.042 1.852 1.853 4.422 2.92 7.043 2.92 2.62-.001 5.19-1.067 7.042-2.92 1.853-1.852 2.92-4.422 2.92-7.042-.001-2.621-1.067-5.191-2.92-7.043z"/><path d="m365.726 272.777c-5.501 0-9.961 4.461-9.961 9.962l-.003.838c-.035 5.501 4.395 9.989 9.898 10.025h.065c5.471 0 9.925-4.418 9.96-9.898l.003-.966c-.001-5.5-4.461-9.961-9.962-9.961z"/><path d="m300.105 210.893c-39.616-39.617-104.077-39.617-143.693 0-19.192 19.192-29.76 44.707-29.76 71.847s10.568 52.655 29.76 71.847 44.707 29.76 71.847 29.76 52.655-10.568 71.847-29.76 29.76-44.707 29.76-71.847-10.569-52.656-29.761-71.847zm-146.533 104.973c-4.571-10.297-6.997-21.522-6.997-33.127 0-11.604 2.426-22.83 6.997-33.127zm74.686 48.556c-11.538 0-22.702-2.398-32.951-6.919h65.903c-10.249 4.521-21.413 6.919-32.952 6.919zm40.866-26.842h-95.629v-95.63h95.629zm9.962-115.552h-105.473c15.484-13.955 35.065-20.935 54.645-20.935 20.424.001 40.836 7.613 56.611 22.797-1.632-1.168-3.624-1.862-5.783-1.862zm9.961 115.265v-105.304c0-2.156-.692-4.146-1.856-5.777 14.672 15.281 22.751 35.278 22.751 56.526 0 20.344-7.391 39.545-20.895 54.555z"/></svg>