<svg height="800" viewBox="0 0 595.31249 211.66667" width="2250" xmlns="http://www.w3.org/2000/svg"><g fill="#ea2845" transform="translate(-25.4 -64.695815)"><path d="m149.38004 67.85059c-1.48704 0-2.86787.318663-4.14249.743525 2.70854 1.805703 4.1956 4.195626 4.93914 6.90418.0532.371758.15933.637316.21251 1.009062.0532.318663.10615.637315.10615.955978.21253 4.673583-1.22153 5.257781-2.23059 8.019453-1.54017 3.55832-1.11531 7.382167.74352 10.462499.15934.371748.37176.796621.63732 1.168389-2.01816-13.436592 9.18787-15.454736 11.2591-19.650341.15933-3.664532-2.86787-6.10755-5.25777-7.807042-2.28369-1.38083-4.35497-1.805703-6.26689-1.805703zm16.88868 3.027216c-.21252 1.221506-.0532.902852-.10613 1.540167-.0532.424863-.0532.955966-.10613 1.38083-.10614.424874-.21253.849735-.37178 1.274629-.10613.424863-.26554.849737-.42487 1.274598-.21253.424895-.37175.796642-.58419 1.221515-.15933.212523-.26554.424863-.42487.637314-.10614.159326-.21252.318654-.31865.477979-.26554.371778-.53111.743525-.79664 1.062177-.31866.318663-.5842.690411-.95599.955978v.05318c-.31864.265546-.6373.584199-1.00905.849735-1.1153.849736-2.3899 1.487051-3.55831 2.283691-.37175.265538-.74353.47799-1.06218.796642-.37175.265536-.69042.531073-1.00905.849735-.37179.318653-.63733.637315-.95599 1.009082-.26554.318663-.58419.690412-.79662 1.062189-.26557.371747-.5311.743516-.74355 1.115272-.21251.424863-.37175.796641-.58419 1.221504-.15932.424863-.31866.796642-.42487 1.221503-.15933.477989-.26554.902862-.37176 1.327746-.0532.212523-.0532.477969-.10614.69041-.0532.212523-.0532.424863-.10613.637315 0 .424862-.0532.902851-.0532 1.327714 0 .318662 0 .637314.0532.955977 0 .424863.0532.849726.15932 1.327714.0532.424862.15932.849735.26556 1.27463.15934.424862.26555.849735.42487 1.274598.10615.26557.26554.5311.37178.74352l-12.21509-4.726701c-2.07127-.584199-4.0894-1.115273-6.16067-1.593261-1.11527-.265537-2.23055-.531094-3.34586-.796641-3.18655-.637304-6.42617-1.115273-9.66584-1.433925-.10612 0-.15932-.05318-.26553-.05318-3.18657-.318653-6.31998-.477979-9.50652-.477979-2.33682 0-4.67362.106129-6.95731.265537-3.23966.212524-6.479316.637315-9.718948 1.168388-.796642.106139-1.593284.265567-2.389927.424894-1.646373.318631-3.239632.69041-4.779797 1.062176-.796641.212524-1.593283.424874-2.389925.637296-.796615.318651-1.540139.690431-2.283689 1.009081-.584195.265537-1.168389.531085-1.752585.796641-.106136.05318-.212521.05318-.265539.10614-.531102.265537-1.009087.477958-1.487047.743525-.15933.05318-.265565.10613-.371776.159327-.584194.265537-1.168388.584189-1.646374.849735-.371775.159327-.743524.371768-1.062179.531105-.159329.10613-.371777.212513-.477987.265537-.477984.265536-.955968.531075-1.380836.796645-.477985.26553-.902853.53107-1.274627.79661-.371748.26556-.743521.47799-1.06218.74352-.0532.0532-.106136.0532-.159328.10614-.318656.21253-.690405.47798-1.009061.74355 0 0-.0532.0532-.106136.10614-.265539.21252-.531103.42486-.796642.63728-.106135.0532-.212521.15933-.318656.21252-.265539.21253-.531078.47799-.796617.69043-.0532.10614-.159328.15933-.21252.21253-.318657.31865-.637314.58419-.955971.90285-.0532 0-.0532.0532-.106135.10613-.318657.26554-.637312.5842-.955969.90286-.0532.0532-.0532.10613-.106136.10613-.265539.26554-.531077.5311-.796641.84973-.106135.10614-.265539.21253-.37175.31866-.265538.31866-.584195.63731-.90285.95597-.0532.10613-.159329.15933-.212522.26554-.424869.42489-.796642.84976-1.221509 1.27463-.0532.0532-.106135.10613-.159327.15933-.849761.90285-1.752613 1.8057-2.708558 2.60233-.955969.84973-1.965032 1.64638-2.974119 2.33679-1.06218.74355-2.071243 1.38083-3.18654 2.01814-1.062181.58419-2.177479 1.1153-3.345868 1.59328-1.115299.47798-2.283689.90287-3.452081 1.27461-2.230595.47798-4.514285 1.38083-6.479317 1.54016-.424866 0-.902851.10615-1.32772.15932-.477983.10614-.90285.21253-1.327717.31867-.424867.15932-.849759.31865-1.274627.47797-.424868.15933-.849735.37178-1.274603.58421-.371774.26553-.79664.47798-1.168416.74352-.37175.26554-.743525.58419-1.062181.90285-.371749.26557-.743523.63732-1.06218.95596-.318657.37179-.637313.69044-.902852 1.06218-.265538.42487-.584195.79665-.796642 1.22153-.265538.37177-.531077.79663-.743523 1.22148-.212521.47801-.424867.90287-.584196 1.38085-.159328.42488-.318656.90285-.477984 1.38084-.106136.42486-.212521.84974-.265539 1.2746 0 .0532-.05319.10614-.05319.15932-.106136.47802-.106136 1.11533-.159329 1.434-.05319.37174-.106135.69039-.106135 1.06217 0 .21252 0 .47796.05319.6904.05319.37179.106134.69043.212521 1.0091.106135.31862.212521.63728.371749.95594v.0532c.159328.31867.371775.63732.584196.95597.212521.31867.424892.63732.69043.95598.265539.26553.584196.58418.902852.84973.318657.31865.637314.58419 1.009063.84973 1.274626 1.11531 1.593283 1.48709 3.23966 2.3368.265537.15934.531102.26556.849759.42489.05319 0 .106135.0532.159328.0532 0 .10613 0 .15933.05319.26557.05319.42487.159327.84972.265538 1.2746.106136.47799.265565.90287.424893 1.27462.159328.31866.265538.63731.424867.95598.05319.10614.106137.21252.159329.26554.212521.42485.424867.79665.637287 1.16839.265565.37176.531102.74351.796641 1.1153.26554.31864.584197.69041.902853 1.00905.318656.31867.637314.58422 1.009088.90285 0 0 .0532.0532.106134.0532.318658.26557.637314.53112.955971.74353.37175.26555.743524.47798 1.16839.69043.371775.21252.796642.42486 1.221509.5842.318656.15933.690406.26556 1.062181.37176.0532.0532.106135.0532.212521.10616.21252.0532.477959.10611.690405.15931-.159327 2.86788-.212521 5.57643.212522 6.53242.477961 1.06217 2.814765-2.17747 5.151573-5.89511-.318656 3.66453-.531103 7.96634 0 9.24098.584195 1.3277 3.770735-2.81481 6.532408-7.38217 37.654294-8.70986 72.015885 17.31356 75.627285 54.065-.69042-5.73578-7.75392-8.92232-10.99356-8.12567-1.59329 3.93006-4.30185 8.97542-8.65678 12.10885.37176-3.5052.21251-7.1166-.53108-10.62181-1.16842 4.88603-3.45211 9.45343-6.58555 13.38349-5.04536.37174-10.090725-2.07127-12.746187-5.73578-.212522-.15933-.265539-.47799-.424867-.69042-.15933-.37179-.318657-.74352-.424868-1.11531-.159328-.37174-.265538-.74352-.318656-1.11526-.0532-.37179-.0532-.74354-.0532-1.1684 0-.26556 0-.53109 0-.79663.0532-.37179.159328-.74356.265539-1.11532.106135-.37175.212521-.74352.371774-1.11529.212522-.37174.371749-.74351.637314-1.11527.902851-2.54926.902851-4.62049-.743523-5.842-.318658-.21252-.637314-.37177-1.009088-.5311-.212523-.0532-.477985-.15933-.690406-.21252-.159329-.0532-.265538-.10615-.424867-.15933-.371775-.10614-.743549-.21253-1.115299-.26554-.371774-.10613-.743523-.15933-1.115297-.15933-.37175-.0532-.796643-.10614-1.168392-.10614-.265538 0-.531102.0532-.796641.0532-.424866 0-.796641.0532-1.168391.15933-.371774.0532-.743523.10612-1.115297.2125-.37175.10615-.743525.21253-1.115299.3718-.371749.15932-.690406.31865-1.062179.47797-.318631.15934-.63729.37175-1.009063.53108-12.374414 8.07257-4.992245 26.97938 3.45208 32.44963-3.186541.58419-6.426175 1.27463-7.329028 1.96503-.0532.0532-.106134.10614-.106134.10614 2.283688 1.38082 4.673589 2.54922 7.169698 3.55829 3.398988 1.11529 7.010394 2.12436 8.603677 2.54925v.0532c4.408049.90285 8.86922 1.22151 13.38348.95597 23.52732-1.64637 42.8059-19.54414 46.31111-43.12455.10614.478.21252.90285.31866 1.38084.15933.95594.37175 1.96502.47796 2.97409v.0532c.10614.47798.15932.95596.21252 1.38083v.21253c.0532.47798.10614.95597.10614 1.38083.0532.5842.10614 1.16839.10614 1.75262v.84972c0 .26557.0532.5842.0532.84976 0 .31867-.0532.6373-.0532.95595v.74352c0 .37179-.0532.69042-.0532 1.06219 0 .2125 0 .42488-.0532.69043 0 .37177-.0532.74351-.0532 1.16839-.0532.15932-.0532.31865-.0532.47799-.0532.42488-.10613.79664-.15934 1.22151 0 .15934 0 .31865-.0532.47799-.0532.53108-.15931 1.00907-.2125 1.54015v.0532.0532c-.10613.47798-.21253 1.00906-.31867 1.48704v.15933c-.10612.47798-.21252.95597-.31864 1.43393 0 .0532-.0532.15933-.0532.21251-.10615.478-.21253.95597-.37175 1.43398v.15932c-.15932.53107-.31866 1.00905-.42488 1.48704-.0532.0532-.0532.10614-.0532.10614-.15934.5311-.31864 1.06218-.47796 1.59326-.21252.5311-.37176 1.00908-.58419 1.54018-.21252.53109-.37179 1.06218-.58422 1.54015-.21252.5311-.42488 1.00909-.6373 1.54017h-.0532c-.21253.47798-.4249 1.00908-.69046 1.48707-.0532.15931-.10611.26554-.15931.37174-.0532.0532-.0532.10613-.10613.15934-3.45208 6.95726-8.55057 13.06481-14.92364 17.84463-.42486.26554-.84975.58421-1.2746.90285-.10615.10614-.26557.15934-.37178.26553-.37177.26555-.74353.53108-1.16838.79665l.15931.31866h.0532c.74351-.10613 1.48704-.21252 2.23057-.31866h.0532c1.38084-.21252 2.76168-.47799 4.14252-.74352.37174-.0532.79664-.15932 1.16837-.26557.26555-.0532.478-.10612.74354-.15933.37177-.0532.74352-.15932 1.1153-.2125.31865-.10614.63731-.15935.95597-.26555 5.31089-1.27463 10.46248-3.02724 15.40159-5.09848-8.44432 11.52464-19.75655 20.81874-32.9807 26.92628 6.10755-.42488 12.21509-1.43394 18.11019-3.13342 21.40295-6.32 39.4069-20.71254 50.18803-40.09734-2.17747 12.2682-7.0635 23.95219-14.28632 34.14912 5.15156-3.39899 9.87827-7.32906 14.18011-11.79022 11.89641-12.42751 19.70347-28.20087 22.3589-45.14269 1.80571 8.39124 2.33681 17.04804 1.54016 25.59858 38.34473-53.48081 3.18655-108.92665-11.52465-123.53163-.0532-.10613-.10614-.15932-.10614-.26553-.0532.0532-.0532.0532-.0532.10614 0-.0532 0-.0532-.0532-.10614 0 .63731-.0532 1.27459-.10614 1.91191-.15934 1.22151-.31865 2.3899-.5311 3.55832-.26554 1.16839-.58419 2.33676-.90285 3.50519-.37176 1.11527-.79661 2.28367-1.27461 3.39896-.47799 1.06217-1.00908 2.17747-1.59327 3.23966-.58421 1.00908-1.22152 2.07126-1.91192 3.02721-.69042 1.00909-1.43395 1.96504-2.17749 2.86787-.79664.95599-1.64637 1.80573-2.49613 2.65548-.53107.47798-1.00905.90285-1.54017 1.3277-.42485.37179-.79661.69045-1.2215 1.06218-.95595.74354-1.91192 1.43396-2.97409 2.07127-1.00907.6373-2.07124 1.27461-3.13342 1.80571-1.1153.53109-2.2306 1.00906-3.34587 1.48706-1.1153.42485-2.28369.79663-3.45212 1.11529-1.16838.31864-2.38988.5842-3.55829.79662-1.22149.21253-2.44301.31866-3.61141.42489-.84974.0532-1.69948.10614-2.54923.10614-1.22152 0-2.44301-.10614-3.61141-.21252-1.22151-.10614-2.44303-.26558-3.61142-.53112-1.2215-.21251-2.38992-.5311-3.55832-.90283h-.0532c1.1684-.10614 2.33681-.21254 3.50522-.42489 1.22148-.21251 2.38988-.47797 3.5583-.79664 1.16838-.31864 2.33678-.69042 3.45208-1.11529 1.16839-.42487 2.28369-.95594 3.34587-1.48706 1.11529-.5311 2.12436-1.11528 3.18654-1.75259 1.00906-.69042 2.01814-1.38082 2.9741-2.12437.95596-.74352 1.8588-1.54014 2.70857-2.38989.90286-.79665 1.69948-1.6995 2.49612-2.60236.79663-.95593 1.54016-1.91191 2.23058-2.86787.10614-.15934.21253-.37176.31867-.53109.53107-.84974 1.06215-1.69949 1.54013-2.54924.58421-1.06219 1.11531-2.12437 1.59329-3.23964.47798-1.1153.90285-2.2306 1.27462-3.39898.37175-1.11531.6373-2.28369.90285-3.45208.21253-1.22151.42486-2.38993.53109-3.55831.10613-1.22151.21251-2.44302.21251-3.61141 0-.84976-.0532-1.69949-.10612-2.54923-.10614-1.2215-.26555-2.38992-.42488-3.55831-.21252-1.221515-.47797-2.389901-.79665-3.55832-.37174-1.115274-.74351-2.283682-1.16838-3.398955-.4249-1.115303-.95596-2.230595-1.48707-3.292784-.5842-1.062178-1.16839-2.124355-1.8057-3.133417-.69041-1.009062-1.38084-1.965029-2.12437-2.921006-.79661-.902852-1.59326-1.805703-2.44302-2.708554-.42485-.424865-.90285-.902853-1.38083-1.327715-2.3899-1.858829-4.88603-3.611437-7.38214-5.204697-.37176-.212514-.69041-.371768-1.06218-.531104-1.75262-1.115274-3.39899-1.699493-5.04536-2.230566z" fill-rule="evenodd"/><path d="m282.9823 206.26811c1.5614-.7348 3.03093-1.19404 4.40868-1.46958 3.39833-.5511 5.32718-1.01031 5.87824-1.37773.91848-.55105 1.5614-1.28587 1.83697-2.02061.36752-1.28587.55103-3.94948.55103-8.17446v-7.99076l.092-6.52119-.27554-9.73583v-5.78639c0-3.8576-.27553-7.07229-.91847-9.46033-.18355-.91843-1.0103-1.83693-2.29618-2.75541-1.74512-1.28582-4.59239-2.47986-8.72553-3.67389l-.092-4.4087c.73482-.18355 1.46956-.36753 2.11252-.45926.6429-.092 3.12282-.73474 7.43962-1.83695 3.39841-1.19396 5.60273-2.11246 6.52123-2.57171.36751-.18354.82657-.4592 1.56141-.82662.73475-.6429 1.5614-1.194 2.47985-1.83696 1.83695-1.28584 4.04129-3.58203 6.61304-6.70486l4.86795-.36752-.18355 10.37875c-.092 1.0103-.092 1.83693-.092 2.47991 0 .5511 0 1.92876.092 4.225 5.14347-4.40873 9.73583-7.43969 13.96084-9.18475 5.41897-2.29624 10.65426-3.39842 15.52224-3.39842 5.78641 0 10.92985 1.46958 15.24668 4.31684 4.40869 2.84729 7.25597 6.15382 8.54187 9.82772 1.37766 3.76573 2.02064 11.38912 2.02064 22.68633l-.36754 30.12605c0 1.3777.27553 2.57172.73473 3.49023.64301.45921 2.38812.91845 5.14351 1.37772l4.50053.82657c.55112.82665.82666 1.74515.82666 2.93913 0 .73477 0 1.74515-.092 3.03101l-18.09397-1.28586-5.32717.18353h-4.22502l-12.21571.91846h-3.12282c-.092-.82661-.092-1.37771-.092-1.83696 0-1.10217.092-2.29617.18354-3.58202.82662-.18354 3.03096-.45927 6.42936-.9185.91846-.092 1.92877-.36754 3.12282-.64292 1.194-.45928 1.92875-1.01027 2.11251-1.46958.45922-1.10215.73476-3.03095.73476-5.97008 0-5.23533-.092-9.18474-.18355-11.94021l.092-10.65432c0-13.04236-.73477-21.12493-2.38804-24.24776-2.38804-4.68422-5.87823-6.98041-10.56248-6.98041-3.39837 0-6.9804.91846-10.65431 2.66356-3.76577 1.74512-7.53148 4.40872-11.48094 7.99073l-.18353 1.56143.18353 5.78641-.092 6.15383.36751 14.78738-.18355 2.29624c0 10.01139.36756 15.70593 1.19405 16.9918.82659 1.28586 3.85758 2.66358 9.18476 4.22499.18355 1.01029.27553 1.83695.27553 2.29618 0 .73482-.27553 1.83695-.64294 3.39835-1.92882.092-3.58203.092-4.8679.092-1.28585 0-3.30655-.18354-6.06197-.55105l-9.82777-.1835c-4.9598 0-12.03207.18353-21.3087.64289-.27553-.64289-.36754-1.28583-.36754-1.92874 0-.45928 0-1.46962.092-2.93916z"/><path d="m391.45432 162.08937c1.65328-5.23531 3.03097-8.72549 4.31687-10.37877 3.39838-5.05161 7.07227-9.00103 10.92985-11.84832 3.94943-2.84728 7.43967-4.68421 10.56247-5.60272 4.13314-1.19401 7.34782-1.74509 9.91957-1.74509 5.78637 0 10.4706.45923 13.96081 1.37766 3.58203.82665 6.61306 2.11256 9.00105 3.76579 3.3984 2.38804 6.15384 4.86794 8.26628 7.25598 2.1125 2.47986 3.7658 5.41899 5.05162 8.72553 1.37774 3.30648 2.11252 7.34779 2.29623 12.03204l-10.28693-.18355c-2.84732 0-9.00108-.27555-18.6451-.82667-3.58205-.18353-5.97009-.36752-7.3478-.36752-.45923 0-3.76572.092-9.91956.092h-7.99069c-.092.91843-.18355 1.65326-.18355 2.20431 0 3.30654.45921 6.7049 1.19404 10.3788.82657 3.58205 2.02063 6.70487 3.58203 9.46031 1.65325 2.75546 3.58204 5.05164 5.97009 6.98046 2.38805 2.02059 4.86794 3.39834 7.34781 4.31681l5.32717 1.74506c4.77609 0 7.89887-.18357 9.55216-.45921 2.93913-.64292 5.51084-1.37773 7.71517-2.2962 2.2962-1.01031 4.95981-2.66358 8.17445-4.95975 2.20434 1.65329 4.04129 3.03096 5.60271 4.40867-5.41899 5.87826-11.11354 10.28696-16.89997 12.95052-5.78641 2.66361-12.30757 3.94948-19.47169 3.94948-4.86791 0-8.81736-.36754-11.94017-1.28587-4.04131-1.1022-7.80702-2.75546-11.11358-5.05166-3.30648-2.29615-6.15378-5.14342-8.54185-8.44997-2.388-3.39834-4.225-6.88859-5.41897-10.47061-1.46958-4.68423-2.2962-8.45-2.2962-11.20545 0-5.41897.45925-10.19508 1.28587-14.51193zm53.63902-3.94938c-.092-3.49027-.73475-6.7049-2.02063-9.91961-1.28587-3.12281-3.30654-5.51081-6.06195-7.25593-2.6636-1.74514-5.41906-2.66359-8.17445-2.66359-4.13315 0-7.80708 1.83696-11.20539 5.419-3.30654 3.6739-5.14348 8.54185-5.60271 14.78746l21.03311.092c1.37772 0 3.3065-.092 5.69453-.27553 1.83696-.18355 3.12281-.27554 3.85764-.27554.55103 0 1.37768 0 2.47985.092z"/><path d="m480.36283 185.14316c1.83694-.36754 3.21467-.55108 4.04131-.55108.45922 0 1.10219 0 1.92877.092l.82664.91845c3.39835 5.87828 5.51087 9.36849 6.61302 10.65436 2.1125 2.47986 4.22498 4.50051 6.33751 6.06192 1.37771.91851 3.58204 2.02064 6.61302 3.03095 2.02064.73483 4.22498 1.10219 6.52118 1.10219 3.85762 0 7.16412-1.19401 9.91955-3.67392 2.75543-2.57171 4.13314-5.23529 4.13314-8.17442 0-1.92882-.55109-3.58203-1.56141-4.95978-1.01031-1.37773-3.1228-2.7554-6.24566-4.13311-1.56141-.64296-5.41899-1.74513-11.66461-3.30654-6.15382-1.56142-9.82774-2.57173-11.11356-3.03096-2.93916-1.10216-5.51088-2.6636-7.71523-4.59239-2.29618-2.02062-3.94947-4.22499-5.14344-6.70487-1.56143-3.4902-2.38803-6.52116-2.38803-9.00107 0-4.68423.73474-8.45 2.02059-11.48093 1.37774-2.93913 3.30656-5.60271 5.78641-7.8989 1.74509-1.74514 4.40874-3.30652 7.99078-4.68422 3.58203-1.37772 7.53146-2.11254 11.57278-2.11254 5.87827 0 11.02169.36754 15.43039 1.19404 4.40868.82664 8.17445 2.02064 11.20543 3.58205.45924 1.3777.91847 4.68423 1.65322 9.73584.64297 5.1435 1.01036 8.17445 1.01036 9.09295 0 .45922-.092.91845-.27553 1.37772-1.65327.45923-2.93914.73476-4.04131.73476-.55108 0-1.46957-.092-2.66361-.18352-.55106-.82666-1.28587-2.20437-2.20434-3.85764-2.93908-5.51087-5.97008-9.36845-9.09292-11.57281-3.12277-2.2962-6.613-3.39839-10.74615-3.39839-4.22499 0-7.80702 1.28589-10.65433 3.67394-2.1125 1.83694-3.12284 4.22499-3.12284 7.34781 0 2.0206 1.1022 4.04129 3.30656 6.1538 2.11249 2.11249 5.87824 3.76572 11.20541 4.86789 8.08256 1.74513 14.05266 3.58209 17.81841 5.32719 5.51086 2.57171 9.46029 5.69452 11.66464 9.18474 2.2044 3.49024 3.39837 7.53154 3.39837 12.12388 0 7.16414-2.75539 13.13423-8.17442 17.9103-5.32718 4.68422-13.13421 7.07226-23.51301 7.07226-1.28586 0-4.86792-.27553-10.56245-.91845-2.57177-.27556-5.60272-.91849-9.09293-1.83695-.91848-.27555-3.1228-1.10219-6.79672-2.6636-.64295-.36752-1.1022-.82662-1.46958-1.28585-.18358-.55109-.64292-3.12281-1.194-7.71521-.91845-7.53152-1.46956-12.03204-1.56141-13.50162z"/><path d="m556.04526 141.05627c7.25597-3.03096 12.49128-6.06197 15.70595-9.00108 3.3065-2.93908 6.70487-7.80703 10.37877-14.42006h5.23531c.55108 1.65327.82664 3.30653.82664 5.05164 0 3.21464-.092 5.69456-.092 7.53151l-.27555 5.41902c0 .27552 0 1.0103.092 2.11247l2.1125.092c.27555 0 3.21468-.092 8.63369-.36752.45924 0 2.75543-.092 6.88854-.18355.36754 1.65326.64298 3.12282.64298 4.40866 0 1.46961-.27555 3.12278-.73477 4.95977-2.02068.27555-3.49024.36756-4.59244.36756-.45921 0-1.46951 0-2.93911-.18356h-4.77608l-1.6532-.092-4.40872.18354-.18358 35.26949c-.092 6.79674 0 11.11358.36755 12.76684.36754 1.74508 1.10217 3.30649 2.20432 4.86788 1.37771.64298 2.93912 1.01034 4.68425 1.01034 1.65323 0 2.84726-.18357 3.6739-.45921.82662-.36755 2.20432-1.19402 4.04129-2.6636.3675-.36755 1.01029-.73479 1.74513-1.28587 1.46953 1.10218 2.75539 2.2962 3.67389 3.49022l.36754 1.10218c-2.20433 3.39836-5.23532 6.06195-9.18477 7.99072-3.85758 1.9288-7.99071 2.8473-12.39942 2.8473-5.78638 0-10.37875-1.83697-13.96086-5.41903-3.58202-3.6739-5.32712-9.27663-5.32712-16.89999l.36754-16.16516v-26.36024l-2.84727-.092-6.70489.092-1.19401-.27556c-.36754-.55109-.55106-1.01031-.55106-1.5614 0-.36754.092-1.74509.18352-4.13315z"/></g></svg>