<svg enable-background="new 0 0 511.998 511.998" viewBox="0 0 511.998 511.998" xmlns="http://www.w3.org/2000/svg" xmlns:xlink="http://www.w3.org/1999/xlink"><linearGradient id="a" x1="0%" x2="100%" y1="0%" y2="0%"><stop offset="0" stop-color="#ea2845"/><stop offset="1" stop-color="#ea2868"/></linearGradient><g fill="url(#a)"><path d="m501.998 170c-5.52 0-10 4.48-10 10s4.48 10 10 10 10-4.48 10-10-4.48-10-10-10z"/><path d="m459.278 52.72c-3.91-3.9-10.24-3.9-14.14 0-3.91 3.91-3.91 10.24 0 14.14 3.9 3.91 10.23 3.91 14.14 0 3.9-3.9 3.9-10.23 0-14.14z"/><path d="m459.278 293.14c-3.91-3.91-10.24-3.91-14.14 0-3.91 3.9-3.91 10.23 0 14.14 3.9 3.9 10.23 3.9 14.14 0 3.9-3.91 3.9-10.24 0-14.14z"/><path d="m331.998 0c-5.52 0-10 4.48-10 10s4.48 10 10 10 10-4.48 10-10-4.48-10-10-10z"/><path d="m331.998 340c-5.52 0-10 4.48-10 10s4.48 10 10 10 10-4.48 10-10-4.48-10-10-10z"/><path d="m218.858 52.72c-3.9-3.9-10.23-3.9-14.14 0-3.9 3.91-3.9 10.24 0 14.14 3.91 3.91 10.24 3.91 14.14 0 3.91-3.9 3.91-10.23 0-14.14z"/><path d="m161.998 170c-5.52 0-10 4.48-10 10s4.48 10 10 10 10-4.48 10-10-4.48-10-10-10z"/></g><path d="m376.959 147.969-14.14-14.14c-5.666-5.666-13.2-8.787-21.216-8.787-8.017 0-15.551 3.121-21.23 8.8l-94.783 95.155c-.632.396-1.233.86-1.782 1.411-.552.554-1.018 1.16-1.413 1.797l-213.607 214.444c-5.667 5.665-8.788 13.199-8.788 21.211s3.121 15.545 8.787 21.211l14.14 14.139c5.666 5.667 13.198 8.788 21.211 8.788s15.546-3.121 21.226-8.801l215.229-216.05 96.366-96.746c5.666-5.666 8.787-13.201 8.787-21.216s-3.121-15.55-8.787-21.216zm-325.752 341.099c-1.889 1.889-4.399 2.93-7.069 2.93s-5.18-1.041-7.068-2.93l-14.14-14.14c-1.889-1.888-2.93-4.398-2.93-7.068s1.041-5.18 2.943-7.083l208.147-208.963 28.288 28.288zm311.596-312.795-89.308 89.661-28.289-28.288 89.324-89.674c1.889-1.888 4.4-2.928 7.074-2.928 2.673 0 5.185 1.04 7.073 2.928l14.14 14.141c1.889 1.889 2.93 4.401 2.93 7.074s-1.042 5.183-2.944 7.086z"/><g fill="#ea2845"><path d="m331.998 40c-5.522 0-10 4.477-10 10v40c0 5.523 4.478 10 10 10s10-4.477 10-10v-40c0-5.523-4.478-10-10-10z"/><path d="m331.998 260c-5.522 0-10 4.477-10 10v40c0 5.523 4.478 10 10 10s10-4.477 10-10v-40c0-5.523-4.477-10-10-10z"/><path d="m275.429 109.289-28.28-28.28c-3.906-3.905-10.236-3.905-14.143 0-3.905 3.905-3.905 10.237 0 14.142l28.281 28.28c1.953 1.953 4.512 2.929 7.071 2.929s5.118-.977 7.071-2.929c3.905-3.905 3.905-10.237 0-14.142z"/><path d="m430.988 264.849-28.279-28.28c-3.906-3.905-10.236-3.905-14.143 0-3.905 3.905-3.905 10.237 0 14.142l28.28 28.28c1.953 1.953 4.512 2.929 7.071 2.929s5.118-.977 7.071-2.929c3.905-3.905 3.905-10.237 0-14.142z"/><path d="m430.989 81.009c-3.905-3.905-10.235-3.905-14.143 0l-28.28 28.28c-3.905 3.905-3.905 10.237 0 14.142 1.954 1.953 4.512 2.929 7.072 2.929 2.559 0 5.118-.977 7.071-2.929l28.28-28.28c3.905-3.905 3.905-10.237 0-14.142z"/><path d="m241.998 170h-40c-5.522 0-10 4.477-10 10s4.478 10 10 10h40c5.522 0 10-4.477 10-10s-4.478-10-10-10z"/><path d="m461.998 170h-40c-5.522 0-10 4.477-10 10s4.478 10 10 10h40c5.522 0 10-4.477 10-10s-4.477-10-10-10z"/></g></svg>