<svg enable-background="new 0 0 511.999 511.999" viewBox="0 0 511.999 511.999" xmlns="http://www.w3.org/2000/svg"><path d="m402.903 74.537c-1.595-11.539-8.329-21.416-18.473-27.1-38.908-21.797-83.319-33.318-128.43-33.318s-89.521 11.522-128.429 33.32c-10.145 5.684-16.878 15.561-18.474 27.1-1.601 11.582 2.22 22.965 10.484 31.229 7.106 7.105 16.622 10.824 26.205 10.824 6.094 0 12.216-1.505 17.76-4.599 14.151-7.897 29.287-13.92 45.088-17.964 9.185 16.73 26.972 28.098 47.367 28.098s38.182-11.368 47.367-28.098c15.802 4.044 30.937 10.067 45.088 17.964 14.26 7.956 32.34 5.397 43.965-6.226 8.262-8.266 12.083-19.647 10.482-31.23zm-200.902-6.41c0 2.321.164 4.602.449 6.846-17.03 4.467-33.356 11.02-48.651 19.554-6.49 3.621-14.746 2.428-20.076-2.903-3.796-3.796-5.55-9.025-4.815-14.348.73-5.278 3.805-9.794 8.437-12.389 22.874-12.815 47.816-21.776 73.679-26.602-5.695 8.556-9.023 18.816-9.023 29.842zm53.999 34c-18.748 0-34-15.252-34-34s15.252-34 34-34 34 15.252 34 34-15.252 34-34 34zm122.277-10.502c-5.33 5.331-13.587 6.527-20.076 2.903-15.294-8.534-31.621-15.087-48.651-19.554.285-2.244.449-4.526.449-6.846 0-11.026-3.328-21.287-9.024-29.842 25.864 4.826 50.807 13.788 73.679 26.602 4.632 2.594 7.707 7.109 8.437 12.389.737 5.322-1.018 10.552-4.814 14.348z"/><path d="m166.351 429.248c-13.916-8.308-26.695-18.411-38.097-30.073 9.892-16.319 10.842-37.403.646-55.063-10.198-17.662-28.936-27.382-48.017-26.972-4.399-15.705-6.751-31.824-6.987-48.029-.238-16.331-11.495-30.708-27.375-34.962-11.29-3.027-23.057-.644-32.287 6.535-9.195 7.15-14.383 17.92-14.232 29.547.577 44.596 12.804 88.816 35.36 127.884 22.556 39.067 54.739 71.767 93.07 94.564 5.804 3.452 12.256 5.2 18.761 5.2 4.697-.001 9.42-.912 13.945-2.752 10.831-4.405 18.778-13.405 21.802-24.693 4.257-15.877-2.565-32.814-16.589-41.186zm-132.565-82.214c-8.741-24.797-13.446-50.861-13.785-77.058-.068-5.31 2.305-10.231 6.512-13.502 4.242-3.299 9.649-4.393 14.833-3.005 7.282 1.951 12.444 8.504 12.552 15.935.256 17.514 2.744 34.93 7.391 51.911-2.086.875-4.144 1.874-6.154 3.035-9.33 5.385-16.673 13.246-21.349 22.684zm18.905 41.078c-9.374-16.235-3.791-37.07 12.445-46.444 3.243-1.872 6.706-3.174 10.271-3.897.159-.028.317-.05.475-.086 2.042-.384 4.115-.587 6.199-.587 2.953 0 5.926.389 8.855 1.174 8.772 2.349 16.104 7.975 20.645 15.84 9.374 16.236 3.791 37.071-12.445 46.445-16.236 9.376-37.071 3.79-46.445-12.445zm110.932 77.148c-1.389 5.184-5.041 9.318-10.018 11.343-4.938 2.008-10.386 1.603-14.949-1.111-22.529-13.399-42.748-30.521-59.856-50.501 1.139.072 2.281.111 3.426.111 9.155 0 18.428-2.327 26.909-7.224 2.01-1.16 3.904-2.443 5.705-3.812 12.383 12.515 26.221 23.378 41.26 32.355 6.381 3.81 9.474 11.556 7.523 18.839z"/><path d="m497.765 240.686c-9.229-7.177-20.998-9.561-32.287-6.535-15.879 4.254-27.136 18.631-27.375 34.962-.237 16.204-2.588 32.323-6.987 48.028-19.082-.411-37.82 9.311-48.017 26.973-10.196 17.661-9.246 38.745.646 55.063-11.402 11.662-24.181 21.765-38.097 30.073-14.023 8.372-20.845 25.309-16.59 41.188 3.024 11.288 10.971 20.289 21.802 24.693 4.525 1.84 9.248 2.752 13.945 2.752 6.504-.001 12.958-1.749 18.761-5.2 38.332-22.798 70.514-55.498 93.069-94.564 22.556-39.067 34.783-83.288 35.36-127.884.153-11.629-5.035-22.399-14.23-29.549zm-124.421 234.805c-4.563 2.714-10.011 3.118-14.949 1.111-4.978-2.024-8.629-6.159-10.018-11.345-1.951-7.281 1.143-15.027 7.524-18.838 15.039-8.978 28.878-19.841 41.26-32.355 1.801 1.369 3.695 2.652 5.705 3.812 8.483 4.897 17.753 7.224 26.909 7.224 1.144 0 2.287-.039 3.426-.111-17.109 19.981-37.328 37.103-59.857 50.502zm85.967-87.38c-9.374 16.236-30.207 21.819-46.445 12.445-16.236-9.372-21.819-30.207-12.445-46.444 4.541-7.865 11.873-13.491 20.645-15.841 2.93-.785 5.901-1.174 8.855-1.174 2.081 0 4.15.203 6.19.586.168.038.336.063.504.092 3.558.724 7.015 2.024 10.251 3.892 16.236 9.374 21.818 30.209 12.445 46.444zm18.903-41.078c-4.677-9.438-12.02-17.299-21.349-22.685-2.01-1.161-4.068-2.16-6.154-3.035 4.647-16.981 7.135-34.396 7.391-51.911.108-7.431 5.27-13.983 12.552-15.935 5.188-1.389 10.592-.293 14.833 3.005 4.207 3.271 6.58 8.192 6.512 13.501-.339 26.199-5.043 52.263-13.785 77.06z"/><g fill="#ea2845"><path d="m361.159 208.929-14.685-8.845c-4.731-2.851-10.876-1.327-13.726 3.405-2.85 4.731-1.325 10.876 3.406 13.727l9.845 5.93v28.705c0 57.29-36.035 107.519-89.999 125.978-53.965-18.46-89.999-68.688-89.999-125.978v-28.705l89.999-54.217 8.777 5.287c4.729 2.85 10.875 1.325 13.726-3.405 2.85-4.73 1.325-10.876-3.406-13.726l-13.938-8.396c-3.174-1.913-7.145-1.911-10.32 0l-99.999 60.241c-3.003 1.809-4.84 5.06-4.84 8.565v34.355c0 32.776 10.238 64.076 29.608 90.517 19.369 26.44 46.126 45.64 77.376 55.522.981.311 1.998.466 3.015.466s2.034-.155 3.015-.466c31.251-9.883 58.008-29.082 77.376-55.522 19.371-26.441 29.609-57.742 29.609-90.517v-34.355c0-3.507-1.836-6.757-4.84-8.566z"/><path d="m315.99 182.062c-1.86-1.859-4.44-2.93-7.07-2.93-2.64 0-5.21 1.07-7.07 2.93-1.87 1.86-2.93 4.44-2.93 7.07s1.06 5.21 2.93 7.07c1.86 1.859 4.43 2.93 7.07 2.93 2.63 0 5.21-1.07 7.07-2.93s2.93-4.44 2.93-7.07-1.07-5.21-2.93-7.07z"/><path d="m308.544 246.684c-3.904-3.904-10.236-3.904-14.141 0l-38.929 38.929-19.492-19.492c-3.905-3.904-10.237-3.904-14.143 0-3.905 3.905-3.905 10.237 0 14.143l26.563 26.563c1.953 1.952 4.512 2.929 7.071 2.929s5.119-.977 7.071-2.929l46-46c3.905-3.905 3.905-10.237 0-14.143z"/></g></svg>