<svg viewBox="0 0 512.00016 512" xmlns="http://www.w3.org/2000/svg"><path d="m503.378906 319.84375-40.878906-40.878906c-.144531-.171875-.300781-.335938-.460938-.496094-4.976562-4.976562-12.015624-6.867188-18.828124-5.042969-6.757813 1.804688-11.875 6.898438-13.691407 13.632813-1.292969 4.800781-3.851562 9.214844-7.398437 12.761718l-1.136719 1.136719c-11.179687 11.179688-29.375 11.179688-40.558594 0-11.179687-11.183593-11.179687-29.375.003907-40.5625l1.132812-1.132812c3.546875-3.546875 7.960938-6.105469 12.761719-7.402344 6.730469-1.8125 11.828125-6.929687 13.632812-13.6875 1.820313-6.8125-.066406-13.851563-5.046875-18.832031-.15625-.15625-.316406-.308594-.484375-.453125l-40.886719-40.886719c-5.125-5.128906-11.8125-8.125-18.988281-8.566406-.433593-6.914063-3.28125-13.703125-8.550781-18.972656l-41.359375-41.355469c-4.976563-4.980469-12.015625-6.867188-18.828125-5.046875-6.757812 1.804687-11.875 6.898437-13.691406 13.632812-1.296875 4.804688-3.855469 9.214844-7.398438 12.761719l-1.136718 1.136719c-11.183594 11.183594-29.375 11.183594-40.558594 0-11.183594-11.179688-11.183594-29.375 0-40.558594l1.136718-1.132812c3.546876-3.546876 7.957032-6.105469 12.761719-7.402344 6.734375-1.816406 11.828125-6.933594 13.632813-13.691406 1.820312-6.808594-.066406-13.847657-5.046875-18.832032l-41.351563-41.351562c-11.496094-11.492188-30.195312-11.492188-41.6875 0l-40.746094 40.746094c-2.269531-7.863282-6.523437-15.0625-12.339843-20.882813l-1.136719-1.136719c-18.980469-18.980468-49.863281-18.980468-68.84375 0-18.980469 18.980469-18.980469 49.863282.003906 68.84375l1.132813 1.136719c5.820312 5.816406 13.019531 10.070313 20.882812 12.339844l-40.792969 40.792969c-5.566406 5.566406-8.632812 12.96875-8.632812 20.839843 0 7.875 3.066406 15.277344 8.632812 20.84375l40.703126 40.703125c-7.789063 2.28125-14.925782 6.519532-20.695313 12.289063l-1.136719 1.136719c-9.195312 9.195312-14.257812 21.417968-14.257812 34.421874 0 13 5.0625 25.226563 14.257812 34.421876 9.195313 9.191406 21.417969 14.257812 34.421875 14.257812 13.003907 0 25.226563-5.066406 34.421875-14.257812l1.136719-1.136719c5.769531-5.769531 10.003906-12.910157 12.285156-20.699219l40.707031 40.703125c5.125 5.128906 11.8125 8.128906 18.988282 8.570313.433594 6.914062 3.28125 13.703124 8.554687 18.972656l41.355469 41.355468c4.976562 4.980469 12.019531 6.867188 18.828125 5.046876 6.757813-1.804688 11.875-6.902344 13.691406-13.632813 1.292969-4.804687 3.851563-9.21875 7.402344-12.765625l1.132813-1.132812c11.179687-11.183594 29.375-11.183594 40.558593 0 5.417969 5.417968 8.398438 12.617187 8.398438 20.277343 0 7.660157-2.984375 14.863281-8.402344 20.28125l-1.132813 1.132813c-3.546874 3.546875-7.960937 6.105468-12.761718 7.402344-6.730469 1.816406-11.828125 6.933593-13.632813 13.6875-1.820312 6.8125.0625 13.851562 5.042969 18.832031l41.355469 41.355469c5.566406 5.566406 12.96875 8.632812 20.84375 8.632812 7.871093 0 15.273437-3.066406 20.839843-8.632812l39.832032-39.828126c2.425781 6.8125 6.265625 12.878907 11.425781 18.039063l1.136719 1.136719c18.980468 18.980468 49.863281 18.980468 68.84375 0 18.976562-18.976563 18.976562-49.863282 0-68.839844l-1.136719-1.136719c-5.160156-5.160156-11.226563-9.003906-18.042969-11.425781l39.785156-39.785156c11.492188-11.492188 11.492188-30.191406-.003906-41.683594zm-380.117187-41.359375c-4.980469-4.976563-12.023438-6.863281-18.832031-5.042969-6.757813 1.804688-11.875 6.898438-13.6875 13.632813-1.296876 4.800781-3.855469 9.214843-7.402344 12.761719l-1.136719 1.136718c-5.417969 5.417969-12.617187 8.398438-20.277344 8.398438-7.660156 0-14.863281-2.984375-20.28125-8.398438-5.414062-5.417968-8.398437-12.621094-8.398437-20.28125s2.984375-14.859375 8.398437-20.277344l1.136719-1.136718c3.546875-3.542969 7.960938-6.101563 12.761719-7.398438 6.734375-1.816406 11.828125-6.933594 13.636719-13.691406 1.816406-6.8125-.070313-13.851562-5.046876-18.828125l-41.355468-41.355469c-1.789063-1.789062-2.777344-4.171875-2.777344-6.699218 0-2.53125.988281-4.910157 2.777344-6.703126l41.445312-41.445312c4.917969-4.917969 6.847656-12.144531 5.039063-18.867188-1.824219-6.769531-6.945313-11.882812-13.703125-13.675781-4.847656-1.285156-9.296875-3.855469-12.875-7.433593l-1.132813-1.132813c-11.183593-11.179687-11.183593-29.375 0-40.558594 11.183594-11.179687 29.375-11.179687 40.554688 0l1.140625 1.136719c3.574218 3.574219 6.140625 8.027344 7.425781 12.875 1.792969 6.753906 6.90625 11.875 13.679687 13.699219 6.722657 1.808593 13.949219-.121094 18.863282-5.035157l41.402344-41.402343c3.695312-3.695313 9.703124-3.691407 13.398437 0l40.703125 40.707031c-7.789062 2.28125-14.925781 6.515625-20.699219 12.285156l-1.132812 1.136719c-9.195313 9.195313-14.257813 21.417969-14.257813 34.421875 0 13 5.0625 25.226562 14.257813 34.421875 18.976562 18.976563 49.859375 18.976563 68.839843 0l1.136719-1.136719c5.773438-5.773437 10.007813-12.910156 12.289063-20.699218l40.703125 40.703124c3.695312 3.695313 3.695312 9.703126.003906 13.398438h-.003906l-39.78125 39.785156c-2.425781-6.816406-6.269531-12.878906-11.429688-18.039062l-1.136719-1.136719c-18.976562-18.980469-49.859374-18.980469-68.84375 0-18.976562 18.976563-18.976562 49.859375.003907 68.84375l1.132812 1.132813c4.652344 4.65625 10.042969 8.234374 16.054688 10.671874l1.21875 1.523438-39.0625 39.0625c-1.789063 1.789062-4.167969 2.773438-6.699219 2.773438s-4.910156-.984376-6.699219-2.773438zm365.976562 68.898437-40.394531 40.394532c-4.8125 4.8125-6.75 11.644531-5.1875 18.273437 1.550781 6.578125 6.292969 11.777344 12.679688 13.910157 4.226562 1.410156 7.980468 3.738281 11.160156 6.917968l1.136718 1.136719c11.179688 11.179687 11.179688 29.375 0 40.558594-11.183593 11.179687-29.375 11.179687-40.558593 0l-1.136719-1.136719c-3.179688-3.183594-5.507812-6.9375-6.917969-11.160156-2.132812-6.390625-7.332031-11.128906-13.910156-12.679688-6.628906-1.5625-13.460937.375-18.273437 5.1875l-40.4375 40.441406c-3.695313 3.691407-9.707032 3.691407-13.398438 0l-40.703125-40.707031c7.789063-2.28125 14.925781-6.515625 20.699219-12.289062l1.132812-1.132813c9.195313-9.195312 14.257813-21.421875 14.257813-34.421875 0-13.003906-5.0625-25.226562-14.257813-34.421875-18.980468-18.980468-49.859375-18.980468-68.84375 0l-1.132812 1.136719c-5.773438 5.769531-10.007813 12.90625-12.289063 20.695313l-40.703125-40.703126c-3.695312-3.691406-3.695312-9.703124 0-13.398437l45.382813-45.382813c3.601562-3.601562 3.921875-9.335937.742187-13.316406l-8.53125-10.679687c-1.207031-1.507813-2.820312-2.632813-4.648437-3.246094-4.222657-1.40625-7.980469-3.734375-11.164063-6.921875l-1.132812-1.128906c-11.179688-11.183594-11.179688-29.378906 0-40.558594 5.417968-5.417969 12.621094-8.398438 20.28125-8.398438s14.859375 2.980469 20.277344 8.394532l1.136718 1.140625c3.179688 3.179687 5.507813 6.933593 6.917969 11.160156 2.128906 6.386719 7.328125 11.125 13.90625 12.675781 6.628906 1.566406 13.460937-.371094 18.273437-5.183594l40.398438-40.394531c1.789062-1.792969 4.167969-2.777343 6.699219-2.777343 2.527343 0 4.910156.984374 6.699219 2.777343l40.691406 40.695313c-7.777344 2.28125-14.90625 6.515625-20.671875 12.28125l-1.136719 1.132812c-18.980469 18.980469-18.980469 49.863282 0 68.84375 18.980469 18.980469 49.863281 18.980469 68.84375 0l1.136719-1.136718c5.765625-5.765626 9.996093-12.894532 12.28125-20.675782l40.695312 40.695313c3.695313 3.699219 3.695313 9.710937 0 13.402343zm0 0"/><g fill="#ea2845"><path d="m91.425781 136.210938c-3.90625-3.902344-10.238281-3.902344-14.144531 0l-27.972656 27.972656c-3.90625 3.90625-3.90625 10.238281 0 14.144531l27.925781 27.925781c1.953125 1.953125 4.511719 2.929688 7.070313 2.929688 2.558593 0 5.121093-.976563 7.070312-2.929688 3.90625-3.90625 3.90625-10.238281 0-14.140625l-20.851562-20.859375 20.898437-20.898437c3.90625-3.90625 3.90625-10.238281.003906-14.144531zm0 0"/><path d="m110.5625 215.433594c-2.640625 0-5.210938 1.070312-7.070312 2.929687-1.871094 1.859375-2.929688 4.4375-2.929688 7.070313 0 2.628906 1.058594 5.207031 2.929688 7.070312 1.859374 1.867188 4.429687 2.929688 7.070312 2.929688 2.628906 0 5.210938-1.0625 7.070312-2.929688 1.859376-1.863281 2.929688-4.441406 2.929688-7.070312 0-2.632813-1.070312-5.203125-2.929688-7.070313-1.859374-1.859375-4.441406-2.929687-7.070312-2.929687zm0 0"/></g></svg>