<svg enable-background="new 0 0 512.003 512.003" viewBox="0 0 512.003 512.003" xmlns="http://www.w3.org/2000/svg" xmlns:xlink="http://www.w3.org/1999/xlink"><linearGradient id="a" x1="0%" x2="100%" y1="0%" y2="0%"><stop offset="0" stop-color="#ea2845"/><stop offset="1" stop-color="#ea2868"/></linearGradient><g fill="url(#a)"><path d="m381.176 33.536c-4.787-2.764-10.915-1.122-13.679 3.665-2.764 4.797-1.122 10.915 3.665 13.679 4.787 2.774 10.915 1.132 13.679-3.665 2.764-4.786 1.122-10.905-3.665-13.679z"/><path d="m256.002 0c-5.528 0-10.014 4.486-10.014 10.014s4.486 10.014 10.014 10.014 10.014-4.486 10.014-10.014-4.486-10.014-10.014-10.014z"/><path d="m256.002 266.369c-5.528 0-10.014 4.486-10.014 10.014s4.486 10.014 10.014 10.014 10.014-4.486 10.014-10.014c0-5.527-4.486-10.014-10.014-10.014z"/><path d="m144.508 37.202c-2.764-4.787-8.892-6.429-13.679-3.665-4.787 2.774-6.429 8.892-3.665 13.679 2.764 4.797 8.892 6.439 13.679 3.665 4.786-2.764 6.429-8.883 3.665-13.679z"/><path d="m256.002 40.056c-5.53 0-10.014 4.483-10.014 10.014v40.056c0 5.531 4.484 10.014 10.014 10.014s10.014-4.483 10.014-10.014v-40.057c0-5.53-4.484-10.013-10.014-10.013z"/><path d="m184.564 106.588-20.027-34.698c-2.766-4.79-8.889-6.435-13.679-3.667-4.79 2.765-6.432 8.888-3.667 13.679l20.028 34.699c1.856 3.213 5.221 5.009 8.683 5.009 1.697 0 3.42-.433 4.996-1.343 4.789-2.765 6.431-8.889 3.666-13.679z"/><path d="m361.147 68.225c-4.793-2.766-10.914-1.124-13.679 3.667l-20.028 34.698c-2.765 4.789-1.123 10.913 3.667 13.678 1.577.91 3.298 1.343 4.996 1.343 3.462 0 6.827-1.797 8.683-5.009l20.028-34.698c2.765-4.79 1.123-10.915-3.667-13.679z"/></g><path d="m466.291 276.315c-.001-.123-.008-.245-.014-.369-.006-.128-.014-.256-.024-.385-.007-.082-.008-.165-.017-.246-.012-.112-.032-.224-.047-.335-.018-.125-.039-.25-.061-.376-.017-.094-.028-.189-.048-.282s-.047-.185-.069-.278c-.031-.128-.065-.256-.101-.384-.029-.103-.054-.208-.086-.31-.023-.072-.053-.143-.078-.215-.047-.136-.097-.271-.149-.406-.042-.107-.081-.215-.126-.32-.024-.055-.053-.109-.078-.164-.064-.141-.132-.279-.202-.418-.054-.106-.106-.212-.164-.315-.01-.018-.017-.036-.027-.054l-60.005-106.148c-.03-.053-.068-.098-.099-.15-.167-.285-.349-.562-.545-.829-.051-.07-.1-.141-.152-.21-.249-.323-.516-.636-.805-.928-.004-.004-.009-.008-.014-.013-.274-.276-.571-.533-.879-.778-.077-.061-.155-.118-.233-.176-.248-.185-.508-.359-.777-.524-.087-.053-.172-.109-.261-.159-.341-.194-.693-.375-1.063-.531-.004-.002-.008-.004-.013-.006-.001-.001-.003-.001-.004-.002-.372-.156-.75-.28-1.129-.389-.106-.03-.213-.053-.32-.08-.298-.075-.597-.135-.897-.182-.107-.016-.212-.034-.32-.047-.401-.049-.802-.08-1.201-.08-.001 0-.002 0-.004 0h-.002c-.017 0-.033 0-.05 0h-140.225-.026-140.152c-.415-.001-.83.031-1.247.082-.097.012-.192.029-.288.044-.303.047-.606.108-.908.184-.112.028-.223.054-.333.086-.327.094-.652.206-.974.335-.054.022-.109.037-.163.06-.009.004-.019.006-.028.01-.362.154-.706.332-1.039.523-.084.048-.163.102-.245.152-.27.164-.53.339-.779.526-.082.061-.163.123-.244.187-.278.221-.544.455-.794.702-.033.032-.068.061-.1.094-.287.291-.554.6-.801.922-.047.061-.089.126-.135.188-.197.269-.381.548-.549.835-.03.052-.068.097-.098.149l-59.965 105.928c-.002.003-.003.005-.005.008l-.119.209c-.01.018-.017.037-.028.055-.062.111-.118.225-.176.339-.072.141-.142.282-.207.427-.02.044-.042.088-.062.132-.049.113-.091.229-.136.345-.054.138-.106.276-.154.417-.021.06-.045.12-.064.18-.035.11-.061.223-.093.335-.037.132-.074.264-.105.399-.019.08-.042.159-.059.239-.021.101-.034.205-.052.307-.023.13-.046.26-.064.393-.013.098-.03.196-.04.294-.01.09-.011.181-.019.271-.011.133-.021.265-.026.399-.004.11-.01.22-.011.33 0 .023-.003.046-.003.069 0 .062.008.123.009.185.002.132.007.264.014.397.006.109.012.218.022.327.008.093.019.184.03.276.015.126.033.251.053.377.016.099.031.198.05.296.019.102.039.203.062.304.027.121.058.24.089.36.023.089.047.178.072.267.031.107.062.213.096.319.037.114.079.226.12.338.032.087.065.174.099.261.042.104.083.208.128.311.045.104.095.206.144.308.045.093.091.185.138.277.051.097.101.194.155.29.051.091.104.18.158.27.06.1.123.199.187.297.059.091.12.18.182.269.055.078.109.156.167.234.074.1.15.197.228.295.071.088.145.173.218.259.042.049.077.101.121.15l201.531 225.612c.247.277.511.538.785.783.04.035.083.065.123.1.289.251.592.482.905.697.102.07.206.136.31.202.292.184.592.352.9.506.085.042.166.089.252.129.389.179.788.332 1.198.461.098.031.198.053.297.08.329.092.663.167 1.001.226.124.021.247.043.372.06.437.058.876.098 1.323.098h.031c.448-.001.889-.043 1.327-.103.125-.017.247-.039.372-.061.339-.06.675-.136 1.005-.23.099-.028.199-.05.297-.082.41-.13.81-.286 1.2-.468.085-.04.166-.087.25-.129.309-.155.61-.326.902-.513.105-.067.208-.134.311-.205.31-.215.61-.446.896-.696.043-.038.09-.071.133-.109.274-.249.538-.512.786-.793l199.03-225.603c.036-.041.065-.085.1-.126.066-.077.132-.155.196-.234.086-.107.168-.215.249-.325.056-.076.111-.152.165-.229.056-.08.11-.162.164-.244.07-.107.136-.215.202-.324.054-.09.108-.178.159-.269.048-.087.093-.175.139-.264.051-.099.1-.2.148-.301.05-.104.101-.207.147-.312.041-.094.077-.189.115-.284.037-.093.072-.187.106-.282.042-.115.086-.23.124-.346.031-.096.057-.193.086-.29.028-.096.052-.193.077-.29.031-.122.065-.243.091-.367.02-.091.037-.183.054-.276.02-.107.036-.215.053-.323.019-.126.039-.251.054-.378.01-.082.019-.165.026-.248.011-.12.016-.24.023-.362.007-.129.013-.258.015-.386.001-.054.008-.107.008-.161.003-.029 0-.051 0-.074zm-85.068-96.065-32.468 77.478-70.172-77.478zm-147.643 0-69.537 77.586-33.079-77.586zm-119.038 12.55 31.367 73.569h-73.009zm-36.444 93.597h76.348l69.721 163.517zm179.076 189.87-80.956-189.87h39.729c5.53 0 10.014-4.483 10.014-10.014s-4.484-10.014-10.014-10.014h-32.656l72.751-81.174 73.519 81.174h-33.502c-5.53 0-10.014 4.483-10.014 10.014s4.484 10.014 10.014 10.014h40.683zm32.845-26.557 68.438-163.313h75.636zm76.829-183.341 30.767-73.418 41.502 73.418z"/></svg>