<svg height="966" viewBox="0 0 524.66874 255.58751" width="1983" xmlns="http://www.w3.org/2000/svg"><g transform="translate(0 -41.412)"><path d="m153.61 44.155c-1.8311 0-3.5314.39239-5.1009.91554 3.3352 2.2235 5.1662 5.1663 6.0818 8.5015.0655.45776.19618.78476.26167 1.2425.0655.39239.13071.78476.13071 1.1771.2617 5.7548-1.5041 6.4742-2.7466 9.8748-1.8965 4.3815-1.3733 9.09.91553 12.883.1962.45775.45777.98092.78477 1.4387-2.4851-16.545 11.313-19.03 13.864-24.196.19619-4.5123-3.5314-7.5205-6.4742-9.6132-2.812-1.7003-5.3625-2.2235-7.7167-2.2235zm20.796 3.7276c-.26168 1.5041-.0655 1.1117-.13068 1.8965-.0655.52316-.0655 1.1771-.13069 1.7003-.13069.52317-.2617 1.0463-.45779 1.5695-.13068.52316-.32697 1.0463-.52316 1.5695-.2617.52319-.45776.98095-.71935 1.5041-.19618.26169-.32697.52316-.52316.78476-.13069.19619-.26169.39237-.39237.58856-.32697.45779-.65398.91554-.98094 1.3079-.39239.39239-.71936.85014-1.1772 1.1771v.06548c-.39236.32698-.78474.71935-1.2425 1.0463-1.3733 1.0463-2.9428 1.8311-4.3815 2.812-.45775.32697-.91554.58857-1.3079.98094-.45776.32697-.85015.65394-1.2425 1.0463-.4578.39237-.78477.78476-1.1772 1.2425-.32697.39239-.71934.85014-.98091 1.3079-.32701.45775-.65397.91553-.91557 1.3733-.26168.52316-.45776.98094-.71935 1.5041-.19618.52316-.39238.98094-.52316 1.5041-.19619.58857-.32698 1.1117-.45777 1.6349-.0655.26169-.0655.58855-.1307.85014-.0655.26169-.0655.52316-.13068.78476 0 .52316-.0655 1.1117-.0655 1.6349 0 .39238 0 .78476.0655 1.1771 0 .52316.0655 1.0463.19618 1.6349.0655.52315.19618 1.0463.327 1.5695.1962.52316.32698 1.0463.52316 1.5695.13071.32701.32697.65398.45779.91554l-15.041-5.8202c-2.5505-.71935-5.0355-1.3733-7.5859-1.9619-1.3733-.32697-2.7466-.65396-4.1199-.98094-3.9238-.78474-7.9129-1.3733-11.902-1.7657-.13068 0-.19618-.06548-.32697-.06548-3.9238-.39237-7.7821-.58856-11.706-.58856-2.8774 0-5.7549.13068-8.5669.32697-3.9892.26169-7.9783.78476-11.967 1.4387-.98095.1307-1.9619.32701-2.9428.52319-2.0273.39235-3.9891.85014-5.8856 1.3079-.98094.26169-1.9619.52317-2.9428.78474-.98091.39237-1.8965.85016-2.812 1.2425-.71935.32697-1.4387.65395-2.158.98094-.13069.06548-.26169.06548-.32697.1307-.65397.32697-1.2425.58853-1.8311.91554-.19619.06548-.327.13068-.45779.19619-.71935.32697-1.4387.71934-2.0273 1.0463-.45778.19619-.91554.45778-1.3079.65398-.19619.13068-.45779.26168-.58857.32697-.58857.32697-1.1771.65394-1.7003.98094-.58857.32697-1.1117.65394-1.5695.98091-.45775.32701-.91554.58857-1.3079.91554-.06551.06548-.13069.06548-.19619.1307-.39238.26169-.85013.58856-1.2425.91556 0 0-.06551.06548-.13069.13069-.32697.26169-.65398.52316-.98095.78472-.13069.06548-.26169.19619-.39238.26169-.32697.26169-.65394.58857-.98092.85016-.06551.13069-.19619.19619-.26169.26169-.39238.39237-.78476.71934-1.1771 1.1117-.06551 0-.06551.06548-.13069.13068-.39238.32698-.78476.71936-1.1771 1.1117-.06551.06548-.06551.13068-.13069.13068-.32697.32697-.65394.65398-.98094 1.0463-.13069.1307-.32697.26169-.45775.39237-.32697.39238-.71935.78476-1.1117 1.1771-.06551.13068-.19619.19619-.26169.32697-.52316.52319-.98095 1.0463-1.5041 1.5695-.06551.06548-.13069.13068-.19619.19619-1.0464 1.1117-2.1581 2.2235-3.3352 3.2044-1.1771 1.0463-2.4196 2.0273-3.6622 2.8774-1.3079.91557-2.5504 1.7003-3.9238 2.485-1.3079.71934-2.6812 1.3733-4.1199 1.9619-1.3733.58856-2.812 1.1117-4.2507 1.5695-2.7466.58856-5.5587 1.7003-7.9783 1.8965-.52316 0-1.1117.1307-1.6349.19618-.58856.13069-1.1117.26169-1.6349.39239-.52316.19618-1.0464.39237-1.5695.58855-.52316.19619-1.0463.45779-1.5695.71937-.45778.32696-.98094.58856-1.4387.91553s-.91554.71934-1.3079 1.1117c-.45775.327-.91554.78476-1.3079 1.1771-.39238.4578-.78476.85017-1.1117 1.3079-.32697.52317-.71935.98096-.98095 1.5041-.32697.45778-.65394.98094-.91554 1.5041-.26169.58859-.52316 1.1117-.71935 1.7003-.19619.52317-.39238 1.1117-.58857 1.7003-.13069.52315-.26169 1.0463-.32697 1.5695 0 .0655-.065496.1307-.065496.19619-.13069.5886-.13069 1.3734-.19619 1.7658-.065496.45775-.13069.85012-.13069 1.3079 0 .26168 0 .58853.065496.85012.065496.4578.13069.85016.26169 1.2426.13069.39233.26169.78471.45775 1.1771v.0655c.19619.3924.45778.78477.71935 1.1771.26169.39239.52319.78476.85016 1.1771.32697.32697.71935.71933 1.1117 1.0463.39238.39237.78476.71934 1.2425 1.0463 1.5695 1.3733 1.9619 1.8311 3.9892 2.8774.32697.1962.65397.32699 1.0464.52318.0655 0 .13069.0655.19619.0655 0 .13068 0 .19619.0655.32701.0655.52317.19619 1.0463.32697 1.5695.13069.58857.327 1.1118.52319 1.5695.19619.39238.32697.78475.52316 1.1771.0655.1307.13069.26169.19619.32697.26169.52315.52316.98096.78472 1.4387.327.45777.65397.91553.98094 1.3733.32697.39236.71935.85014 1.1117 1.2425.39238.39239.78476.71938 1.2425 1.1117 0 0 .06551.0655.13069.0655.39238.32701.78476.65399 1.1771.91554.45775.32699.91554.58856 1.4387.85016.45778.26169.98095.52315 1.5041.71936.39238.19619.85013.32699 1.3079.45777.06551.0655.13069.0655.26169.13071.26169.0655.58854.13067.85013.19617-.19619 3.5314-.26169 6.8666.26169 8.0437.58854 1.3079 3.466-2.6812 6.3434-7.2589-.39238 4.5123-.65397 9.8094 0 11.379.71935 1.6349 4.6431-3.466 8.0437-9.09 46.366-10.725 88.677 21.319 93.124 66.573-.85015-7.0628-9.5478-10.986-13.537-10.006-1.9619 4.8393-5.2971 11.052-10.66 14.91.45777-4.3161.26167-8.763-.65395-13.079-1.4387 6.0164-4.2508 11.64-8.1091 16.48-6.2126.45775-12.425-2.5505-15.695-7.0628-.26169-.1962-.32697-.58858-.52316-.85016-.19619-.4578-.39238-.91553-.52316-1.3733-.19619-.45775-.32697-.91554-.39238-1.3733-.06551-.4578-.06551-.91556-.06551-1.4387v-.98093c.06551-.45781.19619-.91558.32697-1.3734.13069-.45776.26169-.91553.45778-1.3733.26169-.45775.45775-.91553.78476-1.3733 1.1117-3.139 1.1117-5.6894-.91554-7.1936-.39238-.26169-.78476-.45779-1.2425-.65398-.26169-.0655-.58857-.19619-.85013-.26168-.19619-.0655-.32697-.13071-.52316-.1962-.45778-.13069-.91557-.26169-1.3733-.32697-.45778-.13068-.91554-.19619-1.3733-.19619-.45776-.0655-.98095-.13069-1.4387-.13069-.32697 0-.65397.0655-.98094.0655-.52316 0-.98094.0655-1.4387.19619-.45778.0655-.91554.13068-1.3733.26167-.45776.1307-.91554.26169-1.3733.45781-.45775.19618-.85013.39237-1.3079.58855-.39235.1962-.78473.45776-1.2425.65395-15.237 9.9402-6.1472 33.221 4.2507 39.957-3.9238.71934-7.9129 1.5695-9.0246 2.4196-.06551.0655-.13069.1307-.13069.1307 2.812 1.7003 5.7548 3.139 8.8284 4.3815 4.1853 1.3733 8.6323 2.6158 10.594 3.139v.0655c5.4279 1.1117 10.921 1.5041 16.48 1.1771 28.97-2.0273 52.709-24.066 57.025-53.101.1307.58858.26169 1.1117.39238 1.7003.19619 1.1771.45775 2.4196.58854 3.6622v.0655c.13069.58857.19618 1.1771.26168 1.7003v.2617c.0655.58856.1307 1.1771.1307 1.7003.0655.71936.13069 1.4387.13069 2.1581v1.0463c0 .32701.0655.71935.0655 1.0464 0 .39239-.0655.78474-.0655 1.1771v.91554c0 .4578-.0655.85015-.0655 1.3079 0 .26166 0 .52317-.0655.85015 0 .45779-.0655.91553-.0655 1.4387-.0655.19618-.0655.39237-.0655.58858-.0655.52317-.13069.98094-.1962 1.5041 0 .1962 0 .39236-.0655.58857-.0655.65394-.19617 1.2425-.26166 1.8965v.0655.0655c-.13069.58855-.2617 1.2425-.3924 1.8311v.1962c-.13067.58855-.26169 1.1771-.39236 1.7657 0 .0655-.0655.19619-.0655.26167-.13071.58858-.2617 1.1771-.45776 1.7657v.19618c-.19618.65393-.39238 1.2425-.52318 1.8311-.0655.0655-.0655.13069-.0655.13069-.1962.65398-.39236 1.3079-.58854 1.9619-.26168.65397-.45777 1.2425-.71934 1.8965-.26169.65396-.4578 1.3079-.71938 1.8965-.26169.65398-.52318 1.2426-.78474 1.8965h-.0655c-.2617.58856-.5232 1.2425-.85019 1.8311-.0655.19617-.13067.32697-.19617.45774-.0655.0655-.0655.13069-.13069.1962-4.2507 8.5668-10.529 16.087-18.376 21.973-.52316.32697-1.0463.71936-1.5695 1.1117-.1307.1307-.327.19621-.45779.32697-.45778.32698-.91554.65394-1.4387.98095l.19617.39238h.0655c.91552-.13068 1.8311-.26168 2.7466-.39238h.0655c1.7003-.26169 3.4006-.58857 5.1009-.91554.45774-.0655.98094-.19617 1.4387-.327.32698-.0655.58858-.13068.91555-.19619.45778-.0655.91554-.19618 1.3733-.26167.39237-.13069.78475-.19621 1.1771-.32698 6.5396-1.5695 12.883-3.7276 18.965-6.278-10.398 14.191-24.327 25.635-40.611 33.156 7.5205-.52317 15.041-1.7657 22.3-3.8583 26.355-7.7821 48.524-25.504 61.799-49.374-2.6812 15.106-8.6976 29.494-17.591 42.05 6.3434-4.1854 12.164-9.0246 17.461-14.518 14.649-15.303 24.262-34.725 27.532-55.586 2.2235 10.333 2.8774 20.992 1.8965 31.521 47.216-65.854 3.9238-134.13-14.191-152.11-.0655-.13068-.13069-.19619-.13069-.32697-.0655.06548-.0655.06548-.0655.1307 0-.06548 0-.06548-.0655-.1307 0 .78476-.0655 1.5695-.13069 2.3542-.1962 1.5041-.39237 2.9428-.65397 4.3815-.32697 1.4387-.71935 2.8774-1.1117 4.3161-.45776 1.3733-.98091 2.812-1.5695 4.1853-.58857 1.3079-1.2425 2.6812-1.9619 3.9892-.71936 1.2425-1.5041 2.5504-2.3542 3.7276-.85015 1.2426-1.7657 2.4196-2.6812 3.5314-.98095 1.1772-2.0273 2.2235-3.0736 3.2698-.65394.58857-1.2425 1.1117-1.8965 1.6349-.52315.4578-.98091.85018-1.5041 1.3079-1.1771.91555-2.3542 1.7657-3.6622 2.5505-1.2425.78474-2.5504 1.5695-3.8583 2.2235-1.3733.65396-2.7466 1.2425-4.1199 1.8311-1.3733.52314-2.812.98093-4.2508 1.3733-1.4387.39236-2.9428.71936-4.3815.98092-1.5041.2617-3.0082.39238-4.4469.52319-1.0463.0655-2.0927.1307-3.139.1307-1.5041 0-3.0082-.1307-4.4469-.26169-1.5041-.13069-3.0082-.32702-4.4469-.65399-1.5041-.26168-2.9428-.65397-4.3815-1.1117h-.0655c1.4387-.13069 2.8774-.2617 4.3162-.52318 1.5041-.26168 2.9428-.58855 4.3815-.98095 1.4387-.39236 2.8774-.85015 4.2507-1.3733 1.4387-.52317 2.812-1.1771 4.12-1.8311 1.3733-.65397 2.6158-1.3733 3.9237-2.1581 1.2425-.85014 2.485-1.7003 3.6622-2.6158 1.1771-.91553 2.2888-1.8964 3.3352-2.9428 1.1117-.98096 2.0926-2.0927 3.0736-3.2044.98093-1.1771 1.8965-2.3542 2.7466-3.5314.1307-.1962.2617-.45776.3924-.65395.65393-1.0463 1.3079-2.0927 1.8964-3.139.71936-1.3079 1.3733-2.6158 1.9619-3.9891.58857-1.3733 1.1117-2.7466 1.5695-4.1853.45776-1.3733.78474-2.812 1.1117-4.2507.2617-1.5041.52315-2.9428.65395-4.3815.13069-1.5041.26168-3.0082.26168-4.4469 0-1.0463-.0655-2.0927-.13067-3.139-.1307-1.5041-.32699-2.9428-.52318-4.3815-.26169-1.5041-.58855-2.9428-.98095-4.3815-.45775-1.3733-.91553-2.812-1.4387-4.1853-.5232-1.3733-1.1771-2.7466-1.8311-4.0546-.71935-1.3079-1.4387-2.6158-2.2234-3.8583-.85014-1.2425-1.7003-2.4196-2.6158-3.5968-.98091-1.1117-1.9619-2.2235-3.0082-3.3352-.52314-.52316-1.1117-1.1117-1.7003-1.6349-2.9428-2.2889-6.0164-4.4469-9.09-6.4088-.45776-.26168-.85014-.45778-1.3079-.65398-2.1581-1.3733-4.1854-2.0927-6.2126-2.7466z" fill="#e0234e" fill-rule="evenodd"/><g fill="#eb2845"><path d="m287.15 202.41c1.1117-.52318 2.158-.85016 3.139-1.0464 2.4196-.39238 3.793-.71935 4.1853-.98095.65396-.39235 1.1117-.91554 1.3079-1.4387.26168-.91555.39234-2.812.39234-5.8202v-5.6894l.0655-4.6431-.19618-6.932v-4.1199c0-2.7466-.19618-5.0355-.65395-6.7358-.13069-.65393-.71934-1.3079-1.6349-1.9619-1.2425-.91551-3.2698-1.7657-6.2126-2.6158l-.0655-3.139c.52319-.13069 1.0463-.26169 1.5041-.32699.45774-.0655 2.2235-.52315 5.297-1.3079 2.4197-.85011 3.9892-1.5041 4.6431-1.8311.26167-.13069.58852-.32696 1.1117-.58856.52314-.45775 1.1117-.85013 1.7657-1.3079 1.3079-.91552 2.8774-2.5504 4.7085-4.7739l3.466-.26168-.13069 7.3897c-.0655.71934-.0655 1.3079-.0655 1.7657 0 .39239 0 1.3733.0655 3.0082 3.6622-3.139 6.932-5.2971 9.9402-6.5396 3.8583-1.6349 7.5859-2.4197 11.052-2.4197 4.1199 0 7.7821 1.0464 10.856 3.0736 3.139 2.0273 5.1663 4.3816 6.0818 6.9974.9809 2.6812 1.4387 8.1091 1.4387 16.153l-.26169 21.45c0 .98093.19618 1.8311.52314 2.4851.45782.32696 1.7003.65394 3.6622.98094l3.2044.58853c.39239.58857.58858 1.2426.58858 2.0927 0 .52316 0 1.2426-.0655 2.1581l-12.883-.91554-3.793.13068h-3.0082l-8.6976.65394h-2.2235c-.0655-.58855-.0655-.98093-.0655-1.3079 0-.78475.0655-1.6349.13068-2.5504.58856-.13069 2.158-.32701 4.5777-.65398.65395-.0655 1.3733-.26169 2.2235-.45776.85013-.32701 1.3733-.71932 1.5041-1.0464.32697-.78473.52316-2.158.52316-4.2507 0-3.7276-.0655-6.5396-.13069-8.5015l.0655-7.5859c0-9.2862-.52316-15.041-1.7003-17.264-1.7003-3.3352-4.1853-4.9701-7.5205-4.9701-2.4196 0-4.9701.65395-7.5859 1.8965-2.6812 1.2425-5.3624 3.139-8.1745 5.6894l-.13068 1.1117.13068 4.1199-.0655 4.3816.26166 10.529-.13068 1.6349c0 7.1282.2617 11.183.85017 12.098.58853.91554 2.7466 1.8965 6.5396 3.0082.13069.71933.19618 1.3079.19618 1.6349 0 .5232-.19618 1.3079-.45778 2.4196-1.3733.0655-2.5504.0655-3.466.0655s-2.3543-.13068-4.3162-.39235l-6.9974-.13068c-3.5314 0-8.5669.13068-15.172.45774-.19619-.45774-.26169-.91552-.26169-1.3733 0-.32701 0-1.0464.0655-2.0927z"/><path d="m364.38 170.96c1.1771-3.7276 2.1581-6.2126 3.0736-7.3897 2.4197-3.5968 5.0355-6.4088 7.7821-8.436 2.812-2.0273 5.2971-3.3352 7.5205-3.9892 2.9428-.85014 5.2317-1.2425 7.0628-1.2425 4.1199 0 7.4551.32697 9.9402.9809 2.5504.58858 4.7085 1.5042 6.4088 2.6813 2.4197 1.7003 4.3816 3.466 5.8856 5.1663 1.5041 1.7657 2.6813 3.8583 3.5968 6.2126.98096 2.3542 1.5041 5.2317 1.6349 8.5669l-7.3243-.13069c-2.0273 0-6.4088-.19619-13.275-.58859-2.5504-.13067-4.2507-.26168-5.2317-.26168-.32698 0-2.6812.0655-7.0628.0655h-5.6894c-.0655.65393-.13069 1.1771-.13069 1.5695 0 2.3543.32696 4.7739.85016 7.3898.58852 2.5504 1.4387 4.7739 2.5504 6.7358 1.1771 1.9619 2.5504 3.5968 4.2507 4.9701 1.7003 1.4387 3.466 2.4196 5.2317 3.0736l3.793 1.2425c3.4006 0 5.624-.1307 6.8012-.32696 2.0927-.45776 3.9237-.98094 5.4932-1.6349 1.6349-.71934 3.5314-1.8965 5.8202-3.5314 1.5695 1.1771 2.8774 2.158 3.9892 3.139-3.8583 4.1853-7.9129 7.3244-12.033 9.2208-4.1199 1.8965-8.763 2.812-13.864 2.812-3.466 0-6.278-.26169-8.5014-.91554-2.8774-.78477-5.5586-1.9619-7.9129-3.5968-2.3542-1.6349-4.3815-3.6621-6.0818-6.0164-1.7003-2.4196-3.0082-4.9047-3.8583-7.4551-1.0463-3.3352-1.6349-6.0164-1.6349-7.9783 0-3.8583.32698-7.2589.91554-10.333zm38.191-2.812c-.0655-2.4851-.52315-4.7739-1.4387-7.0628-.91554-2.2235-2.3543-3.9237-4.3161-5.1662-1.8965-1.2426-3.8584-1.8965-5.8202-1.8965-2.9428 0-5.5587 1.3079-7.9783 3.8584-2.3543 2.6158-3.6622 6.0818-3.9892 10.529l14.976.0655c.98094 0 2.3542-.0655 4.0545-.19618 1.3079-.13069 2.2234-.19619 2.7466-.19619.39234 0 .98092 0 1.7657.0655z"/><path d="m427.68 187.37c1.3079-.26169 2.2889-.39237 2.8774-.39237.32697 0 .78476 0 1.3733.0655l.58857.65394c2.4196 4.1854 3.9238 6.6704 4.7085 7.5859 1.5041 1.7657 3.0082 3.2044 4.5123 4.3161.98093.65398 2.5504 1.4387 4.7085 2.158 1.4387.5232 3.0082.78476 4.6431.78476 2.7466 0 5.1009-.85014 7.0628-2.6158 1.9619-1.8311 2.9428-3.7276 2.9428-5.8202 0-1.3733-.39238-2.5504-1.1117-3.5314-.71934-.98095-2.2234-1.9619-4.4469-2.9428-1.1117-.45779-3.8583-1.2425-8.3052-2.3543-4.3815-1.1117-6.9974-1.8311-7.9129-2.1581-2.0927-.78474-3.9238-1.8965-5.4933-3.2698-1.6349-1.4387-2.812-3.0082-3.6622-4.7739-1.1117-2.485-1.7003-4.6431-1.7003-6.4088 0-3.3352.52314-6.0164 1.4387-8.1745.98096-2.0927 2.3543-3.9891 4.1199-5.624 1.2425-1.2426 3.139-2.3543 5.6895-3.3352 2.5504-.98095 5.3624-1.5041 8.2399-1.5041 4.1854 0 7.8475.26169 10.986.85016 3.139.58857 5.8202 1.4387 7.9783 2.5504.32698.98093.65396 3.3352 1.1771 6.932.4578 3.6622.71938 5.8202.71938 6.4742 0 .32697-.0655.65395-.19618.98095-1.1771.32697-2.0927.52315-2.8774.52315-.39238 0-1.0463-.0655-1.8965-.13067-.39237-.58859-.91555-1.5695-1.5695-2.7467-2.0926-3.9238-4.2507-6.6704-6.4742-8.2399-2.2234-1.6349-4.7085-2.4197-7.6513-2.4197-3.0082 0-5.5586.91555-7.5859 2.6158-1.5041 1.3079-2.2235 3.0082-2.2235 5.2317 0 1.4387.78477 2.8774 2.3543 4.3815 1.5041 1.5041 4.1853 2.6812 7.9783 3.466 5.7548 1.2425 10.006 2.5505 12.687 3.793 3.9238 1.8311 6.7358 4.0545 8.3053 6.5396s2.4196 5.3625 2.4196 8.6322c0 5.1009-1.9618 9.3516-5.8202 12.752-3.793 3.3352-9.3516 5.0355-16.741 5.0355-.91553 0-3.466-.19618-7.5205-.65394-1.8311-.1962-3.9892-.65397-6.4742-1.3079-.65396-.19619-2.2234-.78476-4.8393-1.8965-.45778-.26167-.78477-.58856-1.0464-.91553-.1307-.39238-.45776-2.2234-.85013-5.4933-.65394-5.3625-1.0463-8.5669-1.1117-9.6132z"/><path d="m481.57 155.98c5.1663-2.158 8.8938-4.3161 11.183-6.4088 2.3542-2.0926 4.7739-5.5586 7.3897-10.267h3.7276c.39237 1.1771.58857 2.3543.58857 3.5968 0 2.2888-.0655 4.0546-.0655 5.3625l-.19619 3.8584c0 .19618 0 .71934.0655 1.5041l1.5041.0655c.19619 0 2.2889-.0655 6.1472-.26167.32698 0 1.9619-.0655 4.9047-.13069.26169 1.1771.4578 2.2235.4578 3.139 0 1.0464-.19619 2.2234-.52316 3.5314-1.4387.19619-2.4851.2617-3.2698.2617-.32696 0-1.0463 0-2.0927-.13069h-3.4006l-1.1771-.0655-3.139.13069-.13071 25.112c-.0655 4.8393 0 7.9129.2617 9.09.26169 1.2425.78475 2.3542 1.5695 3.466.98094.4578 2.0927.71936 3.3352.71936 1.1771 0 2.0273-.1307 2.6158-.32696.58856-.2617 1.5695-.85014 2.8774-1.8965.26167-.26169.71933-.52317 1.2425-.91555 1.0463.78476 1.9618 1.6349 2.6158 2.4851l.26169.78475c-1.5695 2.4196-3.7276 4.3161-6.5396 5.6894-2.7466 1.3733-5.6894 2.0273-8.8284 2.0273-4.1199 0-7.3897-1.3079-9.9402-3.8584-2.5504-2.6158-3.7929-6.605-3.7929-12.033l.26169-11.51v-18.769l-2.0273-.0655-4.7739.0655-.85014-.19619c-.26169-.39238-.39236-.71935-.39236-1.1117 0-.26169.0655-1.2425.13067-2.9428z"/></g></g></svg>