<?xml version="1.0" standalone="no"?><!DOCTYPE svg PUBLIC "-//W3C//DTD SVG 1.1//EN" "http://www.w3.org/Graphics/SVG/1.1/DTD/svg11.dtd"><svg t="1513758984334" class="icon" style="" viewBox="0 0 2102 1024" version="1.1" xmlns="http://www.w3.org/2000/svg" p-id="699" xmlns:xlink="http://www.w3.org/1999/xlink" width="410.546875" height="200"><defs><style type="text/css"></style></defs><path d="M615.431638 10.989708c-7.33582 0-14.146795 1.570531-20.432923 3.669913 13.357523 8.906351 20.693343 20.697349 24.35925 34.058879 0.264426 1.834957 0.789272 3.145068 1.053698 4.980024 0.26042 1.570531 0.520839 3.141061 0.520839 4.715598 1.049691 23.053145-6.025709 25.937793-11.001727 39.559742-7.600246 17.556288-5.50487 36.418681 3.665907 51.615167 0.785265 1.834957 1.834957 3.930333 3.145067 5.769296-9.956042-66.290814 45.325032-76.242849 55.5455-96.944205 0.785265-18.077127-14.146795-30.128546-25.937793-38.514057-11.266153-6.810974-21.486621-8.910357-30.917818-8.910357z m83.31825 14.936066c-1.049691 6.025709-0.264426 4.451172-0.520839 7.59624-0.264426 2.095376-0.264426 4.715598-0.524846 6.810974-0.524846 2.099383-1.049691 4.194759-1.834956 6.290135-0.520839 2.095376-1.310111 4.190753-2.095377 6.290136-1.049691 2.095376-1.834957 3.926326-2.884648 6.025709-0.785265 1.045685-1.310111 2.095376-2.095376 3.141061l-1.570531 2.359802c-1.310111 1.834957-2.620222 3.665907-3.930332 5.240444-1.574537 1.570531-2.884648 3.405487-4.715599 4.715598v0.26042c-1.574537 1.310111-3.145068 2.884648-4.980024 4.194759-5.500863 4.190753-11.790999 7.331814-17.552282 11.266153-1.834957 1.310111-3.669913 2.355796-5.240444 3.926326-1.834957 1.314117-3.405487 2.620222-4.980024 4.194759-1.834957 1.570531-3.145068 3.145068-4.715598 4.976018-1.310111 1.574537-2.884648 3.405487-3.926327 5.240444-1.314117 1.834957-2.624228 3.669913-3.669913 5.50487-1.049691 2.095376-1.834957 3.926326-2.884648 6.025709-0.785265 2.095376-1.570531 3.926326-2.095376 6.025709a84.804645 84.804645 0 0 0-1.834957 6.550555c-0.26042 1.045685-0.26042 2.355796-0.520839 3.405487-0.264426 1.045685-0.264426 2.095376-0.524846 3.145068 0 2.095376-0.264426 4.451172-0.264426 6.546548 0 1.574537 0 3.145068 0.264426 4.719605 0 2.095376 0.26042 4.190753 0.785266 6.546548 0.264426 2.099383 0.785265 4.194759 1.310111 6.290136 0.785265 2.095376 1.310111 4.190753 2.095376 6.290135 0.524846 1.306105 1.310111 2.616215 1.834957 3.665907l-60.257092-23.317572c-10.220468-2.884648-20.17651-5.50487-30.396978-7.860666l-16.506597-3.930332a486.487873 486.487873 0 0 0-47.684834-7.075401c-0.520839 0-0.785265-0.26042-1.310111-0.26042a468.458823 468.458823 0 0 0-46.899569-2.359802c-11.526573 0-23.057152 0.520839-34.323305 1.310111-15.981751 1.049691-31.963502 3.145068-47.945253 5.76529-3.926326 0.520839-7.860666 1.310111-11.786993 2.095376-8.125092 1.570531-15.985758 3.405487-23.581997 5.240444l-11.790999 3.145067c-3.926326 1.570531-7.59624 3.405487-11.266153 4.976018l-8.645931 3.930333c-0.520839 0.264426-1.049691 0.264426-1.310111 0.520839-2.620222 1.314117-4.976018 2.363809-7.331814 3.669914-0.789272 0.264426-1.314117 0.524846-1.838963 0.789271-2.880642 1.310111-5.761283 2.880642-8.121085 4.190753-1.834957 0.785265-3.669913 1.834957-5.240444 2.620222-0.785265 0.520839-1.834957 1.049691-2.355796 1.310111-2.359802 1.310111-4.719605 2.620222-6.810974 3.926326-2.363809 1.314117-4.455179 2.624228-6.290136 3.93434-1.834957 1.310111-3.669913 2.355796-5.240443 3.665906-0.264426 0.264426-0.520839 0.264426-0.785266 0.52084-1.574537 1.053698-3.405487 2.363809-4.980024 3.669913l-0.520839 0.524846-3.930333 3.145067c-0.524846 0.26042-1.049691 0.785265-1.574537 1.049692-1.310111 1.045685-2.620222 2.355796-3.926327 3.405487-0.264426 0.520839-0.789272 0.785265-1.049691 1.045685-1.574537 1.574537-3.145068 2.884648-4.719605 4.455178-0.26042 0-0.26042 0.264426-0.520839 0.520839-1.574537 1.314117-3.145068 2.884648-4.715598 4.455179-0.264426 0.264426-0.264426 0.524846-0.524846 0.524846-1.310111 1.310111-2.620222 2.620222-3.930333 4.190752-0.520839 0.524846-1.310111 1.049691-1.834956 1.574537-1.310111 1.570531-2.884648 3.145068-4.451172 4.715598-0.264426 0.520839-0.789272 0.785265-1.049692 1.310111-2.095376 2.095376-3.930333 4.190753-6.025709 6.290136l-0.785265 0.785265c-4.194759 4.451172-8.649938 8.906351-13.365536 12.836684a148.879889 148.879889 0 0 1-14.67164 11.526572 197.958969 197.958969 0 0 1-15.721332 9.956042 159.681293 159.681293 0 0 1-16.506597 7.860666 188.796205 188.796205 0 0 1-17.027436 6.290135c-11.005733 2.355796-22.271886 6.810974-31.967509 7.59624-2.095376 0-4.451172 0.524846-6.546548 0.785265-2.359802 0.524846-4.455179 1.049691-6.550555 1.574537l-6.290135 2.355796c-2.095376 0.789272-4.190753 1.834957-6.290135 2.884648-1.83095 1.310111-3.926326 2.355796-5.761283 3.665907-1.834957 1.310111-3.669913 2.884648-5.240444 4.455179-1.834957 1.310111-3.665907 3.145068-5.240444 4.715598-1.570531 1.834957-3.145068 3.405487-4.455179 5.240444-1.306105 2.095376-2.880642 3.930333-3.926326 6.025709-1.310111 1.834957-2.620222 3.930333-3.669913 6.025709-1.049691 2.359802-2.095376 4.455179-2.884648 6.810974a201.885296 201.885296 0 0 0-2.355796 6.810975c-0.520839 2.099383-1.049691 4.194759-1.310111 6.290135 0 0.264426-0.26042 0.524846-0.26042 0.789272-0.524846 2.355796-0.524846 5.500863-0.789272 7.071394-0.26042 1.834957-0.520839 3.405487-0.520839 5.240444 0 1.049691 0 2.359802 0.26042 3.405487 0.264426 1.834957 0.520839 3.405487 1.049691 4.980024 0.520839 1.570531 1.049691 3.145068 1.834957 4.715598v0.264427c0.785265 1.570531 1.83095 3.141061 2.880641 4.715598 1.049691 1.570531 2.095376 3.141061 3.405487 4.715598 1.310111 1.310111 2.884648 2.884648 4.455179 4.190752 1.570531 1.570531 3.145068 2.884648 4.976018 4.190753 6.290135 5.50487 7.860666 7.33582 15.985758 11.530579 1.310111 0.785265 2.620222 1.310111 4.190752 2.095376 0.26042 0 0.520839 0.26042 0.785265 0.26042 0 0.524846 0 0.789272 0.264426 1.310111 0.26042 2.099383 0.785265 4.194759 1.310111 6.290135 0.520839 2.355796 1.310111 4.455179 2.095377 6.290135 0.785265 1.570531 1.310111 3.141061 2.095376 4.715599 0.26042 0.520839 0.520839 1.045685 0.785265 1.306104 1.049691 2.099383 2.095376 3.930333 3.145068 5.769296l3.926326 5.500864c1.314117 1.570531 2.884648 3.405487 4.459185 4.976017 1.570531 1.570531 3.141061 2.884648 4.976018 4.455179 0 0 0.264426 0.26042 0.520839 0.26042 1.574537 1.310111 3.145068 2.620222 4.719605 3.669913 1.834957 1.310111 3.665907 2.355796 5.76529 3.405487 1.83095 1.049691 3.926326 2.095376 6.025709 2.884648 1.570531 0.781259 3.405487 1.306105 5.240444 1.83095 0.26042 0.264426 0.520839 0.264426 1.045684 0.520839 1.049691 0.264426 2.359802 0.524846 3.405488 0.789272-0.785265 14.146795-1.045685 27.51233 1.049691 32.227929 2.359802 5.240444 13.886375-10.745314 25.412948-29.086868-1.570531 18.081134-2.620222 39.303329 0 45.593465 2.884648 6.550555 18.60598-13.886375 32.227928-36.418681 185.763318-42.969236 355.28046 85.413626 373.097168 266.721765-3.405487-28.297596-38.253638-44.014921-54.235389-40.088594-7.860666 19.387238-21.222195 44.279347-42.708817 59.736252 1.834957-17.291862 1.049691-35.10857-2.620222-52.404438-5.76529 24.106843-17.027436 46.635143-32.488348 66.026387-24.892108 1.834957-49.78021-10.216462-62.88132-28.293589-1.049691-0.785265-1.310111-2.359802-2.095376-3.405487-0.785265-1.834957-1.570531-3.669913-2.095376-5.50487a21.751047 21.751047 0 0 1-1.574537-5.500863c-0.26042-1.834957-0.26042-3.665907-0.26042-5.76529v-3.926326c0.26042-1.834957 0.785265-3.669913 1.310111-5.50487 0.520839-1.834957 1.049691-3.665907 1.834957-5.500864 1.045685-1.834957 1.83095-3.669913 3.141061-5.500863 4.455179-12.58027 4.455179-22.796732-3.665907-28.822442a29.844087 29.844087 0 0 0-4.980024-2.620222c-1.045685-0.264426-2.355796-0.785265-3.405487-1.049691-0.785265-0.26042-1.310111-0.520839-2.095377-0.785265-1.834957-0.520839-3.669913-1.049691-5.500863-1.310111a19.964168 19.964168 0 0 0-5.50487-0.785265c-1.83095-0.264426-3.926326-0.520839-5.761283-0.52084-1.310111 0-2.620222 0.26042-3.930333 0.26042-2.095376 0-3.930333 0.26042-5.76529 0.785265-1.834957 0.26042-3.665907 0.520839-5.500863 1.049692-1.834957 0.520839-3.669913 1.045685-5.500864 1.83095-1.834957 0.789272-3.405487 1.574537-5.240443 2.359802-1.574537 0.785265-3.145068 1.834957-4.980025 2.620222-61.046363 39.824168-24.627682 133.094454 17.027436 160.085945-15.717325 2.884648-31.699076 6.290135-36.154255 9.695622l-0.520839 0.520839c11.266153 6.810974 23.053145 12.58027 35.36899 17.556289 16.767017 5.500863 34.583724 10.476881 42.44439 12.576264v0.260419a253.48043 253.48043 0 0 0 66.026388 4.715599c116.067018-8.121085 211.176266-96.419359 228.468128-212.742791 0.520839 2.355796 1.049691 4.451172 1.57053 6.810975 0.785265 4.715598 1.834957 9.695622 2.359803 14.67164v0.26042c0.520839 2.359802 0.785265 4.715598 1.049691 6.810974v1.049692c0.26042 2.359802 0.520839 4.715598 0.520839 6.810974 0.264426 2.884648 0.520839 5.769296 0.52084 8.649938v4.190752c0 1.310111 0.264426 2.884648 0.264426 4.190753 0 1.574537-0.26042 3.145068-0.26042 4.715598v3.669913c0 1.834957-0.264426 3.405487-0.264426 5.240444 0 1.049691 0 2.095376-0.26042 3.405487 0 1.834957-0.264426 3.669913-0.264426 5.76529-0.26042 0.785265-0.26042 1.570531-0.260419 2.355796-0.264426 2.099383-0.520839 3.930333-0.785266 6.025709 0 0.789272 0 1.574537-0.264426 2.359802-0.26042 2.620222-0.785265 4.980024-1.045685 7.600246v0.524846c-0.524846 2.355796-1.049691 4.976018-1.574537 7.331814v0.789271l-1.57053 7.075401c0 0.26042-0.264426 0.785265-0.264426 1.045685-0.520839 2.359802-1.045685 4.715598-1.83095 7.0754v0.785266c-0.789272 2.620222-1.574537 4.980024-2.099383 7.33582-0.26042 0.264426-0.26042 0.520839-0.26042 0.520839l-2.359802 7.864672c-1.045685 2.620222-1.83095 4.976018-2.880642 7.59624-1.049691 2.620222-1.834957 5.240444-2.884648 7.600246-1.045685 2.620222-2.095376 4.976018-3.141061 7.59624h-0.264426c-1.045685 2.359802-2.095376 4.980024-3.405487 7.33582-0.26042 0.789272-0.520839 1.310111-0.785265 1.834957-0.264426 0.264426-0.264426 0.520839-0.52084 0.785265-17.031443 34.323305-42.187977 64.451851-73.626633 88.033848-2.095376 1.310111-4.190753 2.884648-6.290136 4.455178-0.520839 0.520839-1.306105 0.785265-1.83095 1.310111-1.834957 1.310111-3.669913 2.620222-5.765289 3.926327l0.785265 1.574537h0.264426l11.005733-1.570531h0.26042c6.810974-1.049691 13.621949-2.359802 20.43693-3.669913 1.834957-0.26042 3.926326-0.785265 5.765289-1.310111 1.310111-0.26042 2.355796-0.520839 3.665907-0.785265 1.834957-0.26042 3.669913-0.785265 5.50487-1.045685 1.570531-0.524846 3.141061-0.789272 4.715598-1.310111 26.202219-6.290135 51.615167-14.936066 75.98243-25.152528-41.659125 56.851604-97.465044 102.705488-162.706167 132.83804 30.128546-2.099383 60.257092-7.075401 89.343959-15.460912 105.590136-31.178237 194.409249-102.180643 247.594947-197.814736a418.245915 418.245915 0 0 1-70.477559 168.471456 412.45258 412.45258 0 0 0 69.952714-58.165722c58.694574-61.310789 97.208631-139.124169 110.309741-222.702839a417.224269 417.224269 0 0 1 7.596239 126.287486c189.168806-263.841124 15.721332-537.385884-56.851604-609.421955-0.264426-0.520839-0.528852-0.785265-0.528852-1.310111-0.26042 0.264426-0.26042 0.264426-0.26042 0.524846 0-0.264426 0-0.264426-0.264426-0.520839 0 3.141061-0.26042 6.286129-0.520839 9.42719-0.785265 6.029716-1.574537 11.790999-2.620222 17.556288-1.310111 5.76529-2.884648 11.526573-4.455179 17.291862a217.899098 217.899098 0 0 1-6.290135 16.767017 224.96248 224.96248 0 0 1-7.856659 15.985757c-2.884648 4.976018-6.025709 10.216462-9.435203 14.93206a200.2747 200.2747 0 0 1-10.737301 14.150801c-3.934339 4.715598-8.125092 8.906351-12.315844 13.10111a168.984283 168.984283 0 0 1-7.600247 6.546548c-2.095376 1.834957-3.926326 3.405487-6.025709 5.240444-4.715598 3.669913-9.431196 7.075401-14.67164 10.216462-4.980024 3.145068-10.216462 6.290135-15.456905 8.910357-5.50487 2.620222-11.005733 4.980024-16.506597 7.33582-5.50487 2.095376-11.266153 3.930333-17.031443 5.50487a211.020014 211.020014 0 0 1-17.556288 3.926326c-6.025709 1.049691-12.051418 1.574537-17.816708 2.099383-4.190753 0.26042-8.381505 0.520839-12.576264 0.520839-6.025709 0-12.051418-0.520839-17.812701-1.045685-6.029716-0.524846-12.055425-1.310111-17.816708-2.620222-6.025709-1.049691-11.790999-2.620222-17.556289-4.455178h-0.260419c5.761283-0.520839 11.526573-1.049691 17.291862-2.095376a189.897981 189.897981 0 0 0 17.552282-3.930333 184.449201 184.449201 0 0 0 17.031442-5.500864c5.76529-2.099383 11.266153-4.719605 16.506597-7.339826 5.500863-2.620222 10.480888-5.500863 15.721332-8.645931 4.976018-3.405487 9.956042-6.810974 14.67164-10.476882a143.258831 143.258831 0 0 0 13.361529-11.790998c4.455179-3.930333 8.385511-8.385511 12.315845-12.840691a258.700842 258.700842 0 0 0 11.001727-14.146794c0.524846-0.785265 1.049691-1.834957 1.574537-2.620222 2.620222-4.190753 5.240444-8.385511 7.59624-12.576264a180.627042 180.627042 0 0 0 7.860665-15.985758 183.615858 183.615858 0 0 0 6.290136-16.76301c1.83095-5.50487 3.141061-11.266153 4.451172-17.031442 1.049691-6.025709 2.095376-11.790999 2.620222-17.556289 0.520839-6.025709 1.049691-12.051418 1.049691-17.812701 0-4.194759-0.264426-8.385511-0.520839-12.58027-0.524846-6.025709-1.314117-11.786992-2.099383-17.552282a189.914006 189.914006 0 0 0-3.926326-17.552282c-1.838963-5.50487-3.669913-11.266153-5.769296-16.771023-2.095376-5.500863-4.715598-11.001727-7.331814-16.242171-2.884648-5.240444-5.769296-10.480888-8.910357-15.460912-3.405487-4.976018-6.810974-9.695622-10.480888-14.407214-3.926326-4.455179-7.860666-8.910357-12.051418-13.365536a163.876052 163.876052 0 0 0-6.810975-6.550555 482.405294 482.405294 0 0 0-36.418681-25.673367c-1.834957-1.049691-3.405487-1.834957-5.240444-2.620222-8.645931-5.50487-16.771023-8.385511-24.892108-11.005733z" fill="#E0234E" p-id="700"></path><path d="M1150.453713 645.031332a54.447731 54.447731 0 0 1 12.576264-4.190753c9.695622-1.574537 15.196486-2.884648 16.767017-3.930332 2.620222-1.574537 4.455179-3.669913 5.240444-5.769296 1.049691-3.665907 1.574537-11.262147 1.574537-23.317572v-22.792726l0.26042-18.601973-0.785266-27.77275v-16.506596c0-11.001727-0.785265-20.172504-2.620222-26.983479-0.520839-2.620222-2.884648-5.240444-6.550555-7.860665-4.976018-3.669913-13.10111-7.075401-24.892108-10.480888l-0.26042-12.580271c2.095376-0.520839 4.190753-1.041678 6.02571-1.306104 1.834957-0.264426 8.910357-2.095376 21.222195-5.240444 9.695622-3.405487 15.985758-6.025709 18.601973-7.33582 1.049691-0.520839 2.359802-1.310111 4.455178-2.359803 2.095376-1.83095 4.455179-3.405487 7.075401-5.240443 5.236437-3.665907 11.526573-10.216462 18.862393-19.126819l13.886375-1.045685-0.52084 29.607706c-0.264426 2.880642-0.264426 5.236437-0.264426 7.071395 0 1.574537 0 5.50487 0.26042 12.051418 14.675647-12.576264 27.77275-21.222195 39.824168-26.20222 15.460912-6.546548 30.392972-9.691616 44.283354-9.691615 16.506597 0 31.178237 4.194759 43.494081 12.315844 12.576264 8.121085 20.697349 17.552282 24.363256 28.033169 3.930333 10.741307 5.76529 32.492355 5.76529 64.716277l-1.049691 85.938472c0 3.930333 0.789272 7.33582 2.095376 9.956042 1.834957 1.310111 6.810974 2.620222 14.675646 3.930333l12.836684 2.359802c1.570531 2.355796 2.359802 4.976018 2.359802 8.381505 0 2.099383 0 4.980024-0.264426 8.645931l-51.615167-3.665907-15.196486 0.52084h-12.051418l-34.84815 2.624228h-8.906351c-0.264426-2.359802-0.264426-3.930333-0.264426-5.240444 0-3.145068 0.264426-6.550555 0.524846-10.216462 2.359802-0.524846 8.645931-1.314117 18.341553-2.624228 2.620222-0.26042 5.500863-1.045685 8.906351-1.83095 3.405487-1.310111 5.50487-2.884648 6.025709-4.194759 1.310111-3.145068 2.095376-8.645931 2.095376-17.027436 0-14.936066-0.26042-26.202219-0.520839-34.062885l0.26042-30.392972c0-37.203946-2.095376-60.261098-6.810975-69.167449-6.810974-13.361529-16.767017-19.912084-30.128546-19.912084-9.695622 0-19.912084 2.620222-30.392971 7.59624-10.745314 4.980024-21.486621 12.58027-32.752775 22.796732l-0.520839 4.455178 0.520839 16.506597-0.260419 17.552282 1.045685 42.183971-0.52084 6.550554c0 28.558015 1.045685 44.804193 3.405488 48.4701 2.355796 3.665907 11.001727 7.59624 26.202219 12.051418 0.520839 2.884648 0.785265 5.240444 0.785265 6.550555 0 2.095376-0.789272 5.240444-1.834956 9.695622-5.50487 0.26042-10.216462 0.26042-13.886375 0.26042s-9.435203-0.520839-17.291863-1.570531l-28.037175-0.520839c-14.146795 0-34.323305 0.520839-60.785944 1.83095a13.682046 13.682046 0 0 1-1.049692-5.500863c0-1.310111 0-4.194759 0.264426-8.385512zM1459.872276 519.028305c4.715598-14.936066 8.645931-24.892108 12.315845-29.607707 9.695622-14.411221 20.172504-25.677374 31.178237-33.798459 11.266153-8.121085 21.222195-13.361529 30.128546-15.981751 11.790999-3.405487 20.961775-4.976018 28.297595-4.976018 16.506597 0 29.868126 1.310111 39.824168 3.926326 10.216462 2.363809 18.866399 6.029716 25.677374 10.745314 9.695622 6.810974 17.556288 13.886375 23.581998 20.69735 6.025709 7.075401 10.737301 15.456906 14.407214 24.892108 3.930333 9.431196 6.029716 20.957769 6.550555 34.323305l-29.343281-0.524846c-8.121085 0-25.677374-0.785265-53.185698-2.359802-10.216462-0.520839-17.027436-1.045685-20.961775-1.045685-1.310111 0-10.737301 0.26042-28.293589 0.260419h-22.796732c-0.26042 2.620222-0.520839 4.715598-0.520839 6.290136 0 9.431196 1.306105 19.126819 3.405487 29.607706 2.355796 10.216462 5.761283 19.122812 10.216461 26.983478 4.715598 7.860666 10.216462 14.411221 17.027437 19.912085a69.692294 69.692294 0 0 0 20.961775 12.315844l15.196486 4.976018c13.625955 0 22.532306-0.520839 27.251911-1.310111 8.381505-1.83095 15.717325-3.926326 22.00746-6.546549 6.550555-2.884648 14.146795-7.600246 23.317571-14.150801 6.290135 4.715598 11.526573 8.645931 15.985758 12.580271-15.464918 16.76301-31.707089 29.343281-48.213686 36.93952-16.506597 7.59624-35.10857 11.266153-55.5455 11.266153-13.886375 0-25.152528-1.049691-34.058879-3.669913-11.530579-3.141061-22.271886-7.856659-31.703083-14.407214s-17.556288-14.67164-24.367262-24.106843c-6.810974-9.695622-12.051418-19.647658-15.456906-29.868127-4.194759-13.361529-6.550555-24.102837-6.550555-31.963502 0-15.456906 1.310111-29.086867 3.665907-41.398705z m153.010544-11.266153c-0.264426-9.956042-2.095376-19.126819-5.765289-28.297596-3.665907-8.906351-9.431196-15.717325-17.291862-20.697349-7.59624-4.980024-15.456906-7.600246-23.317572-7.600247-11.790999 0-22.271886 5.240444-31.963502 15.460912-9.435203 10.480888-14.67164 24.367263-15.985758 42.183971l60.004685 0.26042c3.926326 0 9.431196-0.26042 16.242171-0.785266 5.240444-0.520839 8.906351-0.785265 11.005733-0.785265 1.570531 0 3.926326 0 7.071394 0.264426zM1713.480913 584.77424c5.240444-1.049691 9.170777-1.570531 11.526573-1.57053 1.310111 0 3.145068 0 5.50487 0.260419l2.355795 2.620222c9.695622 16.767017 15.721332 26.723059 18.8664 30.392972 6.025709 7.075401 12.051418 12.836684 18.077127 17.291862 3.930333 2.620222 10.216462 5.76529 18.866399 8.645931 5.761283 2.095376 12.051418 3.145068 18.601974 3.145068 11.001727 0 20.432923-3.405487 28.293589-10.480888 7.860666-7.33582 11.790999-14.936066 11.790998-23.317571 0-5.500863-1.570531-10.216462-4.451172-14.150801-2.884648-3.926326-8.910357-7.856659-17.816708-11.786992-4.455179-1.834957-15.460912-4.980024-33.277619-9.435203-17.552282-4.451172-28.03317-7.331814-31.699077-8.645931a71.134618 71.134618 0 0 1-22.011467-13.10111c-6.550555-5.761283-11.266153-12.051418-14.67164-19.122812-4.455179-9.956042-6.810974-18.60598-6.810974-25.68138 0-13.357523 2.095376-24.102837 5.761283-32.748768a72.512839 72.512839 0 0 1 16.506597-22.532306c4.980024-4.976018 12.58027-9.431196 22.796732-13.361529 10.216462-3.926326 21.482615-6.025709 33.013194-6.02571 16.767017 0 31.438657 1.049691 44.01492 3.405488 12.576264 2.359802 23.317571 5.76529 31.963503 10.216461 1.310111 3.930333 2.620222 13.365536 4.715598 27.77275 1.834957 14.675647 2.884648 23.317571 2.884648 25.9418 0 1.310111-0.264426 2.620222-0.789272 3.926326-4.715598 1.314117-8.381505 2.099383-11.526572 2.099383-1.570531 0-4.190753-0.264426-7.600247-0.520839-1.570531-2.363809-3.665907-6.290135-6.286128-11.00974-8.385511-15.717325-17.027436-26.723059-25.937794-33.013194-8.910357-6.546548-18.866399-9.695622-30.657398-9.695622-12.051418 0-22.26788 3.669913-30.388965 10.484894-6.029716 5.240444-8.910357 12.051418-8.910357 20.957769 0 5.76529 3.145068 11.530579 9.431196 17.556288 6.025709 6.025709 16.771023 10.741307 31.967509 13.886375 23.053145 4.976018 40.088594 10.216462 50.829902 15.196486 15.717325 7.331814 26.983478 16.242171 33.273613 26.202219 6.290135 9.956042 9.695622 21.482615 9.695623 34.583725 0 20.432923-7.860666 37.464366-23.317572 51.090321-15.200492 13.361529-37.468372 20.172504-67.076079 20.172504-3.665907 0-13.886375-0.785265-30.128545-2.620222-7.33582-0.785265-15.985758-2.620222-25.937794-5.240444-2.620222-0.785265-8.910357-3.141061-19.391245-7.59624a14.567472 14.567472 0 0 1-4.190752-3.669913c-0.520839-1.570531-1.834957-8.906351-3.405487-22.00746-2.620222-21.486621-4.190753-34.323305-4.455179-38.514058zM1929.388803 459.0116c20.697349-8.645931 35.633416-17.291862 44.804193-25.677373 9.431196-8.381505 19.126819-22.26788 29.607706-41.13428h14.93206c1.574537 4.715598 2.359802 9.431196 2.359802 14.411221 0 9.170777-0.264426 16.246177-0.264426 21.482615l-0.785265 15.460912c0 0.785265 0 2.884648 0.264426 6.025709l6.025709 0.26042c0.785265 0 9.170777-0.26042 24.627683-1.045685 1.310111 0 7.860666-0.264426 19.651664-0.52084 1.045685 4.711592 1.83095 8.906351 1.83095 12.572258 0 4.194759-0.785265 8.910357-2.095376 14.150801-5.761283 0.785265-9.956042 1.045685-13.10111 1.045685-1.306105 0-4.190753 0-8.381505-0.520839h-13.621949l-4.719604-0.264426-12.576264 0.520839-0.520839 100.614118c-0.264426 19.387238 0 31.703083 1.045684 36.418681 1.049691 4.976018 3.145068 9.431196 6.290136 13.886375 3.926326 1.834957 8.381505 2.884648 13.361529 2.884648 4.715598 0 8.121085-0.528852 10.480888-1.314117 2.355796-1.049691 6.290135-3.405487 11.526572-7.59624 1.049691-1.049691 2.884648-2.099383 4.980025-3.669913 4.190753 3.145068 7.856659 6.550555 10.476881 9.956042l1.049691 3.145068c-6.290135 9.695622-14.936066 17.291862-26.202219 22.796732-11.001727 5.500863-22.792726 8.121085-35.36899 8.121085-16.506597 0-29.607707-5.240444-39.824168-15.460912-10.216462-10.480888-15.196486-26.462639-15.196486-48.20968l1.049691-46.114303v-75.197165l-8.125092-0.260419-19.126818 0.260419-3.405488-0.785265c-1.045685-1.570531-1.570531-2.884648-1.57053-4.455178 0-1.045685 0.26042-4.976018 0.520839-11.786993z" fill="#EB2845" p-id="701"></path></svg>