<svg xmlns="http://www.w3.org/2000/svg" width="44" height="44" viewBox="0 0 24 24" fill="none" stroke="currentColor" stroke-width="1.25" stroke-linecap="round" stroke-linejoin="round" class="lucide lucide-replace-all">
  <defs>
    <linearGradient id="grad" x1="0%" x2="100%" y1="0%" y2="0%">
      <stop offset="0%" stop-color="#ea2845" />
      <stop offset="100%" stop-color="#ea2868" />
    </linearGradient>
  </defs>
  <path stroke="url(#grad)" d="M14 4c0-1.1.9-2 2-2"/>
  <path stroke="url(#grad)" d="M20 2c1.1 0 2 .9 2 2"/>
  <path stroke="url(#grad)" d="M22 8c0 1.1-.9 2-2 2"/>
  <path stroke="url(#grad)" d="M16 10c-1.1 0-2-.9-2-2"/>
  <path d="m3 7 3 3 3-3"/>
  <path d="M6 10V5c0-1.7 1.3-3 3-3h1"/>
  <rect width="8" height="8" x="2" y="14" rx="2"/>
  <path d="M14 14c1.1 0 2 .9 2 2v4c0 1.1-.9 2-2 2"/>
  <path d="M20 14c1.1 0 2 .9 2 2v4c0 1.1-.9 2-2 2"/>
</svg>